<?xml version="1.0" encoding="UTF-8" standalone="no"?>
<!-- Created with Inkscape (http://www.inkscape.org/) -->

<svg
   width="16.933332mm"
   height="16.932348mm"
   viewBox="0 0 16.933332 16.932348"
   version="1.1"
   id="svg1"
   xml:space="preserve"
   inkscape:version="1.4.2 (f4327f4, 2025-05-13)"
   sodipodi:docname="ausgemustertlink.svg"
   xmlns:inkscape="http://www.inkscape.org/namespaces/inkscape"
   xmlns:sodipodi="http://sodipodi.sourceforge.net/DTD/sodipodi-0.dtd"
   xmlns="http://www.w3.org/2000/svg"
   xmlns:svg="http://www.w3.org/2000/svg"><sodipodi:namedview
     id="namedview1"
     pagecolor="#ffffff"
     bordercolor="#000000"
     borderopacity="0.25"
     inkscape:showpageshadow="2"
     inkscape:pageopacity="0.0"
     inkscape:pagecheckerboard="0"
     inkscape:deskcolor="#d1d1d1"
     inkscape:document-units="mm"
     inkscape:zoom="0.73851712"
     inkscape:cx="123.89693"
     inkscape:cy="274.19811"
     inkscape:window-width="1920"
     inkscape:window-height="1046"
     inkscape:window-x="-11"
     inkscape:window-y="-11"
     inkscape:window-maximized="1"
     inkscape:current-layer="layer1" /><defs
     id="defs1" /><g
     inkscape:label="Ebene 1"
     inkscape:groupmode="layer"
     id="layer1"
     transform="translate(-47.089201,-71.417674)"><path
       style="fill:#000000;stroke-width:0.126908"
       d="m 59.727024,88.332242 c -0.502139,-0.07909 -0.882102,-0.199221 -1.289875,-0.407831 -0.974431,-0.498499 -1.67483,-1.376259 -1.956953,-2.452504 -0.103413,-0.394506 -0.14064,-1.097081 -0.08008,-1.511278 0.04831,-0.330384 0.210922,-0.859921 0.346679,-1.12893 0.362728,-0.71876 1.025672,-1.38578 1.734109,-1.744767 0.268333,-0.135973 0.825458,-0.309707 1.141209,-0.355876 0.42491,-0.06213 1.121383,-0.02575 1.523302,0.07958 2.161662,0.566471 3.382383,2.81611 2.676723,4.932873 -0.186431,0.559235 -0.500109,1.06529 -0.921545,1.486726 -0.564643,0.564643 -1.279371,0.932512 -2.082298,1.071752 -0.272781,0.04731 -0.876708,0.06405 -1.091274,0.03025 z m 1.141641,-2.479172 v -0.654765 h 0.654765 0.654766 V 84.526751 83.855197 H 61.52343 60.868665 v -0.654765 -0.654766 h -0.671554 -0.671553 v 0.654766 0.654765 h -0.654766 -0.654764 v 0.671554 0.671554 h 0.654764 0.654766 v 0.654765 0.654765 h 0.671553 0.671554 z M 49.791833,85.699606 c -0.44879,-0.07936 -1.027262,-0.327563 -1.380493,-0.592327 -0.268947,-0.20159 -0.605956,-0.557235 -0.791398,-0.83516 -0.210916,-0.316104 -0.318477,-0.54749 -0.441386,-0.949513 -0.08084,-0.264412 -0.08874,-0.340539 -0.08933,-0.860883 -5.84e-4,-0.513404 0.0083,-0.603844 0.08821,-0.899121 0.107334,-0.396565 0.327199,-0.871371 0.566841,-1.224117 0.232225,-0.341827 3.275636,-3.399588 3.675045,-3.692372 0.654135,-0.479509 1.381573,-0.719685 2.17977,-0.719685 0.86766,0 1.662282,0.299369 2.247356,0.846677 0.282841,0.264584 0.368685,0.458484 0.347505,0.784924 -0.01741,0.268245 -0.07485,0.400356 -0.250402,0.575913 -0.171365,0.171366 -0.381106,0.256485 -0.631996,0.256485 -0.253712,0 -0.439835,-0.07749 -0.67996,-0.283078 -0.644641,-0.551933 -1.513538,-0.514436 -2.266292,0.0978 -0.124552,0.101303 -0.887834,0.858713 -1.696181,1.683136 -1.560646,1.591678 -1.607952,1.648823 -1.738072,2.099554 -0.0419,0.145125 -0.05358,0.284479 -0.04395,0.524221 0.01187,0.295524 0.02499,0.350575 0.138118,0.57947 0.147902,0.299259 0.445752,0.596779 0.717956,0.717161 0.189465,0.08379 0.627656,0.150557 0.817136,0.124507 0.20503,-0.02819 0.543626,-0.151033 0.753749,-0.273466 0.142161,-0.08283 0.473489,-0.386204 1.102792,-1.009739 0.78594,-0.778734 0.906827,-0.886153 0.956965,-0.850349 0.115798,0.08269 0.431908,0.213677 0.677863,0.280883 0.352271,0.09626 1.062937,0.124112 1.31102,0.05139 l 0.180007,-0.05277 -1.324373,1.327501 c -0.728405,0.730126 -1.422589,1.406678 -1.542628,1.503449 -0.423838,0.341677 -0.889493,0.578593 -1.427052,0.726052 -0.305603,0.08383 -1.136832,0.120035 -1.456823,0.06345 z m 4.646703,-4.499573 c -0.703308,-0.09606 -1.326029,-0.386217 -1.819438,-0.847762 -0.330514,-0.30917 -0.423273,-0.653987 -0.279384,-1.038566 0.12673,-0.338716 0.453963,-0.561455 0.822871,-0.560107 0.272703,0.001 0.411994,0.05733 0.679638,0.274858 0.272875,0.221782 0.365297,0.271001 0.648169,0.345175 0.402847,0.105633 0.898006,0.02261 1.3361,-0.224011 0.263109,-0.148116 3.230914,-3.097549 3.460124,-3.438702 0.55418,-0.824837 0.371307,-1.819872 -0.424947,-2.312196 -0.342793,-0.211949 -0.953292,-0.246064 -1.37338,-0.07675 -0.354258,0.142786 -0.538053,0.295712 -1.432639,1.192033 l -0.867634,0.869317 -0.257218,-0.129777 c -0.355309,-0.179267 -0.712876,-0.264228 -1.197393,-0.284511 -0.296868,-0.01242 -0.451533,-0.0037 -0.587565,0.03321 -0.101547,0.02755 -0.188309,0.0464 -0.192804,0.04191 -0.0045,-0.0045 0.622549,-0.634407 1.39343,-1.399806 0.974957,-0.968024 1.480981,-1.445811 1.66238,-1.569617 0.352874,-0.24084 0.827675,-0.46059 1.224116,-0.566555 0.283773,-0.07585 0.398889,-0.0881 0.848754,-0.09032 0.394083,-0.002 0.581602,0.01218 0.772288,0.05817 0.630548,0.152111 1.093813,0.412376 1.564248,0.878802 0.654735,0.649158 0.940085,1.288845 0.977847,2.192105 0.03677,0.879516 -0.178313,1.578581 -0.715541,2.325674 -0.267893,0.372541 -3.413835,3.497488 -3.727644,3.702767 -0.443486,0.290105 -0.901995,0.483898 -1.361072,0.575269 -0.337272,0.06713 -0.859637,0.08949 -1.153306,0.04938 z"
       id="path1" /></g></svg>
