<?xml version="1.0" encoding="UTF-8" standalone="no"?>
<!-- Created with Inkscape (http://www.inkscape.org/) -->

<svg
   width="16.933332mm"
   height="16.933332mm"
   viewBox="0 0 16.933332 16.933332"
   version="1.1"
   id="svg1"
   xml:space="preserve"
   inkscape:version="1.4.2 (f4327f4, 2025-05-13)"
   sodipodi:docname="dll.svg"
   xmlns:inkscape="http://www.inkscape.org/namespaces/inkscape"
   xmlns:sodipodi="http://sodipodi.sourceforge.net/DTD/sodipodi-0.dtd"
   xmlns="http://www.w3.org/2000/svg"
   xmlns:svg="http://www.w3.org/2000/svg"><sodipodi:namedview
     id="namedview1"
     pagecolor="#ffffff"
     bordercolor="#000000"
     borderopacity="0.25"
     inkscape:showpageshadow="2"
     inkscape:pageopacity="0.0"
     inkscape:pagecheckerboard="0"
     inkscape:deskcolor="#d1d1d1"
     inkscape:document-units="mm"
     inkscape:zoom="4.1776837"
     inkscape:cx="39.13652"
     inkscape:cy="59.243356"
     inkscape:window-width="1920"
     inkscape:window-height="1046"
     inkscape:window-x="-11"
     inkscape:window-y="-11"
     inkscape:window-maximized="1"
     inkscape:current-layer="layer1" /><defs
     id="defs1" /><g
     inkscape:label="Ebene 1"
     inkscape:groupmode="layer"
     id="layer1"
     transform="translate(48.132732,-8.6132259)"><path
       style="fill:#000000;stroke-width:0.125088"
       d="m -43.289868,25.521576 c -1.026729,-0.151848 -1.864861,-0.908947 -2.139607,-1.932745 -0.06457,-0.24061 -0.07243,-0.371063 -0.08615,-1.429744 l -0.0151,-1.164976 -1.085951,-0.0099 -1.08595,-0.0099 -0.140493,-0.09929 c -0.07727,-0.05461 -0.171606,-0.158861 -0.209633,-0.231672 -0.06766,-0.129561 -0.06933,-0.17638 -0.07815,-2.194636 -0.006,-1.362524 0.0028,-2.105973 0.02569,-2.19111 0.04561,-0.169392 0.180315,-0.325359 0.346001,-0.400619 0.120793,-0.05487 0.237179,-0.06083 1.201101,-0.06148 l 1.067349,-7.51e-4 v -2.417407 c 0,-2.657268 0.0013,-2.678221 0.203638,-3.165607 0.197178,-0.4750685 0.624477,-0.9630085 1.077823,-1.2307845 0.265807,-0.157003 0.642593,-0.2884398 0.957273,-0.3339308 0.310324,-0.04486 5.504644,-0.04516 5.741032,-3.76e-4 0.247975,0.04703 0.5479,0.1945358 0.849024,0.4175648 0.316554,0.234455 3.230777,3.1261315 3.564307,3.5367305 0.295293,0.363525 0.4286,0.578108 0.514813,0.828689 0.06444,0.187294 0.06574,0.287489 0.06526,5.026222 -5e-4,5.266932 0.0085,5.00324 -0.187327,5.480493 -0.300508,0.732445 -0.894804,1.266698 -1.682112,1.512168 l -0.297865,0.09287 -4.2032,0.0048 c -2.31176,0.0026 -4.29256,-0.0084 -4.401777,-0.02459 z m 8.40457,-1.286876 c 0.563711,-0.09231 0.998225,-0.555143 1.080837,-1.151279 0.01887,-0.136171 0.02776,-1.935795 0.02228,-4.510577 -0.0085,-3.988558 -0.01306,-4.291224 -0.06637,-4.388648 -0.07726,-0.141195 -0.199592,-0.231978 -0.402365,-0.298597 -0.143653,-0.04719 -0.384099,-0.05843 -1.592334,-0.0744 -1.418442,-0.01875 -1.423541,-0.01906 -1.547534,-0.09616 -0.06842,-0.04254 -0.165228,-0.146792 -0.215124,-0.231672 l -0.09072,-0.154327 -0.01774,-1.456226 c -0.01856,-1.523327 -0.02258,-1.564937 -0.17196,-1.779413 -0.13746,-0.1973565 -0.02989,-0.1898025 -2.702935,-0.1898025 -1.68731,0 -2.503677,0.01157 -2.624507,0.03721 -0.250879,0.05323 -0.461171,0.1689875 -0.649955,0.3577715 -0.206257,0.206258 -0.331815,0.459973 -0.372029,0.751763 -0.01783,0.129331 -0.02752,1.193584 -0.02257,2.477272 l 0.0087,2.250533 3.709195,0.01655 3.709195,0.01655 0.116386,0.07976 c 0.06401,0.04386 0.152275,0.132133 0.196141,0.196152 l 0.07975,0.116395 v 2.191967 2.191969 l -0.101207,0.127181 c -0.05566,0.06995 -0.166795,0.160693 -0.246959,0.201649 l -0.145752,0.07447 h -3.666651 -3.666651 l 2.5e-4,0.968061 c 2.76e-4,1.061769 0.02531,1.31012 0.158841,1.575359 0.173709,0.345062 0.559826,0.637688 0.921493,0.698371 0.23486,0.03941 8.060412,0.0414 8.300321,0.0021 z m -10.197915,-3.934585 c 0.552144,-0.147123 0.916643,-0.436311 1.147316,-0.910264 0.400291,-0.822462 0.274826,-1.93546 -0.279698,-2.481196 -0.372415,-0.366511 -0.763241,-0.491685 -1.53993,-0.493206 -0.462275,-8.76e-4 -0.984555,0.04477 -1.062457,0.09291 -0.04662,0.02881 -0.03864,3.777984 0.0081,3.806871 0.161902,0.100061 1.332888,0.08981 1.726672,-0.01512 z m -0.804696,-1.886488 v -1.120936 l 0.1169,-0.01897 c 0.158409,-0.0257 0.444245,0.02442 0.603992,0.105915 0.34253,0.174746 0.498758,0.605282 0.433681,1.195142 -0.04347,0.393993 -0.1904,0.664732 -0.439913,0.810591 -0.122917,0.07185 -0.451548,0.148312 -0.640194,0.148945 l -0.07447,2.5e-4 z m 5.176828,1.928249 c 0.0781,-0.02997 0.0781,-0.856541 0,-0.886512 -0.02879,-0.01104 -0.319211,-0.02009 -0.645374,-0.02009 h -0.593022 v -1.453863 c 0,-1.277565 -0.0063,-1.460169 -0.05201,-1.505871 -0.04125,-0.04125 -0.13072,-0.05201 -0.432425,-0.05201 -0.209229,0 -0.409224,0.01542 -0.444433,0.03426 -0.06215,0.03326 -0.06402,0.08966 -0.06402,1.934475 0,1.774814 0.0038,1.902442 0.05792,1.933949 0.06249,0.0364 2.081403,0.05095 2.17336,0.01566 z m 3.289146,-0.01963 c 0.02632,-0.02632 0.03971,-0.169157 0.03971,-0.42363 0,-0.254471 -0.01339,-0.397304 -0.03971,-0.423629 -0.02807,-0.02807 -0.222111,-0.03972 -0.661921,-0.03972 h -0.622206 v -1.466156 c 0,-1.096215 -0.01002,-1.476177 -0.03972,-1.505871 -0.02651,-0.02651 -0.172834,-0.03972 -0.440178,-0.03972 -0.267342,0 -0.413664,0.0132 -0.440176,0.03972 -0.05891,0.05891 -0.05729,3.853015 0.0017,3.876798 0.02276,0.0092 0.518699,0.01787 1.1021,0.01931 0.783887,0.0019 1.071094,-0.0078 1.100443,-0.0371 z"
       id="path1" /></g></svg>
