<?xml version="1.0" encoding="UTF-8" standalone="no"?>
<!-- Created with Inkscape (http://www.inkscape.org/) -->

<svg
   width="16.933332mm"
   height="16.933332mm"
   viewBox="0 0 16.933332 16.933332"
   version="1.1"
   id="svg1"
   xml:space="preserve"
   inkscape:version="1.4.2 (ebf0e94, 2025-05-08)"
   sodipodi:docname="function.svg"
   xmlns:inkscape="http://www.inkscape.org/namespaces/inkscape"
   xmlns:sodipodi="http://sodipodi.sourceforge.net/DTD/sodipodi-0.dtd"
   xmlns:xlink="http://www.w3.org/1999/xlink"
   xmlns="http://www.w3.org/2000/svg"
   xmlns:svg="http://www.w3.org/2000/svg"><sodipodi:namedview
     id="namedview1"
     pagecolor="#ffffff"
     bordercolor="#000000"
     borderopacity="0.25"
     inkscape:showpageshadow="2"
     inkscape:pageopacity="0.0"
     inkscape:pagecheckerboard="0"
     inkscape:deskcolor="#d1d1d1"
     inkscape:document-units="mm"
     inkscape:zoom="16.710735"
     inkscape:cx="-31.416931"
     inkscape:cy="75.011663"
     inkscape:window-width="3840"
     inkscape:window-height="2054"
     inkscape:window-x="-11"
     inkscape:window-y="-11"
     inkscape:window-maximized="1"
     inkscape:current-layer="layer1" /><defs
     id="defs1"><linearGradient
       id="linearGradient59"
       inkscape:collect="always"><stop
         style="stop-color:#269fde;stop-opacity:1;"
         offset="0"
         id="stop59" /><stop
         style="stop-color:#1f99da;stop-opacity:1;"
         offset="1"
         id="stop60" /></linearGradient><linearGradient
       id="linearGradient55"
       inkscape:collect="always"><stop
         style="stop-color:#2074b9;stop-opacity:1;"
         offset="0"
         id="stop55" /><stop
         style="stop-color:#24a5df;stop-opacity:1;"
         offset="1"
         id="stop56" /></linearGradient><linearGradient
       id="linearGradient50"
       inkscape:collect="always"><stop
         style="stop-color:#25a2dc;stop-opacity:1;"
         offset="0"
         id="stop50" /><stop
         style="stop-color:#21559d;stop-opacity:1;"
         offset="1"
         id="stop51" /></linearGradient><linearGradient
       id="linearGradient45"
       inkscape:collect="always"><stop
         style="stop-color:#2866af;stop-opacity:1;"
         offset="0"
         id="stop45" /><stop
         style="stop-color:#287dcb;stop-opacity:1;"
         offset="1"
         id="stop46" /></linearGradient><linearGradient
       id="linearGradient38"
       inkscape:collect="always"><stop
         style="stop-color:#2baee2;stop-opacity:1;"
         offset="0"
         id="stop38" /><stop
         style="stop-color:#cdecfd;stop-opacity:1;"
         offset="1"
         id="stop39" /></linearGradient><linearGradient
       id="linearGradient36"
       inkscape:collect="always"><stop
         style="stop-color:#24a7e0;stop-opacity:1;"
         offset="0"
         id="stop36" /><stop
         style="stop-color:#2967b0;stop-opacity:1;"
         offset="1"
         id="stop37" /></linearGradient><linearGradient
       id="linearGradient33"
       inkscape:collect="always"><stop
         style="stop-color:#b3b4b6;stop-opacity:1;"
         offset="0"
         id="stop33" /><stop
         style="stop-color:#b1b4b6;stop-opacity:1;"
         offset="1"
         id="stop34" /></linearGradient><linearGradient
       id="linearGradient31"
       inkscape:collect="always"><stop
         style="stop-color:#7a7e81;stop-opacity:1;"
         offset="0"
         id="stop31" /><stop
         style="stop-color:#97989a;stop-opacity:1;"
         offset="1"
         id="stop32" /></linearGradient><linearGradient
       id="linearGradient29"
       inkscape:collect="always"><stop
         style="stop-color:#87888c;stop-opacity:1;"
         offset="0"
         id="stop29" /><stop
         style="stop-color:#acadaf;stop-opacity:1;"
         offset="1"
         id="stop30" /></linearGradient><linearGradient
       id="linearGradient27"
       inkscape:collect="always"><stop
         style="stop-color:#d6d7d9;stop-opacity:1;"
         offset="0"
         id="stop27" /><stop
         style="stop-color:#86878b;stop-opacity:1;"
         offset="1"
         id="stop28" /></linearGradient><linearGradient
       id="linearGradient25"
       inkscape:collect="always"><stop
         style="stop-color:#383637;stop-opacity:1;"
         offset="0"
         id="stop25" /><stop
         style="stop-color:#525254;stop-opacity:1;"
         offset="1"
         id="stop26" /></linearGradient><linearGradient
       inkscape:collect="always"
       xlink:href="#linearGradient25"
       id="linearGradient26"
       x1="165.11447"
       y1="175.34744"
       x2="11.464417"
       y2="132.826"
       gradientUnits="userSpaceOnUse" /><linearGradient
       inkscape:collect="always"
       xlink:href="#linearGradient27"
       id="linearGradient28"
       x1="113.79977"
       y1="173.43076"
       x2="67.798965"
       y2="132.37692"
       gradientUnits="userSpaceOnUse" /><linearGradient
       inkscape:collect="always"
       xlink:href="#linearGradient29"
       id="linearGradient30"
       x1="88.449638"
       y1="232.93719"
       x2="34.661968"
       y2="115.53972"
       gradientUnits="userSpaceOnUse" /><linearGradient
       inkscape:collect="always"
       xlink:href="#linearGradient31"
       id="linearGradient32"
       x1="89.172333"
       y1="249.24525"
       x2="13.434839"
       y2="122.52585"
       gradientUnits="userSpaceOnUse" /><linearGradient
       inkscape:collect="always"
       xlink:href="#linearGradient33"
       id="linearGradient34"
       x1="50.156628"
       y1="246.70897"
       x2="164.66643"
       y2="163.70576"
       gradientUnits="userSpaceOnUse" /><linearGradient
       inkscape:collect="always"
       xlink:href="#linearGradient36"
       id="linearGradient37"
       x1="193.83002"
       y1="108.70308"
       x2="169.69365"
       y2="76.698822"
       gradientUnits="userSpaceOnUse" /><linearGradient
       inkscape:collect="always"
       xlink:href="#linearGradient38"
       id="linearGradient39"
       x1="250.43279"
       y1="97.579575"
       x2="125.61611"
       y2="80.698952"
       gradientUnits="userSpaceOnUse" /><linearGradient
       inkscape:collect="always"
       xlink:href="#linearGradient45"
       id="linearGradient46"
       x1="135.51317"
       y1="120.28671"
       x2="196.05936"
       y2="27.944548"
       gradientUnits="userSpaceOnUse" /><linearGradient
       inkscape:collect="always"
       xlink:href="#linearGradient50"
       id="linearGradient51"
       x1="159.0399"
       y1="168.38243"
       x2="244.52719"
       y2="71.090752"
       gradientUnits="userSpaceOnUse" /><linearGradient
       inkscape:collect="always"
       xlink:href="#linearGradient55"
       id="linearGradient56"
       x1="103.9859"
       y1="103.35907"
       x2="153.83453"
       y2="57.379444"
       gradientUnits="userSpaceOnUse" /><linearGradient
       inkscape:collect="always"
       xlink:href="#linearGradient57"
       id="linearGradient58"
       x1="201.71379"
       y1="139.58916"
       x2="141.29008"
       y2="83.385605"
       gradientUnits="userSpaceOnUse"
       gradientTransform="translate(0,-1.5875)" /><linearGradient
       id="linearGradient57"
       inkscape:collect="always"><stop
         style="stop-color:#23aae2;stop-opacity:1;"
         offset="0"
         id="stop57" /><stop
         style="stop-color:#2f88cc;stop-opacity:1;"
         offset="1"
         id="stop58" /></linearGradient><linearGradient
       inkscape:collect="always"
       xlink:href="#linearGradient59"
       id="linearGradient60"
       x1="144.63405"
       y1="129.88794"
       x2="160.12099"
       y2="129.88794"
       gradientUnits="userSpaceOnUse" /><filter
       inkscape:collect="always"
       style="color-interpolation-filters:sRGB"
       id="filter60"
       x="-0.11858909"
       y="-1.9270726"
       width="1.2371782"
       height="4.8541453"><feGaussianBlur
         inkscape:collect="always"
         stdDeviation="4.8818564"
         id="feGaussianBlur60" /></filter><filter
       inkscape:collect="always"
       style="color-interpolation-filters:sRGB"
       id="filter60-4"
       x="-0.11858909"
       y="-1.9270726"
       width="1.2371782"
       height="4.8541453"><feGaussianBlur
         inkscape:collect="always"
         stdDeviation="4.8818564"
         id="feGaussianBlur60-8" /></filter></defs><g
     inkscape:label="Ebene 1"
     inkscape:groupmode="layer"
     id="layer1"
     transform="translate(760.0061,371.33698)"><g
       id="g60"
       transform="matrix(0.05471202,0,0,0.05471202,-758.59255,-371.18652)"><path
         id="path23"
         style="opacity:1;fill:url(#linearGradient28);fill-opacity:1;fill-rule:evenodd;stroke-width:1;stroke-linecap:round;stroke-linejoin:round;paint-order:fill markers stroke"
         d="m 86.587996,116.79184 a 41.684608,35.211647 0 0 0 -41.043489,35.29758 32.33128,33.280724 0 0 1 15.508614,-4.23695 32.33128,33.280724 0 0 1 32.609896,32.95406 l 0.001,0.1478 a 32.33128,33.280724 0 0 1 -0.480074,5.89576 41.684608,35.211647 0 0 0 35.729607,-34.85058 l -0.009,-0.72192 A 41.684608,35.211647 0 0 0 86.587996,116.79184 Z" /><path
         id="path24"
         style="opacity:1;fill:url(#linearGradient30);fill-opacity:1;fill-rule:evenodd;stroke-width:1.0966;stroke-linecap:round;stroke-linejoin:round;paint-order:fill markers stroke"
         d="m 46.723763,107.14281 a 78.484146,69.908287 0 0 0 -40.1474202,61.5301 78.484146,69.908287 0 0 0 78.9879432,69.37871 78.484146,69.908287 0 0 0 27.270684,-4.52324 c 6.55746,-10.45223 11.43755,-22.46684 11.43755,-22.46684 0,0 0.0487,-5.37371 0.49919,-12.59975 a 65.865845,68.272476 0 0 1 -16.45739,2.27945 65.865845,68.272476 0 0 1 -66.288978,-67.75556 65.865845,68.272476 0 0 1 4.698421,-25.84287 z" /><path
         id="path2"
         style="fill:url(#linearGradient32);fill-rule:evenodd;stroke-width:1;stroke-linecap:round;stroke-linejoin:round;paint-order:fill markers stroke"
         d="M 13.434839,122.52585 -5.6999105,147.6282 -7.5364909,156.87466 11.464417,132.826 Z m -2.098063,30.80226 -19.0634362,23.43319 2.153357,10.51306 19.5698652,-22.60999 z M 22.391398,185.13237 1.9482015,206.42668 8.1504069,215.60699 28.8401,194.89508 Z m 22.301998,26.78028 -22.212598,19.2567 8.912118,6.49315 22.973275,-18.58492 z m 29.43748,16.93953 -23.974248,17.85679 10.165788,2.77658 24.511682,-17.62528 z m 41.610384,3.21272 -10.19783,0.8723 -25.776206,17.44803 9.405111,-1.13998 z" /><path
         style="fill:url(#linearGradient58);fill-rule:evenodd;stroke-width:1;stroke-linecap:round;stroke-linejoin:round;paint-order:fill markers stroke"
         d="m 145.99212,58.018678 12.09141,5.955943 c 0,0 7.97135,30.452353 9.40441,35.020205 1.43305,4.567844 29.55669,17.734004 29.55669,17.734004 l 21.04077,12.1806 -1.86811,18.30276 -30.8162,9.73171 -26.12916,-3.66432 -22.77374,-12.27843 -18.71924,-25.6158 7.83716,-36.273901 0.49247,-10.926982 z"
         id="path56" /><path
         id="path39"
         style="opacity:1;fill:url(#linearGradient46);fill-opacity:1;fill-rule:evenodd;stroke-width:1;stroke-linecap:round;stroke-linejoin:round;paint-order:fill markers stroke"
         d="m 185.7592,25.884725 -12.98163,14.405322 2.40037,9.932727 10.35751,-10.365775 z m -30.40744,4.164604 -12.01994,14.840437 c 0,0 -0.13706,2.989824 0.11627,3.369821 0.25333,0.379994 10.13312,9.056526 10.38645,9.119856 0.25333,0.06333 8.63771,-13.5816 8.63771,-13.5816 z m 60.88259,7.344254 -17.35347,17.106966 10.16579,-6.459554 z m -83.05023,12.404928 -20.38894,25.408785 5.4467,4.053499 7.8667,-9.488826 9.83403,1.815909 10.04951,-11.981697 z m -7.56801,30.900439 -15.64918,18.395777 5.0028,2.783293 c 0,0 9.6609,-9.445936 9.66091,-9.445936 l 4.93716,3.981669 11.72228,-13.028145 z m 24.11532,27.94455 -13.89889,5.59242 -2.82515,3.21944 -0.76895,7.27811 10.12031,-8.24394 z" /><path
         id="path7"
         style="fill:url(#linearGradient34);fill-rule:evenodd;stroke-width:1;stroke-linecap:round;stroke-linejoin:round;paint-order:fill markers stroke"
         d="m 68.025305,77.026306 -11.60911,14.239441 2.518192,3.852995 9.225277,5.195028 3.269051,-8.419121 z m 28.8401,2.597774 -10.445874,12.043193 4.082438,8.27133 4.437972,-6.610966 z m -55.620377,6.269385 -10.698572,13.901994 10.250537,7.773171 c 0,0 8.570794,1.71178 8.85579,1.77508 0.284996,0.0633 0.638204,-9.970447 0.638204,-9.970447 z m 83.385612,6.538619 -12.37393,12.098486 5.11907,-1.21646 z M 21.316528,105.19513 1.7099731,131.28811 l 3.109371,2.5399 8.6154949,-11.30216 12.77028,4.08089 8.456848,-11.06702 z m 131.572332,17.68884 -11.06134,6.58306 -0.91261,2.24896 2.06913,-0.0997 z m -141.424443,9.94203 -19.0009079,24.04866 12.5413534,4.23695 6.3319135,-7.7835 3.843176,-0.20722 12.406478,-15.05542 z m 152.351423,18.45055 -13.30048,0.94052 -5.67407,6.24096 6.59701,2.59829 c 1e-5,0.001 12.37754,-9.77977 12.37754,-9.77977 z m -133.795967,12.05818 -16.023311,1.32964 -19.5698652,22.60999 15.0223388,-1.40302 z m 120.181807,12.438 -8.49508,1.24179 4.50928,11.11818 3.61167,2.73059 14.83888,-10.56732 z M 42.901774,187.37151 28.8401,194.89508 8.1504069,215.60699 21.248315,208.07929 Z m 98.388306,9.04596 -7.94318,0.29352 -0.92398,8.84235 7.06056,10.70891 14.79341,-9.94771 z m -87.908842,2.32906 -22.570716,19.97294 -8.329724,12.44988 22.212598,-19.2567 z m 70.891282,12.31501 -11.40344,8.08787 2.87218,12.91549 -11.68043,7.55303 2.02107,3.07217 27.55025,-17.43201 z m -47.766596,1.41903 -24.066748,18.93631 -2.282548,15.29209 23.974248,-17.85679 z m 24.920956,4.37028 -15.975765,11.22412 -0.617017,3.7853 -8.084778,5.81359 3.017904,12.71137 25.776206,-17.44803 z" /><path
         id="path35"
         style="opacity:1;fill:url(#linearGradient37);fill-opacity:1;fill-rule:evenodd;stroke-width:1;stroke-linecap:round;stroke-linejoin:round;paint-order:fill markers stroke"
         d="m 187.77458,60.800423 a 29.956291,27.106329 0 0 0 -29.69586,27.309961 29.956291,27.106329 0 0 0 0.008,0.4408 25.719324,27.432238 0 0 1 2.67271,-0.173116 25.719324,27.432238 0 0 1 25.93072,26.606642 29.956291,27.106329 0 0 0 1.53737,0.0269 29.956291,27.106329 0 0 0 29.76304,-27.250529 l -10e-4,-0.120406 a 29.956291,27.106329 0 0 0 -30.2147,-26.840222 z" /><path
         id="path46"
         style="opacity:1;fill:url(#linearGradient51);fill-opacity:1;fill-rule:evenodd;stroke-width:1;stroke-linecap:round;stroke-linejoin:round;paint-order:fill markers stroke"
         d="m 244.52719,71.090751 -11.94759,4.704106 -1.63762,4.320666 3.20135,0.03101 z m -8.2336,29.006499 -4.05299,4.71806 0.6966,8.58139 1.43609,1.10122 0.21084,0.16123 16.0228,-11.93364 z m -8.48631,21.5961 -11.68507,1.48828 1.96319,7.31531 6.11797,12.23595 16.33389,-11.53935 z m -44.0185,12.52068 -24.54114,19.97346 0.0243,0.67954 -0.23203,13.51546 -0.48627,0.8294 25.01553,-19.05051 z m 24.92355,0.0512 -13.99708,10.64793 -0.0946,6.67349 -9.21959,6.9448 4.36614,8.62066 26.45006,-18.35237 z" /><path
         id="path34"
         style="opacity:1;fill:url(#linearGradient39);fill-opacity:1;fill-rule:evenodd;stroke-width:1;stroke-linecap:round;stroke-linejoin:round;paint-order:fill markers stroke"
         d="m 185.7592,25.884725 -0.22375,13.972274 c 0,0 -5.70399,-0.312692 -8.01605,-0.179318 -2.31206,0.133374 -5.82187,0.806153 -5.82187,0.806153 l -6.98614,-13.614156 -9.35963,3.179651 7.12049,13.748514 c 0,0 -4.21156,2.409718 -5.95622,3.716569 -1.74466,1.306851 -4.52272,4.030762 -4.52272,4.030762 l -12.76357,-9.80767 -6.04562,8.061007 12.808,9.80767 c 0,0 -1.62699,3.640941 -2.32854,5.82135 -0.70155,2.180409 -1.79162,7.254854 -1.79162,7.254854 l -15.76338,-2.910416 -0.49247,10.926981 15.67397,2.686658 c 0,0 0.45051,4.324158 0.98496,6.807336 0.53445,2.483178 2.31303,8.035686 2.31303,8.035686 l -13.96762,5.58932 5.21209,10.41797 13.89889,-5.59242 c 0,0 3.14476,4.55006 4.88135,6.6275 1.73659,2.07744 5.5082,5.82187 5.5082,5.82187 l -8.15041,12.51706 9.4325,6.92516 8.369,-12.32173 c 0,0 4.28454,2.53049 6.6275,3.53777 2.34296,1.00728 7.38921,2.4629 7.38921,2.4629 l -0.21962,15.94735 11.05152,1.42523 0.22169,-15.67501 c 0,0 4.35941,0.0449 6.6797,-0.22169 2.32029,-0.26663 7.19026,-1.42472 7.19026,-1.42472 l 7.50496,14.53451 8.92969,-4.17959 -7.06158,-14.12317 c 0,0 3.56907,-2.58212 5.19348,-4.0535 1.62441,-1.47138 4.5284,-4.75009 4.5284,-4.75009 l 12.72998,9.50019 4.74958,-8.32817 -12.34964,-9.46867 c 0,0 1.77559,-4.10529 2.34301,-6.33295 0.56742,-2.22766 1.01338,-6.9665 1.01338,-6.9665 l 14.31334,2.62826 -0.3483,-10.291876 -14.1547,-2.691308 c 0,0 -0.63608,-4.841316 -1.22679,-7.172689 -0.5907,-2.331374 -2.29754,-6.77478 -2.29754,-6.77478 l 11.94759,-4.704106 -5.00331,-9.468156 -11.96981,4.528406 c 0,0 -2.53956,-3.552849 -4.14858,-5.446696 -1.60902,-1.893847 -5.54179,-5.858557 -5.54179,-5.858557 l 6.96857,-10.712008 -8.59792,-6.740157 -7.18768,10.647412 c 0,0 -4.27731,-2.557603 -6.49366,-3.571358 -2.21635,-1.013755 -6.76238,-2.507857 -6.76238,-2.507857 l 0.26872,-14.017232 z m 0.14108,39.272538 c 5.14953,-0.103501 10.75479,1.956165 16.00729,6.372738 10.505,8.833151 12.52521,22.108217 5.68699,30.600199 l -0.0553,0.0677 c -6.88486,8.45268 -20.00966,8.88968 -30.49943,0.0377 -10.48976,-8.851961 -11.27523,-21.999157 -4.41368,-30.471525 3.43077,-4.236183 8.12459,-6.50333 13.27412,-6.606832 z" /><path
         id="path51"
         style="opacity:1;fill:url(#linearGradient56);fill-opacity:1;fill-rule:evenodd;stroke-width:1;stroke-linecap:round;stroke-linejoin:round;paint-order:fill markers stroke"
         d="m 126.10858,69.771969 -19.97294,24.137544 -0.43098,3.323828 -1.71876,6.125729 5.98103,-4.264343 15.64918,-18.395777 z m 4.51187,34.045981 c 0,0 -8.26191,5.55711 -8.51524,7.07709 -0.25333,1.51998 2.02675,10.07019 2.02675,10.07019 l 8.87543,-3.50987 2.82515,-3.21944 z m 21.35012,29.79198 -5.73505,5.07308 -3.01997,2.24844 0.85111,3.22461 3.49281,-1.88102 13.63741,-1.23559 0.20619,-0.50436 z m 73.17641,11.01018 -8.92969,4.17959 -26.45006,18.35237 7.3551,-2.99413 z m -41.57782,5.54127 -24.10034,18.3534 4.01836,1.2423 6.06061,0.31729 15.8533,-11.54296 9.21959,-6.9448 z" /><path
         id="path1"
         style="opacity:1;fill:url(#linearGradient26);fill-rule:evenodd;stroke-width:1;stroke-linecap:round;stroke-linejoin:round;paint-order:fill markers stroke"
         d="m 77.966817,76.44443 -9.941512,0.581876 3.40341,14.868343 c 0,0 -4.270435,0.580644 -6.359302,1.119312 -2.088867,0.538668 -6.135026,2.104781 -6.135026,2.104781 l -8.867159,-13.569198 -8.8222,4.343921 9.045959,13.479798 c 0,0 -3.303438,2.415717 -4.889107,3.782197 -1.585669,1.36647 -4.604887,4.41317 -4.604887,4.41317 l -13.524239,-10.255707 -5.956226,7.882207 13.345439,10.34459 c 0,0 -1.97066,3.62766 -2.821533,5.59811 -0.850874,1.97045 -2.149223,6.58306 -2.149223,6.58306 l -16.256372,-5.19504 -1.970422,10.30015 16.122013,5.23947 c 0,0 -0.359847,5.16528 -0.31626,7.56543 0.04359,2.40014 0.532784,6.81044 0.532784,6.81044 l -16.466178,0.88677 2.659786,11.33626 16.023311,-1.32964 c 0,0 1.735258,4.83659 2.794145,7.17424 1.058886,2.33764 3.549654,6.83111 3.549654,6.83111 l -13.972274,7.79229 6.448702,9.76271 14.061674,-7.52357 c 0,0 3.224711,4.03035 4.568197,5.50819 1.343486,1.47784 5.911267,5.86683 5.911267,5.86683 l -8.687842,13.16612 9.672795,7.16493 8.8222,-13.47928 c 0,0 3.310142,2.62222 5.535063,3.77652 2.224922,1.15429 7.78247,3.10575 7.78247,3.10575 l -2.375048,16.37161 10.703222,3.00809 2.628264,-16.11788 c 0,0 5.344035,0.98133 7.378361,0.98133 2.034326,-10e-6 6.586157,0.12713 6.586157,0.12713 l 4.11655,16.08635 10.19783,-0.8723 -3.69435,-16.61448 c 0,0 4.26333,-1.16646 5.77846,-1.64125 1.51514,-0.47479 6.44715,-2.74763 6.44715,-2.74763 l 9.35963,14.19655 8.15041,-5.50871 -9.35964,-14.19604 c 0,0 3.18716,-2.48759 4.50051,-3.89588 1.8585,-1.99284 4.36665,-5.23999 4.36665,-5.23999 l 12.98681,9.89707 4.97075,-8.32973 -13.03176,-9.85211 c 0,0 1.58163,-3.63119 2.25464,-5.69267 0.673,-2.06148 1.73116,-6.6673 1.73116,-6.6673 l 14.46475,4.52324 0.89607,-9.89707 -14.19655,-4.38888 c 0,0 0.13296,-4.00872 0.0434,-6.39341 -0.0896,-2.38469 -0.894,-7.39954 -0.894,-7.39954 l 13.30048,-0.94052 -2.41846,-10.25518 -13.83791,1.25367 c 0,0 -1.5943,-4.49033 -2.5523,-6.62751 -0.958,-2.13718 -3.17965,-6.1805 -3.17965,-6.1805 l 11.06134,-6.58306 -5.91127,-8.95656 -11.46441,6.3593 c 0,0 -2.5115,-2.86988 -4.12017,-4.61263 -1.60867,-1.74274 -5.55315,-5.82187 -5.55315,-5.82187 l 7.1205,-10.702706 -8.32972,-6.71742 -7.25486,10.882026 c 0,0 -5.63196,-3.391927 -6.77304,-3.929487 -1.14109,-0.537559 -5.85565,-2.564176 -5.85565,-2.564176 L 106.89683,83.02749 96.865405,79.62408 94.939941,93.327637 c 0,0 -4.197684,-1.09851 -6.449218,-1.432988 -2.251535,-0.334478 -7.030579,-0.537435 -7.030579,-0.537435 z m 7.97419,47.06379 c 7.115045,-0.11434 14.864533,2.74328 21.948533,8.96173 14.16798,12.4369 13.88082,32.41716 5.91023,40.96081 -8.47959,9.08924 -24.669955,12.52784 -38.837937,0.091 -14.167992,-12.4369 -16.255546,-29.80855 -7.162871,-41.14478 4.546338,-5.66811 11.027001,-8.75436 18.142045,-8.86871 z"
         sodipodi:nodetypes="cccsccccsccccsccccsccccsccccsccccsccccsccccsccccsccccscccccccccsccccscccczccccsccssssss" /><path
         style="opacity:1;fill:url(#linearGradient60);fill-opacity:1;fill-rule:evenodd;stroke-width:1;stroke-linecap:round;stroke-linejoin:round;paint-order:fill markers stroke"
         d="m 151.97057,133.60993 8.15041,-12.51706 -15.48693,13.75539 1.60147,3.83475 z"
         id="path58" /></g><path
       style="opacity:0.302177;fill:#000000;fill-opacity:1;fill-rule:evenodd;stroke-width:1;stroke-linecap:round;stroke-linejoin:round;paint-order:fill markers stroke;filter:url(#filter60)"
       id="path60"
       sodipodi:type="arc"
       sodipodi:cx="121.35408"
       sodipodi:cy="281.94022"
       sodipodi:rx="49.399384"
       sodipodi:ry="3.0399621"
       sodipodi:start="6.2778498"
       sodipodi:end="6.2734089"
       sodipodi:open="true"
       sodipodi:arc-type="arc"
       d="m 170.75276,281.924 a 49.399384,3.0399621 0 0 1 -49.08027,3.05611 49.399384,3.0399621 0 0 1 -49.716383,-3.01692 49.399384,3.0399621 0 0 1 48.969873,-3.06282 49.399384,3.0399621 0 0 1 49.82512,3.01013"
       transform="matrix(0.08435836,0,0,0.08435836,-764.69877,-379.43249)" /><path
       style="opacity:0.173295;fill:#000000;fill-opacity:1;fill-rule:evenodd;stroke-width:1;stroke-linecap:round;stroke-linejoin:round;paint-order:fill markers stroke;filter:url(#filter60-4)"
       id="path60-4"
       sodipodi:type="arc"
       sodipodi:cx="121.35408"
       sodipodi:cy="281.94022"
       sodipodi:rx="49.399384"
       sodipodi:ry="3.0399621"
       sodipodi:start="6.2778498"
       sodipodi:end="6.2734089"
       sodipodi:open="true"
       sodipodi:arc-type="arc"
       d="m 170.75276,281.924 a 49.399384,3.0399621 0 0 1 -49.08027,3.05611 49.399384,3.0399621 0 0 1 -49.716383,-3.01692 49.399384,3.0399621 0 0 1 48.969873,-3.06282 49.399384,3.0399621 0 0 1 49.82512,3.01013"
       transform="matrix(0.05217169,0,0,0.05217169,-756.1232,-370.92771)" /></g></svg>
