<?xml version="1.0" encoding="UTF-8" standalone="no"?>
<!-- Created with Inkscape (http://www.inkscape.org/) -->

<svg
   width="64"
   height="64"
   version="1.0"
   id="svg8"
   sodipodi:docname="link_module.svg"
   xml:space="preserve"
   inkscape:version="1.4.2 (ebf0e94, 2025-05-08)"
   xmlns:inkscape="http://www.inkscape.org/namespaces/inkscape"
   xmlns:sodipodi="http://sodipodi.sourceforge.net/DTD/sodipodi-0.dtd"
   xmlns:xlink="http://www.w3.org/1999/xlink"
   xmlns="http://www.w3.org/2000/svg"
   xmlns:svg="http://www.w3.org/2000/svg"
   xmlns:rdf="http://www.w3.org/1999/02/22-rdf-syntax-ns#"
   xmlns:cc="http://creativecommons.org/ns#"
   xmlns:dc="http://purl.org/dc/elements/1.1/"><sodipodi:namedview
     id="namedview8"
     pagecolor="#ffffff"
     bordercolor="#000000"
     borderopacity="0.25"
     inkscape:showpageshadow="2"
     inkscape:pageopacity="0.0"
     inkscape:pagecheckerboard="0"
     inkscape:deskcolor="#d1d1d1"
     inkscape:zoom="26.052957"
     inkscape:cx="48.6701"
     inkscape:cy="62.085084"
     inkscape:window-width="3840"
     inkscape:window-height="2054"
     inkscape:window-x="-11"
     inkscape:window-y="-11"
     inkscape:window-maximized="1"
     inkscape:current-layer="svg8" /><metadata
     id="metadata1"><rdf:RDF><cc:Work
         rdf:about=""><dc:format>image/svg+xml</dc:format><dc:type
           rdf:resource="http://purl.org/dc/dcmitype/StillImage" /></cc:Work></rdf:RDF></metadata><defs
     id="defs2"><linearGradient
       id="linearGradient26"
       inkscape:collect="always"><stop
         style="stop-color:#4e2414;stop-opacity:1;"
         offset="0"
         id="stop26" /><stop
         style="stop-color:#924220;stop-opacity:1;"
         offset="1"
         id="stop27" /></linearGradient><linearGradient
       id="linearGradient23"
       inkscape:collect="always"><stop
         style="stop-color:#ba9770;stop-opacity:1;"
         offset="0"
         id="stop23" /><stop
         style="stop-color:#ebe0b9;stop-opacity:1;"
         offset="0.31684679"
         id="stop25" /><stop
         style="stop-color:#ebe5d2;stop-opacity:0;"
         offset="1"
         id="stop24" /></linearGradient><linearGradient
       id="linearGradient15"
       inkscape:collect="always"><stop
         style="stop-color:#ba9770;stop-opacity:1;"
         offset="0"
         id="stop15" /><stop
         style="stop-color:#ebe0b9;stop-opacity:1;"
         offset="0.21167292"
         id="stop17" /><stop
         style="stop-color:#ebe5d2;stop-opacity:0;"
         offset="0.61614275"
         id="stop18" /></linearGradient><linearGradient
       id="_a"
       x1="19.639"
       x2="380.35999"
       y1="180"
       y2="180"
       gradientUnits="userSpaceOnUse"
       xlink:href="#_b" /><linearGradient
       id="_b"><stop
         stop-color="#bba0c7"
         stop-opacity=".99065"
         offset="0"
         id="stop1" /><stop
         stop-color="#ecc7ec"
         stop-opacity="0"
         offset="1"
         id="stop2" /></linearGradient><linearGradient
       inkscape:collect="always"
       xlink:href="#linearGradient15"
       id="linearGradient16"
       x1="-421.28766"
       y1="152.64143"
       x2="-374.84753"
       y2="122.20341"
       gradientUnits="userSpaceOnUse"
       gradientTransform="translate(0.1047,-0.20916)" /><linearGradient
       inkscape:collect="always"
       xlink:href="#linearGradient15"
       id="linearGradient21"
       gradientUnits="userSpaceOnUse"
       gradientTransform="translate(-0.50781,0.441474)"
       x1="-325.89236"
       y1="111.73126"
       x2="-352.70038"
       y2="138.05383" /><linearGradient
       inkscape:collect="always"
       xlink:href="#linearGradient23"
       id="linearGradient24"
       x1="-614.38983"
       y1="85.441505"
       x2="-583.84155"
       y2="56.040821"
       gradientUnits="userSpaceOnUse"
       gradientTransform="translate(314.09371,47.33205)" /><linearGradient
       inkscape:collect="always"
       xlink:href="#linearGradient23"
       id="linearGradient25"
       gradientUnits="userSpaceOnUse"
       gradientTransform="translate(314.09371,47.33205)"
       x1="-537.49603"
       y1="38.538849"
       x2="-561.27216"
       y2="69.244698" /><linearGradient
       inkscape:collect="always"
       xlink:href="#linearGradient26"
       id="linearGradient27"
       x1="-384.57153"
       y1="247.20099"
       x2="-243.93025"
       y2="71.081902"
       gradientUnits="userSpaceOnUse" /><filter
       inkscape:collect="always"
       style="color-interpolation-filters:sRGB"
       id="filter31"
       x="-0.052889795"
       y="-0.11042256"
       width="1.1057796"
       height="1.2208451"><feGaussianBlur
         inkscape:collect="always"
         stdDeviation="7.2748753"
         id="feGaussianBlur31" /></filter><clipPath
       clipPathUnits="userSpaceOnUse"
       id="clipPath3393"><path
         style="opacity:1;fill:#dbdbdb;fill-opacity:1;stroke:none;stroke-width:0.5;stroke-linecap:round;stroke-linejoin:round;stroke-miterlimit:4;stroke-dasharray:none;stroke-opacity:1"
         d="M 13.8125,8 C 10.584167,8 8,10.584167 8,13.8125 v 100.375 C 8,117.41583 10.584167,120 13.8125,120 h 100.375 C 117.41583,120 120,117.41583 120,114.1875 V 13.8125 C 120,10.584167 117.41583,8 114.1875,8 Z m 8,8 h 84.375 C 109.41583,16 112,18.584167 112,21.8125 v 84.375 C 112,109.41583 109.41583,112 106.1875,112 H 21.8125 C 18.584166,112 16,109.41583 16,106.1875 V 21.8125 C 16,18.584166 18.584167,16 21.8125,16 Z"
         id="path3395" /></clipPath><clipPath
       clipPathUnits="userSpaceOnUse"
       id="clipPath3393-8"><path
         style="opacity:1;fill:#dbdbdb;fill-opacity:1;stroke:none;stroke-width:0.5;stroke-linecap:round;stroke-linejoin:round;stroke-miterlimit:4;stroke-dasharray:none;stroke-opacity:1"
         d="M 13.8125,8 C 10.584167,8 8,10.584167 8,13.8125 v 100.375 C 8,117.41583 10.584167,120 13.8125,120 h 100.375 C 117.41583,120 120,117.41583 120,114.1875 V 13.8125 C 120,10.584167 117.41583,8 114.1875,8 Z m 8,8 h 84.375 C 109.41583,16 112,18.584167 112,21.8125 v 84.375 C 112,109.41583 109.41583,112 106.1875,112 H 21.8125 C 18.584166,112 16,109.41583 16,106.1875 V 21.8125 C 16,18.584166 18.584167,16 21.8125,16 Z"
         id="path3395-2" /></clipPath><filter
       inkscape:collect="always"
       id="filter3351"
       x="-0.048"
       y="-0.048"
       width="1.096"
       height="1.096"><feGaussianBlur
         inkscape:collect="always"
         stdDeviation="2"
         id="feGaussianBlur3353" /></filter><radialGradient
       inkscape:collect="always"
       xlink:href="#linearGradient3133"
       id="radialGradient3139"
       cx="64"
       cy="35.686314"
       fx="64"
       fy="35.686314"
       r="40"
       gradientUnits="userSpaceOnUse"
       gradientTransform="matrix(0.12891461,0,0,0.08727068,52.875102,80.011304)" /><linearGradient
       inkscape:collect="always"
       id="linearGradient3133"><stop
         style="stop-color:#646661;stop-opacity:1"
         offset="0"
         id="stop3135" /><stop
         style="stop-color:#111111;stop-opacity:1"
         offset="1"
         id="stop3137" /></linearGradient></defs><rect
     style="opacity:1;fill:#ffffff;fill-opacity:1;fill-rule:evenodd;stroke:none;stroke-width:4.19619;stroke-linecap:round;stroke-linejoin:round;stroke-opacity:1;paint-order:fill markers stroke"
     id="rect31"
     width="64"
     height="64"
     x="0"
     y="0" /><g
     id="g31"
     transform="matrix(0.1534103,0,0,0.1534103,78.401132,7.268229)"><path
       style="opacity:0.690141;mix-blend-mode:normal;fill:#000000;fill-opacity:1;fill-rule:evenodd;stroke:none;stroke-width:3.77953;stroke-linecap:round;stroke-linejoin:round;stroke-opacity:1;paint-order:fill markers stroke;filter:url(#filter31)"
       d="m -459.63123,139.95279 64.55391,112.432 73.79781,-34.15635 33.10264,-12.07956 c 0,0 17.26949,2.42019 29.21666,-2.70045 11.94717,-5.12064 16.43906,-9.54132 16.43906,-9.54132 l 111.51433,-16.91822 1.49032,-10.4876 -162.90687,-25.71844 c 0,0 -9.12443,-47.123387 -9.12443,-46.509253 0,0.614133 -56.80738,32.856153 -66.32645,33.316753 -9.51907,0.4606 -91.75698,12.36244 -91.75698,12.36244 z"
       id="path31"
       sodipodi:nodetypes="cccczccccssc" /><path
       d="m -368.57133,83.145442 c -17.036,0.24746 -33.057,7.595 -46.94,16.994998 -8.6412,5.5709 -17.452,10.976 -25.884,16.811 1.5874,4.7081 4.7622,8.8213 7.0914,13.221 15.395,25.926 30.363,52.116 46.346,77.686 0.97251,1.1643 1.6172,3.0281 2.9615,3.7033 7.7463,-3.0387 14.743,-7.7377 22.016,-11.749 19.214,-11.022 38.216,-23.906 60.409,-27.944 10.859,-2.0318 21.955,-1.7573 32.917,-2.8132 -23.427,-24.099 -46.485,-48.583 -70.782,-71.813998 -6.7612,-5.8615 -14.26,-11.569 -23.094,-13.738 -1.6601,-0.30951 -3.3542,-0.37868 -5.0396,-0.35975 z"
       color="#000000"
       color-rendering="auto"
       fill="#ffffff"
       fill-rule="evenodd"
       image-rendering="auto"
       shape-rendering="auto"
       style="isolation:auto;mix-blend-mode:normal;fill:#ebe5d2;fill-opacity:1;stroke:none;paint-order:markers stroke fill"
       id="path4-8-1" /><path
       d="m -368.57133,83.14544 c -17.036,0.24746 -33.057,7.595 -46.94,16.995 -8.6412,5.5709 -17.452,10.976 -25.884,16.811 1.5874,4.7081 4.7622,8.8213 7.0914,13.221 15.395,25.926 30.363,52.116 46.346,77.686 0.97251,1.1643 1.6172,3.0281 2.9615,3.7033 7.7463,-3.0387 14.743,-7.7377 22.016,-11.749 19.214,-11.022 38.216,-23.906 60.409,-27.944 10.859,-2.0318 21.955,-1.7573 32.917,-2.8132 -23.427,-24.099 -46.485,-48.583 -70.782,-71.814 -6.7612,-5.8615 -14.26,-11.569 -23.094,-13.738 -1.6601,-0.30951 -3.3542,-0.37868 -5.0396,-0.35975 z"
       color="#000000"
       color-rendering="auto"
       fill="#ffffff"
       fill-rule="evenodd"
       image-rendering="auto"
       shape-rendering="auto"
       style="isolation:auto;mix-blend-mode:normal;fill:url(#linearGradient16);stroke:none;paint-order:markers stroke fill"
       id="path4-8" /><path
       d="m -369.18383,83.79607 c -17.036,0.24746 -33.057,7.595 -46.94,16.995 -8.6412,5.5709 -17.452,10.976 -25.884,16.811 1.5874,4.7081 4.7622,8.8213 7.0914,13.221 15.395,25.926 30.363,52.116 46.346,77.686 0.97251,1.1643 1.6172,3.0281 2.9615,3.7033 7.7463,-3.0387 14.743,-7.7377 22.016,-11.749 19.214,-11.022 38.216,-23.906 60.409,-27.944 10.859,-2.0318 21.955,-1.7573 32.917,-2.8132 -23.427,-24.099 -46.485,-48.583 -70.782,-71.814 -6.7612,-5.8615 -14.26,-11.569 -23.094,-13.738 -1.6601,-0.30951 -3.3542,-0.37868 -5.0396,-0.35975 z"
       color="#000000"
       color-rendering="auto"
       fill="#ffffff"
       fill-rule="evenodd"
       image-rendering="auto"
       shape-rendering="auto"
       style="isolation:auto;mix-blend-mode:normal;fill:url(#linearGradient21);stroke:none;paint-order:markers stroke fill"
       id="path4-8-14" /><path
       d="m -250.99565,71.4313 c -18.556,1.1835 -37.192,1.0418 -55.711,2.7656 -8.8335,0.83712 -17.082,4.965 -23.392,11.146 -2.695,2.7168 -5.8246,5.3134 -7.7701,8.5917 4.594,5.8501 10.272,10.838 15.362,16.277 20.02,20.305 40.185,40.861 60.052,61.072 5.1116,-7.417 11.489,-14.2 19.767,-18.065 18.398,-9.1763 39.417,-9.2072 59.452,-10.873 11.07,-0.82863 22.179,-1.4324 33.244,-2.0976 -0.0143,-1.0739 -2.0214,-1.908 -2.7466,-2.7571 -23.291,-17.561 -47.016,-34.543 -70.664,-51.62 -7.4027,-5.0645 -14.448,-10.778 -22.508,-14.789 -1.6955,0.11644 -3.391,0.23288 -5.0865,0.34933 z"
       color="#000000"
       color-rendering="auto"
       fill="#ffffff"
       fill-rule="evenodd"
       image-rendering="auto"
       shape-rendering="auto"
       style="isolation:auto;mix-blend-mode:normal;fill:#ebe5d2;fill-opacity:1;paint-order:markers stroke fill"
       id="path5-8" /><path
       d="m -250.99565,71.431297 c -18.556,1.1835 -37.192,1.0418 -55.711,2.7656 -8.8335,0.83712 -17.082,4.965 -23.392,11.146 -2.695,2.7168 -5.8246,5.3134 -7.7701,8.5917 4.594,5.8501 10.272,10.838003 15.362,16.277003 20.02,20.305 40.185,40.861 60.052,61.072 5.1116,-7.417 11.489,-14.2 19.767,-18.065 18.398,-9.1763 39.417,-9.2072 59.452,-10.873 11.07,-0.82863 22.179,-1.4324 33.244,-2.0976 -0.0143,-1.0739 -2.0214,-1.908 -2.7466,-2.7571 -23.291,-17.561 -47.016,-34.543 -70.664,-51.620003 -7.4027,-5.0645 -14.448,-10.778 -22.508,-14.789 -1.6955,0.11644 -3.391,0.23288 -5.0865,0.34933 z"
       color="#000000"
       color-rendering="auto"
       fill="#ffffff"
       fill-rule="evenodd"
       image-rendering="auto"
       shape-rendering="auto"
       style="isolation:auto;mix-blend-mode:normal;fill:url(#linearGradient24);paint-order:markers stroke fill"
       id="path5-8-3" /><path
       d="m -250.99565,71.431297 c -18.556,1.1835 -37.192,1.0418 -55.711,2.7656 -8.8335,0.83712 -17.082,4.965 -23.392,11.146 -2.695,2.7168 -5.8246,5.3134 -7.7701,8.5917 4.594,5.8501 10.272,10.838003 15.362,16.277003 20.02,20.305 40.185,40.861 60.052,61.072 5.1116,-7.417 11.489,-14.2 19.767,-18.065 18.398,-9.1763 39.417,-9.2072 59.452,-10.873 11.07,-0.82863 22.179,-1.4324 33.244,-2.0976 -0.0143,-1.0739 -2.0214,-1.908 -2.7466,-2.7571 -23.291,-17.561 -47.016,-34.543 -70.664,-51.620003 -7.4027,-5.0645 -14.448,-10.778 -22.508,-14.789 -1.6955,0.11644 -3.391,0.23288 -5.0865,0.34933 z"
       color="#000000"
       color-rendering="auto"
       fill="#ffffff"
       fill-rule="evenodd"
       image-rendering="auto"
       shape-rendering="auto"
       style="isolation:auto;mix-blend-mode:normal;fill:url(#linearGradient25);paint-order:markers stroke fill"
       id="path5-8-3-8" /><path
       d="m -154.07203,144.4746 c -23.63,1.1631 -47.451,1.8254 -70.701,6.5776 -9.1124,1.8964 -18.594,4.7095 -25.165,11.711 -5.5479,5.3998 -10.392,11.716 -13.65,18.746 0.21599,0.97436 2.251,-0.28975 2.9846,-0.10055 3.3802,-0.40447 7.4112,-2.2945 10.516,-0.17578 1.7411,2.3412 2.7865,5.1032 4.0869,7.6949 8.0044,-6.9706 16.854,-13.456 27.201,-16.391 13.456,-2.7076 27.267,-2.821 40.928,-3.6306 11.53,-0.60174 23.174,-0.70045 34.638,-1.4983 -1.6424,-6.7513 -3.2773,-13.514 -4.5047,-20.362 0.13263,-3.0768 -2.0839,-3.0463 -4.5374,-2.6436 -0.59916,0.0244 -1.1983,0.0489 -1.7975,0.0733 z"
       color="#000000"
       color-rendering="auto"
       fill="#ffffff"
       fill-rule="evenodd"
       image-rendering="auto"
       shape-rendering="auto"
       style="isolation:auto;mix-blend-mode:normal;paint-order:markers stroke fill"
       id="path6-2" /><path
       d="m -153.02485,147.67127 c -23.63,1.1631 -47.451,1.8254 -70.701,6.5776 -9.1124,1.8964 -18.594,4.7095 -25.165,11.711 -5.5479,5.3998 -10.392,11.716 -13.65,18.746 0.21599,0.97436 2.251,-0.28975 2.9846,-0.10055 3.3802,-0.40447 7.4112,-2.2945 10.516,-0.17578 1.7411,2.3412 2.7865,5.1032 4.0869,7.6949 8.0044,-6.9706 16.854,-13.456 27.201,-16.391 13.456,-2.7076 27.267,-2.821 40.928,-3.6306 11.53,-0.60174 23.174,-0.70045 34.638,-1.4983 -1.6424,-6.7513 -3.2773,-13.514 -4.5047,-20.362 0.13263,-3.0768 -2.0839,-3.0463 -4.5374,-2.6436 -0.59916,0.0244 -1.1983,0.0489 -1.7975,0.0733 z"
       color="#000000"
       color-rendering="auto"
       fill="#ffffff"
       fill-rule="evenodd"
       image-rendering="auto"
       shape-rendering="auto"
       style="isolation:auto;mix-blend-mode:normal;fill:#ebe5d2;fill-opacity:1;paint-order:markers stroke fill"
       id="path6-2-2" /><path
       d="m -282.33603,173.3246 c -14.716,-0.15114 -29.386,3.128 -42.625,9.5592 -17.461,8.2789 -33.662,18.915 -50.782,27.847 -2.5054,1.3466 -5.0481,2.6218 -7.5771,3.9232 -1.7458,8.4471 -1.9927,17.281 -3.7793,25.636 13.728,-7.2207 26.91,-15.513 40.662,-22.727 16.797,-8.7492 34.148,-17.849 53.253,-19.949 6.0019,-0.48 12.029,-0.25694 18.044,-0.31122 0.11547,-6.654 2.6128,-12.943 6.1212,-18.512 0.5495,-1.375 2.8701,-3.9871 0.56145,-4.8545 -4.5413,-0.83355 -9.2737,-0.51669 -13.878,-0.61151 z"
       color="#000000"
       color-rendering="auto"
       fill="#ffffff"
       fill-rule="evenodd"
       image-rendering="auto"
       shape-rendering="auto"
       style="isolation:auto;mix-blend-mode:normal;paint-order:markers stroke fill"
       id="path7-4" /><path
       d="m -287.29694,175.80509 c -14.716,-0.15114 -29.386,3.128 -42.625,9.5592 -17.461,8.2789 -33.662,18.915 -50.782,27.847 -2.5054,1.3466 -5.0481,2.6218 -7.5771,3.9232 -1.7458,8.4471 -1.9927,17.281 -3.7793,25.636 13.728,-7.2207 26.91,-15.513 40.662,-22.727 16.797,-8.7492 34.148,-17.849 53.253,-19.949 6.0019,-0.48 12.029,-0.25694 18.044,-0.31122 0.11547,-6.654 2.6128,-12.943 6.1212,-18.512 0.5495,-1.375 2.8701,-3.9871 0.56145,-4.8545 -4.5413,-0.83355 -9.2737,-0.51669 -13.878,-0.61151 z"
       color="#000000"
       color-rendering="auto"
       fill="#ffffff"
       fill-rule="evenodd"
       image-rendering="auto"
       shape-rendering="auto"
       style="isolation:auto;mix-blend-mode:normal;fill:#ebe5d2;fill-opacity:1;paint-order:markers stroke fill"
       id="path7-4-8" /><path
       d="m -444.75603,120.9046 c -2.8037,3.1918 -3.375,7.7943 -4.0251,11.879 -0.84703,4.9521 3.1447,8.8512 5.0732,13.036 17.594,30.395 35.52,60.596 53.311,90.876 1.0054,-7.5925 1.3434,-15.25 1.8412,-22.887 -17.987,-30.235 -35.529,-60.747 -54.213,-90.56 -0.64098,-0.70045 -1.0365,-2.0729 -1.987,-2.3439 z"
       color="#000000"
       color-rendering="auto"
       fill="#ffffff"
       fill-rule="evenodd"
       image-rendering="auto"
       shape-rendering="auto"
       style="isolation:auto;mix-blend-mode:normal;paint-order:markers stroke fill"
       id="path8-5" /><path
       d="m -444.48134,124.23049 c -2.8037,3.1918 -3.375,7.7943 -4.0251,11.879 -0.84703,4.9521 3.1447,8.8512 5.0732,13.036 17.594,30.395 35.52,60.596 53.311,90.876 1.0054,-7.5925 1.3434,-15.25 1.8412,-22.887 -17.987,-30.235 -35.529,-60.747 -54.213,-90.56 -0.64098,-0.70045 -1.0365,-2.0729 -1.987,-2.3439 z"
       color="#000000"
       color-rendering="auto"
       fill="#ffffff"
       fill-rule="evenodd"
       image-rendering="auto"
       shape-rendering="auto"
       style="isolation:auto;mix-blend-mode:normal;fill:#ebe5d2;fill-opacity:1;paint-order:markers stroke fill"
       id="path8-5-3" /><path
       d="m -393.90823,246.13479 c -1.3841,-2.3375 -5.9563,-10.325 -10.161,-17.75 -4.2047,-7.425 -17.42,-30.516 -29.369,-51.313 -11.948,-20.797 -21.936,-38.401 -22.193,-39.119 -0.25851,-0.71978 0.32893,-1.5284 1.3094,-1.8023 1.3224,-0.36948 2.0629,-2.043 2.8888,-6.528 1.3949,-7.57551 4.2378,-12.19501 9.0221,-14.66101 2.0522,-1.0577 9.6276,-5.8209 16.834,-10.585 18.365,-12.14 20.625,-13.47 28.546,-16.79599 12.813,-5.3807 27.233,-7.7022 35.565,-5.7261 3.9315,0.9324 11.168,4.7251 16.583,8.69099 l 3.9477,2.8915 6.3474,-6.89079 c 3.4911,-3.7899 8.5514,-8.0804 11.245,-9.5344 9.4602,-5.1061 13.78,-5.7718 43.77,-6.7459 15.443,-0.50158 29.973,-1.1625 32.289,-1.4688 l 4.2116,-0.5568 48.987,35.63899 c 26.943,19.601 49.517,35.85601 50.164,36.12101 0.80459,0.32989 1.0417,1.9842 0.74974,5.2308 l -0.42701,4.7483 18.082,14.522 -0.58699,4.6917 c -0.32284,2.5804 -0.72934,5.1886 -0.90333,5.7959 -0.17398,0.60729 -3.6171,1.4169 -7.6515,1.7991 -8.5879,0.81364 -57.182,7.2909 -84.081,11.207 -17.882,2.6036 -18.913,2.8748 -23.067,6.0668 -10.007,7.6882 -20.514,10.851 -33.332,10.034 -8.5361,-0.54414 -9.216,-0.42526 -19.741,3.4518 -27.312,10.061 -57.199,23.102 -82.373,35.945 -7.4309,3.7907 -13.652,6.8922 -13.825,6.8922 -0.17313,0 -1.4472,-1.9125 -2.8313,-4.25 z m 29.635,-18.068 c 40.299,-23.322 61.301,-31.213 81.167,-30.496 l 8.6858,0.31341 0.003,-2.5 c 0.006,-4.4316 1.8464,-9.7702 5.2111,-15.112 3.958,-6.2842 3.5334,-6.8055 -5.6863,-6.9832 -28.16,-0.54258 -41.962,3.6846 -74.164,22.713 -12.286,7.26 -30.839,17.415 -33.87,18.54 -0.50848,0.18855 -1.4215,5.7428 -2.0289,12.343 -0.60741,6.6 -1.5721,12.632 -2.1439,13.405 -1.2422,1.6789 -0.59577,1.3328 22.827,-12.222 z m -24.15,-7.6823 0.28438,-6.5 -27.603,-46.752 c -15.182,-25.714 -28.027,-46.60601 -28.546,-46.42601 -1.4208,0.49173 -3.2091,4.93691 -4.1493,10.31401 -0.66811,3.8211 -0.52194,5.4429 0.71564,7.9402 0.85539,1.7261 14.19,24.587 29.633,50.802 l 28.078,47.664 0.65154,-5.2707 c 0.35835,-2.8989 0.77951,-8.1957 0.93592,-11.771 z m 11.565,-11.866 c 4.0908,-2.1264 14.889,-8.3598 23.996,-13.852 29.888,-18.025 44.329,-23.089 68.826,-24.134 l 15.19,-0.64811 -33.618,-34.745 c -35.587,-36.779 -42.44,-43.05201 -52.89,-48.41 -5.4328,-2.7854 -7.5936,-3.3454 -12.908,-3.3454 -14.096,0 -29.571,5.4325 -45.894,16.111 -5.2504,3.43469 -13.665,8.91389 -18.699,12.17599 l -9.1526,5.9311 1.876,3.1411 c 1.0318,1.7276 13.574,23.03201 27.871,47.34301 14.297,24.311 26.438,44.224 26.98,44.25 0.54198,0.0263 4.3325,-1.692 8.4233,-3.8184 z m 136.81,-23.774 c 6.3586,-5.5337 16.462,-10.901 23.08,-12.26 7.0301,-1.4444 28.996,-2.9821 53.221,-3.7258 11.711,-0.35951 21.289,-0.70314 21.285,-0.76363 -0.004,-0.0605 -0.82178,-2.9724 -1.8175,-6.4708 -0.99567,-3.4985 -2.0939,-8.786 -2.4405,-11.75 -0.34924,-2.9867 -1.1036,-5.3766 -1.6922,-5.3611 -45.787,1.2104 -75.508,4.7983 -90.709,10.95 -6.6304,2.6835 -15.17,10.839 -20.891,19.95 -2.2318,3.5547 -3.862,6.6724 -3.6225,6.9283 0.2395,0.2559 2.67,-0.10756 5.4013,-0.80763 6.8612,-1.7587 8.3129,-1.2452 10.463,3.7007 1.0162,2.3375 1.9698,4.25 2.119,4.25 0.14928,0 2.6707,-2.0881 5.6032,-4.6402 z m -11.298,-25.822 c 9.2563,-7.5516 23.428,-12.433 41.972,-14.458 8.934,-0.97553 53.771,-4.0797 58.927,-4.0797 1.6081,0 1.6675,-0.17827 0.47028,-1.4106 -0.75375,-0.77585 -22.218,-16.55701 -47.698,-35.06901 -41.531,-30.17299 -46.619,-33.59599 -49.136,-33.06099 -1.5443,0.32878 -15.443,0.98147 -30.885,1.4504 -30.181,0.9165 -35.211,1.6426 -43.973,6.3472 -5.2776,2.8338 -16.851,14.001 -16.212,15.644 0.15742,0.40494 17.262,17.94899 38.01,38.987 l 37.724,38.251 3.2469,-4.5434 c 1.7858,-2.4989 5.1851,-6.1247 7.554,-8.0574 z"
       fill="#001873"
       id="path3-4-7"
       style="fill:url(#linearGradient27);fill-opacity:1" /></g><g
     id="g1"
     transform="matrix(3.7795276,0,0,3.7795276,-179.52603,-271.47615)"><rect
       style="opacity:0.7;fill:#000000;fill-opacity:1;stroke:none;stroke-width:0.5;stroke-linecap:round;stroke-linejoin:round;stroke-miterlimit:4;stroke-dasharray:none;stroke-opacity:1;filter:url(#filter3351)"
       id="rect3305"
       width="100"
       height="100"
       x="14"
       y="14"
       rx="7.4348507"
       ry="7.4348507"
       clip-path="url(#clipPath3393-8)"
       transform="matrix(0.06035204,0,0,0.06035204,57.263107,81.591575)" /><rect
       ry="0.3395631"
       rx="0.3395631"
       y="82.557205"
       x="58.228741"
       height="5.7937961"
       width="5.7937961"
       id="rect3141"
       style="opacity:0.7;fill:#eeeeee;fill-opacity:1;stroke:none;stroke-width:0.030176;stroke-linecap:round;stroke-linejoin:round;stroke-miterlimit:4;stroke-dasharray:none;stroke-opacity:1" /><rect
       style="fill:url(#radialGradient3139);fill-opacity:1;stroke:none;stroke-width:0.030176;stroke-linecap:round;stroke-linejoin:round;stroke-miterlimit:4;stroke-dasharray:none;stroke-opacity:1"
       id="rect2160"
       width="4.8281631"
       height="4.8281631"
       x="58.711555"
       y="83.040024"
       rx="0.3395631"
       ry="0.3395631" /><rect
       style="opacity:0.7;fill:none;fill-opacity:1;stroke:#ffffff;stroke-width:0.060352;stroke-linecap:round;stroke-linejoin:round;stroke-miterlimit:4;stroke-dasharray:none;stroke-opacity:1"
       id="rect3178"
       width="5.7334437"
       height="5.7334437"
       x="58.258915"
       y="82.587387"
       rx="0.3395631"
       ry="0.3395631" /><g
       id="g3160"
       transform="matrix(0.10052357,0,0,0.10052357,53.486604,79.984714)"
       style="fill:#ffffff;fill-opacity:1"><path
         style="fill:#ffffff;fill-opacity:1;fill-rule:evenodd;stroke:none;stroke-width:8;stroke-linecap:butt;stroke-linejoin:miter;stroke-miterlimit:4;stroke-dasharray:none;stroke-opacity:1"
         d="m 44.03125,40 11.3125,11.3125 c -11.876179,7.722557 -19.608831,20.391169 2,42 C 52.734046,74.873684 60.878036,66.021115 70.75,66.71875 L 84,79.96875 V 73.3125 40 Z"
         transform="matrix(0.600377,0,0,0.600377,37.568332,15.98492)"
         id="path2179" /></g></g></svg>
