<?xml version="1.0" encoding="UTF-8" standalone="no"?>
<!-- Created with Inkscape (http://www.inkscape.org/) -->

<svg
   width="64"
   height="64"
   viewBox="0 0 16.933333 16.933333"
   version="1.1"
   id="svg1"
   xml:space="preserve"
   inkscape:version="1.4.2 (ebf0e94, 2025-05-08)"
   sodipodi:docname="itologo.svg"
   xmlns:inkscape="http://www.inkscape.org/namespaces/inkscape"
   xmlns:sodipodi="http://sodipodi.sourceforge.net/DTD/sodipodi-0.dtd"
   xmlns="http://www.w3.org/2000/svg"
   xmlns:svg="http://www.w3.org/2000/svg"><sodipodi:namedview
     id="namedview1"
     pagecolor="#ffffff"
     bordercolor="#000000"
     borderopacity="0.25"
     inkscape:showpageshadow="2"
     inkscape:pageopacity="0.0"
     inkscape:pagecheckerboard="0"
     inkscape:deskcolor="#d1d1d1"
     inkscape:document-units="mm"
     inkscape:zoom="3.2337963"
     inkscape:cx="-28.449535"
     inkscape:cy="173.63493"
     inkscape:window-width="3840"
     inkscape:window-height="2054"
     inkscape:window-x="-11"
     inkscape:window-y="-11"
     inkscape:window-maximized="1"
     inkscape:current-layer="layer1" /><defs
     id="defs1" /><g
     inkscape:label="Layer 1"
     inkscape:groupmode="layer"
     id="layer1"
     transform="translate(-56.483645,-93.611075)"><path
       style="fill:#000000;stroke-width:0.360467"
       d="m 58.290337,109.26273 c -0.810965,-0.10473 -1.202667,-0.26961 -1.532206,-0.64493 -0.286071,-0.32582 -0.300017,-0.37694 -0.255189,-0.93543 0.03533,-0.44026 0.157297,-0.8187 0.478697,-1.48546 0.585482,-1.21462 2.384495,-4.29366 2.581166,-4.41772 0.207543,-0.13091 0.481646,0.0348 0.523492,0.31656 0.01925,0.12963 -0.318995,0.80606 -0.901287,1.80236 -1.767909,3.0249 -2.129443,3.88288 -1.782407,4.22991 0.234106,0.23411 1.004598,0.36893 2.11749,0.37051 1.124367,10e-4 1.33201,0.0526 1.405437,0.34514 0.107535,0.42846 -0.08637,0.51311 -1.144011,0.49941 -0.531246,-0.007 -1.202278,-0.043 -1.491182,-0.0803 z m 14.552456,-0.0365 c -0.07958,-0.06 -1.092877,-1.82585 -2.251784,-3.92407 -4.0982,-7.41988 -5.301275,-9.407488 -5.84385,-9.654704 -0.186654,-0.08505 -0.287664,-0.07165 -0.518587,0.06878 -0.320747,0.195059 -1.146268,1.386364 -1.934329,2.791414 -0.287123,0.511925 -0.595528,0.954211 -0.685346,0.982865 -0.225418,0.07191 -0.552001,-0.120353 -0.552001,-0.324969 0,-0.203642 1.232221,-2.335538 1.851666,-3.203609 0.626882,-0.878495 1.012543,-1.150889 1.629472,-1.150889 0.957956,0 1.365021,0.510887 3.761603,4.720996 3.330856,5.851366 5.172337,9.267906 5.11609,9.492006 -0.06286,0.25045 -0.366762,0.35769 -0.572934,0.20218 z M 61.29533,107.9761 c -0.470702,-0.17089 -0.861942,-0.59213 -0.995005,-1.0713 -0.0554,-0.19951 -0.100967,-1.2073 -0.101259,-2.23955 -7.21e-4,-2.02242 0.03569,-2.17657 0.511759,-2.17657 0.412469,0 0.441447,0.1312 0.441447,1.99871 0,2.30857 0.07558,2.5746 0.732332,2.57777 0.357476,0.002 0.602896,0.21387 0.602896,0.52115 0,0.43406 -0.563093,0.61817 -1.19217,0.38979 z m 3.216051,0.0318 c -0.528882,-0.0958 -0.907956,-0.37185 -1.126479,-0.82022 -0.145863,-0.29928 -0.181502,-0.65831 -0.21269,-2.1425 l -0.03746,-1.78297 -0.290162,-0.0291 c -0.59887,-0.0601 -0.590367,-0.66687 0.0102,-0.72663 l 0.300349,-0.0299 v -1.37688 c 0,-1.24971 0.01763,-1.394492 0.190745,-1.567621 0.225674,-0.225674 0.374471,-0.238892 0.625544,-0.05558 0.166438,0.12152 0.188225,0.279899 0.215765,1.568311 l 0.03064,1.43315 0.341205,0.0292 c 0.675364,0.0578 0.669654,0.66887 -0.0068,0.72641 l -0.347992,0.0296 v 1.75325 c 0,1.70364 0.006,1.75745 0.211969,1.90171 0.116583,0.0817 0.312536,0.14847 0.435452,0.14847 0.373783,0 0.592439,0.17293 0.592439,0.46855 0,0.43634 -0.298568,0.58768 -0.932706,0.47276 z m 2.581447,-0.0912 c -0.453774,-0.22461 -0.924332,-0.85786 -1.088139,-1.46436 -0.05751,-0.21293 -0.08665,-0.73101 -0.06475,-1.15131 0.03215,-0.61696 0.09361,-0.86301 0.319071,-1.27726 0.495297,-0.91002 1.334634,-1.25537 2.161802,-0.88947 0.796118,0.35216 1.242247,1.21635 1.242247,2.40635 0,1.16676 -0.442896,2.04716 -1.203633,2.39263 -0.511313,0.23219 -0.87289,0.22781 -1.366601,-0.0166 z m 1.215864,-1.04446 c 0.957477,-1.02498 0.223775,-3.43853 -0.867717,-2.85438 -0.51947,0.27801 -0.772071,1.63465 -0.446241,2.39663 0.334683,0.7827 0.8445,0.96031 1.313958,0.45775 z m -8.212867,-5.61607 c -0.35541,-0.35541 -0.366315,-0.74704 -0.03187,-1.14451 0.199148,-0.23667 0.319951,-0.293433 0.624481,-0.293433 0.786919,0 1.131053,0.873433 0.566547,1.437943 -0.374818,0.37482 -0.784338,0.37482 -1.159155,0 z m 0.770326,-0.57958 c 0,-0.12717 -0.06358,-0.19075 -0.190749,-0.19075 -0.183802,0 -0.258451,0.18663 -0.127166,0.31791 0.13129,0.13129 0.317915,0.0566 0.317915,-0.12716 z"
       id="path1" /></g></svg>
