<?xml version="1.0" encoding="UTF-8" standalone="no"?>
<!-- Created with Inkscape (http://www.inkscape.org/) -->

<svg
   width="128"
   height="128"
   id="svg2"
   sodipodi:version="0.32"
   inkscape:version="1.4.2 (f4327f4, 2025-05-13)"
   version="1.0"
   sodipodi:docname="2downarrow.svg"
   inkscape:output_extension="org.inkscape.output.svgz.inkscape"
   inkscape:export-filename="arrow-down-double.png"
   inkscape:export-xdpi="11.25"
   inkscape:export-ydpi="11.25"
   xmlns:inkscape="http://www.inkscape.org/namespaces/inkscape"
   xmlns:sodipodi="http://sodipodi.sourceforge.net/DTD/sodipodi-0.dtd"
   xmlns:xlink="http://www.w3.org/1999/xlink"
   xmlns="http://www.w3.org/2000/svg"
   xmlns:svg="http://www.w3.org/2000/svg"
   xmlns:rdf="http://www.w3.org/1999/02/22-rdf-syntax-ns#"
   xmlns:cc="http://creativecommons.org/ns#"
   xmlns:dc="http://purl.org/dc/elements/1.1/"
   xmlns:a="http://ns.adobe.com/AdobeSVGViewerExtensions/3.0/">
  <defs
     id="defs4">
    <linearGradient
       inkscape:collect="always"
       id="linearGradient3733">
      <stop
         style="stop-color:#e5ff00;stop-opacity:1;"
         offset="0"
         id="stop3735" />
      <stop
         style="stop-color:#e5ff00;stop-opacity:0;"
         offset="1"
         id="stop3737" />
    </linearGradient>
    <linearGradient
       inkscape:collect="always"
       id="linearGradient3710">
      <stop
         style="stop-color:#ffffff;stop-opacity:1;"
         offset="0"
         id="stop3712" />
      <stop
         style="stop-color:#ffffff;stop-opacity:0;"
         offset="1"
         id="stop3714" />
    </linearGradient>
    <linearGradient
       id="linearGradient3689"
       inkscape:collect="always">
      <stop
         id="stop3691"
         offset="0"
         style="stop-color:#f0ff80;stop-opacity:1" />
      <stop
         id="stop3693"
         offset="1"
         style="stop-color:#f0ff80;stop-opacity:0" />
    </linearGradient>
    <linearGradient
       inkscape:collect="always"
       id="linearGradient3669">
      <stop
         style="stop-color:#ffffff;stop-opacity:1;"
         offset="0"
         id="stop3671" />
      <stop
         style="stop-color:#ffffff;stop-opacity:0;"
         offset="1"
         id="stop3673" />
    </linearGradient>
    <linearGradient
       id="linearGradient3503"
       inkscape:collect="always">
      <stop
         id="stop3505"
         offset="0"
         style="stop-color:#005f1e;stop-opacity:1" />
      <stop
         id="stop3507"
         offset="1"
         style="stop-color:#43943c;stop-opacity:1" />
    </linearGradient>
    <linearGradient
       inkscape:collect="always"
       id="linearGradient3493">
      <stop
         style="stop-color:#ffffff;stop-opacity:1;"
         offset="0"
         id="stop3495" />
      <stop
         style="stop-color:#ffffff;stop-opacity:0;"
         offset="1"
         id="stop3497" />
    </linearGradient>
    <linearGradient
       inkscape:collect="always"
       id="linearGradient3438">
      <stop
         style="stop-color:#002100;stop-opacity:1;"
         offset="0"
         id="stop3440" />
      <stop
         style="stop-color:#002100;stop-opacity:0;"
         offset="1"
         id="stop3442" />
    </linearGradient>
    <linearGradient
       inkscape:collect="always"
       id="linearGradient3426">
      <stop
         style="stop-color:#004d00;stop-opacity:1;"
         offset="0"
         id="stop3428" />
      <stop
         style="stop-color:#004d00;stop-opacity:0;"
         offset="1"
         id="stop3430" />
    </linearGradient>
    <linearGradient
       inkscape:collect="always"
       id="linearGradient3400">
      <stop
         style="stop-color:#e5ff00;stop-opacity:1;"
         offset="0"
         id="stop3402" />
      <stop
         style="stop-color:#e5ff00;stop-opacity:0;"
         offset="1"
         id="stop3404" />
    </linearGradient>
    <linearGradient
       inkscape:collect="always"
       id="linearGradient3386">
      <stop
         style="stop-color:#ffffff;stop-opacity:1;"
         offset="0"
         id="stop3388" />
      <stop
         style="stop-color:#ffffff;stop-opacity:0;"
         offset="1"
         id="stop3390" />
    </linearGradient>
    <linearGradient
       inkscape:collect="always"
       id="linearGradient3361">
      <stop
         style="stop-color:#edffbf;stop-opacity:1;"
         offset="0"
         id="stop3363" />
      <stop
         style="stop-color:#edffbf;stop-opacity:0;"
         offset="1"
         id="stop3365" />
    </linearGradient>
    <linearGradient
       inkscape:collect="always"
       id="linearGradient3348">
      <stop
         style="stop-color:#cbff10;stop-opacity:1"
         offset="0"
         id="stop3350" />
      <stop
         style="stop-color:#004d00;stop-opacity:1"
         offset="1"
         id="stop3352" />
    </linearGradient>
    <linearGradient
       inkscape:collect="always"
       id="linearGradient3294">
      <stop
         style="stop-color:#37a42c;stop-opacity:1;"
         offset="0"
         id="stop3296" />
      <stop
         style="stop-color:#bff500;stop-opacity:1"
         offset="1"
         id="stop3298" />
    </linearGradient>
    <radialGradient
       id="radialGradient2854"
       cx="538.77338"
       cy="651.10352"
       r="126.0234"
       gradientTransform="translate(-484,-674)"
       gradientUnits="userSpaceOnUse">
      <stop
         offset="0"
         style="stop-color:#cbcbcb;stop-opacity:1;"
         id="stop2856" />
      <stop
         offset="0.53930002"
         style="stop-color:#282828;stop-opacity:1;"
         id="stop2858" />
      <stop
         offset="1"
         style="stop-color:#9d9d9d;stop-opacity:1;"
         id="stop2860" />
    </radialGradient>
    <linearGradient
       id="linearGradient2862"
       gradientUnits="userSpaceOnUse"
       x1="538.77338"
       y1="677.87701"
       x2="538.77338"
       y2="789.12207"
       gradientTransform="translate(-484,-674)">
      <stop
         offset="0.0056"
         style="stop-color:#4d4d4d;stop-opacity:1;"
         id="stop2864" />
      <stop
         offset="0.1348"
         style="stop-color:#676767;stop-opacity:1;"
         id="stop2866" />
      <stop
         offset="0.4831"
         style="stop-color:#b2b2b2;stop-opacity:1;"
         id="stop2868" />
      <stop
         offset="0.62989998"
         style="stop-color:#aaa;stop-opacity:1;"
         id="stop2870" />
      <stop
         offset="0.85280001"
         style="stop-color:#a1a1a1;stop-opacity:1;"
         id="stop2872" />
      <stop
         offset="1"
         style="stop-color:#9d9d9d;stop-opacity:1;"
         id="stop2874" />
    </linearGradient>
    <radialGradient
       id="radialGradient2876"
       cx="538.77252"
       cy="792.99609"
       r="121.5466"
       gradientTransform="translate(-484,-674)"
       gradientUnits="userSpaceOnUse">
      <stop
         offset="0"
         style="stop-color:#d9d9d9;stop-opacity:1;"
         id="stop2878" />
      <stop
         offset="0.0494"
         style="stop-color:#c7c7c7;stop-opacity:1;"
         id="stop2880" />
      <stop
         offset="0.1049"
         style="stop-color:#b9b9b9;stop-opacity:1;"
         id="stop2882" />
      <stop
         offset="0.14321923"
         style="stop-color:#aeaeae;stop-opacity:1;"
         id="stop2884" />
      <stop
         offset="0.2156"
         style="stop-color:#a9a9a9;stop-opacity:1;"
         id="stop2886" />
      <stop
         offset="0.26969999"
         style="stop-color:#a6a6a6;stop-opacity:1;"
         id="stop2888" />
      <stop
         offset="0.3989"
         style="stop-color:#676767;stop-opacity:1;"
         id="stop2890" />
      <stop
         offset="0.39950001"
         style="stop-color:#676767;stop-opacity:1;"
         id="stop2892" />
      <stop
         offset="0.44839999"
         style="stop-color:#545454;stop-opacity:1;"
         id="stop2894" />
      <stop
         offset="0.49559999"
         style="stop-color:#414141;stop-opacity:1;"
         id="stop2896" />
      <stop
         offset="0.53988957"
         style="stop-color:#353535;stop-opacity:1;"
         id="stop2898" />
      <stop
         offset="0.57096523"
         style="stop-color:#313131;stop-opacity:1;"
         id="stop2900" />
      <stop
         offset="0.5948"
         style="stop-color:#3e3e3e;stop-opacity:1;"
         id="stop2902" />
      <stop
         offset="0.64560002"
         style="stop-color:#5f5f5f;stop-opacity:1;"
         id="stop2904" />
      <stop
         offset="0.69319999"
         style="stop-color:#707070;stop-opacity:1;"
         id="stop2906" />
      <stop
         offset="0.73589998"
         style="stop-color:#7b7b7b;stop-opacity:1;"
         id="stop2908" />
      <stop
         offset="0.76969999"
         style="stop-color:#7f7f7f;stop-opacity:1;"
         id="stop2910" />
      <stop
         offset="1"
         style="stop-color:#313131;stop-opacity:1;"
         id="stop2912" />
    </radialGradient>
    <linearGradient
       id="linearGradient2914"
       gradientUnits="userSpaceOnUse"
       x1="538.77338"
       y1="793"
       x2="538.77338"
       y2="674"
       gradientTransform="translate(-484,-674)">
      <stop
         offset="0"
         style="stop-color:#262626;stop-opacity:1;"
         id="stop2916" />
      <stop
         offset="0.1124"
         style="stop-color:#313131;stop-opacity:1;"
         id="stop2918" />
      <stop
         offset="0.37450001"
         style="stop-color:#4d4d4d;stop-opacity:1;"
         id="stop2920" />
      <stop
         offset="0.42309999"
         style="stop-color:#505050;stop-opacity:1;"
         id="stop2922" />
      <stop
         offset="0.43689999"
         style="stop-color:#575757;stop-opacity:1;"
         id="stop2924" />
      <stop
         offset="0.44909999"
         style="stop-color:#646464;stop-opacity:1;"
         id="stop2926" />
      <stop
         offset="0.4605"
         style="stop-color:#757575;stop-opacity:1;"
         id="stop2928" />
      <stop
         offset="0.47119999"
         style="stop-color:#8a8a8a;stop-opacity:1;"
         id="stop2930" />
      <stop
         offset="0.48140001"
         style="stop-color:#a3a3a3;stop-opacity:1;"
         id="stop2932" />
      <stop
         offset="0.49110001"
         style="stop-color:silver;stop-opacity:1;"
         id="stop2934" />
      <stop
         offset="0.49439999"
         style="stop-color:#dfdfdf;stop-opacity:1;"
         id="stop2936" />
      <stop
         offset="0.51748788"
         style="stop-color:#afafaf;stop-opacity:1;"
         id="stop2938" />
      <stop
         offset="0.53259999"
         style="stop-color:#949494;stop-opacity:1;"
         id="stop2940" />
      <stop
         offset="0.55519998"
         style="stop-color:#7c7c7c;stop-opacity:1;"
         id="stop2942" />
      <stop
         offset="0.58454067"
         style="stop-color:#656565;stop-opacity:1;"
         id="stop2944" />
      <stop
         offset="0.60860002"
         style="stop-color:#525252;stop-opacity:1;"
         id="stop2946" />
      <stop
         offset="0.64160001"
         style="stop-color:#434343;stop-opacity:1;"
         id="stop2948" />
      <stop
         offset="0.69285822"
         style="stop-color:#393939;stop-opacity:1;"
         id="stop2951" />
      <stop
         offset="0.73979998"
         style="stop-color:#333;stop-opacity:1;"
         id="stop2953" />
      <stop
         offset="0.89889997"
         style="stop-color:#313131;stop-opacity:1;"
         id="stop2955" />
      <stop
         offset="1"
         style="stop-color:#a6a8a4;stop-opacity:1;"
         id="stop2957" />
    </linearGradient>
    <radialGradient
       cx="265.3931"
       cy="-6078.353"
       r="253.01871"
       fx="369.5242"
       fy="-6078.353"
       id="path2295_1_"
       gradientUnits="userSpaceOnUse"
       gradientTransform="matrix(0.183616,0,0,-1.462967e-2,-0.962917,-7.25873)">
      <stop
         style="stop-color:#000000;stop-opacity:1"
         offset="0"
         id="stop8" />
      <stop
         style="stop-color:#ffffff;stop-opacity:1"
         offset="1"
         id="stop10" />
      <a:midPointStop
         style="stop-color:#000000"
         offset="0" />
      <a:midPointStop
         style="stop-color:#000000"
         offset="0.5" />
      <a:midPointStop
         style="stop-color:#FFFFFF"
         offset="1" />
    </radialGradient>
    <filter
       inkscape:collect="always"
       id="filter3396"
       x="-0.019883905"
       y="-0.023211588"
       width="1.0367639"
       height="1.0464232">
      <feGaussianBlur
         inkscape:collect="always"
         stdDeviation="0.495"
         id="feGaussianBlur3398" />
    </filter>
    <filter
       inkscape:collect="always"
       id="filter3533"
       x="-0.02818522"
       y="-0.029267283"
       width="1.0563704"
       height="1.0585322">
      <feGaussianBlur
         inkscape:collect="always"
         stdDeviation="1.0600355"
         id="feGaussianBlur3535" />
    </filter>
    <filter
       inkscape:collect="always"
       x="-0.12239106"
       width="1.2447821"
       y="-0.078971457"
       height="1.1579429"
       id="filter3681">
      <feGaussianBlur
         inkscape:collect="always"
         stdDeviation="0.321914"
         id="feGaussianBlur3683" />
    </filter>
    <filter
       inkscape:collect="always"
       x="-0.45196507"
       width="1.9039301"
       y="-0.29913295"
       height="1.5982659"
       id="filter3722">
      <feGaussianBlur
         inkscape:collect="always"
         stdDeviation="1.3476562"
         id="feGaussianBlur3724" />
    </filter>
    <filter
       inkscape:collect="always"
       x="-0.1617942"
       width="1.3235884"
       y="-0.095365469"
       height="1.1907309"
       id="filter3743">
      <feGaussianBlur
         inkscape:collect="always"
         stdDeviation="0.61936845"
         id="feGaussianBlur3745" />
    </filter>
    <radialGradient
       inkscape:collect="always"
       xlink:href="#linearGradient3689"
       id="radialGradient2403"
       gradientUnits="userSpaceOnUse"
       gradientTransform="matrix(0.9650814,0.2619502,-0.9201984,3.3902106,17.309062,-57.693239)"
       cx="71.775223"
       cy="16.0865"
       fx="71.775223"
       fy="16.0865"
       r="3.15625" />
    <radialGradient
       inkscape:collect="always"
       xlink:href="#linearGradient3689"
       id="radialGradient2405"
       gradientUnits="userSpaceOnUse"
       gradientTransform="matrix(0.9650814,0.2619502,-0.9201984,3.3902106,17.309062,-57.693239)"
       cx="71.775223"
       cy="16.0865"
       fx="71.775223"
       fy="16.0865"
       r="3.15625" />
    <radialGradient
       inkscape:collect="always"
       xlink:href="#linearGradient3733"
       id="radialGradient2407"
       gradientUnits="userSpaceOnUse"
       gradientTransform="matrix(0.8660254,0.5,-2.5824057,4.4728578,124.36771,-189.29673)"
       cx="72.59375"
       cy="44.199867"
       fx="72.59375"
       fy="44.199867"
       r="4.59375" />
    <radialGradient
       inkscape:collect="always"
       xlink:href="#linearGradient3710"
       id="radialGradient2417"
       gradientUnits="userSpaceOnUse"
       gradientTransform="matrix(6.5079869,0,0,1.510917,-63.772161,-32.970115)"
       cx="11.578125"
       cy="64.53125"
       fx="11.578125"
       fy="64.53125"
       r="3.578125" />
    <linearGradient
       inkscape:collect="always"
       xlink:href="#linearGradient3400"
       id="linearGradient2432"
       gradientUnits="userSpaceOnUse"
       x1="91.785248"
       y1="112.5"
       x2="91.992706"
       y2="44.287056" />
    <linearGradient
       inkscape:collect="always"
       xlink:href="#linearGradient3493"
       id="linearGradient2435"
       gradientUnits="userSpaceOnUse"
       x1="92.700165"
       y1="16"
       x2="108.70443"
       y2="75.728737" />
    <linearGradient
       inkscape:collect="always"
       xlink:href="#linearGradient3386"
       id="linearGradient2438"
       gradientUnits="userSpaceOnUse"
       x1="116.14262"
       y1="76.660683"
       x2="89.082176"
       y2="29.583153" />
    <linearGradient
       inkscape:collect="always"
       xlink:href="#linearGradient3361"
       id="linearGradient2441"
       gradientUnits="userSpaceOnUse"
       x1="90.418152"
       y1="6.3332911"
       x2="90.418152"
       y2="86.427879" />
    <linearGradient
       inkscape:collect="always"
       xlink:href="#linearGradient3400"
       id="linearGradient2444"
       gradientUnits="userSpaceOnUse"
       x1="91.785248"
       y1="112.5"
       x2="91.992706"
       y2="44.287056" />
    <radialGradient
       inkscape:collect="always"
       xlink:href="#linearGradient3348"
       id="radialGradient2447"
       gradientUnits="userSpaceOnUse"
       gradientTransform="matrix(1.3229896,0,0,1.2700701,-22.928996,-22.179188)"
       cx="70.568741"
       cy="76.274155"
       fx="73.241119"
       fy="83.511856"
       r="50" />
    <radialGradient
       inkscape:collect="always"
       xlink:href="#linearGradient3733"
       id="radialGradient2451"
       gradientUnits="userSpaceOnUse"
       gradientTransform="matrix(0.8660254,0.5,-2.5824057,4.4728578,124.36771,-189.29673)"
       cx="72.59375"
       cy="44.199867"
       fx="72.59375"
       fy="44.199867"
       r="4.59375" />
    <radialGradient
       inkscape:collect="always"
       xlink:href="#linearGradient3426"
       id="radialGradient2454"
       gradientUnits="userSpaceOnUse"
       gradientTransform="matrix(1.3413871,-0.1603659,0.4039213,3.3786163,-40.193418,-71.115595)"
       cx="72.25"
       cy="38.44363"
       fx="72.25"
       fy="38.44363"
       r="7.96875" />
    <linearGradient
       inkscape:collect="always"
       xlink:href="#linearGradient3294"
       id="linearGradient2457"
       gradientUnits="userSpaceOnUse"
       gradientTransform="translate(-4,0)"
       x1="43.799026"
       y1="32.051865"
       x2="58.606159"
       y2="96.363052" />
    <radialGradient
       inkscape:collect="always"
       xlink:href="#linearGradient3438"
       id="radialGradient2460"
       gradientUnits="userSpaceOnUse"
       gradientTransform="matrix(1.2995435,-0.7502918,1.0577236,1.832031,-116.50709,-28.427601)"
       cx="72.850891"
       cy="89.517792"
       fx="72.850891"
       fy="89.517792"
       r="7.96875" />
    <radialGradient
       inkscape:collect="always"
       xlink:href="#linearGradient3669"
       id="radialGradient2469"
       gradientUnits="userSpaceOnUse"
       gradientTransform="matrix(0.9650814,0.2619502,-0.9201984,3.3902106,17.309062,-57.693239)"
       cx="71.775223"
       cy="16.0865"
       fx="71.775223"
       fy="16.0865"
       r="3.15625" />
    <radialGradient
       inkscape:collect="always"
       xlink:href="#linearGradient3669"
       id="radialGradient2472"
       gradientUnits="userSpaceOnUse"
       gradientTransform="matrix(0.9650814,0.2619502,-0.9201984,3.3902106,57.309062,-57.693239)"
       cx="71.775223"
       cy="16.0865"
       fx="71.775223"
       fy="16.0865"
       r="3.15625" />
    <linearGradient
       inkscape:collect="always"
       xlink:href="#linearGradient3438"
       id="linearGradient3453"
       x1="115.72287"
       y1="113.14392"
       x2="115.01576"
       y2="44.553455"
       gradientUnits="userSpaceOnUse" />
    <linearGradient
       inkscape:collect="always"
       xlink:href="#linearGradient3503"
       id="linearGradient3460"
       x1="65.164734"
       y1="120.00389"
       x2="61.604465"
       y2="18.051104"
       gradientUnits="userSpaceOnUse" />
    <linearGradient
       inkscape:collect="always"
       xlink:href="#linearGradient3503"
       id="linearGradient3507"
       gradientUnits="userSpaceOnUse"
       x1="65.164734"
       y1="120.00389"
       x2="61.604465"
       y2="18.051104" />
    <radialGradient
       inkscape:collect="always"
       xlink:href="#linearGradient3669"
       id="radialGradient3509"
       gradientUnits="userSpaceOnUse"
       gradientTransform="matrix(0.9650814,0.2619502,-0.9201984,3.3902106,57.309062,-57.693239)"
       cx="71.775223"
       cy="16.0865"
       fx="71.775223"
       fy="16.0865"
       r="3.15625" />
    <radialGradient
       inkscape:collect="always"
       xlink:href="#linearGradient3669"
       id="radialGradient3511"
       gradientUnits="userSpaceOnUse"
       gradientTransform="matrix(0.9650814,0.2619502,-0.9201984,3.3902106,17.309062,-57.693239)"
       cx="71.775223"
       cy="16.0865"
       fx="71.775223"
       fy="16.0865"
       r="3.15625" />
    <linearGradient
       inkscape:collect="always"
       xlink:href="#linearGradient3438"
       id="linearGradient3513"
       gradientUnits="userSpaceOnUse"
       x1="115.72287"
       y1="113.14392"
       x2="115.01576"
       y2="44.553455" />
    <radialGradient
       inkscape:collect="always"
       xlink:href="#linearGradient3689"
       id="radialGradient3515"
       gradientUnits="userSpaceOnUse"
       gradientTransform="matrix(0.9650814,0.2619502,-0.9201984,3.3902106,17.309062,-57.693239)"
       cx="71.775223"
       cy="16.0865"
       fx="71.775223"
       fy="16.0865"
       r="3.15625" />
    <radialGradient
       inkscape:collect="always"
       xlink:href="#linearGradient3689"
       id="radialGradient3517"
       gradientUnits="userSpaceOnUse"
       gradientTransform="matrix(0.9650814,0.2619502,-0.9201984,3.3902106,17.309062,-57.693239)"
       cx="71.775223"
       cy="16.0865"
       fx="71.775223"
       fy="16.0865"
       r="3.15625" />
    <radialGradient
       inkscape:collect="always"
       xlink:href="#linearGradient3733"
       id="radialGradient3519"
       gradientUnits="userSpaceOnUse"
       gradientTransform="matrix(0.8660254,0.5,-2.5824057,4.4728578,124.36771,-189.29673)"
       cx="72.59375"
       cy="44.199867"
       fx="72.59375"
       fy="44.199867"
       r="4.59375" />
    <radialGradient
       inkscape:collect="always"
       xlink:href="#linearGradient3438"
       id="radialGradient3521"
       gradientUnits="userSpaceOnUse"
       gradientTransform="matrix(1.2995435,-0.7502918,1.0577236,1.832031,-116.50709,-28.427601)"
       cx="72.850891"
       cy="89.517792"
       fx="72.850891"
       fy="89.517792"
       r="7.96875" />
    <linearGradient
       inkscape:collect="always"
       xlink:href="#linearGradient3294"
       id="linearGradient3523"
       gradientUnits="userSpaceOnUse"
       gradientTransform="translate(-4)"
       x1="43.799026"
       y1="32.051865"
       x2="58.606159"
       y2="96.363052" />
    <radialGradient
       inkscape:collect="always"
       xlink:href="#linearGradient3426"
       id="radialGradient3525"
       gradientUnits="userSpaceOnUse"
       gradientTransform="matrix(1.3413871,-0.1603659,0.4039213,3.3786163,-40.193418,-71.115595)"
       cx="72.25"
       cy="38.44363"
       fx="72.25"
       fy="38.44363"
       r="7.96875" />
    <radialGradient
       inkscape:collect="always"
       xlink:href="#linearGradient3733"
       id="radialGradient3527"
       gradientUnits="userSpaceOnUse"
       gradientTransform="matrix(0.8660254,0.5,-2.5824057,4.4728578,124.36771,-189.29673)"
       cx="72.59375"
       cy="44.199867"
       fx="72.59375"
       fy="44.199867"
       r="4.59375" />
    <radialGradient
       inkscape:collect="always"
       xlink:href="#linearGradient3710"
       id="radialGradient3529"
       gradientUnits="userSpaceOnUse"
       gradientTransform="matrix(6.5079869,0,0,1.510917,-63.772161,-32.970115)"
       cx="11.578125"
       cy="64.53125"
       fx="11.578125"
       fy="64.53125"
       r="3.578125" />
    <radialGradient
       inkscape:collect="always"
       xlink:href="#linearGradient3348"
       id="radialGradient3531"
       gradientUnits="userSpaceOnUse"
       gradientTransform="matrix(1.3229896,0,0,1.2700701,-22.928996,-22.179188)"
       cx="70.568741"
       cy="76.274155"
       fx="73.241119"
       fy="83.511856"
       r="50" />
    <linearGradient
       inkscape:collect="always"
       xlink:href="#linearGradient3400"
       id="linearGradient3533"
       gradientUnits="userSpaceOnUse"
       x1="91.785248"
       y1="112.5"
       x2="91.992706"
       y2="44.287056" />
    <linearGradient
       inkscape:collect="always"
       xlink:href="#linearGradient3361"
       id="linearGradient3535"
       gradientUnits="userSpaceOnUse"
       x1="90.418152"
       y1="6.3332911"
       x2="90.418152"
       y2="86.427879" />
    <linearGradient
       inkscape:collect="always"
       xlink:href="#linearGradient3386"
       id="linearGradient3537"
       gradientUnits="userSpaceOnUse"
       x1="116.14262"
       y1="76.660683"
       x2="89.082176"
       y2="29.583153" />
    <linearGradient
       inkscape:collect="always"
       xlink:href="#linearGradient3493"
       id="linearGradient3539"
       gradientUnits="userSpaceOnUse"
       x1="92.700165"
       y1="16"
       x2="108.70443"
       y2="75.728737" />
    <linearGradient
       inkscape:collect="always"
       xlink:href="#linearGradient3400"
       id="linearGradient3541"
       gradientUnits="userSpaceOnUse"
       x1="91.785248"
       y1="112.5"
       x2="91.992706"
       y2="44.287056" />
  </defs>
  <sodipodi:namedview
     id="base"
     pagecolor="#ffffff"
     bordercolor="#666666"
     borderopacity="1.0"
     gridtolerance="10000"
     guidetolerance="10"
     objecttolerance="10"
     inkscape:pageopacity="0.0"
     inkscape:pageshadow="2"
     inkscape:zoom="3.4029514"
     inkscape:cx="87.717973"
     inkscape:cy="73.318708"
     inkscape:document-units="px"
     inkscape:current-layer="layer1"
     width="128px"
     height="128px"
     showgrid="true"
     inkscape:window-width="1920"
     inkscape:window-height="1046"
     inkscape:window-x="-11"
     inkscape:window-y="-11"
     showborder="true"
     inkscape:window-maximized="1"
     inkscape:showpageshadow="2"
     inkscape:pagecheckerboard="0"
     inkscape:deskcolor="#d1d1d1">
    <inkscape:grid
       id="GridFromPre046Settings"
       type="xygrid"
       originx="0"
       originy="0"
       spacingx="4"
       spacingy="4"
       color="#3f3fff"
       empcolor="#3f3fff"
       opacity="0.15"
       empopacity="0.38"
       empspacing="2"
       units="px" />
  </sodipodi:namedview>
  <metadata
     id="metadata7">
    <rdf:RDF>
      <cc:Work
         rdf:about="">
        <dc:format>image/svg+xml</dc:format>
        <dc:type
           rdf:resource="http://purl.org/dc/dcmitype/StillImage" />
      </cc:Work>
    </rdf:RDF>
  </metadata>
  <g
     inkscape:label="Layer 1"
     inkscape:groupmode="layer"
     id="layer1">
    <g
       id="g3486"
       transform="rotate(-90,63.498055,63.501946)">
      <path
         style="opacity:0.905263;fill:none;fill-opacity:1;fill-rule:evenodd;stroke:#638000;stroke-width:1;stroke-linecap:butt;stroke-linejoin:round;stroke-miterlimit:4;stroke-dasharray:none;stroke-opacity:1;filter:url(#filter3533)"
         d="m 71.875,12 c -0.865503,0.02693 -1.698899,0.333976 -2.375,0.875 l -60,48 C 8.5501441,61.634129 7.9971138,62.784063 7.9971138,64 c 0,1.215937 0.5530303,2.365871 1.5028862,3.125 l 60,48 c 1.200963,0.96113 2.846638,1.14854 4.232951,0.48204 C 75.119265,114.94054 76.000642,113.53821 76,112 V 88.3125 l 33.5,26.8125 c 1.20096,0.96113 2.84664,1.14854 4.23295,0.48204 C 115.11926,114.94054 116.00064,113.53821 116,112 V 16 c 6.4e-4,-1.538207 -0.88074,-2.940542 -2.26705,-3.607039 C 112.34664,11.726464 110.70096,11.91387 109.5,12.875 L 76,39.6875 V 16 C 76.000417,14.917152 75.561839,13.880391 74.784462,13.12657 74.007085,12.37275 72.957323,11.966273 71.875,12 Z M 68,24.3125 V 48 c -6.42e-4,1.538207 0.880735,2.940542 2.267049,3.607039 C 71.653362,52.273536 73.299037,52.08613 74.5,51.125 L 108,24.3125 v 79.375 L 74.5,76.875 C 73.299037,75.91387 71.653362,75.726464 70.267049,76.392961 68.880735,77.059458 67.999358,78.461793 68,80 v 23.6875 L 18.40625,64 Z"
         id="path3755" />
      <path
         id="path3757"
         d="M 71.75,8 C 70.019652,8.0538495 68.351688,8.6683636 67,9.75 L 8,56.9375 c 0,0 -4,3.066392 -4,7.066392 0,4 4,7.058608 4,7.058608 L 67,118.25 c 2.394721,1.91649 5.704427,2.29776 8.46875,0.96875 C 78.233056,117.88975 80.00128,115.06719 80,112 V 96.625 l 27,21.625 c 2.39473,1.9165 5.70442,2.29776 8.46875,0.96875 2.7643,-1.329 4.53253,-4.15156 4.53125,-7.21875 V 16 c 0.001,-3.067196 -1.76694,-5.889751 -4.53125,-7.21875 C 112.70443,7.4522452 109.39473,7.8334927 107,9.75 L 80,31.375 V 16 C 80.000833,13.836109 79.115956,11.756383 77.5625,10.25 76.009041,8.7436165 73.91284,7.9326023 71.75,8 Z M 72,16 v 8.3125 c -0.0088,-1.498302 -0.851327,-2.85329 -2.1875,-3.53125 -1.336174,-0.677959 -2.941917,-0.565215 -4.15625,0.3125 z m 40,0 v 8.3125 c -0.009,-1.498302 -0.85133,-2.85329 -2.1875,-3.53125 -1.33617,-0.677959 -2.94192,-0.565215 -4.15625,0.3125 z M 64,32.625 V 48 c -0.0013,3.067194 1.766934,5.889752 4.53125,7.21875 C 71.295566,56.547749 74.605271,56.166501 77,54.25 l 27,-21.625 v 62.75 L 77,73.75 C 74.605274,71.833502 71.295566,71.452251 68.53125,72.78125 65.766934,74.110248 63.99872,76.93281 64,80 V 95.375 L 24.8125,64 Z m 8,7.0625 c 0.0088,1.498302 0.851327,2.85329 2.1875,3.53125 1.336174,0.677959 2.941917,0.565215 4.15625,-0.3125 L 72,48 Z M 15.90625,60.875 c -0.897748,0.718228 -1.446167,1.789064 -1.5,2.9375 -0.05383,1.148436 0.392125,2.263442 1.21875,3.0625 L 12,64 Z M 72,80 l 6.1875,4.96875 c -1.200772,-0.786358 -2.721397,-0.870967 -4,-0.21875 -1.278601,0.652215 -2.119191,1.941282 -2.1875,3.375 z m 0,23.875 V 112 l -6.1875,-4.96875 c 1.200772,0.78636 2.721397,0.87097 4,0.21875 1.278601,-0.65222 2.119191,-1.94128 2.1875,-3.375 z m 40,0 V 112 l -6.1875,-4.96875 c 1.20077,0.78636 2.7214,0.87097 4,0.21875 1.27861,-0.65222 2.11919,-1.94128 2.1875,-3.375 z"
         style="fill:url(#linearGradient3507);fill-opacity:1;fill-rule:evenodd;stroke:none;stroke-width:8;stroke-linecap:butt;stroke-linejoin:round;stroke-miterlimit:4;stroke-opacity:1"
         sodipodi:nodetypes="ccczccscccsccscccscccsccccsccccsccccscccccsccccscccccscccccsccccsc" />
      <path
         id="path3759"
         d="m 111.875,12 c -0.79904,0.02487 -1.57295,0.283948 -2.21875,0.75 l 0.96875,9.03125 5.34375,-6.15625 c -0.0878,-0.946211 -0.49949,-1.832841 -1.1875,-2.5 C 114.00387,12.37118 112.95732,11.966273 111.875,12 Z"
         style="opacity:0.85;fill:url(#radialGradient3509);fill-opacity:1;fill-rule:evenodd;stroke:none;stroke-width:8;stroke-linecap:butt;stroke-linejoin:round;stroke-miterlimit:4;stroke-dasharray:none;stroke-opacity:1;filter:url(#filter3681)" />
      <path
         style="opacity:0.85;fill:url(#radialGradient3511);fill-opacity:1;fill-rule:evenodd;stroke:none;stroke-width:8;stroke-linecap:butt;stroke-linejoin:round;stroke-miterlimit:4;stroke-dasharray:none;stroke-opacity:1;filter:url(#filter3681)"
         d="m 71.875,12 c -0.799041,0.02487 -1.572946,0.283948 -2.21875,0.75 L 70.625,21.78125 75.96875,15.625 c -0.08779,-0.946211 -0.499493,-1.832841 -1.1875,-2.5 C 74.003873,12.37118 72.957323,11.966273 71.875,12 Z"
         id="path3761" />
      <path
         id="path3763"
         d="M 71.75,8 C 70.019652,8.0538495 68.351688,8.6683636 67,9.75 L 8,56.9375 c 0,0 -4,3.066392 -4,7.066392 0,4 4,7.058608 4,7.058608 L 67,118.25 c 2.394721,1.91649 5.704427,2.29776 8.46875,0.96875 C 78.233056,117.88975 80.00128,115.06719 80,112 V 96.625 l 27,21.625 c 2.39473,1.9165 5.70442,2.29776 8.46875,0.96875 2.7643,-1.329 4.53253,-4.15156 4.53125,-7.21875 V 16 c 0.001,-3.067196 -1.76694,-5.889751 -4.53125,-7.21875 C 112.70443,7.4522452 109.39473,7.8334927 107,9.75 L 80,31.375 V 16 C 80.000833,13.836109 79.115956,11.756383 77.5625,10.25 76.009041,8.7436165 73.91284,7.9326023 71.75,8 Z M 72,16 v 8.3125 c -0.0088,-1.498302 -0.851327,-2.85329 -2.1875,-3.53125 -1.336174,-0.677959 -2.941917,-0.565215 -4.15625,0.3125 z m 40,0 v 8.3125 c -0.009,-1.498302 -0.85133,-2.85329 -2.1875,-3.53125 -1.33617,-0.677959 -2.94192,-0.565215 -4.15625,0.3125 z M 64,32.625 V 48 c -0.0013,3.067194 1.766934,5.889752 4.53125,7.21875 C 71.295566,56.547749 74.605271,56.166501 77,54.25 l 27,-21.625 v 62.75 L 77,73.75 C 74.605274,71.833502 71.295566,71.452251 68.53125,72.78125 65.766934,74.110248 63.99872,76.93281 64,80 V 95.375 L 24.8125,64 Z m 8,7.0625 c 0.0088,1.498302 0.851327,2.85329 2.1875,3.53125 1.336174,0.677959 2.941917,0.565215 4.15625,-0.3125 L 72,48 Z M 15.90625,60.875 c -0.897748,0.718228 -1.446167,1.789064 -1.5,2.9375 -0.05383,1.148436 0.392125,2.263442 1.21875,3.0625 L 12,64 Z M 72,80 l 6.1875,4.96875 c -1.200772,-0.786358 -2.721397,-0.870967 -4,-0.21875 -1.278601,0.652215 -2.119191,1.941282 -2.1875,3.375 z m 0,23.875 V 112 l -6.1875,-4.96875 c 1.200772,0.78636 2.721397,0.87097 4,0.21875 1.278601,-0.65222 2.119191,-1.94128 2.1875,-3.375 z m 40,0 V 112 l -6.1875,-4.96875 c 1.20077,0.78636 2.7214,0.87097 4,0.21875 1.27861,-0.65222 2.11919,-1.94128 2.1875,-3.375 z"
         style="opacity:0.905263;fill:url(#linearGradient3513);fill-opacity:1;fill-rule:evenodd;stroke:none;stroke-width:8;stroke-linecap:butt;stroke-linejoin:round;stroke-miterlimit:4;stroke-opacity:1"
         sodipodi:nodetypes="ccczccscccsccscccscccsccccsccccsccccscccccsccccscccccscccccsccccsc" />
      <path
         transform="matrix(1,0,0,-1,40,127.7793)"
         style="opacity:0.35;fill:url(#radialGradient3515);fill-opacity:1;fill-rule:evenodd;stroke:none;stroke-width:8;stroke-linecap:butt;stroke-linejoin:round;stroke-miterlimit:4;stroke-dasharray:none;stroke-opacity:1;filter:url(#filter3681)"
         d="m 71.875,12 c -0.799041,0.02487 -1.572946,0.283948 -2.21875,0.75 L 70.625,21.78125 75.96875,15.625 c -0.08779,-0.946211 -0.499493,-1.832841 -1.1875,-2.5 C 74.003873,12.37118 72.957323,11.966273 71.875,12 Z"
         id="path3765" />
      <path
         id="path3767"
         d="m 71.875,12 c -0.799041,0.02487 -1.572946,0.283948 -2.21875,0.75 L 70.625,21.78125 75.96875,15.625 c -0.08779,-0.946211 -0.499493,-1.832841 -1.1875,-2.5 C 74.003873,12.37118 72.957323,11.966273 71.875,12 Z"
         style="opacity:0.35;fill:url(#radialGradient3517);fill-opacity:1;fill-rule:evenodd;stroke:none;stroke-width:8;stroke-linecap:butt;stroke-linejoin:round;stroke-miterlimit:4;stroke-dasharray:none;stroke-opacity:1;filter:url(#filter3681)"
         transform="matrix(1,0,0,-1,0,127.7793)" />
      <path
         id="path3769"
         d="m 76.5,36.90625 -8,6 V 48.5 c -2.41e-4,0.576828 0.115808,1.149275 0.34375,1.65625 0.379903,0.844958 1.071054,1.520939 1.9375,1.9375 C 72.16756,52.760246 73.799037,52.58613 75,51.625 l 0.8125,-0.65625 1.875,-11.75 L 76.5,40.1875 Z"
         style="opacity:0.657895;fill:url(#radialGradient3519);fill-opacity:1;fill-rule:evenodd;stroke:none;stroke-width:8;stroke-linecap:butt;stroke-linejoin:round;stroke-miterlimit:4;stroke-dasharray:none;stroke-opacity:1;filter:url(#filter3743)"
         transform="matrix(1,0,0,-1,0,127.89974)" />
      <path
         id="path3771"
         d="m 74.46875,114.99349 -5.4375,-37.812502 c 0.341898,-0.378638 0.773455,-0.677142 1.25,-0.90625 1.38631,-0.666496 3.017787,-0.49238 4.21875,0.46875 l 10.46875,8.375 L 82.8125,93.61849 76,88.180988 v 23.687502 c 4.17e-4,1.08285 -0.441373,2.12118 -1.21875,2.875 -0.09717,0.0942 -0.207284,0.16681 -0.3125,0.25 z"
         style="fill:url(#radialGradient3521);fill-opacity:1;fill-rule:evenodd;stroke:none;stroke-width:8;stroke-linecap:butt;stroke-linejoin:round;stroke-miterlimit:4;stroke-dasharray:none;stroke-opacity:1" />
      <path
         style="fill:url(#linearGradient3523);fill-opacity:1;fill-rule:evenodd;stroke:none;stroke-width:1px;stroke-linecap:butt;stroke-linejoin:miter;stroke-opacity:1"
         d="M 12,64 72,16 v 96 z"
         id="path3773"
         sodipodi:nodetypes="cccc" />
      <path
         style="fill:url(#radialGradient3525);fill-opacity:1;fill-rule:evenodd;stroke:none;stroke-width:8;stroke-linecap:butt;stroke-linejoin:round;stroke-miterlimit:4;stroke-dasharray:none;stroke-opacity:1"
         d="m 74.46875,12.875 -5.4375,37.8125 c 0.341898,0.378638 0.773455,0.677142 1.25,0.90625 1.38631,0.666496 3.017787,0.49238 4.21875,-0.46875 L 84.96875,42.75 82.8125,34.25 76,39.6875 V 16 c 4.17e-4,-1.082848 -0.441373,-2.121179 -1.21875,-2.875 -0.09717,-0.09423 -0.207284,-0.166808 -0.3125,-0.25 z"
         id="path3775" />
      <path
         style="opacity:0.4;fill:url(#radialGradient3527);fill-opacity:1;fill-rule:evenodd;stroke:none;stroke-width:8;stroke-linecap:butt;stroke-linejoin:round;stroke-miterlimit:4;stroke-dasharray:none;stroke-opacity:1;filter:url(#filter3743)"
         d="m 76.5,36.90625 -8,6 V 48.5 c -2.41e-4,0.576828 0.115808,1.149275 0.34375,1.65625 0.379903,0.844958 1.071054,1.520939 1.9375,1.9375 C 72.16756,52.760246 73.799037,52.58613 75,51.625 l 0.8125,-0.65625 1.875,-11.75 L 76.5,40.1875 Z"
         id="path3777" />
      <path
         style="opacity:0.5;fill:url(#radialGradient3529);fill-opacity:1;fill-rule:evenodd;stroke:none;stroke-width:8;stroke-linecap:butt;stroke-linejoin:round;stroke-miterlimit:4;stroke-dasharray:none;stroke-opacity:1;filter:url(#filter3722)"
         d="M 11.6875,59.125 9.5,60.875 C 8.5501441,61.634129 8,62.784063 8,64 c 10e-8,1.215937 0.5501441,2.365871 1.5,3.125 l 3.53125,2.8125 2.125,-5.625 z"
         id="path3779"
         transform="matrix(1,0,0,-1,0,128.5625)" />
      <path
         style="fill:url(#radialGradient3531);fill-opacity:1;fill-rule:evenodd;stroke:none;stroke-width:1px;stroke-linecap:butt;stroke-linejoin:miter;stroke-opacity:1"
         d="M 72,16 12,64 72,112 V 80 l 40,32 V 16 L 72,48 Z"
         id="path3781" />
      <path
         id="path3783"
         d="M 72,16 12,64 72,112 V 80 l 40,32 V 16 L 72,48 Z"
         style="fill:none;fill-opacity:1;fill-rule:evenodd;stroke:url(#linearGradient3533);stroke-width:1px;stroke-linecap:butt;stroke-linejoin:miter;stroke-opacity:1;filter:url(#filter3396)" />
      <path
         style="fill:url(#linearGradient3535);fill-opacity:1;fill-rule:evenodd;stroke:none;stroke-width:1px;stroke-linecap:butt;stroke-linejoin:miter;stroke-opacity:1"
         d="m 72,16 -60,48 0.40625,0.3125 c 11.910809,2.402091 24.946597,3.718749 38.625,3.71875 22.875162,0 43.993546,-3.686833 60.96875,-9.9375 V 16 L 72,48 Z"
         id="path3785" />
      <path
         style="fill:url(#linearGradient3537);fill-opacity:1;fill-rule:evenodd;stroke:none;stroke-width:1px;stroke-linecap:butt;stroke-linejoin:miter;stroke-opacity:1"
         d="m 72,16 -0.15625,0.125 V 47.5 L 72,47.375 Z m 40,0 -0.40625,0.3125 V 57.53125 C 94.724198,63.743015 73.732794,67.406249 51,67.40625 37.406726,67.406249 24.46168,66.105891 12.625,63.71875 L 12.5,63.625 12,64 l 0.40625,0.3125 c 11.910809,2.402091 24.946597,3.718749 38.625,3.71875 22.875162,0 43.993546,-3.686833 60.96875,-9.9375 z"
         id="path3787" />
      <path
         style="fill:url(#linearGradient3539);fill-opacity:1;fill-rule:evenodd;stroke:none;stroke-width:1px;stroke-linecap:butt;stroke-linejoin:miter;stroke-opacity:1"
         d="m 72,16 -60,48 0.40625,0.3125 C 12.600347,64.35164 12.805308,64.36768 13,64.40625 L 71.78125,17.6875 v 31.40625 l 39.5,-31.40625 v 40.65625 c 0.23765,-0.08593 0.4827,-0.16308 0.71875,-0.25 V 16 L 72,48 Z"
         id="path3789" />
      <path
         style="fill:none;fill-opacity:1;fill-rule:evenodd;stroke:url(#linearGradient3541);stroke-width:1px;stroke-linecap:butt;stroke-linejoin:miter;stroke-opacity:1;filter:url(#filter3396)"
         d="M 72,16 12,64 72,112 V 80 l 40,32 V 16 L 72,48 Z"
         id="path3791" />
    </g>
  </g>
</svg>
