<?xml version="1.0" encoding="UTF-8" standalone="no"?>
<svg
   xmlns:dc="http://purl.org/dc/elements/1.1/"
   xmlns:cc="http://creativecommons.org/ns#"
   xmlns:rdf="http://www.w3.org/1999/02/22-rdf-syntax-ns#"
   xmlns:svg="http://www.w3.org/2000/svg"
   xmlns="http://www.w3.org/2000/svg"
   xmlns:sodipodi="http://sodipodi.sourceforge.net/DTD/sodipodi-0.dtd"
   xmlns:inkscape="http://www.inkscape.org/namespaces/inkscape"
   version="1.1"
   id="Capa_1"
   x="0px"
   y="0px"
   viewBox="0 0 378.632 378.632"
   style="enable-background:new 0 0 378.632 378.632;"
   xml:space="preserve"
   sodipodi:docname="at.svg"
   inkscape:version="1.0.1 (3bc2e813f5, 2020-09-07)"><metadata
   id="metadata39"><rdf:RDF><cc:Work
       rdf:about=""><dc:format>image/svg+xml</dc:format><dc:type
         rdf:resource="http://purl.org/dc/dcmitype/StillImage" /></cc:Work></rdf:RDF></metadata><defs
   id="defs37" /><sodipodi:namedview
   pagecolor="#ffffff"
   bordercolor="#666666"
   borderopacity="1"
   objecttolerance="10"
   gridtolerance="10"
   guidetolerance="10"
   inkscape:pageopacity="0"
   inkscape:pageshadow="2"
   inkscape:window-width="1920"
   inkscape:window-height="1017"
   id="namedview35"
   showgrid="false"
   inkscape:zoom="2.2449239"
   inkscape:cx="189.31599"
   inkscape:cy="189.31599"
   inkscape:window-x="-8"
   inkscape:window-y="-8"
   inkscape:window-maximized="1"
   inkscape:current-layer="Capa_1" />
<path
   d="M377.406,160.981c-5.083-48.911-31.093-92.52-73.184-122.854C259.004,5.538,200.457-6.936,147.603,4.807  C97.354,15.971,53.256,48.312,26.571,93.491C-0.122,138.731-7.098,192.982,7.436,242.39c7.832,26.66,21.729,51.712,40.15,72.51  c18.594,20.972,41.904,37.722,67.472,48.459c23.579,9.888,48.628,14.797,73.653,14.797c34.128-0.001,68.115-9.121,97.949-27.098  l-21.092-35.081c-40.578,24.451-90.887,28.029-134.652,9.66c-40.283-16.96-71.759-52.383-84.211-94.761  c-11.336-38.595-5.846-81.093,15.125-116.586c20.922-35.467,55.426-60.801,94.622-69.533c41.644-9.225,87.948,0.669,123.857,26.566  c32.502,23.394,52.497,56.769,56.363,93.907c2.515,23.979,0.31,42.891-6.526,56.226c-14.487,28.192-35.526,28.36-43.873,27.132  c-0.283-0.041-0.476-0.082-0.65-0.117c-2.396-3.709-2.091-17.489-1.974-23.473c0.044-2.332,0.084-4.572,0.084-6.664v-112.06h-31.349  c-3.998-3.278-8.225-6.251-12.674-8.921c-17.076-10.159-36.858-15.552-57.255-15.552c-29.078,0-56.408,10.597-76.896,29.824  c-32.537,30.543-42.63,80.689-24.551,122.023c8.578,19.62,23.065,35.901,41.876,47.066c17.611,10.434,38.182,15.972,59.47,15.972  c24.394,0,46.819-6.735,64.858-19.492c1.915-1.342,3.813-2.79,5.626-4.233c6.431,8.805,15.811,14.4,27.464,16.114  c16.149,2.408,32.299-0.259,46.784-7.668c16.453-8.419,29.715-22.311,39.439-41.271C377.209,219.346,380.778,193.46,377.406,160.981  z M242.33,224.538c-0.891,1.283-2.229,2.907-2.961,3.803c-0.599,0.778-1.151,1.46-1.643,2.073  c-3.868,4.982-8.597,9.48-14.113,13.374c-11.26,7.943-25.152,11.964-41.257,11.964c-28.968,0-53.462-14.75-63.846-38.544  c-11.258-25.69-5.071-56.854,15.035-75.692c12.7-11.95,30.538-18.784,48.911-18.784c13.028,0,25.56,3.375,36.268,9.788  c6.831,4.072,12.861,9.337,17.9,15.719c0.497,0.613,1.082,1.322,1.724,2.094c0.952,1.135,2.812,3.438,3.981,5.092V224.538z"
   id="path2"
   style="fill:#86d000;fill-opacity:1" />
<g
   id="g4">
</g>
<g
   id="g6">
</g>
<g
   id="g8">
</g>
<g
   id="g10">
</g>
<g
   id="g12">
</g>
<g
   id="g14">
</g>
<g
   id="g16">
</g>
<g
   id="g18">
</g>
<g
   id="g20">
</g>
<g
   id="g22">
</g>
<g
   id="g24">
</g>
<g
   id="g26">
</g>
<g
   id="g28">
</g>
<g
   id="g30">
</g>
<g
   id="g32">
</g>
</svg>
