<?xml version="1.0" encoding="UTF-8" standalone="no"?>
<!--part of the rodentia icon theme by sixsixfive released under CC0 (https://creativecommons.org/publicdomain/zero/1.0/) on openclipart-->

<svg
   viewBox="0 0 66.895523 64"
   version="1.1"
   id="svg1"
   sodipodi:docname="dirPaste.svg"
   xml:space="preserve"
   width="66.895523"
   height="64"
   inkscape:version="1.4.2 (f4327f4, 2025-05-13)"
   xmlns:inkscape="http://www.inkscape.org/namespaces/inkscape"
   xmlns:sodipodi="http://sodipodi.sourceforge.net/DTD/sodipodi-0.dtd"
   xmlns:xlink="http://www.w3.org/1999/xlink"
   xmlns="http://www.w3.org/2000/svg"
   xmlns:svg="http://www.w3.org/2000/svg"><sodipodi:namedview
     id="namedview1"
     pagecolor="#ffffff"
     bordercolor="#000000"
     borderopacity="0.25"
     inkscape:showpageshadow="2"
     inkscape:pageopacity="0.0"
     inkscape:pagecheckerboard="0"
     inkscape:deskcolor="#d1d1d1"
     showguides="true"
     inkscape:zoom="7.6824206"
     inkscape:cx="90.205944"
     inkscape:cy="24.015868"
     inkscape:window-width="1920"
     inkscape:window-height="991"
     inkscape:window-x="-9"
     inkscape:window-y="835"
     inkscape:window-maximized="1"
     inkscape:current-layer="svg1"><sodipodi:guide
       position="169.0815,33.64142"
       orientation="1,0"
       id="guide1"
       inkscape:locked="false" /><sodipodi:guide
       position="166.0441,26.816535"
       orientation="0,-1"
       id="guide31"
       inkscape:locked="false" /><sodipodi:guide
       position="191.55849,16.107384"
       orientation="1,0"
       id="guide32"
       inkscape:locked="false" /></sodipodi:namedview><defs
     id="0"><linearGradient
       id="linearGradient31"><stop
         id="stop30"
         offset="0"
         style="stop-color:#3e0808;stop-opacity:1;" /><stop
         id="stop31"
         offset="1"
         style="stop-color:#e43838;stop-opacity:1;" /></linearGradient><linearGradient
       id="linearGradient29"><stop
         style="stop-color:#ffcdcd;stop-opacity:1;"
         offset="0"
         id="stop28" /><stop
         style="stop-color:#d2e8ed;stop-opacity:0;"
         offset="1"
         id="stop29" /></linearGradient><linearGradient
       id="linearGradient27"><stop
         style="stop-color:#ffcdcd;stop-opacity:1;"
         offset="0"
         id="stop26" /><stop
         style="stop-color:#d2e8ed;stop-opacity:0;"
         offset="1"
         id="stop27" /></linearGradient><linearGradient
       id="linearGradient24"><stop
         style="stop-color:#ff6363;stop-opacity:1;"
         offset="0"
         id="stop23" /><stop
         style="stop-color:#ffffff;stop-opacity:0;"
         offset="1"
         id="stop24" /></linearGradient><linearGradient
       id="linearGradient22"><stop
         style="stop-color:#ff6363;stop-opacity:1;"
         offset="0"
         id="stop21" /><stop
         style="stop-color:#ffffff;stop-opacity:0;"
         offset="1"
         id="stop22" /></linearGradient><linearGradient
       id="linearGradient14"><stop
         style="stop-color:#f29f9f;stop-opacity:1;"
         offset="0"
         id="stop12" /><stop
         id="stop13"
         offset="0.5"
         style="stop-color:#b55858;stop-opacity:1;" /><stop
         style="stop-color:#580c0c;stop-opacity:1;"
         offset="1"
         id="stop14" /></linearGradient><radialGradient
       id="radialGradient11"
       cx="48"
       cy="-0.2148"
       r="55.147999"
       gradientTransform="matrix(0.9792,0,0,0.9725,133.0002,20.8762)"
       gradientUnits="userSpaceOnUse"><stop
         offset="0"
         style="stop-color:#d13d3d;stop-opacity:1;"
         id="stop7" /><stop
         offset="0.35530001"
         style="stop-color:#ac1c1c;stop-opacity:1;"
         id="stop8" /><stop
         offset="0.61940002"
         style="stop-color:#950808;stop-opacity:1;"
         id="stop9" /><stop
         offset="0.75739998"
         style="stop-color:#8c0000;stop-opacity:1;"
         id="stop10" /><stop
         offset="1"
         style="stop-color:#7a0000;stop-opacity:1;"
         id="stop11" /></radialGradient><linearGradient
       id="linearGradient6"><stop
         style="stop-color:#ff6363;stop-opacity:1;"
         offset="0"
         id="stop5" /><stop
         style="stop-color:#ffffff;stop-opacity:0;"
         offset="1"
         id="stop6" /></linearGradient><linearGradient
       id="linearGradient4"><stop
         style="stop-color:#ffcdcd;stop-opacity:1;"
         offset="0"
         id="stop3" /><stop
         style="stop-color:#edd2d2;stop-opacity:0;"
         offset="1"
         id="stop4" /></linearGradient><linearGradient
       id="3"><stop
         id="O"
         stop-color="#2e3436" /><stop
         id="P"
         offset="1"
         stop-color="#2e3436"
         stop-opacity="0" /></linearGradient><linearGradient
       id="4"><stop
         id="Q"
         stop-color="#fff"
         stop-opacity="0.4" /><stop
         id="R"
         offset="1"
         stop-color="#fff"
         stop-opacity="0" /></linearGradient><linearGradient
       id="5"><stop
         id="S"
         stop-color="#204a87" /><stop
         id="T"
         offset="1"
         stop-color="#183768" /></linearGradient><linearGradient
       id="6"><stop
         id="U"
         stop-color="#fff" /><stop
         id="V"
         offset="1"
         stop-color="#fff"
         stop-opacity="0" /></linearGradient><linearGradient
       id="7"><stop
         id="W"
         stop-color="#fff"
         stop-opacity="0.8" /><stop
         id="X"
         offset="1"
         stop-color="#fff"
         stop-opacity="0" /></linearGradient><linearGradient
       id="8"><stop
         id="Y"
         stop-color="#729fcf" /><stop
         id="Z"
         offset="1"
         stop-color="#3465a4" /></linearGradient><linearGradient
       id="9"><stop
         id="a"
         stop-color="#2e3436" /><stop
         id="b"
         offset="1"
         stop-color="#555753" /></linearGradient><filter
       color-interpolation-filters="sRGB"
       id="A"
       x="-0.04032267"
       y="-0.059288343"
       width="1.0806453"
       height="1.1185767"><feGaussianBlur
         stdDeviation="0.755"
         id="c" /></filter><radialGradient
       cx="35.487999"
       cy="26.200001"
       r="23"
       id="B"
       xlink:href="#9"
       gradientUnits="userSpaceOnUse"
       gradientTransform="matrix(1.0434444,-1.4643692,1.4020098,0.9990096,-62.776231,34.470805)" /><linearGradient
       y1="1.781"
       x2="0"
       y2="41.75"
       id="C"
       xlink:href="#4"
       gradientUnits="userSpaceOnUse" /><linearGradient
       y1="10.144"
       x2="0"
       y2="42.775002"
       id="D"
       xlink:href="#8"
       gradientUnits="userSpaceOnUse" /><linearGradient
       y1="10.144"
       x2="0"
       y2="42.775002"
       id="E"
       xlink:href="#5"
       gradientUnits="userSpaceOnUse" /><linearGradient
       y1="11.188"
       x2="0"
       y2="41.75"
       id="F"
       xlink:href="#7"
       gradientUnits="userSpaceOnUse" /><linearGradient
       x1="7.9349999"
       y1="-28.25"
       x2="20.049999"
       y2="36.099998"
       id="G"
       xlink:href="#6"
       gradientUnits="userSpaceOnUse" /><radialGradient
       cx="24.919001"
       cy="48.200001"
       r="25.941"
       id="H"
       xlink:href="#3"
       gradientUnits="userSpaceOnUse"
       gradientTransform="matrix(1.1496471,0,0,0.10315565,4.0696426,50.59438)" /><radialGradient
       id="radialGradient3336"
       cx="63.912209"
       cy="115.70919"
       fy="115.7093"
       gradientTransform="matrix(1.001374,0,0,0.08117379,-2.4e-5,113.41944)"
       gradientUnits="userSpaceOnUse"
       r="63.912209"><stop
         offset="0"
         id="stop1" /><stop
         offset="1"
         stop-opacity="0"
         id="stop2" /></radialGradient><radialGradient
       id="radialGradient3336-8"
       cx="63.912209"
       cy="115.70919"
       fy="115.7093"
       gradientTransform="matrix(0.24220323,0,0,0.01963358,-69.531517,29.377311)"
       gradientUnits="userSpaceOnUse"
       r="63.912209"><stop
         offset="0"
         id="stop1-2" /><stop
         offset="1"
         stop-opacity="0"
         id="stop2-4" /></radialGradient><linearGradient
       id="linearGradient3601"
       inkscape:collect="always"><stop
         id="stop3603"
         offset="0"
         style="stop-color:#bbd6ff;stop-opacity:1" /><stop
         id="stop3605"
         offset="1"
         style="stop-color:#0057ae;stop-opacity:1" /></linearGradient><linearGradient
       id="linearGradient3545"
       inkscape:collect="always"><stop
         id="stop3547"
         offset="0"
         style="stop-color:#ffffff;stop-opacity:1" /><stop
         id="stop3549"
         offset="1"
         style="stop-color:#eeeeee;stop-opacity:1" /></linearGradient><linearGradient
       inkscape:collect="always"
       id="linearGradient3502"><stop
         style="stop-color:#fcfcfc;stop-opacity:1;"
         offset="0"
         id="stop3504" /><stop
         style="stop-color:#fcfcfc;stop-opacity:0;"
         offset="1"
         id="stop3506" /></linearGradient><linearGradient
       id="linearGradient3400"><stop
         style="stop-color:#ececec;stop-opacity:1"
         offset="0"
         id="stop3402" /><stop
         style="stop-color:#8696aa;stop-opacity:1;"
         offset="1"
         id="stop3404" /></linearGradient><linearGradient
       inkscape:collect="always"
       id="linearGradient3392"><stop
         style="stop-color:#d4e2f3;stop-opacity:1"
         offset="0"
         id="stop3394" /><stop
         style="stop-color:#ffffff;stop-opacity:0;"
         offset="1"
         id="stop3396" /></linearGradient><linearGradient
       inkscape:collect="always"
       id="linearGradient3305"><stop
         style="stop-color:#80b3ff;stop-opacity:1"
         offset="0"
         id="stop3307" /><stop
         style="stop-color:#0057ae;stop-opacity:1"
         offset="1"
         id="stop3309" /></linearGradient><linearGradient
       inkscape:collect="always"
       id="linearGradient3297"><stop
         style="stop-color:#2c72c7;stop-opacity:1"
         offset="0"
         id="stop3299" /><stop
         style="stop-color:#00438a;stop-opacity:1"
         offset="1"
         id="stop3301" /></linearGradient><linearGradient
       inkscape:collect="always"
       xlink:href="#linearGradient3297"
       id="linearGradient3303"
       x1="87.231171"
       y1="21.712187"
       x2="114.63911"
       y2="124"
       gradientUnits="userSpaceOnUse" /><linearGradient
       inkscape:collect="always"
       xlink:href="#linearGradient3305"
       id="linearGradient3311"
       x1="104"
       y1="120"
       x2="104"
       y2="31.847376"
       gradientUnits="userSpaceOnUse" /><linearGradient
       inkscape:collect="always"
       xlink:href="#6"
       id="linearGradient3339"
       x1="104"
       y1="120.5"
       x2="104"
       y2="27.640865"
       gradientUnits="userSpaceOnUse" /><linearGradient
       inkscape:collect="always"
       xlink:href="#linearGradient3392"
       id="linearGradient3398"
       x1="95"
       y1="8"
       x2="95"
       y2="82.391518"
       gradientUnits="userSpaceOnUse" /><radialGradient
       inkscape:collect="always"
       xlink:href="#linearGradient3545"
       id="radialGradient3470"
       cx="56"
       cy="66"
       fx="56"
       fy="66"
       r="48"
       gradientTransform="matrix(1.1686015,0,0,2.4983017,-9.4416814,-98.887914)"
       gradientUnits="userSpaceOnUse" /><linearGradient
       inkscape:collect="always"
       xlink:href="#linearGradient3392"
       id="linearGradient3490"
       gradientUnits="userSpaceOnUse"
       x1="95"
       y1="8"
       x2="95"
       y2="82.391518"
       gradientTransform="matrix(1,0,0,0.6696774,0,10.60645)" /><radialGradient
       inkscape:collect="always"
       xlink:href="#linearGradient3545"
       id="radialGradient3496"
       gradientUnits="userSpaceOnUse"
       gradientTransform="matrix(1.1686015,0,0,2.4983017,-9.4416814,-98.887914)"
       cx="56"
       cy="66"
       fx="56"
       fy="66"
       r="48" /><linearGradient
       inkscape:collect="always"
       xlink:href="#linearGradient3502"
       id="linearGradient3508"
       x1="64.775833"
       y1="8"
       x2="64.775833"
       y2="11.518071"
       gradientUnits="userSpaceOnUse" /><linearGradient
       inkscape:collect="always"
       xlink:href="#linearGradient3601"
       id="linearGradient3639"
       gradientUnits="userSpaceOnUse"
       gradientTransform="matrix(1,0,0,-1,0,140)"
       x1="104"
       y1="120"
       x2="104"
       y2="31.847376" /><linearGradient
       id="linearGradient3295"><stop
         style="stop-color:#63e9ff;stop-opacity:1;"
         offset="0"
         id="stop3297" /><stop
         style="stop-color:#ffffff;stop-opacity:0;"
         offset="1"
         id="stop3299-4" /></linearGradient><linearGradient
       id="linearGradient3202"><stop
         style="stop-color:#cdeeff;stop-opacity:1;"
         offset="0"
         id="stop3204" /><stop
         style="stop-color:#d2e8ed;stop-opacity:0;"
         offset="1"
         id="stop3206" /></linearGradient><radialGradient
       id="XMLID_4_"
       cx="48"
       cy="-0.2148"
       r="55.147999"
       gradientTransform="matrix(0.9792,0,0,0.9725,133.0002,20.8762)"
       gradientUnits="userSpaceOnUse"><stop
         offset="0"
         style="stop-color:#72D13D"
         id="stop3082" /><stop
         offset="0.3553"
         style="stop-color:#35AC1C"
         id="stop3084" /><stop
         offset="0.6194"
         style="stop-color:#0F9508"
         id="stop3086" /><stop
         offset="0.7574"
         style="stop-color:#008C00"
         id="stop3088" /><stop
         offset="1"
         style="stop-color:#007A00"
         id="stop3090" /></radialGradient><radialGradient
       inkscape:collect="always"
       xlink:href="#linearGradient14"
       id="radialGradient3213"
       gradientUnits="userSpaceOnUse"
       gradientTransform="matrix(-1,0,0,0.98014092,77.23363,-48.114524)"
       cx="172"
       cy="76"
       fx="188.88173"
       fy="121.44213"
       r="56" /><linearGradient
       inkscape:collect="always"
       xlink:href="#linearGradient4"
       id="linearGradient3253"
       x1="47.968472"
       y1="16.138517"
       x2="49.218472"
       y2="85.427559"
       gradientUnits="userSpaceOnUse"
       gradientTransform="translate(-159.26637,-37.623813)" /><linearGradient
       inkscape:collect="always"
       xlink:href="#6"
       id="linearGradient3504"
       gradientUnits="userSpaceOnUse"
       gradientTransform="translate(-158.9789,-37.762331)"
       x1="87.468468"
       y1="-0.36148256"
       x2="116.71847"
       y2="106.42756" /><linearGradient
       inkscape:collect="always"
       xlink:href="#6"
       id="linearGradient3526"
       gradientUnits="userSpaceOnUse"
       gradientTransform="translate(-158.9789,-37.762331)"
       x1="196.46846"
       y1="63.138515"
       x2="52.218468"
       y2="66.224457" /><radialGradient
       r="43.474762"
       fy="51.592991"
       fx="88.042809"
       cy="74.979416"
       cx="77.533371"
       spreadMethod="reflect"
       gradientTransform="matrix(-0.4961056,0.4409829,-0.7360594,-0.8280666,-11.726835,87.897058)"
       gradientUnits="userSpaceOnUse"
       id="radialGradient3139"
       xlink:href="#linearGradient2990"
       inkscape:collect="always" /><clipPath
       id="clipPath3135"
       clipPathUnits="userSpaceOnUse"><path
         style="fill:url(#radialGradient3139);fill-opacity:1;stroke:none;stroke-width:16.495;stroke-linecap:round;stroke-linejoin:round;stroke-miterlimit:4;stroke-dasharray:none;stroke-dashoffset:4.15;stroke-opacity:1"
         d="m -97.32181,27.94375 c -10.23931,10e-7 -20.46922,3.874426 -28.23381,11.639012 -8.00722,8.007231 -11.88924,18.639851 -11.63901,29.196647 v 28.042632 c 0,4.051739 3.2545,7.306239 7.30624,7.306239 h 65.133155 c 4.05174,0 7.30624,-3.2545 7.30624,-7.306239 V 68.779409 c 0.25023,-10.556797 -3.63178,-21.189416 -11.639006,-29.196647 -7.76458,-7.764591 -17.994496,-11.639013 -28.233809,-11.639012 z m 0,15.537264 c 6.339352,10e-7 12.688275,2.436886 17.557634,7.306242 4.811426,4.811424 7.248997,11.046126 7.306242,17.302765 h -49.699436 c 0.0572,-6.25664 2.46651,-12.491342 7.27793,-17.302765 4.86936,-4.869361 11.21828,-7.306243 17.55763,-7.306242 z"
         id="path3137"
         sodipodi:nodetypes="csccccccsccsccsc" /></clipPath><radialGradient
       r="43.474762"
       fy="51.592991"
       fx="88.042809"
       cy="74.979416"
       cx="77.533371"
       spreadMethod="reflect"
       gradientTransform="matrix(-0.4961056,0.4409829,-0.7360594,-0.8280666,-99.14147,87.897058)"
       gradientUnits="userSpaceOnUse"
       id="radialGradient3133"
       xlink:href="#linearGradient2990"
       inkscape:collect="always" /><clipPath
       id="clipPath3129"
       clipPathUnits="userSpaceOnUse"><path
         sodipodi:nodetypes="csccccccsccsccsc"
         id="path3131"
         d="m -184.73645,27.94375 c -10.23931,10e-7 -20.46922,3.874426 -28.23381,11.639012 -8.00722,8.007231 -11.88924,18.639851 -11.63901,29.196647 v 28.042632 c 0,4.051739 3.2545,7.306239 7.30624,7.306239 h 65.13316 c 4.05174,0 7.30624,-3.2545 7.30624,-7.306239 V 68.779409 c 0.25023,-10.556797 -3.63178,-21.189416 -11.63901,-29.196647 -7.76458,-7.764591 -17.99449,-11.639013 -28.23381,-11.639012 z m 0,15.537264 c 6.33936,10e-7 12.68828,2.436886 17.55764,7.306242 4.81142,4.811424 7.249,11.046126 7.30624,17.302765 h -49.69944 c 0.0573,-6.25664 2.46651,-12.491342 7.27793,-17.302765 4.86936,-4.869361 11.21828,-7.306243 17.55763,-7.306242 z"
         style="fill:url(#radialGradient3133);fill-opacity:1;stroke:none;stroke-width:16.495;stroke-linecap:round;stroke-linejoin:round;stroke-miterlimit:4;stroke-dasharray:none;stroke-dashoffset:4.15;stroke-opacity:1" /></clipPath><radialGradient
       r="43.474762"
       fy="51.592991"
       fx="73.551216"
       cy="74.979408"
       cx="63.041775"
       spreadMethod="reflect"
       gradientTransform="matrix(-1.1040885,0.8280667,-0.6647496,-0.8863327,191.44623,62.253906)"
       gradientUnits="userSpaceOnUse"
       id="radialGradient2409"
       xlink:href="#linearGradient2990"
       inkscape:collect="always" /><linearGradient
       y2="-20.962214"
       x2="60.402065"
       y1="64.076149"
       x1="60.402065"
       gradientUnits="userSpaceOnUse"
       id="linearGradient3289"
       xlink:href="#linearGradient6674"
       inkscape:collect="always" /><linearGradient
       gradientUnits="userSpaceOnUse"
       y2="8"
       x2="-60"
       y1="105.83054"
       x1="-60.945251"
       id="linearGradient3243"
       xlink:href="#linearGradient3237"
       inkscape:collect="always" /><linearGradient
       y2="21.03125"
       x2="31.376678"
       y1="71.084908"
       x1="115.76678"
       gradientTransform="translate(0.2332229,1.9150941)"
       gradientUnits="userSpaceOnUse"
       id="linearGradient3233"
       xlink:href="#6"
       inkscape:collect="always" /><linearGradient
       y2="46.228859"
       x2="59.225807"
       y1="7.8973217"
       x1="59.225807"
       gradientTransform="translate(0.2623629,1)"
       gradientUnits="userSpaceOnUse"
       id="linearGradient3231"
       xlink:href="#6"
       inkscape:collect="always" /><linearGradient
       y2="82.029854"
       x2="74.447762"
       y1="-26.936626"
       x1="64"
       gradientUnits="userSpaceOnUse"
       id="linearGradient2816"
       xlink:href="#6"
       inkscape:collect="always" /><linearGradient
       gradientUnits="userSpaceOnUse"
       y2="88.633484"
       x2="19.934336"
       y1="50.580647"
       x1="19.096775"
       id="linearGradient6680"
       xlink:href="#linearGradient6674"
       inkscape:collect="always" /><linearGradient
       gradientTransform="translate(0,3)"
       gradientUnits="userSpaceOnUse"
       y2="50.728985"
       x2="62.038712"
       y1="15.91371"
       x1="62.038712"
       id="linearGradient6649"
       xlink:href="#linearGradient6643"
       inkscape:collect="always" /><linearGradient
       gradientUnits="userSpaceOnUse"
       y2="74.913147"
       x2="55.329033"
       y1="112"
       x1="55.329033"
       id="linearGradient6637"
       xlink:href="#linearGradient6631"
       inkscape:collect="always" /><linearGradient
       y2="28.235947"
       x2="13.96104"
       y1="21.101994"
       x1="21.094994"
       spreadMethod="reflect"
       gradientTransform="translate(0.4129032,0.6193548)"
       gradientUnits="userSpaceOnUse"
       id="linearGradient6472"
       xlink:href="#6"
       inkscape:collect="always" /><linearGradient
       y2="27.070099"
       x2="15.126888"
       y1="21.101994"
       x1="21.094994"
       spreadMethod="reflect"
       gradientTransform="translate(0.4129032,0.6193548)"
       gradientUnits="userSpaceOnUse"
       id="linearGradient6464"
       xlink:href="#6"
       inkscape:collect="always" /><linearGradient
       gradientTransform="translate(-7.5870968,-7.3806452)"
       spreadMethod="reflect"
       gradientUnits="userSpaceOnUse"
       y2="27.007854"
       x2="15.189133"
       y1="21.101994"
       x1="21.094994"
       id="linearGradient6452"
       xlink:href="#6"
       inkscape:collect="always" /><linearGradient
       gradientUnits="userSpaceOnUse"
       y2="-24"
       x2="24"
       y1="88"
       x1="32"
       id="linearGradient6410"
       xlink:href="#linearGradient6404"
       inkscape:collect="always" /><radialGradient
       r="42.559486"
       fy="103.5803"
       fx="42.700352"
       cy="103.5803"
       cx="42.700352"
       spreadMethod="pad"
       gradientTransform="matrix(1.3965253,0.00698315,-0.0077815,1.5561835,-122.82611,-69.698616)"
       gradientUnits="userSpaceOnUse"
       id="radialGradient9692"
       xlink:href="#linearGradient6666"
       inkscape:collect="always" /><linearGradient
       id="linearGradient6404"><stop
         id="stop6406"
         offset="0"
         style="stop-color:#081e3e;stop-opacity:1;" /><stop
         id="stop6408"
         offset="1"
         style="stop-color:#387de4;stop-opacity:1;" /></linearGradient><linearGradient
       id="linearGradient6631"><stop
         id="stop6633"
         offset="0"
         style="stop-color:#703700;stop-opacity:1;" /><stop
         id="stop6635"
         offset="1"
         style="stop-color:#bf5e00;stop-opacity:0;" /></linearGradient><linearGradient
       id="linearGradient6643"><stop
         id="stop6645"
         offset="0"
         style="stop-color:#fffddc;stop-opacity:1;" /><stop
         id="stop6647"
         offset="1"
         style="stop-color:#ffdfbf;stop-opacity:0;" /></linearGradient><linearGradient
       id="linearGradient6666"><stop
         style="stop-color:#9fc1f2;stop-opacity:1;"
         offset="0"
         id="stop6668" /><stop
         id="stop3183"
         offset="0.5"
         style="stop-color:#587eb5;stop-opacity:1;" /><stop
         style="stop-color:#0c2a58;stop-opacity:1;"
         offset="1"
         id="stop6670" /></linearGradient><linearGradient
       id="linearGradient6674"><stop
         id="stop6676"
         offset="0"
         style="stop-color:#001648;stop-opacity:1;" /><stop
         id="stop6678"
         offset="1"
         style="stop-color:#11a9ff;stop-opacity:0;" /></linearGradient><linearGradient
       id="linearGradient3237"><stop
         id="stop3239"
         offset="0"
         style="stop-color:#d5e6ff;stop-opacity:1;" /><stop
         id="stop3241"
         offset="1"
         style="stop-color:#ffffff;stop-opacity:0;" /></linearGradient><linearGradient
       id="linearGradient2990"><stop
         id="stop2992"
         offset="0"
         style="stop-color:#d7d7d7;stop-opacity:1;" /><stop
         id="stop2994"
         offset="1"
         style="stop-color:#ffffff;stop-opacity:1;" /></linearGradient><radialGradient
       inkscape:collect="always"
       xlink:href="#XMLID_4_"
       id="radialGradient3236"
       gradientUnits="userSpaceOnUse"
       gradientTransform="matrix(1,0,0,1.1383929,0,-10.517857)"
       cx="172"
       cy="76"
       fx="172"
       fy="76"
       r="56" /><linearGradient
       inkscape:collect="always"
       xlink:href="#6"
       id="linearGradient3301-8"
       x1="73.742638"
       y1="15.336544"
       x2="78.939339"
       y2="16.750759"
       gradientUnits="userSpaceOnUse"
       spreadMethod="reflect" /><filter
       inkscape:collect="always"
       x="-0.10207015"
       width="1.2041403"
       y="-0.12495601"
       height="1.249912"
       id="filter3387-2"><feGaussianBlur
         inkscape:collect="always"
         stdDeviation="0.44655691"
         id="feGaussianBlur3389-5" /></filter><filter
       inkscape:collect="always"
       x="-0.11573033"
       width="1.2314607"
       y="-0.12753955"
       height="1.2550791"
       id="filter3443-4"><feGaussianBlur
         inkscape:collect="always"
         stdDeviation="0.32549158"
         id="feGaussianBlur3445-7" /></filter><linearGradient
       inkscape:collect="always"
       xlink:href="#linearGradient24"
       id="linearGradient3393-1"
       gradientUnits="userSpaceOnUse"
       spreadMethod="reflect"
       x1="74.75"
       y1="14.275884"
       x2="78.939339"
       y2="16.750759" /><filter
       inkscape:collect="always"
       id="filter3187-1"
       x="-0.019172387"
       y="-0.018768957"
       width="1.0383449"
       height="1.0375409"><feGaussianBlur
         inkscape:collect="always"
         stdDeviation="0.56525828"
         id="feGaussianBlur3189-4" /></filter><linearGradient
       inkscape:collect="always"
       xlink:href="#linearGradient31"
       id="linearGradient15"
       gradientUnits="userSpaceOnUse"
       gradientTransform="matrix(-1,0,0,0.8610463,77.23363,-39.060001)"
       x1="194.5"
       y1="123.90683"
       x2="104.25"
       y2="5.1559582" /><linearGradient
       inkscape:collect="always"
       xlink:href="#linearGradient27"
       id="linearGradient16"
       gradientUnits="userSpaceOnUse"
       gradientTransform="matrix(1,0,0,0.8610463,-108.16138,-1.4361867)"
       x1="223.32712"
       y1="53.784153"
       x2="226.659"
       y2="57.279232"
       spreadMethod="reflect" /><linearGradient
       inkscape:collect="always"
       xlink:href="#linearGradient29"
       id="linearGradient17"
       gradientUnits="userSpaceOnUse"
       gradientTransform="matrix(1,0,0,0.8610463,-108.16138,-1.4361867)"
       x1="223.32712"
       y1="53.784153"
       x2="226.659"
       y2="57.279232"
       spreadMethod="reflect" /><linearGradient
       inkscape:collect="always"
       xlink:href="#linearGradient22"
       id="linearGradient18"
       gradientUnits="userSpaceOnUse"
       gradientTransform="translate(97)"
       x1="179.17224"
       y1="123.75864"
       x2="173.98071"
       y2="65.448112" /></defs><rect
     style="opacity:1;fill:#f9f9f9;stroke-width:4.60601"
     id="rect32"
     width="64"
     height="64"
     x="0"
     y="0" /><path
     d="m 62.541026,55.566922 a 29.822754,2.6759394 0 1 1 -59.6455084,0 29.822754,2.6759394 0 1 1 59.6455084,0 z"
     id="1"
     fill="url(#H)"
     style="fill:url(#H);stroke-width:1.05624" /><g
     transform="matrix(1.1402992,0,0,1.1402992,5.3510933,7.5226706)"
     id="2"><path
       d="M 1.5,1.2452202 V 42.274631 h 45 V 7.7610571 H 27.665158 L 22.167421,1.2452202 Z"
       id="I"
       fill="url(#B)"
       stroke="#2e3436"
       stroke-linejoin="round"
       stroke-linecap="square"
       style="fill:url(#B)" /><path
       d="M 2.53125,2.28125 V 41.25 h 42.9375 V 8.78125 H 27.65625 A 1.0266953,1.0266953 0 0 1 26.875,8.40625 l -5.1875,-6.125 z"
       id="J"
       opacity="0.8"
       fill="none"
       stroke="url(#C)"
       stroke-linejoin="round"
       stroke-linecap="square"
       style="stroke:url(#C)" /><path
       d="m 18.65625,11.1875 -2.875,6.34375 a 0.54138149,0.54138149 0 0 1 -0.5,0.3125 h -13.75 l 0.5,23.90625 h 43.9375 l 0.5,-30.5625 z"
       transform="translate(0,-1.7)"
       id="K"
       filter="url(#A)" /><path
       d="m 18.310273,10.643608 -3.037735,6.654088 H 1.000003 L 1.5000002,42.274631 H 46.5 l 0.499997,-31.631023 z"
       id="L"
       fill="url(#D)"
       stroke="url(#E)"
       stroke-linejoin="round"
       stroke-linecap="square"
       style="fill:url(#D);stroke:url(#E)" /><path
       d="m 18.96875,11.6875 -2.75,6.0625 a 1.0266953,1.0266953 0 0 1 -0.9375,0.59375 H 2.0625 L 2.5,41.25 h 43 l 0.4375,-29.5625 z"
       id="M"
       opacity="0.8"
       fill="none"
       stroke="url(#F)"
       stroke-linejoin="round"
       stroke-linecap="square"
       style="stroke:url(#F)" /><path
       d="m 18.65625,11.15625 -2.90625,6.375 c -0.08919,0.176066 -0.271425,0.285406 -0.46875,0.28125 H 1.5 l 0.3125,15.34375 c 12.189878,-5.184653 30.416986,-10.313955 44.53125,-12.75 l 0.15625,-9.25 z"
       id="N"
       opacity="0.8"
       fill="url(#G)"
       style="fill:url(#G)" /></g><g
     id="g1"
     transform="matrix(1.190979,0,0,1.190979,97.092798,19.537324)"><rect
       fill="none"
       height="13.54477"
       rx="2.076035"
       ry="2.0570107"
       stroke="#888888"
       stroke-linejoin="round"
       stroke-width="1.93497"
       width="27.08954"
       x="-67.596542"
       y="11.619285"
       id="rect2" /><rect
       fill="#dddddd"
       height="13.54477"
       rx="2.076035"
       ry="2.0570107"
       width="27.08954"
       x="-67.596542"
       y="11.619285"
       id="rect3"
       style="stroke-width:0.241871" /><rect
       fill="#ffffff"
       height="11.609803"
       rx="1.9277467"
       ry="1.7631518"
       width="25.154573"
       x="-66.629059"
       y="12.586768"
       id="rect20"
       style="stroke-width:0.241871" /><path
       d="m -63.866741,13.555322 c -0.202593,0.02118 -0.352857,0.196426 -0.343167,0.398202 0.0097,0.201776 0.175967,0.360003 0.379675,0.362002 h 1.876469 v 8.152288 h -1.876469 c -0.01216,-5.8e-4 -0.02434,-5.8e-4 -0.03651,0 -0.202593,0.02118 -0.352857,0.196427 -0.343167,0.398203 0.0097,0.201775 0.175967,0.360003 0.379675,0.362002 h 4.526889 c 0.143784,0.01066 0.282597,-0.059 0.357771,-0.181001 0.07517,-0.122002 0.07517,-0.276201 0,-0.398202 -0.07517,-0.122002 -0.213987,-0.191658 -0.357771,-0.181002 h -1.876469 v -8.152288 h 1.876469 c 0.143784,0.01066 0.282597,-0.059 0.357771,-0.181001 0.07517,-0.122002 0.07517,-0.276201 0,-0.398202 -0.07517,-0.122002 -0.213987,-0.191657 -0.357771,-0.181001 h -4.526889 c -0.01216,-5.81e-4 -0.02434,-5.81e-4 -0.03651,0 z"
       fill="#555753"
       fill-rule="evenodd"
       id="path20"
       style="stroke-width:0.241871" /></g><g
     id="g31"
     transform="matrix(-0.18714341,0.18714341,-0.18714341,-0.18714341,36.508141,45.869866)"><path
       sodipodi:nodetypes="ccsccccccccccc"
       id="path2488-7"
       d="m -101.42512,-24.038366 65.10681,47.562337 c 0.98334,0.705268 1.55194,1.750262 1.55194,2.852216 0,1.101954 -0.5686,2.146948 -1.55194,2.852216 l -65.79431,46.233094 c -4.14312,2.63039 -10.09375,3.00311 -10.09375,-2.82531 v -23 h -29.1 c -2.38204,6.54e-4 -5.82076,-3.768949 -5.82,-5.82 v -34.92 c -7.6e-4,-2.05105 3.43796,-5.820656 5.82,-5.82 h 29.1 v -23.28 c 0,-3.891136 7.02052,-6.553298 10.78125,-3.834553 z"
       style="fill:url(#linearGradient15);fill-opacity:1;fill-rule:evenodd;stroke:none;stroke-width:8.62138;stroke-linecap:round;stroke-linejoin:round;stroke-miterlimit:4;stroke-dasharray:none;stroke-opacity:1" /><path
       id="path3519-3"
       d="m 115.65112,40 c -0.33944,1.154561 -2.5625,6.125 -2.5625,6.125 l 6.75,-0.03125 V 44 c 7.6e-4,-2.05105 -1.61796,-4.000656 -4,-4 z"
       style="opacity:0.614232;fill:url(#linearGradient16);fill-opacity:1;fill-rule:evenodd;stroke:none;stroke-width:8.62138;stroke-linecap:round;stroke-linejoin:round;stroke-miterlimit:4;stroke-dasharray:none;stroke-opacity:1;filter:url(#filter3443-4)"
       transform="rotate(180,-12.633185,44.300593)" /><path
       style="fill:url(#linearGradient3301-8);fill-opacity:1;fill-rule:evenodd;stroke:none;stroke-width:1px;stroke-linecap:butt;stroke-linejoin:miter;stroke-opacity:1;filter:url(#filter3387-2)"
       d="M 69.5,13.0625 C 68.422912,13.12778 67.386099,13.439286 66.5,14 L 68.875,21.625 77,18.46875 V 18 c 0,-2.918352 -3.938921,-5.15334 -7.5,-4.9375 z"
       id="path3272-8"
       transform="matrix(-1,0,0,1,-34.76637,-37.623811)"
       sodipodi:nodetypes="cccccc" /><path
       sodipodi:nodetypes="ccccccccccc"
       id="path3474"
       d="m -100.01681,-16.577767 56.74497,41.065771 c 1.3858,1.385794 1.16397,2.601194 0.10244,3.662725 l -55.19697,38.925465 c -4,3.084175 -8,3.2487 -8,0 l -0.02,-23.260007 h -34.92 V 8.8961863 h 34.92 l -0.08,-23.3522313 c 0,-2.747299 3.15287,-4.025068 6.44956,-2.121722 z"
       style="fill:url(#radialGradient3213);fill-opacity:1;fill-rule:evenodd;stroke:none;stroke-width:14.8463;stroke-linecap:round;stroke-linejoin:round;stroke-miterlimit:4;stroke-dasharray:none;stroke-opacity:1" /><path
       id="path3391-3"
       d="M 72.5,11.0625 C 71.422912,11.12778 70.386099,11.439286 69.5,12 L 71.875,19.625 80,16.46875 V 16 c 0,-2.918352 -3.938921,-5.15334 -7.5,-4.9375 z"
       style="opacity:0.70412;fill:url(#linearGradient3393-1);fill-opacity:1;fill-rule:evenodd;stroke:none;stroke-width:1px;stroke-linecap:butt;stroke-linejoin:miter;stroke-opacity:1;filter:url(#filter3387-2)"
       transform="matrix(-0.8316412,0,0,-1,-45.23507,87.160337)"
       sodipodi:nodetypes="cccccc" /><path
       transform="rotate(-88.373605,-31.236074,158.99894)"
       style="opacity:0.749064;fill:url(#linearGradient17);fill-opacity:1;fill-rule:evenodd;stroke:none;stroke-width:8.62138;stroke-linecap:round;stroke-linejoin:round;stroke-miterlimit:4;stroke-dasharray:none;stroke-opacity:1;filter:url(#filter3443-4)"
       d="m 115.65112,40 c -0.33944,1.154561 -2.5625,6.125 -2.5625,6.125 l 6.75,-0.03125 V 44 c 7.6e-4,-2.05105 -1.61796,-4.000656 -4,-4 z"
       id="path3528-7"
       inkscape:export-xdpi="90"
       inkscape:export-ydpi="90" /><path
       sodipodi:nodetypes="ccccccccccc"
       id="path3471-7"
       d="m 274.55044,26.110774 -56.44497,47.696185 c -1.3858,1.609542 -1.16397,3.021178 -0.10244,4.254102 L 273,123.27137 c 4,3.58214 8,3.77323 8,0 l 0.023,-27.015531 h 34.92 L 316,55.906774 281.02303,55.697711 281,28.575066 c 0,-3.190873 -3.15287,-4.674949 -6.44956,-2.464292 z"
       style="fill:none;fill-opacity:1;fill-rule:evenodd;stroke:url(#linearGradient18);stroke-width:1.07771;stroke-linecap:round;stroke-linejoin:round;stroke-miterlimit:4;stroke-dasharray:none;stroke-opacity:1;filter:url(#filter3187-1)"
       transform="matrix(-1,0,0,0.8609865,174.63666,-39.058791)" /><path
       style="fill:url(#linearGradient3253);fill-opacity:1;fill-rule:evenodd;stroke:none;stroke-width:16;stroke-linecap:round;stroke-linejoin:round;stroke-miterlimit:4;stroke-dasharray:none;stroke-opacity:1"
       d="m -103.79762,-17.467563 c -1.72855,0.151124 -2.96875,1.282938 -2.96875,3 l 0.38,23.36375 -34.78,0.08 v 18.55625 c 9.93941,1.204301 10.85156,1.843751 21.7125,1.84375 26.941854,0 48.67329,-3.971957 68.0625,-10.59375 l -48.9375,-35.375 c -1.23626,-0.713755 -2.43162,-0.965675 -3.46875,-0.875 z"
       id="path2232"
       sodipodi:nodetypes="cccccsccc" /><path
       style="fill:url(#linearGradient3504);fill-opacity:1;fill-rule:evenodd;stroke:none;stroke-width:16;stroke-linecap:round;stroke-linejoin:round;stroke-miterlimit:4;stroke-dasharray:none;stroke-opacity:1"
       d="m -103.59762,-17.506626 c -0.87317,0.07634 -1.59797,0.411641 -2.125,0.9375 -0.25546,0.254892 -0.48467,0.532273 -0.625,0.875 -0.004,0.0087 0.004,0.0225 0,0.03125 -0.0663,0.166985 -0.12089,0.345765 -0.15625,0.53125 -0.002,0.01003 0.002,0.02116 0,0.03125 -0.0337,0.186822 -0.0625,0.389742 -0.0625,0.59375 -9e-5,0.01058 0,0.02062 0,0.03125 v 1 l 0.21942,22.152813 h 0.0312 l 0.88058,-23.302813 c 0.37168,-2.2737 3.29933,-2.183977 5.30625,-0.975 l 47.65,34.01875 c -13.52579,4.922635 -28.22702,8.423292 -45.975,10.04375 18.30402,-1.446672 32.03884,-4.72645 46.0625,-9.40625 l 0.0312,0.03125 c 0.32046,-0.107041 0.65114,-0.20403 0.96875,-0.3125 l -0.0312,-0.03125 -48.70625,-35.34375 c -1.05795,-0.61081 -2.07548,-0.865902 -3,-0.875 0.0225,-0.0084 0.0398,-0.02331 0.0625,-0.03125 -0.17747,-0.004 -0.36172,-0.01482 -0.53125,0 z m -37.7102,26.402813 v 0.03125 1 20.125 l 0.9375,-20.125 34.02337,-1 -0.0898,0.03125 -33.87103,-0.03125 v -0.03125 z"
       id="path3462"
       sodipodi:nodetypes="csssssscccccccccccccssccccccccccc" /><path
       sodipodi:nodetypes="csssssscccccccccccccssccccccccccc"
       id="path3524"
       d="m -103.49762,-17.506626 c -0.87317,0.07634 -1.59797,0.411641 -2.125,0.9375 -0.25546,0.254892 -0.48467,0.532273 -0.625,0.875 -0.004,0.0087 0.004,0.0225 0,0.03125 -0.0663,0.166985 -0.12089,0.345765 -0.15625,0.53125 -0.002,0.01003 0.002,0.02116 0,0.03125 -0.0337,0.186822 -0.0625,0.389742 -0.0625,0.59375 -9e-5,0.01058 0,0.02062 0,0.03125 v 1 l 0.08,22.121563 h 0.0312 l 1.02,-23.271563 c 0.37168,-2.2737 3.29933,-2.183977 5.30625,-0.975 l 47.55,34.01875 c -13.52579,4.922635 -24.337933,7.721389 -42.085913,9.341847 18.30402,-1.446672 28.149753,-4.024547 42.173413,-8.704347 l 0.0312,0.03125 c 0.32046,-0.107041 0.65114,-0.20403 0.96875,-0.3125 l -0.0312,-0.03125 -48.60625,-35.34375 c -1.05795,-0.61081 -2.07548,-0.865902 -3,-0.875 0.0225,-0.0084 0.0397,-0.02331 0.0625,-0.03125 -0.17747,-0.004 -0.36172,-0.01482 -0.53125,0 z m -37.80875,26.406719 v 0.03125 1 l -0.0683,17.089844 1.00581,-17.089844 33.9825,-1.035156 v 0 l -33.92,0.03516 v -0.03125 z"
       style="fill:url(#linearGradient3526);fill-opacity:1;fill-rule:evenodd;stroke:none;stroke-width:16;stroke-linecap:round;stroke-linejoin:round;stroke-miterlimit:4;stroke-dasharray:none;stroke-opacity:1" /></g></svg>
