<?xml version="1.0" encoding="UTF-8" standalone="no"?>
<!-- Created with Inkscape (http://www.inkscape.org/) -->

<svg
   width="128"
   height="128"
   id="svg2606"
   sodipodi:version="0.32"
   inkscape:version="1.4.2 (f4327f4, 2025-05-13)"
   version="1.0"
   sodipodi:docname="editReplace.svg"
   inkscape:output_extension="org.inkscape.output.svgz.inkscape"
   inkscape:export-filename="/home/pinheiro/pics/oxygen/scalable/actions/go-next.png"
   inkscape:export-xdpi="61.875"
   inkscape:export-ydpi="61.875"
   xml:space="preserve"
   xmlns:inkscape="http://www.inkscape.org/namespaces/inkscape"
   xmlns:sodipodi="http://sodipodi.sourceforge.net/DTD/sodipodi-0.dtd"
   xmlns:xlink="http://www.w3.org/1999/xlink"
   xmlns="http://www.w3.org/2000/svg"
   xmlns:svg="http://www.w3.org/2000/svg"
   xmlns:rdf="http://www.w3.org/1999/02/22-rdf-syntax-ns#"
   xmlns:cc="http://creativecommons.org/ns#"
   xmlns:dc="http://purl.org/dc/elements/1.1/"><defs
     id="defs2608"><linearGradient
       inkscape:collect="always"
       id="linearGradient3449"><stop
         style="stop-color:#000000;stop-opacity:1;"
         offset="0"
         id="stop3451" /><stop
         style="stop-color:#000000;stop-opacity:0;"
         offset="1"
         id="stop3453" /></linearGradient><linearGradient
       id="linearGradient3295"><stop
         style="stop-color:#63e9ff;stop-opacity:1;"
         offset="0"
         id="stop3297" /><stop
         style="stop-color:#ffffff;stop-opacity:0;"
         offset="1"
         id="stop3299" /></linearGradient><linearGradient
       inkscape:collect="always"
       id="linearGradient3260"><stop
         style="stop-color:#ffffff;stop-opacity:1;"
         offset="0"
         id="stop3262" /><stop
         style="stop-color:#ffffff;stop-opacity:0;"
         offset="1"
         id="stop3264" /></linearGradient><linearGradient
       id="linearGradient3202"><stop
         style="stop-color:#cdeeff;stop-opacity:1;"
         offset="0"
         id="stop3204" /><stop
         style="stop-color:#d2e8ed;stop-opacity:0;"
         offset="1"
         id="stop3206" /></linearGradient><radialGradient
       id="XMLID_4_"
       cx="48"
       cy="-0.2148"
       r="55.148"
       gradientTransform="matrix(0.9792,0,0,0.9725,133.0002,20.8762)"
       gradientUnits="userSpaceOnUse"><stop
         offset="0"
         style="stop-color:#72D13D"
         id="stop3082" /><stop
         offset="0.3553"
         style="stop-color:#35AC1C"
         id="stop3084" /><stop
         offset="0.6194"
         style="stop-color:#0F9508"
         id="stop3086" /><stop
         offset="0.7574"
         style="stop-color:#008C00"
         id="stop3088" /><stop
         offset="1"
         style="stop-color:#007A00"
         id="stop3090" /></radialGradient><radialGradient
       inkscape:collect="always"
       xlink:href="#XMLID_4_"
       id="radialGradient3629"
       gradientUnits="userSpaceOnUse"
       gradientTransform="matrix(1,0,0,1.1383929,0,-10.517857)"
       cx="172"
       cy="76"
       fx="172"
       fy="76"
       r="56" /><radialGradient
       inkscape:collect="always"
       xlink:href="#linearGradient6666"
       id="radialGradient3213"
       gradientUnits="userSpaceOnUse"
       gradientTransform="matrix(1,0,0,1.1383929,0,-10.517857)"
       cx="172"
       cy="76"
       fx="188.88173"
       fy="121.44213"
       r="56" /><linearGradient
       inkscape:collect="always"
       xlink:href="#linearGradient3260"
       id="linearGradient3301"
       x1="73.742638"
       y1="15.336544"
       x2="78.939339"
       y2="16.750759"
       gradientUnits="userSpaceOnUse"
       spreadMethod="reflect" /><filter
       inkscape:collect="always"
       x="-0.10207015"
       width="1.2041403"
       y="-0.12495601"
       height="1.249912"
       id="filter3387"><feGaussianBlur
         inkscape:collect="always"
         stdDeviation="0.44655691"
         id="feGaussianBlur3389" /></filter><linearGradient
       inkscape:collect="always"
       xlink:href="#linearGradient3295"
       id="linearGradient3393"
       gradientUnits="userSpaceOnUse"
       spreadMethod="reflect"
       x1="74.75"
       y1="14.275884"
       x2="78.939339"
       y2="16.750759" /><linearGradient
       inkscape:collect="always"
       xlink:href="#linearGradient6404"
       id="linearGradient3409"
       gradientUnits="userSpaceOnUse"
       x1="194.5"
       y1="123.90683"
       x2="104.25"
       y2="5.1559582"
       gradientTransform="matrix(-1,0,0,0.8610463,236,-1.4361867)" /><filter
       inkscape:collect="always"
       x="-0.11573033"
       width="1.2314607"
       y="-0.12753955"
       height="1.2550791"
       id="filter3443"><feGaussianBlur
         inkscape:collect="always"
         stdDeviation="0.32549158"
         id="feGaussianBlur3445" /></filter><radialGradient
       inkscape:collect="always"
       xlink:href="#linearGradient3449"
       id="radialGradient3455"
       cx="72.020813"
       cy="66.344505"
       fx="72.020813"
       fy="66.344505"
       r="60"
       gradientTransform="matrix(-0.5816285,0.01767767,0.02698625,0.8878982,96.078154,5.9419094)"
       gradientUnits="userSpaceOnUse" /><linearGradient
       inkscape:collect="always"
       xlink:href="#linearGradient3202"
       id="linearGradient3521"
       gradientUnits="userSpaceOnUse"
       gradientTransform="matrix(1,0,0,0.8610463,-108.16138,-1.4361867)"
       spreadMethod="reflect"
       x1="223.32712"
       y1="53.784153"
       x2="226.659"
       y2="57.279232" /><linearGradient
       inkscape:collect="always"
       xlink:href="#linearGradient3295"
       id="linearGradient2226"
       gradientUnits="userSpaceOnUse"
       x1="179.17224"
       y1="123.75864"
       x2="173.98071"
       y2="65.448112" /><linearGradient
       inkscape:collect="always"
       xlink:href="#linearGradient3295"
       id="linearGradient2228"
       gradientUnits="userSpaceOnUse"
       x1="179.17224"
       y1="123.75864"
       x2="173.98071"
       y2="65.448112"
       gradientTransform="translate(97)" /><linearGradient
       inkscape:collect="always"
       xlink:href="#linearGradient3202"
       id="linearGradient3253"
       x1="47.968472"
       y1="16.138517"
       x2="49.218472"
       y2="85.427559"
       gradientUnits="userSpaceOnUse"
       gradientTransform="translate(-0.5)" /><linearGradient
       inkscape:collect="always"
       xlink:href="#linearGradient3260"
       id="linearGradient3504"
       gradientUnits="userSpaceOnUse"
       gradientTransform="translate(-0.2125256,-0.1385179)"
       x1="87.468468"
       y1="-0.36148256"
       x2="116.71847"
       y2="106.42756" /><linearGradient
       inkscape:collect="always"
       xlink:href="#linearGradient3260"
       id="linearGradient3526"
       gradientUnits="userSpaceOnUse"
       gradientTransform="translate(-0.2125256,-0.1385179)"
       x1="196.46846"
       y1="63.138515"
       x2="52.218468"
       y2="66.224457" /><linearGradient
       inkscape:collect="always"
       xlink:href="#linearGradient3260"
       id="linearGradient3530"
       gradientUnits="userSpaceOnUse"
       gradientTransform="matrix(1,0,0,0.8610463,-108.16138,-1.4361867)"
       spreadMethod="reflect"
       x1="223.32712"
       y1="53.784153"
       x2="226.659"
       y2="57.279232" /><radialGradient
       inkscape:collect="always"
       xlink:href="#linearGradient3449"
       id="radialGradient3534"
       gradientUnits="userSpaceOnUse"
       gradientTransform="matrix(-0.2586607,-0.5212474,-0.8274344,0.4106011,163.53945,50.055595)"
       cx="-16.668488"
       cy="86.826965"
       fx="-16.668488"
       fy="86.826965"
       r="60" /><radialGradient
       r="43.474762"
       fy="51.592991"
       fx="88.042809"
       cy="74.979416"
       cx="77.533371"
       spreadMethod="reflect"
       gradientTransform="matrix(-0.4961056,0.4409829,-0.7360594,-0.8280666,-11.726835,87.897058)"
       gradientUnits="userSpaceOnUse"
       id="radialGradient3139"
       xlink:href="#linearGradient2990"
       inkscape:collect="always" /><clipPath
       id="clipPath3135"
       clipPathUnits="userSpaceOnUse"><path
         style="fill:url(#radialGradient3139);fill-opacity:1;stroke:none;stroke-width:16.49500084;stroke-linecap:round;stroke-linejoin:round;stroke-miterlimit:4;stroke-dasharray:none;stroke-dashoffset:4.15;stroke-opacity:1"
         d="M -97.32181,27.94375 C -107.56112,27.943751 -117.79103,31.818176 -125.55562,39.582762 C -133.56284,47.589993 -137.44486,58.222613 -137.19463,68.779409 L -137.19463,96.822041 C -137.19463,100.87378 -133.94013,104.12828 -129.88839,104.12828 L -64.755235,104.12828 C -60.703495,104.12828 -57.448995,100.87378 -57.448995,96.822041 L -57.448995,68.779409 C -57.198765,58.222612 -61.080775,47.589993 -69.088001,39.582762 C -76.852581,31.818171 -87.082497,27.943749 -97.32181,27.94375 z M -97.32181,43.481014 C -90.982458,43.481015 -84.633535,45.9179 -79.764176,50.787256 C -74.95275,55.59868 -72.515179,61.833382 -72.457934,68.090021 L -122.15737,68.090021 C -122.10012,61.833381 -119.69086,55.598679 -114.87944,50.787256 C -110.01008,45.917895 -103.66116,43.481013 -97.32181,43.481014 z"
         id="path3137"
         sodipodi:nodetypes="csccccccsccsccsc" /></clipPath><radialGradient
       r="43.474762"
       fy="51.592991"
       fx="88.042809"
       cy="74.979416"
       cx="77.533371"
       spreadMethod="reflect"
       gradientTransform="matrix(-0.4961056,0.4409829,-0.7360594,-0.8280666,-99.14147,87.897058)"
       gradientUnits="userSpaceOnUse"
       id="radialGradient3133"
       xlink:href="#linearGradient2990"
       inkscape:collect="always" /><clipPath
       id="clipPath3129"
       clipPathUnits="userSpaceOnUse"><path
         sodipodi:nodetypes="csccccccsccsccsc"
         id="path3131"
         d="M -184.73645,27.94375 C -194.97576,27.943751 -205.20567,31.818176 -212.97026,39.582762 C -220.97748,47.589993 -224.8595,58.222613 -224.60927,68.779409 L -224.60927,96.822041 C -224.60927,100.87378 -221.35477,104.12828 -217.30303,104.12828 L -152.16987,104.12828 C -148.11813,104.12828 -144.86363,100.87378 -144.86363,96.822041 L -144.86363,68.779409 C -144.6134,58.222612 -148.49541,47.589993 -156.50264,39.582762 C -164.26722,31.818171 -174.49713,27.943749 -184.73645,27.94375 z M -184.73645,43.481014 C -178.39709,43.481015 -172.04817,45.9179 -167.17881,50.787256 C -162.36739,55.59868 -159.92981,61.833382 -159.87257,68.090021 L -209.57201,68.090021 C -209.51476,61.833381 -207.1055,55.598679 -202.29408,50.787256 C -197.42472,45.917895 -191.0758,43.481013 -184.73645,43.481014 z"
         style="fill:url(#radialGradient3133);fill-opacity:1;stroke:none;stroke-width:16.49500084;stroke-linecap:round;stroke-linejoin:round;stroke-miterlimit:4;stroke-dasharray:none;stroke-dashoffset:4.15;stroke-opacity:1" /></clipPath><radialGradient
       r="43.474762"
       fy="51.592991"
       fx="73.551216"
       cy="74.979408"
       cx="63.041775"
       spreadMethod="reflect"
       gradientTransform="matrix(-1.1040885,0.8280667,-0.6647496,-0.8863327,191.44623,62.253906)"
       gradientUnits="userSpaceOnUse"
       id="radialGradient2409"
       xlink:href="#linearGradient2990"
       inkscape:collect="always" /><linearGradient
       y2="-20.962214"
       x2="60.402065"
       y1="64.076149"
       x1="60.402065"
       gradientUnits="userSpaceOnUse"
       id="linearGradient3289"
       xlink:href="#linearGradient6674"
       inkscape:collect="always" /><linearGradient
       gradientUnits="userSpaceOnUse"
       y2="8"
       x2="-60"
       y1="105.83054"
       x1="-60.945251"
       id="linearGradient3243"
       xlink:href="#linearGradient3237"
       inkscape:collect="always" /><linearGradient
       y2="21.03125"
       x2="31.376678"
       y1="71.084908"
       x1="115.76678"
       gradientTransform="translate(0.2332229,1.9150941)"
       gradientUnits="userSpaceOnUse"
       id="linearGradient3233"
       xlink:href="#linearGradient6446"
       inkscape:collect="always" /><linearGradient
       y2="46.228859"
       x2="59.225807"
       y1="7.8973217"
       x1="59.225807"
       gradientTransform="translate(0.2623629,1)"
       gradientUnits="userSpaceOnUse"
       id="linearGradient3231"
       xlink:href="#linearGradient6446"
       inkscape:collect="always" /><linearGradient
       y2="82.029854"
       x2="74.447762"
       y1="-26.936626"
       x1="64"
       gradientUnits="userSpaceOnUse"
       id="linearGradient2816"
       xlink:href="#linearGradient6446"
       inkscape:collect="always" /><linearGradient
       gradientUnits="userSpaceOnUse"
       y2="88.633484"
       x2="19.934336"
       y1="50.580647"
       x1="19.096775"
       id="linearGradient6680"
       xlink:href="#linearGradient6674"
       inkscape:collect="always" /><linearGradient
       gradientTransform="translate(0,3)"
       gradientUnits="userSpaceOnUse"
       y2="50.728985"
       x2="62.038712"
       y1="15.91371"
       x1="62.038712"
       id="linearGradient6649"
       xlink:href="#linearGradient6643"
       inkscape:collect="always" /><linearGradient
       gradientUnits="userSpaceOnUse"
       y2="74.913147"
       x2="55.329033"
       y1="112"
       x1="55.329033"
       id="linearGradient6637"
       xlink:href="#linearGradient6631"
       inkscape:collect="always" /><linearGradient
       y2="28.235947"
       x2="13.96104"
       y1="21.101994"
       x1="21.094994"
       spreadMethod="reflect"
       gradientTransform="translate(0.4129032,0.6193548)"
       gradientUnits="userSpaceOnUse"
       id="linearGradient6472"
       xlink:href="#linearGradient6446"
       inkscape:collect="always" /><linearGradient
       y2="28.235947"
       x2="13.96104"
       y1="21.101994"
       x1="21.094994"
       spreadMethod="reflect"
       gradientTransform="translate(0.4129032,0.6193548)"
       gradientUnits="userSpaceOnUse"
       id="linearGradient6470"
       xlink:href="#linearGradient6446"
       inkscape:collect="always" /><linearGradient
       y2="27.070099"
       x2="15.126888"
       y1="21.101994"
       x1="21.094994"
       spreadMethod="reflect"
       gradientTransform="translate(0.4129032,0.6193548)"
       gradientUnits="userSpaceOnUse"
       id="linearGradient6464"
       xlink:href="#linearGradient6446"
       inkscape:collect="always" /><linearGradient
       gradientTransform="translate(-7.5870968,-7.3806452)"
       spreadMethod="reflect"
       gradientUnits="userSpaceOnUse"
       y2="27.007854"
       x2="15.189133"
       y1="21.101994"
       x1="21.094994"
       id="linearGradient6452"
       xlink:href="#linearGradient6446"
       inkscape:collect="always" /><linearGradient
       gradientUnits="userSpaceOnUse"
       y2="-24"
       x2="24"
       y1="88"
       x1="32"
       id="linearGradient6410"
       xlink:href="#linearGradient6404"
       inkscape:collect="always" /><radialGradient
       r="42.559486"
       fy="103.5803"
       fx="42.700352"
       cy="103.5803"
       cx="42.700352"
       spreadMethod="pad"
       gradientTransform="matrix(1.3965253,6.9831451e-3,-7.781496e-3,1.5561835,-122.82611,-69.698616)"
       gradientUnits="userSpaceOnUse"
       id="radialGradient9692"
       xlink:href="#linearGradient6666"
       inkscape:collect="always" /><linearGradient
       id="linearGradient6404"><stop
         id="stop6406"
         offset="0"
         style="stop-color:#081e3e;stop-opacity:1;" /><stop
         id="stop6408"
         offset="1"
         style="stop-color:#387de4;stop-opacity:1;" /></linearGradient><linearGradient
       id="linearGradient6446"><stop
         id="stop6448"
         offset="0"
         style="stop-color:#ffffff;stop-opacity:1;" /><stop
         id="stop6450"
         offset="1"
         style="stop-color:#ffffff;stop-opacity:0;" /></linearGradient><linearGradient
       id="linearGradient6631"><stop
         id="stop6633"
         offset="0"
         style="stop-color:#703700;stop-opacity:1;" /><stop
         id="stop6635"
         offset="1"
         style="stop-color:#bf5e00;stop-opacity:0;" /></linearGradient><linearGradient
       id="linearGradient6643"><stop
         id="stop6645"
         offset="0"
         style="stop-color:#fffddc;stop-opacity:1;" /><stop
         id="stop6647"
         offset="1"
         style="stop-color:#ffdfbf;stop-opacity:0;" /></linearGradient><linearGradient
       id="linearGradient6666"><stop
         style="stop-color:#9fc1f2;stop-opacity:1;"
         offset="0"
         id="stop6668" /><stop
         id="stop3183"
         offset="0.5"
         style="stop-color:#587eb5;stop-opacity:1;" /><stop
         style="stop-color:#0c2a58;stop-opacity:1;"
         offset="1"
         id="stop6670" /></linearGradient><linearGradient
       id="linearGradient6674"><stop
         id="stop6676"
         offset="0"
         style="stop-color:#001648;stop-opacity:1;" /><stop
         id="stop6678"
         offset="1"
         style="stop-color:#11a9ff;stop-opacity:0;" /></linearGradient><linearGradient
       id="linearGradient3237"><stop
         id="stop3239"
         offset="0"
         style="stop-color:#d5e6ff;stop-opacity:1;" /><stop
         id="stop3241"
         offset="1"
         style="stop-color:#ffffff;stop-opacity:0;" /></linearGradient><linearGradient
       id="linearGradient2990"><stop
         id="stop2992"
         offset="0"
         style="stop-color:#d7d7d7;stop-opacity:1;" /><stop
         id="stop2994"
         offset="1"
         style="stop-color:#ffffff;stop-opacity:1;" /></linearGradient><filter
       inkscape:collect="always"
       id="filter3187"
       x="-0.019172387"
       y="-0.018768957"
       width="1.0383449"
       height="1.0375409"><feGaussianBlur
         inkscape:collect="always"
         stdDeviation="0.56525828"
         id="feGaussianBlur3189" /></filter><radialGradient
       inkscape:collect="always"
       xlink:href="#XMLID_4_"
       id="radialGradient3236"
       gradientUnits="userSpaceOnUse"
       gradientTransform="matrix(1,0,0,1.1383929,0,-10.517857)"
       cx="172"
       cy="76"
       fx="172"
       fy="76"
       r="56" /><linearGradient
       inkscape:collect="always"
       xlink:href="#linearGradient3295"
       id="linearGradient3240"
       gradientUnits="userSpaceOnUse"
       x1="179.17224"
       y1="123.75864"
       x2="173.98071"
       y2="65.448112" /><filter
       id="filter5704"
       inkscape:collect="always"
       x="-0.095959159"
       y="-0.096041692"
       width="1.1919183"
       height="1.1920834"><feGaussianBlur
         id="feGaussianBlur5706"
         stdDeviation="0.90323211"
         inkscape:collect="always" /></filter><filter
       id="filter3505"
       inkscape:collect="always"
       x="-0.026117647"
       y="-0.0222"
       width="1.0522353"
       height="1.0444"><feGaussianBlur
         id="feGaussianBlur3507"
         stdDeviation="0.74"
         inkscape:collect="always" /></filter><radialGradient
       gradientUnits="userSpaceOnUse"
       gradientTransform="matrix(1,0,0,-1,-281.9995,-305)"
       r="94.664803"
       cy="-375.27051"
       cx="402.76709"
       id="path59_1_"><stop
         id="stop38"
         style="stop-color:#535557"
         offset="0" /><stop
         id="stop40"
         style="stop-color:#898A8C"
         offset="0.07095145" /><stop
         id="stop42"
         style="stop-color:#ECECEC"
         offset="0.203" /><stop
         id="stop44"
         style="stop-color:#FAFAFA"
         offset="0.2363" /><stop
         id="stop46"
         style="stop-color:#FFFFFF"
         offset="0.2722" /><stop
         id="stop48"
         style="stop-color:#FAFAFA"
         offset="0.5313" /><stop
         id="stop50"
         style="stop-color:#EBECEC"
         offset="0.8449" /><stop
         id="stop52"
         style="stop-color:#E1E2E3"
         offset="1" /></radialGradient><linearGradient
       gradientTransform="matrix(1,0,0,-1,-281.9995,-305)"
       y2="-363.99991"
       x2="392.9447"
       y1="-369.5"
       x1="398.44479"
       gradientUnits="userSpaceOnUse"
       id="path101_1_"><stop
         id="stop74"
         style="stop-color:#888A85"
         offset="0" /><stop
         id="stop4208"
         style="stop-color:#8C8E89"
         offset="0.0072" /><stop
         id="stop4210"
         style="stop-color:#ABACA9"
         offset="0.0673" /><stop
         id="stop80"
         style="stop-color:#C5C6C4"
         offset="0.1347" /><stop
         id="stop82"
         style="stop-color:#DBDBDA"
         offset="0.2115" /><stop
         id="stop84"
         style="stop-color:#EBEBEB"
         offset="0.3012" /><stop
         id="stop86"
         style="stop-color:#F7F7F6"
         offset="0.4122" /><stop
         id="stop88"
         style="stop-color:#FDFDFD"
         offset="0.5679" /><stop
         id="stop90"
         style="stop-color:#FFFFFF"
         offset="1" /></linearGradient><linearGradient
       inkscape:collect="always"
       xlink:href="#path101_1_"
       id="linearGradient6144"
       gradientUnits="userSpaceOnUse"
       gradientTransform="matrix(1.00086,0,0,1,-694.60272,336.30356)"
       x1="398.44479"
       y1="-369.5"
       x2="393.59644"
       y2="-364.65219" /><radialGradient
       inkscape:collect="always"
       xlink:href="#path59_1_"
       id="radialGradient6148"
       gradientUnits="userSpaceOnUse"
       gradientTransform="matrix(0.9492824,0,0,0.9484667,-675.13363,318.65343)"
       cx="402.76709"
       cy="-375.27051"
       r="94.664803" /><linearGradient
       gradientTransform="translate(-827.27922,0)"
       gradientUnits="userSpaceOnUse"
       xlink:href="#linearGradient3671"
       id="linearGradient4262"
       y2="206.375"
       x2="19.390625"
       y1="365.3761"
       x1="11.843751" /><clipPath
       id="clipPath4258"><path
         style="opacity:1;fill:url(#linearGradient4262);fill-opacity:1;stroke:none;stroke-width:7.08661413;stroke-linecap:square;stroke-linejoin:miter;stroke-miterlimit:4;stroke-dasharray:none;stroke-dashoffset:4.15;stroke-opacity:1"
         id="path4260"
         d="M -826.90422,227.34375 C -858.62937,227.34375 -884.43547,253.14985 -884.43547,284.875 C -884.43547,316.60015 -858.62937,342.40625 -826.90422,342.40625 C -795.17907,342.40625 -769.34172,316.60015 -769.34172,284.875 C -769.34172,253.14985 -795.17907,227.34375 -826.90422,227.34375 z M -826.90422,245.65625 C -819.86019,245.65625 -813.29975,247.56932 -807.59172,250.8125 L -860.96672,304.1875 C -864.2099,298.47948 -866.12297,291.91903 -866.12297,284.875 C -866.12297,263.18697 -848.59225,245.65625 -826.90422,245.65625 z M -791.34172,268.4375 C -789.0134,273.43966 -787.68547,278.99177 -787.68547,284.875 C -787.68547,306.56303 -805.2162,324.09375 -826.90422,324.09375 C -832.78745,324.09376 -838.33957,322.76582 -843.34172,320.4375 L -791.34172,268.4375 z" /></clipPath><filter
       id="filter4248"
       x="-0.05433137"
       width="1.1086627"
       y="-0.25805596"
       height="1.5161119"><feGaussianBlur
         inkscape:collect="always"
         stdDeviation="0.66853052"
         id="feGaussianBlur4250" /></filter><filter
       id="filter4202"
       x="-0.040415536"
       width="1.0808311"
       y="-0.12785855"
       height="1.2557171"><feGaussianBlur
         inkscape:collect="always"
         stdDeviation="0.59781314"
         id="feGaussianBlur4204" /></filter><filter
       id="filter4176"
       x="-0.086749933"
       width="1.1734999"
       y="-0.10374219"
       height="1.2074844"><feGaussianBlur
         inkscape:collect="always"
         stdDeviation="1.3102854"
         id="feGaussianBlur4178" /></filter><filter
       id="filter4134"
       x="-0.014409141"
       y="-0.065503869"
       width="1.0288183"
       height="1.1310077"><feGaussianBlur
         inkscape:collect="always"
         stdDeviation="0.28743233"
         id="feGaussianBlur4136" /></filter><filter
       id="filter4055"
       x="-0.013327522"
       y="-0.013327522"
       width="1.026655"
       height="1.026655"><feGaussianBlur
         inkscape:collect="always"
         stdDeviation="0.16412598"
         id="feGaussianBlur4057" /></filter><linearGradient
       id="linearGradient3671"><stop
         offset="0"
         style="stop-color:#1a0000;stop-opacity:1"
         id="stop3673" /><stop
         offset="1"
         style="stop-color:#a20000;stop-opacity:0"
         id="stop3675" /></linearGradient><linearGradient
       id="linearGradient3598"><stop
         offset="0"
         style="stop-color:#ffbfbf;stop-opacity:1"
         id="stop3600" /><stop
         offset="1"
         style="stop-color:#ffbfbf;stop-opacity:0"
         id="stop3602" /></linearGradient><linearGradient
       id="linearGradient3551"><stop
         offset="0"
         style="stop-color:#bf0000;stop-opacity:1"
         id="stop3553" /><stop
         offset="1"
         style="stop-color:#8c0000;stop-opacity:1"
         id="stop3555" /></linearGradient><linearGradient
       id="linearGradient3527"><stop
         offset="0"
         style="stop-color:#ff0000;stop-opacity:1"
         id="stop3529" /><stop
         offset="1"
         style="stop-color:#7f0000;stop-opacity:1"
         id="stop3531" /></linearGradient><linearGradient
       id="linearGradient2929"><stop
         offset="0"
         style="stop-color:#efa040;stop-opacity:1;"
         id="stop2931" /><stop
         offset="1"
         style="stop-color:#c0a331;stop-opacity:0"
         id="stop2933" /></linearGradient><linearGradient
       id="linearGradient6238"><stop
         style="stop-color:#ff8181;stop-opacity:1;"
         offset="0"
         id="stop6240" /><stop
         style="stop-color:#d40000;stop-opacity:1"
         offset="1"
         id="stop6242" /></linearGradient><linearGradient
       id="linearGradient3152"><stop
         style="stop-color:#d5d5d5;stop-opacity:1;"
         offset="0"
         id="stop3154" /><stop
         id="stop7048"
         offset="0.5"
         style="stop-color:#d5d5d5;stop-opacity:1;" /><stop
         style="stop-color:#ffffff;stop-opacity:1;"
         offset="1"
         id="stop3156" /></linearGradient><linearGradient
       id="linearGradient6174"><stop
         style="stop-color:#980101;stop-opacity:1"
         offset="0"
         id="stop6176" /><stop
         style="stop-color:#d40000;stop-opacity:1"
         offset="1"
         id="stop6178" /></linearGradient><linearGradient
       id="linearGradient11164"><stop
         style="stop-color:#515151;stop-opacity:1;"
         offset="0"
         id="stop11166" /><stop
         style="stop-color:#816647;stop-opacity:0;"
         offset="1"
         id="stop11168" /></linearGradient><linearGradient
       id="linearGradient11125"><stop
         style="stop-color:#ffffff;stop-opacity:1;"
         offset="0"
         id="stop11127" /><stop
         style="stop-color:#e2e2e2;stop-opacity:1;"
         offset="1"
         id="stop11129" /></linearGradient><linearGradient
       inkscape:collect="always"
       xlink:href="#linearGradient3260"
       id="linearGradient5106"
       x1="39.5"
       y1="72.5"
       x2="39.5"
       y2="48.240856"
       gradientUnits="userSpaceOnUse"
       gradientTransform="matrix(1,0,0,1.1666667,0,-13.333333)" /><radialGradient
       inkscape:collect="always"
       xlink:href="#path59_1_-4"
       id="radialGradient6148-2"
       gradientUnits="userSpaceOnUse"
       gradientTransform="matrix(0.9492824,0,0,0.9484667,-675.13288,318.65398)"
       cx="402.76709"
       cy="-375.27051"
       r="94.664803" /><radialGradient
       gradientUnits="userSpaceOnUse"
       gradientTransform="matrix(1,0,0,-1,-281.9995,-305)"
       r="94.664803"
       cy="-375.27051"
       cx="402.76709"
       id="path59_1_-4"><stop
         id="stop38-5"
         style="stop-color:#285063;stop-opacity:0.94901961;"
         offset="0" /><stop
         id="stop40-5"
         style="stop-color:#235b78;stop-opacity:1;"
         offset="0.07095145" /><stop
         id="stop42-1"
         style="stop-color:#2c7398;stop-opacity:1;"
         offset="0.20299999" /><stop
         id="stop44-7"
         style="stop-color:#2f89b9;stop-opacity:1;"
         offset="0.23630001" /><stop
         id="stop46-1"
         style="stop-color:#2d8dc2;stop-opacity:1;"
         offset="0.27219999" /><stop
         id="stop48-1"
         style="stop-color:#2487be;stop-opacity:1;"
         offset="0.53130001" /><stop
         id="stop50-5"
         style="stop-color:#1f7eb5;stop-opacity:1;"
         offset="0.84490001" /><stop
         id="stop52-2"
         style="stop-color:#1673a9;stop-opacity:0.99215686;"
         offset="1" /></radialGradient><filter
       id="filter3505-1"
       inkscape:collect="always"
       x="-0.026117647"
       y="-0.0222"
       width="1.0522353"
       height="1.0444"><feGaussianBlur
         id="feGaussianBlur3507-4"
         stdDeviation="0.74"
         inkscape:collect="always" /></filter><radialGradient
       inkscape:collect="always"
       xlink:href="#path59_1_-2"
       id="radialGradient6148-23"
       gradientUnits="userSpaceOnUse"
       gradientTransform="matrix(0.9492824,0,0,0.9484667,-675.13363,318.65343)"
       cx="402.76709"
       cy="-375.27051"
       r="94.664803" /><radialGradient
       gradientUnits="userSpaceOnUse"
       gradientTransform="matrix(1,0,0,-1,-281.9995,-305)"
       r="94.664803"
       cy="-375.27051"
       cx="402.76709"
       id="path59_1_-2"><stop
         id="stop38-2"
         style="stop-color:#535557"
         offset="0" /><stop
         id="stop40-1"
         style="stop-color:#898A8C"
         offset="0.07095145" /><stop
         id="stop42-6"
         style="stop-color:#ECECEC"
         offset="0.203" /><stop
         id="stop44-8"
         style="stop-color:#FAFAFA"
         offset="0.2363" /><stop
         id="stop46-5"
         style="stop-color:#FFFFFF"
         offset="0.2722" /><stop
         id="stop48-7"
         style="stop-color:#FAFAFA"
         offset="0.5313" /><stop
         id="stop50-6"
         style="stop-color:#EBECEC"
         offset="0.8449" /><stop
         id="stop52-1"
         style="stop-color:#E1E2E3"
         offset="1" /></radialGradient><radialGradient
       inkscape:collect="always"
       xlink:href="#path59_1_-4-9"
       id="radialGradient6148-2-8"
       gradientUnits="userSpaceOnUse"
       gradientTransform="matrix(0.9492824,0,0,0.9484667,-675.13288,318.65398)"
       cx="402.76709"
       cy="-375.27051"
       r="94.664803" /><radialGradient
       gradientUnits="userSpaceOnUse"
       gradientTransform="matrix(1,0,0,-1,-281.9995,-305)"
       r="94.664803"
       cy="-375.27051"
       cx="402.76709"
       id="path59_1_-4-9"><stop
         id="stop38-5-2"
         style="stop-color:#285063;stop-opacity:0.94901961;"
         offset="0" /><stop
         id="stop40-5-7"
         style="stop-color:#235b78;stop-opacity:1;"
         offset="0.07095145" /><stop
         id="stop42-1-9"
         style="stop-color:#2c7398;stop-opacity:1;"
         offset="0.20299999" /><stop
         id="stop44-7-5"
         style="stop-color:#2f89b9;stop-opacity:1;"
         offset="0.23630001" /><stop
         id="stop46-1-4"
         style="stop-color:#2d8dc2;stop-opacity:1;"
         offset="0.27219999" /><stop
         id="stop48-1-3"
         style="stop-color:#2487be;stop-opacity:1;"
         offset="0.53130001" /><stop
         id="stop50-5-1"
         style="stop-color:#1f7eb5;stop-opacity:1;"
         offset="0.84490001" /><stop
         id="stop52-2-2"
         style="stop-color:#1673a9;stop-opacity:0.99215686;"
         offset="1" /></radialGradient><filter
       id="filter5704-3"
       inkscape:collect="always"
       x="-0.095959159"
       y="-0.096041692"
       width="1.1919183"
       height="1.1920834"><feGaussianBlur
         id="feGaussianBlur5706-3"
         stdDeviation="0.90323211"
         inkscape:collect="always" /></filter><linearGradient
       inkscape:collect="always"
       xlink:href="#path101_1_"
       id="linearGradient6144-4"
       gradientUnits="userSpaceOnUse"
       gradientTransform="matrix(1.00086,0,0,1,-694.60272,336.30356)"
       x1="398.44479"
       y1="-369.5"
       x2="393.59644"
       y2="-364.65219" /></defs><sodipodi:namedview
     id="base"
     pagecolor="#ffffff"
     bordercolor="#666666"
     borderopacity="1.0"
     inkscape:pageopacity="0.0"
     inkscape:pageshadow="2"
     inkscape:zoom="1.4142136"
     inkscape:cx="-55.507882"
     inkscape:cy="147.43176"
     inkscape:document-units="px"
     inkscape:current-layer="layer1"
     width="128px"
     height="128px"
     showgrid="false"
     inkscape:grid-points="true"
     showguides="false"
     inkscape:guide-bbox="true"
     inkscape:window-width="1920"
     inkscape:window-height="1046"
     inkscape:window-x="-11"
     inkscape:window-y="-11"
     gridtolerance="17"
     inkscape:window-maximized="1"
     inkscape:showpageshadow="2"
     inkscape:pagecheckerboard="0"
     inkscape:deskcolor="#d1d1d1"><inkscape:grid
       type="xygrid"
       id="grid2576"
       spacingx="4"
       spacingy="4"
       empspacing="2"
       originx="0"
       originy="0"
       units="px" /><inkscape:grid
       id="GridFromPre046Settings"
       type="xygrid"
       originx="0"
       originy="0"
       spacingx="4"
       spacingy="4"
       color="#3f3fff"
       empcolor="#3f3fff"
       opacity="0.15"
       empopacity="0.38"
       empspacing="2"
       units="px" /></sodipodi:namedview><metadata
     id="metadata2611"><rdf:RDF><cc:Work
         rdf:about=""><dc:format>image/svg+xml</dc:format><dc:type
           rdf:resource="http://purl.org/dc/dcmitype/StillImage" /></cc:Work></rdf:RDF></metadata><g
     inkscape:label="Livello 1"
     inkscape:groupmode="layer"
     id="layer1"><rect
       y="28.608597"
       x="-244.80602"
       height="0"
       width="1"
       id="rect1327"
       style="opacity:0.577869;fill:#ffffff;fill-opacity:1;fill-rule:nonzero;stroke:none;stroke-width:3.632;stroke-linecap:round;stroke-linejoin:round;stroke-miterlimit:4;stroke-dasharray:none;stroke-dashoffset:4;stroke-opacity:1" /><path
       style="fill:#ffffff;fill-opacity:0.756881;fill-rule:nonzero;stroke:none;stroke-width:0.5;stroke-linecap:round;stroke-linejoin:round;stroke-miterlimit:4;stroke-dasharray:none;stroke-dashoffset:4;stroke-opacity:1"
       d="m -403.74344,-44.607473 v -2.794708 z"
       id="path2276"
       sodipodi:nodetypes="ccc" /><g
       id="g4640"
       transform="matrix(-0.782995,0,0,0.650879,-2726.602,641.91019)"
       style="opacity:0.401639" /><g
       style="opacity:0.401639"
       transform="matrix(-0.782995,0,0,0.650879,-2726.602,641.91019)"
       id="g4646" /><g
       style="opacity:0.401639"
       transform="matrix(1,0,0,0.650879,474.36098,649.23799)"
       id="g4730" /><g
       id="g4748"
       transform="matrix(1,0,0,0.650879,474.36098,649.23799)"
       style="opacity:0.401639" /><path
       style="fill:#eeeeec"
       id="path6180"
       d="" /><g
       id="g3"
       transform="matrix(1.9325167,0,0,1.9325167,3.7866326,-114.83349)"><g
         id="g1-3"
         transform="matrix(0.6057141,0,0,0.6057141,215.53735,91.263664)"><path
           sodipodi:nodetypes="cccccccc"
           style="opacity:0.45;fill:#000000;fill-opacity:1;filter:url(#filter3505-1)"
           d="m -350.80602,-42.391406 10e-6,80 h 42.53319 c 0.38815,0 0.75494,-0.157106 1.0293,-0.427632 l 24.00586,-23.75 c 0.27436,-0.271578 0.43164,-0.635526 0.43164,-1.019736 v -54.802632 z"
           id="path2532-1"
           transform="matrix(1,0,0,-1,0,-8.5878468)" /><path
           sodipodi:nodetypes="cccccccc"
           style="fill:#ffffff;fill-opacity:1"
           d="m -348.80603,31.803559 1e-5,-76 h 40.03124 c 0.36531,0 0.71053,0.14925 0.96875,0.40625 l 22.59375,22.5625 c 0.25822,0.258 0.40625,0.60375 0.40625,0.96875 v 52.0625 z"
           id="path4712-9" /><path
           id="path6064-8"
           d="m -347.15697,29.845296 10e-6,-72.083475 h 37.9683 c 0.34649,0 0.67392,0.14156 0.91883,0.385316 l 21.42942,21.399781 c 0.24492,0.244704 0.38532,0.572637 0.38532,0.918827 v 49.379551 z"
           style="fill:url(#radialGradient6148-23)"
           sodipodi:nodetypes="cccccccc" /><path
           style="fill:#ffffff;fill-opacity:0.756881;fill-rule:nonzero;stroke:none;stroke-width:0.5;stroke-linecap:round;stroke-linejoin:round;stroke-miterlimit:4;stroke-dasharray:none;stroke-dashoffset:4;stroke-opacity:1"
           d="m -299.57497,37.179122 v 2.20547 z"
           id="path2408-6"
           sodipodi:nodetypes="ccc" /><path
           id="path6064-6-5"
           style="fill:url(#radialGradient6148-2-8)"
           d="m -347.15696,-42.238179 v 7.730469 h 46.24219 l -7.35352,-7.34375 c -0.24491,-0.243756 -0.57343,-0.386719 -0.91992,-0.386719 z" /><path
           sodipodi:nodetypes="csccc"
           style="opacity:0.3;fill:#000000;fill-opacity:1;filter:url(#filter5704-3)"
           d="m -99.99277,80.598 c 0,0 8.198044,-6.816 11.983298,-10.598 3.785253,-3.782 10.607115,-11.973 10.607115,-11.973 0,0 -8.023478,2.409045 -20.023478,2.409045 0,12 -2.566935,20.161955 -2.566935,20.161955 z"
           id="path4924-0"
           transform="matrix(1.0561473,0,0,-1.0633114,-203.65293,41.504334)" /><path
           id="path101-2"
           d="m -307.79879,-43.794441 c 0,0 8.19804,6.816 11.9833,10.598 3.78525,3.782 10.60711,11.973 10.60711,11.973 0,0 -7.59764,-2.973 -19.59764,-2.973 0,-12 -2.99277,-19.598 -2.99277,-19.598 z"
           style="fill:url(#linearGradient6144-4)"
           sodipodi:nodetypes="csccc" /></g><g
         id="g1"
         transform="matrix(0.6057141,0,0,0.6057141,229.98896,101.8008)"><path
           sodipodi:nodetypes="cccccccc"
           style="opacity:0.45;fill:#000000;fill-opacity:1;filter:url(#filter3505)"
           d="m -350.80602,-42.391406 10e-6,80 h 42.53319 c 0.38815,0 0.75494,-0.157106 1.0293,-0.427632 l 24.00586,-23.75 c 0.27436,-0.271578 0.43164,-0.635526 0.43164,-1.019736 v -54.802632 z"
           id="path2532"
           transform="matrix(1,0,0,-1,0,-8.5878468)" /><path
           sodipodi:nodetypes="cccccccc"
           style="fill:#ffffff;fill-opacity:1"
           d="m -348.80603,31.803559 1e-5,-76 h 40.03124 c 0.36531,0 0.71053,0.14925 0.96875,0.40625 l 22.59375,22.5625 c 0.25822,0.258 0.40625,0.60375 0.40625,0.96875 v 52.0625 z"
           id="path4712" /><path
           id="path6064"
           d="m -347.15697,29.845296 10e-6,-72.083475 h 37.9683 c 0.34649,0 0.67392,0.14156 0.91883,0.385316 l 21.42942,21.399781 c 0.24492,0.244704 0.38532,0.572637 0.38532,0.918827 v 49.379551 z"
           style="fill:url(#radialGradient6148)"
           sodipodi:nodetypes="cccccccc" /><path
           style="fill:#ffffff;fill-opacity:0.756881;fill-rule:nonzero;stroke:none;stroke-width:0.5;stroke-linecap:round;stroke-linejoin:round;stroke-miterlimit:4;stroke-dasharray:none;stroke-dashoffset:4;stroke-opacity:1"
           d="m -299.57497,37.179122 v 2.20547 z"
           id="path2408"
           sodipodi:nodetypes="ccc" /><path
           id="path6064-6"
           style="fill:url(#radialGradient6148-2)"
           d="m -347.15696,-42.238179 v 7.730469 h 46.24219 l -7.35352,-7.34375 c -0.24491,-0.243756 -0.57343,-0.386719 -0.91992,-0.386719 z" /><path
           sodipodi:nodetypes="csccc"
           style="opacity:0.3;fill:#000000;fill-opacity:1;filter:url(#filter5704)"
           d="m -99.99277,80.598 c 0,0 8.198044,-6.816 11.983298,-10.598 3.785253,-3.782 10.607115,-11.973 10.607115,-11.973 0,0 -8.023478,2.409045 -20.023478,2.409045 0,12 -2.566935,20.161955 -2.566935,20.161955 z"
           id="path4924"
           transform="matrix(1.0561473,0,0,-1.0633114,-203.65293,41.504334)" /><path
           id="path101"
           d="m -307.79879,-43.794441 c 0,0 8.19804,6.816 11.9833,10.598 3.78525,3.782 10.60711,11.973 10.60711,11.973 0,0 -7.59764,-2.973 -19.59764,-2.973 0,-12 -2.99277,-19.598 -2.99277,-19.598 z"
           style="fill:url(#linearGradient6144)"
           sodipodi:nodetypes="csccc" /></g><g
         id="g2"
         transform="matrix(0.28819794,0.28819794,0.28819794,-0.28819794,-9.80315,99.279704)"><path
           sodipodi:nodetypes="ccsccccccccccc"
           id="path2488"
           d="m 57.34125,13.585447 65.10681,47.562337 C 123.4314,61.853052 124,62.898046 124,64 c 0,1.101954 -0.5686,2.146948 -1.55194,2.852216 L 56.65375,113.08531 C 52.51063,115.7157 46.56,116.08842 46.56,110.26 v -23 h -29.1 c -2.38204,6.54e-4 -5.82076,-3.768949 -5.82,-5.82 V 46.52 c -7.6e-4,-2.05105 3.43796,-5.820656 5.82,-5.82 h 29.1 V 17.42 c 0,-3.891136 7.02052,-6.553293 10.78125,-3.834553 z"
           style="fill:url(#linearGradient3409);fill-opacity:1;fill-rule:evenodd;stroke:none;stroke-width:8.62138;stroke-linecap:round;stroke-linejoin:round;stroke-miterlimit:4;stroke-dasharray:none;stroke-opacity:1" /><path
           sodipodi:nodetypes="ccsccccccccccc"
           id="path3532"
           d="m 57.34125,13.585447 65.10681,47.562337 C 123.4314,61.853052 124,62.898046 124,64 c 0,1.101954 -0.5686,2.146948 -1.55194,2.852216 L 56.65375,113.08531 C 52.51063,115.7157 46.56,116.08842 46.56,110.26 v -23 h -29.1 c -2.38204,6.54e-4 -5.82076,-3.768949 -5.82,-5.82 V 46.52 c -7.6e-4,-2.05105 3.43796,-5.820656 5.82,-5.82 h 29.1 V 17.42 c 0,-3.891136 7.02052,-6.553293 10.78125,-3.834553 z"
           style="opacity:0.254682;fill:url(#radialGradient3534);fill-opacity:1;fill-rule:evenodd;stroke:none;stroke-width:8.62138;stroke-linecap:round;stroke-linejoin:round;stroke-miterlimit:4;stroke-dasharray:none;stroke-opacity:1" /><path
           style="fill:url(#linearGradient3301);fill-opacity:1;fill-rule:evenodd;stroke:none;stroke-width:1px;stroke-linecap:butt;stroke-linejoin:miter;stroke-opacity:1;filter:url(#filter3387)"
           d="M 69.5,13.0625 C 68.422912,13.12778 67.386099,13.439286 66.5,14 L 68.875,21.625 77,18.46875 V 18 c 0,-2.918352 -3.938921,-5.15334 -7.5,-4.9375 z"
           id="path3272"
           transform="matrix(-1,0,0,1,124,0)"
           sodipodi:nodetypes="cccccc" /><path
           id="path3519"
           d="m 115.65112,40 c -0.33944,1.154561 -2.5625,6.125 -2.5625,6.125 l 6.75,-0.03125 V 44 c 7.6e-4,-2.05105 -1.61796,-4.000656 -4,-4 z"
           style="opacity:0.614232;fill:url(#linearGradient3521);fill-opacity:1;fill-rule:evenodd;stroke:none;stroke-width:8.62138;stroke-linecap:round;stroke-linejoin:round;stroke-miterlimit:4;stroke-dasharray:none;stroke-opacity:1;filter:url(#filter3443)"
           transform="rotate(180,66.75,63.1125)" /><path
           style="fill:url(#radialGradient3455);fill-opacity:1;fill-rule:evenodd;stroke:none;stroke-width:8.62138;stroke-linecap:round;stroke-linejoin:round;stroke-miterlimit:4;stroke-dasharray:none;stroke-opacity:1"
           d="m 57.34125,13.585447 65.10681,47.562337 C 123.4314,61.853052 124,62.898046 124,64 c 0,1.101954 -0.5686,2.146948 -1.55194,2.852216 L 56.79375,113.12531 C 52.65063,115.7557 46.7,116.12842 46.7,110.3 L 46.56,87.26 h -29.1 c -2.38204,6.54e-4 -5.82076,-3.768949 -5.82,-5.82 V 46.52 c -7.6e-4,-2.05105 3.43796,-5.820656 5.82,-5.82 h 29.1 V 17.42 c 0,-3.891136 7.02052,-6.553293 10.78125,-3.834553 z"
           id="path3447"
           sodipodi:nodetypes="ccsccccccccccc" /><path
           id="path3391"
           d="M 72.5,11.0625 C 71.422912,11.12778 70.386099,11.439286 69.5,12 L 71.875,19.625 80,16.46875 V 16 c 0,-2.918352 -3.938921,-5.15334 -7.5,-4.9375 z"
           style="opacity:0.70412;fill:url(#linearGradient3393);fill-opacity:1;fill-rule:evenodd;stroke:none;stroke-width:1px;stroke-linecap:butt;stroke-linejoin:miter;stroke-opacity:1;filter:url(#filter3387)"
           transform="matrix(-0.8316412,0,0,-1,113.5313,124.78415)"
           sodipodi:nodetypes="cccccc" /><path
           transform="rotate(-88.373605,67.500734,96.141692)"
           style="opacity:0.749064;fill:url(#linearGradient3530);fill-opacity:1;fill-rule:evenodd;stroke:none;stroke-width:8.62138;stroke-linecap:round;stroke-linejoin:round;stroke-miterlimit:4;stroke-dasharray:none;stroke-opacity:1;filter:url(#filter3443)"
           d="m 115.65112,40 c -0.33944,1.154561 -2.5625,6.125 -2.5625,6.125 l 6.75,-0.03125 V 44 c 7.6e-4,-2.05105 -1.61796,-4.000656 -4,-4 z"
           id="path3528"
           inkscape:export-xdpi="90"
           inkscape:export-ydpi="90" /><g
           style="fill:url(#radialGradient3629);fill-opacity:1;stroke:none;stroke-width:16;stroke-linecap:round;stroke-linejoin:round;stroke-miterlimit:4;stroke-dasharray:none"
           transform="matrix(-1,0,0,0.8609865,236,-1.4349776)"
           id="g3472"><path
             sodipodi:nodetypes="ccccccccccc"
             id="path3474"
             d="m 177.25044,26.110774 -56.74497,47.696185 c -1.3858,1.609542 -1.16397,3.021178 -0.10244,4.254102 L 175.6,123.27137 c 4,3.58214 8,3.77323 8,0 l 0.02,-27.015531 h 34.92 V 55.697711 h -34.92 l 0.08,-27.122645 c 0,-3.190873 -3.15287,-4.674949 -6.44956,-2.464292 z"
             style="fill:url(#radialGradient3213);fill-opacity:1;fill-rule:evenodd;stroke:none;stroke-width:16;stroke-linecap:round;stroke-linejoin:round;stroke-miterlimit:4;stroke-dasharray:none;stroke-opacity:1" /></g><g
           style="fill:none;fill-opacity:1;stroke:url(#linearGradient2226);stroke-width:1.07771;stroke-linecap:round;stroke-linejoin:round;stroke-miterlimit:4;stroke-dasharray:none;stroke-opacity:1;filter:url(#filter3187)"
           transform="matrix(-1,0,0,0.8609865,333.40303,-1.4349776)"
           id="g3469"><path
             sodipodi:nodetypes="ccccccccccc"
             id="path3471"
             d="m 274.55044,26.110774 -56.44497,47.696185 c -1.3858,1.609542 -1.16397,3.021178 -0.10244,4.254102 L 273,123.27137 c 4,3.58214 8,3.77323 8,0 l 0.023,-27.015531 h 34.92 L 316,55.906774 281.02303,55.697711 281,28.575066 c 0,-3.190873 -3.15287,-4.674949 -6.44956,-2.464292 z"
             style="fill:none;fill-opacity:1;fill-rule:evenodd;stroke:url(#linearGradient2228);stroke-width:1.07771;stroke-linecap:round;stroke-linejoin:round;stroke-miterlimit:4;stroke-dasharray:none;stroke-opacity:1" /></g><path
           style="fill:url(#linearGradient3253);fill-opacity:1;fill-rule:evenodd;stroke:none;stroke-width:16;stroke-linecap:round;stroke-linejoin:round;stroke-miterlimit:4;stroke-dasharray:none;stroke-opacity:1"
           d="M 54.96875,20.15625 C 53.240202,20.307374 52,21.439188 52,23.15625 L 52.38,46.52 17.6,46.6 V 65.15625 C 27.539409,66.360551 28.451562,67.000001 39.3125,67 66.254354,67 87.98579,63.028043 107.375,56.40625 l -48.9375,-35.375 c -1.236259,-0.713755 -2.431621,-0.965675 -3.46875,-0.875 z"
           id="path2232"
           sodipodi:nodetypes="cccccsccc" /><path
           style="fill:url(#linearGradient3504);fill-opacity:1;fill-rule:evenodd;stroke:none;stroke-width:16;stroke-linecap:round;stroke-linejoin:round;stroke-miterlimit:4;stroke-dasharray:none;stroke-opacity:1"
           d="m 55.16875,20.117187 c -0.87317,0.07634 -1.59797,0.411641 -2.125,0.9375 -0.25546,0.254892 -0.48467,0.532273 -0.625,0.875 -0.0037,0.0087 0.0036,0.0225 0,0.03125 -0.06633,0.166985 -0.12089,0.345765 -0.15625,0.53125 -0.002,0.01003 0.0019,0.02116 0,0.03125 -0.03375,0.186822 -0.0625,0.389742 -0.0625,0.59375 -9e-5,0.01058 0,0.02062 0,0.03125 v 1 l 0.219417,22.152813 h 0.03125 L 53.33125,22.998437 c 0.371679,-2.2737 3.299328,-2.183977 5.30625,-0.975 l 47.65,34.01875 c -13.52579,4.922635 -28.22702,8.423292 -45.975,10.04375 18.30402,-1.446672 32.03884,-4.72645 46.0625,-9.40625 l 0.0312,0.03125 c 0.32046,-0.107041 0.65114,-0.20403 0.96875,-0.3125 l -0.0312,-0.03125 -48.70625,-35.34375 c -1.05795,-0.61081 -2.07548,-0.865902 -3,-0.875 0.02247,-0.0084 0.03975,-0.02331 0.0625,-0.03125 -0.17747,-0.004 -0.36172,-0.01482 -0.53125,0 z M 17.458545,46.52 v 0.03125 1 20.125 l 0.9375,-20.125 34.023372,-1 -0.08984,0.03125 -33.871029,-0.03125 V 46.52 Z"
           id="path3462"
           sodipodi:nodetypes="csssssscccccccccccccssccccccccccc" /><path
           sodipodi:nodetypes="csssssscccccccccccccssccccccccccc"
           id="path3524"
           d="m 55.26875,20.117187 c -0.87317,0.07634 -1.59797,0.411641 -2.125,0.9375 -0.25546,0.254892 -0.48467,0.532273 -0.625,0.875 -0.0037,0.0087 0.0036,0.0225 0,0.03125 -0.06633,0.166985 -0.12089,0.345765 -0.15625,0.53125 -0.002,0.01003 0.0019,0.02116 0,0.03125 -0.03375,0.186822 -0.0625,0.389742 -0.0625,0.59375 -9e-5,0.01058 0,0.02062 0,0.03125 v 1 L 52.38,46.27 h 0.03125 l 1.02,-23.271563 c 0.371679,-2.2737 3.299328,-2.183977 5.30625,-0.975 l 47.55,34.01875 C 92.76171,60.964822 81.949567,63.763576 64.201587,65.384034 82.505607,63.937362 92.35134,61.359487 106.375,56.679687 l 0.0312,0.03125 c 0.32046,-0.107041 0.65114,-0.20403 0.96875,-0.3125 l -0.0312,-0.03125 -48.60625,-35.34375 c -1.05795,-0.61081 -2.07548,-0.865902 -3,-0.875 0.02247,-0.0084 0.03975,-0.02331 0.0625,-0.03125 -0.17747,-0.004 -0.36172,-0.01482 -0.53125,0 z M 17.46,46.523906 v 0.03125 1 L 17.391689,64.645 18.3975,47.555156 52.38,46.52 v 0 l -33.92,0.03516 v -0.03125 z"
           style="fill:url(#linearGradient3526);fill-opacity:1;fill-rule:evenodd;stroke:none;stroke-width:16;stroke-linecap:round;stroke-linejoin:round;stroke-miterlimit:4;stroke-dasharray:none;stroke-opacity:1" /></g></g></g></svg>
