<?xml version="1.0" encoding="utf-8"?><svg version="1.1" id="Layer_1" xmlns="http://www.w3.org/2000/svg" xmlns:xlink="http://www.w3.org/1999/xlink" x="0px" y="0px" viewBox="0 0 122.88 86.35" style="enable-background:new 0 0 122.88 86.35" xml:space="preserve"><style type="text/css">.st0{fill-rule:evenodd;clip-rule:evenodd;}</style><g><path class="st0" d="M43.12,36.55l-7.4,4.51l-5.27-3.46c-0.7-2.1-3.1-4.05-7.2-5.82L12.34,27C4.12,23.39,0,18.94,0,13.62 c0-2.83,1.06-5.23,3.17-7.18c2.11-1.95,4.69-2.94,7.7-2.94c4.3,0,8.08,1.45,11.32,4.35c3.23,2.9,4.84,6.29,4.84,10.12 c0,0.29-0.07,1.25-0.22,2.9l-0.05,1.2c-0.07,0.77-0.11,1.34-0.11,1.74c0,2.51,1.99,4.67,5.98,6.5c0.7,0.34,1.38,0.72,2.04,1.09 L43.12,36.55L43.12,36.55z M67.23,65.77l40.69,20.58l14.96-2.84L77.96,50.96c-4.84-3.5-4.88-4.35-10.79-2.64l-1.9,0.55l-11.21-6.25 l-7.78,4.97l12.14,8.59l0.77,2.64C60.54,63.47,62.95,63.6,67.23,65.77L67.23,65.77z M64.6,20.27L104.67,0l16.27,1.31L76.33,34.14 c-4.82,3.55-5.71,5.83-11.69,4.1l-2.61-0.76l-4.7,2.62l-12.87,7.47c-1.95,1.15-3.31,1.88-4.05,2.15l-1.15,0.43 c-3.01,1.11-4.51,3.12-4.51,6.02v0.49l0.11,1.31l0.16,2.58c0.23,4.74-2.33,9.37-7.72,13.84c-5.39,4.51-11.07,6.77-17.01,6.77 c-3.01,0-5.46-0.77-7.4-2.29C0.97,77.34,0,75.43,0,73.08c0-3.05,2.99-6.45,8.97-10.19L25.6,52.5c3.64-2.27,5.46-4.32,5.46-6.13 c0-0.22-0.04-0.56-0.09-1.06l14.69-9.16l0,0l9.52-5.97l0.92-3.17C57.36,22.66,60.64,22.27,64.6,20.27L64.6,20.27z M10.87,21.76 l2.56,1.26c2.31,1.09,4.19,1.63,5.62,1.63c2.8,0,4.19-1.95,4.19-5.88c0-2.87-1.29-5.52-3.89-7.93c-2.58-2.42-5.43-3.62-8.54-3.62 c-1.86,0-3.46,0.65-4.8,1.94C4.67,10.46,4,12,4,13.78C4,16.75,6.29,19.42,10.87,21.76L10.87,21.76z M21.53,59.6L9.51,67.08 C5.84,69.39,4,71.42,4,73.12c0,1.42,0.55,2.46,1.68,3.15c1.11,0.7,2.8,1.06,5.03,1.06c4.62,0,9.15-1.81,13.6-5.41 c4.44-3.6,6.66-7.27,6.66-11.02c0-2.53-1.11-3.78-3.31-3.78C26.33,57.12,24.29,57.95,21.53,59.6L21.53,59.6z M44.4,44.8 c1.7,0,2.56-0.82,2.56-2.47c0-1.65-0.86-2.47-2.56-2.47c-1.68,0-2.52,0.82-2.52,2.47C41.88,43.98,42.72,44.8,44.4,44.8L44.4,44.8z"/></g></svg>