<?xml version="1.0" encoding="UTF-8" standalone="no"?>
<!-- Created with Inkscape (http://www.inkscape.org/) -->

<svg
   width="64"
   height="64"
   id="svg4956"
   version="1.1"
   inkscape:version="1.4.2 (f4327f4, 2025-05-13)"
   sodipodi:docname="editUncomment.svg"
   inkscape:export-filename="D:\itom\sources\itom\Qitom\icons\editComment.svg"
   inkscape:export-xdpi="90"
   inkscape:export-ydpi="90"
   xml:space="preserve"
   xmlns:inkscape="http://www.inkscape.org/namespaces/inkscape"
   xmlns:sodipodi="http://sodipodi.sourceforge.net/DTD/sodipodi-0.dtd"
   xmlns:xlink="http://www.w3.org/1999/xlink"
   xmlns="http://www.w3.org/2000/svg"
   xmlns:svg="http://www.w3.org/2000/svg"
   xmlns:rdf="http://www.w3.org/1999/02/22-rdf-syntax-ns#"
   xmlns:cc="http://creativecommons.org/ns#"
   xmlns:dc="http://purl.org/dc/elements/1.1/"><defs
     id="defs4958"><filter
       style="color-interpolation-filters:sRGB;"
       inkscape:label="Drop Shadow"
       id="filter3048"><feFlood
         flood-opacity="0.5"
         flood-color="rgb(0,0,0)"
         result="flood"
         id="feFlood3050" /><feComposite
         in="flood"
         in2="SourceGraphic"
         operator="in"
         result="composite1"
         id="feComposite3052" /><feGaussianBlur
         in="composite"
         stdDeviation="2"
         result="blur"
         id="feGaussianBlur3054" /><feOffset
         dx="2"
         dy="2"
         result="offset"
         id="feOffset3056" /><feComposite
         in="SourceGraphic"
         in2="offset"
         operator="over"
         result="composite2"
         id="feComposite3058" /></filter><linearGradient
       gradientTransform="matrix(0.9743255,0,0,0.9743255,5.5404775,5.5404852)"
       gradientUnits="userSpaceOnUse"
       xlink:href="#linearGradient5826"
       id="linearGradient3208-3"
       y2="-15.688621"
       x2="58.743717"
       y1="78.411346"
       x1="58.743717" /><linearGradient
       id="linearGradient5826"><stop
         id="stop5828"
         offset="0"
         style="stop-color:#810000;stop-opacity:1" /><stop
         id="stop5830"
         offset="1"
         style="stop-color:#c50000;stop-opacity:1" /></linearGradient><clipPath
       id="clipPath3559-6-6"><path
         id="path3561-4-5"
         style="fill:url(#linearGradient3503);fill-opacity:1;stroke:none;stroke-width:8;stroke-linecap:round;stroke-linejoin:round;stroke-miterlimit:4;stroke-dashoffset:1.0878;stroke-opacity:1"
         d="m -64.510272,10.75 c -1.042316,0.0084 -2.040208,0.423209 -2.78125,1.15625 L -84.260272,28.875 c -1.561474,1.562119 -1.561474,4.094131 0,5.65625 L -58.822772,60 l -25.4375,25.46875 c -1.561474,1.562119 -1.561474,4.094131 0,5.65625 l 16.96875,16.96875 c 1.562119,1.56147 4.094131,1.56147 5.65625,0 l 25.46875,-25.4375 25.46875,25.4375 c 1.5621191,1.56147 4.0941311,1.56147 5.6562501,0 L 11.927228,91.125 c 1.56147,-1.562119 1.56147,-4.094131 0,-5.65625 L -13.510272,60 11.927228,34.53125 c 1.56147,-1.562119 1.56147,-4.094131 0,-5.65625 L -5.0415219,11.90625 c -1.562119,-1.561474 -4.094131,-1.561474 -5.6562501,0 l -25.46875,25.4375 -25.46875,-25.4375 c -0.764077,-0.756011 -1.800247,-1.172731 -2.875,-1.15625 z m 31.1875,63.40625 c -0.751409,-0.759464 -1.775386,-1.18681 -2.84375,-1.18681 -1.068364,0 -2.092341,0.427346 -2.84375,1.18681 z" /></clipPath><linearGradient
       gradientTransform="translate(-96.166522)"
       gradientUnits="userSpaceOnUse"
       xlink:href="#linearGradient5826"
       id="linearGradient3503"
       y2="-15.688621"
       x2="58.743717"
       y1="78.411346"
       x1="58.743717" /><filter
       id="filter3549-0-9"
       height="1.3267098"
       y="-0.16864043"
       width="1.249383"
       x="-0.12468723"><feGaussianBlur
         id="feGaussianBlur3551-6-9"
         stdDeviation="2.5695681"
         inkscape:collect="always" /></filter><linearGradient
       inkscape:collect="always"
       xlink:href="#linearGradient3489"
       id="linearGradient34"
       gradientUnits="userSpaceOnUse"
       gradientTransform="scale(1.0975951,0.9110828)"
       x1="26.091133"
       y1="14.856744"
       x2="31.500689"
       y2="14.856744" /><linearGradient
       id="linearGradient3489"><stop
         id="stop3491"
         offset="0"
         style="stop-color:#765c44;stop-opacity:1" /><stop
         id="stop3493"
         offset="1"
         style="stop-color:#765c44;stop-opacity:0" /></linearGradient><filter
       id="filter3477-8-3"
       height="1.28034"
       y="-0.14017002"
       width="1.2327024"
       x="-0.11635119"><feGaussianBlur
         id="feGaussianBlur3479-9-4"
         stdDeviation="0.28784801"
         inkscape:collect="always" /></filter><filter
       id="filter4"
       height="1.28034"
       y="-0.14017002"
       width="1.2327024"
       x="-0.11635119"><feGaussianBlur
         id="feGaussianBlur4"
         stdDeviation="0.28784801"
         inkscape:collect="always" /></filter><linearGradient
       gradientUnits="userSpaceOnUse"
       xlink:href="#linearGradient3489"
       id="linearGradient5257-2"
       y2="384.62384"
       x2="345.62039"
       y1="385.86127"
       x1="304.88663" /><filter
       id="filter6"
       height="1.28034"
       y="-0.14017002"
       width="1.2327024"
       x="-0.11635119"><feGaussianBlur
         id="feGaussianBlur6"
         stdDeviation="0.28784801"
         inkscape:collect="always" /></filter><linearGradient
       gradientTransform="matrix(0.9743255,0,0,0.9743255,5.5404775,5.5404852)"
       gradientUnits="userSpaceOnUse"
       xlink:href="#linearGradient5433"
       id="linearGradient3200-3"
       y2="36.655769"
       x2="55.007042"
       y1="88.460976"
       x1="55.007042" /><linearGradient
       id="linearGradient5433"><stop
         id="stop5435"
         offset="0"
         style="stop-color:#ff0000;stop-opacity:1" /><stop
         id="stop5437"
         offset="1"
         style="stop-color:#7f0000;stop-opacity:1" /></linearGradient><linearGradient
       inkscape:collect="always"
       xlink:href="#linearGradient3207"
       id="linearGradient35"
       gradientUnits="userSpaceOnUse"
       gradientTransform="translate(56.7)"
       x1="31.90625"
       y1="13.510336"
       x2="34.875107"
       y2="13.510336"
       spreadMethod="reflect" /><linearGradient
       id="linearGradient3207"><stop
         id="stop3209"
         offset="0"
         style="stop-color:#ffffff;stop-opacity:1" /><stop
         id="stop3211"
         offset="1"
         style="stop-color:#790000;stop-opacity:0" /></linearGradient><filter
       id="filter7"
       height="1.28034"
       y="-0.14017002"
       width="1.2327024"
       x="-0.11635119"><feGaussianBlur
         id="feGaussianBlur7"
         stdDeviation="0.28784801"
         inkscape:collect="always" /></filter><radialGradient
       gradientTransform="matrix(0.4576062,0,0,0.782313,-19.847694,18.82067)"
       gradientUnits="userSpaceOnUse"
       xlink:href="#linearGradient5073"
       id="radialGradient3306-3-8"
       fy="90.072952"
       fx="-36.592777"
       r="25.986174"
       cy="90.072952"
       cx="-36.592777" /><linearGradient
       id="linearGradient5073"
       inkscape:collect="always"><stop
         id="stop5075"
         offset="0"
         style="stop-color:#000000;stop-opacity:1;" /><stop
         id="stop5077"
         offset="1"
         style="stop-color:#000000;stop-opacity:0;" /></linearGradient><clipPath
       id="clipPath7"><path
         id="path7"
         style="fill:url(#linearGradient3503);fill-opacity:1;stroke:none;stroke-width:8;stroke-linecap:round;stroke-linejoin:round;stroke-miterlimit:4;stroke-dashoffset:1.0878;stroke-opacity:1"
         d="m -64.510272,10.75 c -1.042316,0.0084 -2.040208,0.423209 -2.78125,1.15625 L -84.260272,28.875 c -1.561474,1.562119 -1.561474,4.094131 0,5.65625 L -58.822772,60 l -25.4375,25.46875 c -1.561474,1.562119 -1.561474,4.094131 0,5.65625 l 16.96875,16.96875 c 1.562119,1.56147 4.094131,1.56147 5.65625,0 l 25.46875,-25.4375 25.46875,25.4375 c 1.5621191,1.56147 4.0941311,1.56147 5.6562501,0 L 11.927228,91.125 c 1.56147,-1.562119 1.56147,-4.094131 0,-5.65625 L -13.510272,60 11.927228,34.53125 c 1.56147,-1.562119 1.56147,-4.094131 0,-5.65625 L -5.0415219,11.90625 c -1.562119,-1.561474 -4.094131,-1.561474 -5.6562501,0 l -25.46875,25.4375 -25.46875,-25.4375 c -0.764077,-0.756011 -1.800247,-1.172731 -2.875,-1.15625 z m 31.1875,63.40625 c -0.751409,-0.759464 -1.775386,-1.18681 -2.84375,-1.18681 -1.068364,0 -2.092341,0.427346 -2.84375,1.18681 z" /></clipPath><filter
       id="filter8"
       height="1.3267097"
       y="-0.16864043"
       width="1.249383"
       x="-0.12468723"><feGaussianBlur
         id="feGaussianBlur8"
         stdDeviation="2.5695681"
         inkscape:collect="always" /></filter><linearGradient
       spreadMethod="reflect"
       gradientTransform="translate(-0.3)"
       gradientUnits="userSpaceOnUse"
       xlink:href="#linearGradient3207"
       id="linearGradient5273-7"
       y2="13.510336"
       x2="34.875107"
       y1="13.510336"
       x1="31.90625" /><filter
       id="filter10"
       height="1.28034"
       y="-0.14017002"
       width="1.2327024"
       x="-0.11635119"><feGaussianBlur
         id="feGaussianBlur10"
         stdDeviation="0.28784801"
         inkscape:collect="always" /></filter><filter
       id="filter12"
       height="1.28034"
       y="-0.14017002"
       width="1.2327024"
       x="-0.11635119"><feGaussianBlur
         id="feGaussianBlur12"
         stdDeviation="0.28784801"
         inkscape:collect="always" /></filter><linearGradient
       gradientUnits="userSpaceOnUse"
       xlink:href="#linearGradient3163"
       id="linearGradient5263-8"
       y2="55.07938"
       x2="57.434441"
       y1="92.973083"
       x1="59.999996" /><linearGradient
       id="linearGradient3163"><stop
         id="stop3165"
         offset="0"
         style="stop-color:#fff5e4;stop-opacity:1" /><stop
         id="stop3173"
         offset="0.25"
         style="stop-color:#ffecd0;stop-opacity:1" /><stop
         id="stop3171"
         offset="0.5"
         style="stop-color:#ffd390;stop-opacity:1" /><stop
         id="stop3167"
         offset="1"
         style="stop-color:#ffc46a;stop-opacity:1" /></linearGradient><filter
       id="filter3354-7-1"
       x="-0.027141072"
       y="-0.027141072"
       width="1.0542821"
       height="1.0542821"><feGaussianBlur
         id="feGaussianBlur3356-7-5"
         stdDeviation="0.45754832"
         inkscape:collect="always" /></filter><linearGradient
       gradientTransform="matrix(1.381268,0,0,0.6872743,5.5404775,5.5404852)"
       gradientUnits="userSpaceOnUse"
       xlink:href="#linearGradient3397"
       id="linearGradient3194-8"
       y2="32.750854"
       x2="51.544849"
       y1="109.97649"
       x1="68.313011" /><linearGradient
       id="linearGradient3397"><stop
         id="stop3399"
         offset="0"
         style="stop-color:#f4f5f8;stop-opacity:1" /><stop
         id="stop3401"
         offset="1"
         style="stop-color:#fdfdfe;stop-opacity:1" /></linearGradient><linearGradient
       gradientTransform="matrix(0.9743255,0,0,0.9743255,5.5404775,5.5404852)"
       gradientUnits="userSpaceOnUse"
       xlink:href="#linearGradient3366"
       id="linearGradient3191-2"
       y2="70.357269"
       x2="47.264141"
       y1="21.738457"
       x1="47.264141" /><linearGradient
       id="linearGradient3366"><stop
         id="stop3368"
         offset="0"
         style="stop-color:#ff8787;stop-opacity:1" /><stop
         id="stop4472"
         offset="1"
         style="stop-color:#ff8787;stop-opacity:0" /></linearGradient><linearGradient
       gradientTransform="matrix(0.9743255,0,0,0.9743255,5.5526549,6.7583898)"
       gradientUnits="userSpaceOnUse"
       xlink:href="#linearGradient4179"
       id="linearGradient3188-5"
       y2="20.362558"
       x2="56.770992"
       y1="71.824867"
       x1="57.654171" /><linearGradient
       id="linearGradient4179"><stop
         id="stop4181"
         offset="0"
         style="stop-color:#ffffff;stop-opacity:0" /><stop
         id="stop4183"
         offset="1"
         style="stop-color:#ffffff;stop-opacity:1" /></linearGradient><linearGradient
       inkscape:collect="always"
       xlink:href="#linearGradient3489"
       id="linearGradient1"
       gradientUnits="userSpaceOnUse"
       gradientTransform="scale(1.0975951,0.9110828)"
       x1="26.091133"
       y1="14.856744"
       x2="31.500689"
       y2="14.856744" /><linearGradient
       inkscape:collect="always"
       xlink:href="#linearGradient3207"
       id="linearGradient2"
       gradientUnits="userSpaceOnUse"
       gradientTransform="translate(56.7)"
       x1="31.90625"
       y1="13.510336"
       x2="34.875107"
       y2="13.510336"
       spreadMethod="reflect" /></defs><sodipodi:namedview
     id="base"
     pagecolor="#ffffff"
     bordercolor="#666666"
     borderopacity="1.0"
     inkscape:pageopacity="0.0"
     inkscape:pageshadow="2"
     inkscape:zoom="11.2"
     inkscape:cx="33.794643"
     inkscape:cy="60.044643"
     inkscape:document-units="px"
     inkscape:current-layer="layer1"
     showgrid="true"
     inkscape:window-width="1920"
     inkscape:window-height="1046"
     inkscape:window-x="-11"
     inkscape:window-y="-11"
     inkscape:window-maximized="1"
     inkscape:showpageshadow="2"
     inkscape:pagecheckerboard="0"
     inkscape:deskcolor="#d1d1d1"
     showguides="true"><inkscape:grid
       type="xygrid"
       id="grid4964"
       empspacing="5"
       visible="true"
       enabled="true"
       snapvisiblegridlinesonly="true"
       originx="0"
       originy="0"
       spacingy="1"
       spacingx="1"
       units="px" /><sodipodi:guide
       position="32,32"
       orientation="1,0"
       id="guide1"
       inkscape:locked="false" /><sodipodi:guide
       position="32,32"
       orientation="0,-1"
       id="guide2"
       inkscape:locked="false" /></sodipodi:namedview><metadata
     id="metadata4961"><rdf:RDF><cc:Work
         rdf:about=""><dc:format>image/svg+xml</dc:format><dc:type
           rdf:resource="http://purl.org/dc/dcmitype/StillImage" /></cc:Work></rdf:RDF></metadata><g
     inkscape:label="Ebene 1"
     inkscape:groupmode="layer"
     id="layer1"
     transform="translate(0,-988.36218)"><text
       xml:space="preserve"
       style="font-style:normal;font-weight:normal;font-size:82.6667px;line-height:0%;font-family:sans-serif;letter-spacing:0px;word-spacing:0px;fill:#1183f7;fill-opacity:1;stroke:none"
       x="-2.6530097"
       y="1050.0031"
       id="text4966"><tspan
         sodipodi:role="line"
         id="tspan4968"
         x="-2.6530097"
         y="1050.0031"
         style="font-size:82.6667px;line-height:1.25;font-family:sans-serif">#</tspan></text><g
       id="g4704"
       transform="matrix(0.43529022,0,0,0.43529022,-6.6673717,929.14445)"><g
         id="layer4"
         style="display:inline"
         transform="translate(-42.6661,-8.40242)" /><g
         id="layer5"
         style="display:inline"
         transform="translate(-42.6661,-8.40242)" /><rect
         id="rect1327"
         style="opacity:0.577869;fill:#ffffff;fill-opacity:1;fill-rule:nonzero;stroke:none;stroke-width:3.632;stroke-linecap:round;stroke-linejoin:round;stroke-miterlimit:4;stroke-dasharray:none;stroke-dashoffset:4;stroke-opacity:1"
         y="-69.935089"
         x="-129.13548"
         height="0"
         width="1" /><rect
         id="rect2482"
         style="opacity:0.577869;fill:#ffffff;fill-opacity:1;fill-rule:nonzero;stroke:none;stroke-width:3.632;stroke-linecap:round;stroke-linejoin:round;stroke-miterlimit:4;stroke-dasharray:none;stroke-dashoffset:4;stroke-opacity:1"
         y="-97.4627"
         x="-164.2623"
         height="0"
         width="1" /><g
         id="g4640"
         style="opacity:0.401639"
         transform="matrix(-0.782995,0,0,0.650879,-2646.058,515.8389)" /><g
         id="g4646"
         style="opacity:0.401639"
         transform="matrix(-0.782995,0,0,0.650879,-2646.058,515.8389)" /><g
         id="g4730"
         style="opacity:0.401639"
         transform="matrix(1,0,0,0.650879,554.9047,523.1667)" /><g
         id="g4748"
         style="opacity:0.401639"
         transform="matrix(1,0,0,0.650879,554.9047,523.1667)" /><g
         id="g2560"
         style="display:inline"
         transform="translate(-226.6661,-144.7536)" /><g
         id="g2562"
         style="display:inline"
         transform="translate(-226.6661,-144.7536)" /><rect
         id="rect2568"
         style="opacity:0.577869;fill:#ffffff;fill-opacity:1;fill-rule:nonzero;stroke:none;stroke-width:3.632;stroke-linecap:round;stroke-linejoin:round;stroke-miterlimit:4;stroke-dasharray:none;stroke-dashoffset:4;stroke-opacity:1"
         y="-206.28629"
         x="-313.1355"
         height="0"
         width="1" /><rect
         id="rect2570"
         style="opacity:0.577869;fill:#ffffff;fill-opacity:1;fill-rule:nonzero;stroke:none;stroke-width:3.632;stroke-linecap:round;stroke-linejoin:round;stroke-miterlimit:4;stroke-dasharray:none;stroke-dashoffset:4;stroke-opacity:1"
         y="-233.8139"
         x="-348.2623"
         height="0"
         width="1" /><g
         id="g2574"
         style="opacity:0.401639"
         transform="matrix(-0.782995,0,0,0.650879,-2830.058,379.4877)" /><g
         id="g2576"
         style="opacity:0.401639"
         transform="matrix(-0.782995,0,0,0.650879,-2830.058,379.4877)" /><g
         id="g2578"
         style="opacity:0.401639"
         transform="matrix(1,0,0,0.650879,370.9047,386.8155)" /><g
         id="g2580"
         style="opacity:0.401639"
         transform="matrix(1,0,0,0.650879,370.9047,386.8155)" /><g
         id="g3260"
         style="display:inline"
         transform="translate(14.5654,-180.3099)" /><g
         id="g3262"
         style="display:inline"
         transform="translate(14.5654,-180.3099)" /><rect
         id="rect3286"
         style="opacity:0.577869;fill:#ffffff;fill-opacity:1;fill-rule:nonzero;stroke:none;stroke-width:3.632;stroke-linecap:round;stroke-linejoin:round;stroke-miterlimit:4;stroke-dasharray:none;stroke-dashoffset:4;stroke-opacity:1"
         y="-241.84259"
         x="-71.904022"
         height="0"
         width="1" /><rect
         id="rect3288"
         style="opacity:0.577869;fill:#ffffff;fill-opacity:1;fill-rule:nonzero;stroke:none;stroke-width:3.632;stroke-linecap:round;stroke-linejoin:round;stroke-miterlimit:4;stroke-dasharray:none;stroke-dashoffset:4;stroke-opacity:1"
         y="-269.37021"
         x="-107.03083"
         height="0"
         width="1" /><g
         id="g3292"
         style="opacity:0.401639"
         transform="matrix(-0.782995,0,0,0.650879,-2588.827,343.9314)" /><g
         id="g3294"
         style="opacity:0.401639"
         transform="matrix(-0.782995,0,0,0.650879,-2588.827,343.9314)" /><g
         id="g3296"
         style="opacity:0.401639"
         transform="matrix(1,0,0,0.650879,612.1362,351.2592)" /><g
         id="g3298"
         style="opacity:0.401639"
         transform="matrix(1,0,0,0.650879,612.1362,351.2592)" /><g
         id="g2334"
         style="display:inline"
         transform="translate(156.2439,-208.1699)" /><g
         id="g2336"
         style="display:inline"
         transform="translate(156.2439,-208.1699)" /><rect
         id="rect2342"
         style="opacity:0.577869;fill:#ffffff;fill-opacity:1;fill-rule:nonzero;stroke:none;stroke-width:3.632;stroke-linecap:round;stroke-linejoin:round;stroke-miterlimit:4;stroke-dasharray:none;stroke-dashoffset:4;stroke-opacity:1"
         y="-269.70258"
         x="69.774521"
         height="0"
         width="1" /><rect
         id="rect2344"
         style="opacity:0.577869;fill:#ffffff;fill-opacity:1;fill-rule:nonzero;stroke:none;stroke-width:3.632;stroke-linecap:round;stroke-linejoin:round;stroke-miterlimit:4;stroke-dasharray:none;stroke-dashoffset:4;stroke-opacity:1"
         y="-297.23019"
         x="34.647701"
         height="0"
         width="1" /><g
         id="g2348"
         style="opacity:0.401639"
         transform="matrix(-0.782995,0,0,0.650879,-2447.148,316.0714)" /><g
         id="g2350"
         style="opacity:0.401639"
         transform="matrix(-0.782995,0,0,0.650879,-2447.148,316.0714)" /><g
         id="g2352"
         style="opacity:0.401639"
         transform="matrix(1,0,0,0.650879,753.8147,323.3992)" /><g
         id="g2354"
         style="opacity:0.401639"
         transform="matrix(1,0,0,0.650879,753.8147,323.3992)" /><g
         id="g2360"
         style="display:inline"
         transform="translate(397.4754,-243.7262)" /><g
         id="g2362"
         style="display:inline"
         transform="translate(397.4754,-243.7262)" /><rect
         id="rect2376"
         style="opacity:0.577869;fill:#ffffff;fill-opacity:1;fill-rule:nonzero;stroke:none;stroke-width:3.632;stroke-linecap:round;stroke-linejoin:round;stroke-miterlimit:4;stroke-dasharray:none;stroke-dashoffset:4;stroke-opacity:1"
         y="-305.25888"
         x="311.00598"
         height="0"
         width="1" /><rect
         id="rect2378"
         style="opacity:0.577869;fill:#ffffff;fill-opacity:1;fill-rule:nonzero;stroke:none;stroke-width:3.632;stroke-linecap:round;stroke-linejoin:round;stroke-miterlimit:4;stroke-dasharray:none;stroke-dashoffset:4;stroke-opacity:1"
         y="-332.7865"
         x="275.87918"
         height="0"
         width="1" /><g
         id="g2382"
         style="opacity:0.401639"
         transform="matrix(-0.782995,0,0,0.650879,-2205.917,280.5151)" /><g
         id="g2384"
         style="opacity:0.401639"
         transform="matrix(-0.782995,0,0,0.650879,-2205.917,280.5151)" /><g
         id="g2386"
         style="opacity:0.401639"
         transform="matrix(1,0,0,0.650879,995.0462,287.8429)" /><g
         id="g2388"
         style="opacity:0.401639"
         transform="matrix(1,0,0,0.650879,995.0462,287.8429)" /><g
         id="g4414"
         transform="matrix(-0.7179118,0,0,0.7179118,162.34542,191.41121)"><g
           id="g3232"
           transform="translate(214.92589,-100.31048)" /><g
           id="g4591"
           transform="translate(214.92589,-100.31048)" /><path
           id="path3300"
           style="fill:url(#linearGradient3208-3);fill-opacity:1;stroke:none;stroke-width:8;stroke-linecap:round;stroke-linejoin:round;stroke-miterlimit:4;stroke-dashoffset:1.0878;stroke-opacity:1"
           d="m 36.38397,16.014487 c -1.015554,0.0081 -1.987832,0.412338 -2.709842,1.126563 L 17.141042,33.674136 c -1.521389,1.522007 -1.521384,3.989015 -4e-6,5.511024 L 41.925447,64.000017 17.141043,88.814869 c -1.521385,1.522003 -1.521385,3.989016 0,5.511019 l 16.533086,16.533082 c 1.522004,1.52139 3.989016,1.52139 5.511029,1e-5 L 64.000009,86.074579 88.814857,110.85898 c 1.522012,1.52138 3.989019,1.52138 5.511025,-1e-5 L 110.85897,94.325889 c 1.52138,-1.522005 1.52138,-3.989012 0,-5.511024 L 86.074572,64.000017 110.85898,39.185165 c 1.52137,-1.522014 1.52137,-3.989022 -1e-5,-5.511033 L 94.325885,17.141047 c -1.522009,-1.521381 -3.989017,-1.521385 -5.511024,4e-6 L 64.000009,41.925455 39.185152,17.141046 C 38.440691,16.404445 37.431131,15.998429 36.38397,16.014487 Z m 30.386773,61.778321 c -0.732115,-0.739963 -1.7298,-1.156336 -2.770734,-1.156336 -1.040934,10e-7 -2.038624,0.416372 -2.770738,1.15634 z" /><path
           id="path3507"
           clip-path="url(#clipPath3559-6-6)"
           style="fill:#000000;fill-opacity:1;fill-rule:evenodd;stroke:#000000;stroke-width:0.745176px;stroke-linecap:butt;stroke-linejoin:miter;stroke-opacity:1;filter:url(#filter3549-0-9)"
           transform="matrix(0.9743255,0,0,0.9743255,99.290143,5.5404808)"
           d="M -62.57895,106.7868 -36.415999,79.916739 -10.606602,106.43324 -36.415999,66.128157 Z" /><path
           id="path5159"
           style="opacity:0.498127;fill:url(#linearGradient1);fill-opacity:1;fill-rule:evenodd;stroke:none;stroke-width:1px;stroke-linecap:butt;stroke-linejoin:miter;stroke-opacity:1;filter:url(#filter3477-8-3)"
           transform="matrix(0,1.8163775,-1.8163775,0,130.55195,34.179955)"
           d="m 31.7,16 2.875,-3.375 c -1.051205,-1.695758 -3.935136,-2.288018 -5.9375,-0.3125 l 2.8125,3.375 z" /><path
           id="path3485"
           style="opacity:0.790262;fill:url(#linearGradient34);fill-opacity:1;fill-rule:evenodd;stroke:none;stroke-width:1px;stroke-linecap:butt;stroke-linejoin:miter;stroke-opacity:1;filter:url(#filter3477-8-3)"
           transform="matrix(1.7938181,0,0,-1.7938181,-20.276758,130.94405)"
           d="m 31.7,16 2.875,-3.375 c -1.051205,-1.695758 -3.935136,-2.288018 -5.9375,-0.3125 l 2.8125,3.375 z" /><path
           id="path3493"
           style="opacity:0.498127;fill:url(#linearGradient5257-2);fill-opacity:1;fill-rule:evenodd;stroke:none;stroke-width:1px;stroke-linecap:butt;stroke-linejoin:miter;stroke-opacity:1;filter:url(#filter3477-8-3)"
           transform="matrix(0,1.6448195,1.6448195,0,-0.724353,39.584706)"
           d="m 31.7,16 2.875,-3.375 c -1.051205,-1.695758 -3.935136,-2.288018 -5.9375,-0.3125 l 2.8125,3.375 z" /><path
           id="rect2323"
           style="opacity:0.921348;fill:url(#linearGradient3200-3);fill-opacity:1;stroke:none;stroke-width:0.699214;stroke-linecap:round;stroke-linejoin:round;stroke-miterlimit:4;stroke-dasharray:none;stroke-dashoffset:1.0878;stroke-opacity:0"
           d="M 91.558091,23.43728 64.000006,50.995365 36.441924,23.437284 23.437276,36.441932 50.995358,64.000013 23.437269,91.558102 36.441924,104.56274 64.000004,77.00466 91.558088,104.56274 104.56273,91.558096 77.004652,64.000012 104.56273,36.441929 Z" /><path
           id="path3487"
           style="opacity:0.790262;fill:url(#linearGradient2);fill-opacity:1;fill-rule:evenodd;stroke:none;stroke-width:1px;stroke-linecap:butt;stroke-linejoin:miter;stroke-opacity:1;filter:url(#filter3477-8-3)"
           transform="matrix(1.6448195,0,0,-1.6448195,-53.800876,129.5366)"
           d="m 88.7,16 2.875,-3.375 c -1.051205,-1.695758 -3.935136,-2.288018 -5.9375,-0.3125 l 2.8125,3.375 z" /><path
           id="path3565"
           clip-path="url(#clipPath3559-6-6)"
           style="fill:url(#radialGradient3306-3-8);fill-opacity:1;fill-rule:evenodd;stroke:none;stroke-width:1px;stroke-linecap:butt;stroke-linejoin:miter;stroke-opacity:1;filter:url(#filter3549-0-9)"
           transform="matrix(0.9743255,0,0,-0.9743255,99.290147,122.00005)"
           d="M -62.57895,106.7868 -36.415999,79.916739 -10.606602,106.43324 -36.415999,66.128157 Z" /><path
           id="path3403"
           style="opacity:0.790262;fill:url(#linearGradient5273-7);fill-opacity:1;fill-rule:evenodd;stroke:none;stroke-width:1px;stroke-linecap:butt;stroke-linejoin:miter;stroke-opacity:1;filter:url(#filter3477-8-3)"
           transform="matrix(1.4958209,0,0,1.4958209,-10.888668,0.6143956)"
           d="m 31.7,16 2.875,-3.375 c -1.051205,-1.695758 -3.935136,-2.288018 -5.9375,-0.3125 l 2.8125,3.375 z" /><path
           id="path3481"
           style="opacity:0.790262;fill:url(#linearGradient35);fill-opacity:1;fill-rule:evenodd;stroke:none;stroke-width:1px;stroke-linecap:butt;stroke-linejoin:miter;stroke-opacity:1;filter:url(#filter3477-8-3)"
           transform="matrix(1.5356935,0,0,1.5356935,-44.142789,0.2377555)"
           d="m 88.7,16 2.875,-3.375 c -1.051205,-1.695758 -3.935136,-2.288018 -5.9375,-0.3125 l 2.8125,3.375 z" /><path
           id="path3328"
           style="opacity:0.921348;fill:none;fill-opacity:1;stroke:url(#linearGradient5263-8);stroke-width:2.32357;stroke-linecap:round;stroke-linejoin:round;stroke-miterlimit:4;stroke-dasharray:none;stroke-dashoffset:1.0878;stroke-opacity:1;filter:url(#filter3354-7-1)"
           transform="matrix(0.9743255,0,0,0.9743255,5.5404775,5.5404852)"
           d="M 88.284271,18.368396 60,46.652666 31.715729,18.368396 18.368396,31.715729 46.652666,60 18.368396,88.284271 31.715729,101.63161 60,73.347334 88.284271,101.63161 101.63161,88.284271 73.347334,60 101.63161,31.715729 Z" /><path
           id="path3374-1"
           style="fill:url(#linearGradient3194-8);fill-opacity:1;stroke:none;stroke-width:1.01535;stroke-linecap:round;stroke-linejoin:round;stroke-miterlimit:4;stroke-dasharray:none;stroke-dashoffset:1.0878;stroke-opacity:1"
           d="M 36.427153,23.374602 35.696409,24.105346 23.424273,36.377482 36.183569,24.592505 64.001323,50.998249 91.293853,24.592506 102.2263,35.524947 c -0.0956,0.494517 -0.22471,0.974139 -0.36538,1.461486 l -11.845002,13.79366 c -10.682815,5.325801 -25.578562,10.57913 -41.593244,10.59579 l 0.274024,0.274023 c 0.459478,0.0054 0.908174,0.03045 1.370152,0.03046 16.062749,-10e-7 27.107879,-3.307858 37.817731,-8.64714 L 103.62689,37.29091 c 0.0648,-0.224563 0.12493,-0.446354 0.18269,-0.669851 0.0676,-0.261529 0.13113,-0.52498 0.18269,-0.791634 L 91.537438,23.374602 90.806694,24.105347 64.001323,50.998249 Z" /><path
           id="path5167"
           style="fill:url(#linearGradient3191-2);fill-opacity:1;stroke:none;stroke-width:1.01535;stroke-linecap:round;stroke-linejoin:round;stroke-miterlimit:4;stroke-dasharray:none;stroke-dashoffset:1.0878;stroke-opacity:1"
           d="m 36.444861,23.441989 -13.002879,13.00288 25.272433,25.272433 c 0.459468,0.0054 0.908166,0.03045 1.370144,0.03045 16.062751,-3e-6 27.107878,-3.307858 37.817731,-8.64714 l 15.74232,-15.742304 c 0.14067,-0.487351 0.26975,-0.966977 0.36537,-1.461494 L 91.555147,23.441989 64.000005,50.997131 Z" /><path
           id="path3399"
           style="fill:url(#linearGradient3188-5);fill-opacity:1;stroke:none;stroke-width:1.01535;stroke-linecap:round;stroke-linejoin:round;stroke-miterlimit:4;stroke-dasharray:none;stroke-dashoffset:1.0878;stroke-opacity:1"
           d="m 36.427153,23.374602 -0.730744,0.730744 -12.272136,12.272136 12.759296,-11.784977 27.824156,28.24391 -0.0064,-1.838166 0.0097,1.824011 27.282847,-28.229754 10.932448,10.932441 c -0.0956,0.494517 -0.22471,0.974139 -0.36538,1.461486 l -11.845003,13.79366 c -10.682815,5.325801 -25.578562,10.57913 -41.593244,10.59579 l 0.274024,0.274023 c 0.459478,0.0054 0.908174,0.03045 1.370152,0.03046 16.062749,-10e-7 27.107879,-3.307858 37.817731,-8.64714 L 103.62689,37.29091 c 0.0648,-0.224563 0.12493,-0.446354 0.18269,-0.669851 0.0676,-0.261529 0.13113,-0.52498 0.18269,-0.791634 L 91.537438,23.374602 90.806694,24.105347 64.001323,50.998249 Z" /></g><g
         id="g5368"
         transform="matrix(-0.6625687,0,0,0.6625687,131.9011,52.667293)" /></g></g></svg>
