<?xml version="1.0" encoding="UTF-8" standalone="no"?>
<!-- Generator: Adobe Illustrator 19.1.0, SVG Export Plug-In . SVG Version: 6.00 Build 0)  -->

<svg
   version="1.1"
   x="0px"
   y="0px"
   viewBox="0 0 64 64"
   style="enable-background:new 0 0 64 64;"
   xml:space="preserve"
   id="svg8"
   sodipodi:docname="global.svg"
   inkscape:version="1.4.2 (f4327f4, 2025-05-13)"
   xmlns:inkscape="http://www.inkscape.org/namespaces/inkscape"
   xmlns:sodipodi="http://sodipodi.sourceforge.net/DTD/sodipodi-0.dtd"
   xmlns:xlink="http://www.w3.org/1999/xlink"
   xmlns="http://www.w3.org/2000/svg"
   xmlns:svg="http://www.w3.org/2000/svg"><defs
   id="defs8"><linearGradient
     id="linearGradient2"><stop
       style="stop-color:#ffffff;stop-opacity:0.80000001;"
       offset="0"
       id="stop1" /><stop
       style="stop-color:#ffffff;stop-opacity:0;"
       offset="1"
       id="stop2" /></linearGradient><linearGradient
     id="linearGradient3152"><stop
       style="stop-color:#d5d5d5;stop-opacity:1;"
       offset="0"
       id="stop3154" /><stop
       id="stop7048"
       offset="0.5"
       style="stop-color:#d5d5d5;stop-opacity:1;" /><stop
       style="stop-color:#ffffff;stop-opacity:1;"
       offset="1"
       id="stop3156" /></linearGradient><linearGradient
     id="linearGradient6174"><stop
       style="stop-color:#980101;stop-opacity:1"
       offset="0"
       id="stop6176" /><stop
       style="stop-color:#d40000;stop-opacity:1"
       offset="1"
       id="stop6178" /></linearGradient><linearGradient
     id="linearGradient11164"><stop
       style="stop-color:#515151;stop-opacity:1;"
       offset="0"
       id="stop11166" /><stop
       style="stop-color:#816647;stop-opacity:0;"
       offset="1"
       id="stop11168" /></linearGradient><linearGradient
     id="linearGradient11125"><stop
       style="stop-color:#ffffff;stop-opacity:1;"
       offset="0"
       id="stop11127" /><stop
       style="stop-color:#e2e2e2;stop-opacity:1;"
       offset="1"
       id="stop11129" /></linearGradient><linearGradient
     id="linearGradient8190"><stop
       style="stop-color:#ffffff;stop-opacity:1;"
       offset="0"
       id="stop8192" /><stop
       style="stop-color:#ffffff;stop-opacity:0;"
       offset="1"
       id="stop8194" /></linearGradient><linearGradient
     id="linearGradient6238"><stop
       style="stop-color:#ff8181;stop-opacity:1;"
       offset="0"
       id="stop6240" /><stop
       style="stop-color:#d40000;stop-opacity:1"
       offset="1"
       id="stop6242" /></linearGradient><linearGradient
     inkscape:collect="always"
     xlink:href="#linearGradient8190"
     id="linearGradient5106"
     x1="39.5"
     y1="72.5"
     x2="39.5"
     y2="48.240856"
     gradientUnits="userSpaceOnUse"
     gradientTransform="matrix(1,0,0,1.1666667,0,-13.333333)" /><radialGradient
     inkscape:collect="always"
     xlink:href="#linearGradient33121"
     id="radialGradient33119-2"
     cx="-244.35156"
     cy="-95.703133"
     fx="-244.35156"
     fy="-95.703133"
     r="14.868506"
     gradientTransform="matrix(-1.7435737,0.04647276,-0.02874105,-1.0782746,-669.02954,-194.72992)"
     gradientUnits="userSpaceOnUse" /><linearGradient
     id="linearGradient33121"
     inkscape:collect="always"><stop
       style="stop-color:#000000;stop-opacity:0.749"
       offset="0"
       id="stop33120" /><stop
       style="stop-color:#000000;stop-opacity:0;"
       offset="1"
       id="stop33121" /></linearGradient><filter
     inkscape:collect="always"
     style="color-interpolation-filters:sRGB"
     id="filter33119-5"
     x="-0.13169664"
     y="-0.16632754"
     width="1.2633933"
     height="1.3326551"><feGaussianBlur
       inkscape:collect="always"
       stdDeviation="1.6317769"
       id="feGaussianBlur33119-1" /></filter><radialGradient
     inkscape:collect="always"
     xlink:href="#linearGradient2"
     id="radialGradient33119"
     cx="-244.31538"
     cy="-96.459435"
     fx="-244.31538"
     fy="-96.459435"
     r="14.868506"
     gradientTransform="matrix(-1,-6.5155108e-7,0,-1.0786576,-488.63077,-200.80564)"
     gradientUnits="userSpaceOnUse" /><filter
     inkscape:collect="always"
     style="color-interpolation-filters:sRGB"
     id="filter33119"
     x="-0.043002983"
     y="-0.054311031"
     width="1.086006"
     height="1.1086221"><feGaussianBlur
       inkscape:collect="always"
       stdDeviation="0.53282511"
       id="feGaussianBlur33119" /></filter></defs><sodipodi:namedview
   id="namedview8"
   pagecolor="#ffffff"
   bordercolor="#000000"
   borderopacity="0.25"
   inkscape:showpageshadow="2"
   inkscape:pageopacity="0.0"
   inkscape:pagecheckerboard="0"
   inkscape:deskcolor="#d1d1d1"
   inkscape:zoom="1.1449053"
   inkscape:cx="106.12231"
   inkscape:cy="221.41569"
   inkscape:window-width="1920"
   inkscape:window-height="1046"
   inkscape:window-x="-11"
   inkscape:window-y="-11"
   inkscape:window-maximized="1"
   inkscape:current-layer="svg8" />
<style
   type="text/css"
   id="style1">
	.st0{fill:#4F5D73;}
	.st1{opacity:0.2;}
	.st2{fill:#231F20;}
	.st3{fill:#FFFFFF;}
</style>
<g
   id="Layer_1"
   transform="matrix(0.953125,0,0,0.953125,1.5,1.5)">
	<g
   id="g1">
		<circle
   class="st0"
   cx="32"
   cy="32"
   r="32"
   id="circle1" />
	</g>
	<g
   class="st1"
   id="g2">
		<path
   class="st2"
   d="M 55.9,32.5 C 55.2,20.4 45.5,10.8 33.5,10.1 V 10 h -3 v 0.1 C 18.4,10.8 8.8,20.4 8.1,32.5 H 8 v 3 H 8.1 C 8.8,47.6 18.5,57.2 30.5,57.9 V 58 h 3 V 57.9 C 45.6,57.2 55.2,47.5 55.9,35.5 H 56 Z m -10.4,0 c -0.1,-2.8 -0.5,-5.4 -1,-7.9 1.8,-0.6 3.5,-1.3 5.1,-2.2 1.9,2.9 3.1,6.4 3.4,10.1 z m -6.6,-14 c 0.7,1.2 1.3,2.6 1.8,4 -2.3,0.5 -4.7,0.8 -7.2,0.9 V 13.3 c 1.9,0.6 3.9,2.4 5.4,5.2 z m -8.4,-5.2 v 10.2 c -2.5,-0.1 -4.9,-0.4 -7.2,-0.9 0.5,-1.4 1.1,-2.8 1.8,-4 1.5,-2.9 3.5,-4.7 5.4,-5.3 z m 0,13.2 v 6 h -9 c 0.1,-2.5 0.4,-4.9 0.9,-7.1 2.6,0.6 5.3,1 8.1,1.1 z m 0,9 v 6.2 c -2.8,0.1 -5.5,0.4 -8,1 -0.5,-2.3 -0.9,-4.7 -1,-7.2 z m 0,9.2 v 10 C 28.6,54.1 26.6,52.2 25.1,49.5 24.4,48.3 23.9,47 23.4,45.6 25.6,45.1 28,44.8 30.5,44.7 Z m 3,10 v -10 c 2.5,0.1 4.9,0.4 7.2,0.9 -0.5,1.4 -1.1,2.7 -1.7,3.9 -1.6,2.8 -3.6,4.6 -5.5,5.2 z m 0,-13 v -6.2 h 9 c -0.1,2.5 -0.4,5 -1,7.2 -2.5,-0.6 -5.2,-0.9 -8,-1 z m 0,-9.2 v -6 c 2.8,-0.1 5.5,-0.5 8,-1 0.5,2.2 0.8,4.6 0.9,7.1 H 33.5 Z M 47.7,20 c -1.2,0.7 -2.6,1.2 -4,1.7 -0.9,-2.8 -2.2,-5.3 -3.7,-7.2 2.9,1.3 5.5,3.2 7.7,5.5 z M 24.1,14.6 c -1.5,1.9 -2.7,4.4 -3.7,7.2 -1.4,-0.5 -2.8,-1 -4,-1.7 2.1,-2.4 4.7,-4.3 7.7,-5.5 z m -9.6,7.8 c 1.5,0.8 3.3,1.6 5.1,2.2 -0.6,2.4 -0.9,5.1 -1,7.9 h -7.5 c 0.2,-3.7 1.4,-7.1 3.4,-10.1 z m 4,13.1 c 0.1,2.8 0.5,5.5 1.1,8 -1.8,0.6 -3.5,1.3 -5.1,2.1 -2,-2.9 -3.2,-6.4 -3.5,-10.2 h 7.5 z m -2.1,12.6 c 1.2,-0.6 2.6,-1.2 4,-1.7 0.9,2.8 2.2,5.2 3.6,7 -2.9,-1.2 -5.5,-3 -7.6,-5.3 z m 23.5,5.3 c 1.5,-1.9 2.7,-4.3 3.6,-7 1.4,0.5 2.8,1 4,1.7 -2,2.3 -4.6,4.1 -7.6,5.3 z m 9.5,-7.7 c -1.5,-0.8 -3.2,-1.5 -5.1,-2.1 0.6,-2.5 1,-5.2 1.1,-8 h 7.5 c -0.2,3.6 -1.5,7.1 -3.5,10.1 z"
   id="path1" />
	</g>
	<g
   id="g3">
		<path
   class="st3"
   d="M 32,11 C 43.6,11 53,20.4 53,32 53,43.6 43.6,53 32,53 20.4,53 11,43.6 11,32 11,20.4 20.4,11 32,11 M 32,8 C 18.7,8 8,18.7 8,32 8,45.3 18.7,56 32,56 45.3,56 56,45.3 56,32 56,18.7 45.3,8 32,8 Z"
   id="path2" />
	</g>
	<g
   id="g4">
		<path
   class="st3"
   d="m 32,11 c 2.4,0 5,2 6.9,5.5 2.3,4.1 3.6,9.6 3.6,15.5 0,5.9 -1.3,11.4 -3.6,15.5 C 37,51 34.4,53 32,53 29.6,53 27,51 25.1,47.5 22.8,43.4 21.5,37.9 21.5,32 21.5,26.1 22.8,20.6 25.1,16.5 27,13 29.6,11 32,11 M 32,8 C 24.5,8 18.5,18.7 18.5,32 18.5,45.3 24.5,56 32,56 39.5,56 45.5,45.3 45.5,32 45.5,18.7 39.5,8 32,8 Z"
   id="path3" />
	</g>
	<g
   id="g5">
		<rect
   x="30.5"
   y="8"
   class="st3"
   width="3"
   height="48"
   id="rect4" />
	</g>
	<g
   id="g6">
		<path
   class="st3"
   d="m 32,24.5 c -7.4,0 -14.4,-1.9 -19.3,-5.1 l 1.7,-2.5 c 4.3,2.9 10.7,4.6 17.6,4.6 6.8,0 13.2,-1.7 17.6,-4.6 l 1.7,2.5 C 46.4,22.6 39.4,24.5 32,24.5 Z"
   id="path5" />
	</g>
	<g
   id="g7">
		<path
   class="st3"
   d="M 49.6,47.2 C 45.3,44.3 38.9,42.6 32,42.6 c -6.8,0 -13.2,1.7 -17.6,4.6 l -1.7,-2.5 c 4.8,-3.2 11.8,-5.1 19.3,-5.1 7.4,0 14.4,1.9 19.3,5.1 z"
   id="path6" />
	</g>
	<g
   id="g8">
		<rect
   x="8"
   y="30.5"
   class="st3"
   width="48"
   height="3"
   id="rect7" />
	</g>
</g>
<g
   id="Layer_2">
</g>
<ellipse
   style="mix-blend-mode:normal;fill:url(#radialGradient33119);fill-opacity:1;fill-rule:evenodd;stroke:none;stroke-width:0.276768;stroke-opacity:1;paint-order:stroke fill markers;filter:url(#filter33119)"
   id="path33118"
   cx="-244.27402"
   cy="-89.847656"
   rx="14.868506"
   ry="11.772749"
   transform="matrix(1.5217408,0,0,1.2061232,403.72173,124.80619)" /><ellipse
   style="opacity:0.5;mix-blend-mode:normal;fill:url(#radialGradient33119-2);fill-opacity:1;fill-rule:evenodd;stroke:none;stroke-width:0.276768;stroke-opacity:1;paint-order:stroke fill markers;filter:url(#filter33119-5)"
   id="path33118-1"
   cx="-240.23396"
   cy="-95.163055"
   rx="14.868506"
   ry="11.772749"
   transform="matrix(1.5530659,0,0,-1.2061232,405.09918,-68.578983)" /></svg>
