<?xml version="1.0" encoding="UTF-8" standalone="no"?>
<!-- Created with Inkscape (http://www.inkscape.org/) -->

<svg
   xmlns:dc="http://purl.org/dc/elements/1.1/"
   xmlns:cc="http://creativecommons.org/ns#"
   xmlns:rdf="http://www.w3.org/1999/02/22-rdf-syntax-ns#"
   xmlns:svg="http://www.w3.org/2000/svg"
   xmlns="http://www.w3.org/2000/svg"
   xmlns:xlink="http://www.w3.org/1999/xlink"
   xmlns:sodipodi="http://sodipodi.sourceforge.net/DTD/sodipodi-0.dtd"
   xmlns:inkscape="http://www.inkscape.org/namespaces/inkscape"
   version="1.0"
   width="128"
   height="128"
   id="svg2606"
   sodipodi:docname="NavigateBackwARD.svg"
   inkscape:version="0.92.4 (5da689c313, 2019-01-14)">
  <metadata
     id="metadata101">
    <rdf:RDF>
      <cc:Work
         rdf:about="">
        <dc:format>image/svg+xml</dc:format>
        <dc:type
           rdf:resource="http://purl.org/dc/dcmitype/StillImage" />
        <dc:title></dc:title>
      </cc:Work>
    </rdf:RDF>
  </metadata>
  <sodipodi:namedview
     pagecolor="#ffffff"
     bordercolor="#666666"
     borderopacity="1"
     objecttolerance="10"
     gridtolerance="10"
     guidetolerance="10"
     inkscape:pageopacity="0"
     inkscape:pageshadow="2"
     inkscape:window-width="640"
     inkscape:window-height="480"
     id="namedview99"
     showgrid="false"
     inkscape:zoom="1.84375"
     inkscape:cx="64"
     inkscape:cy="64"
     inkscape:window-x="0"
     inkscape:window-y="0"
     inkscape:window-maximized="0"
     inkscape:current-layer="svg2606" />
  <defs
     id="defs2608">
    <linearGradient
       id="linearGradient3449">
      <stop
         id="stop3451"
         style="stop-color:#000000;stop-opacity:1"
         offset="0" />
      <stop
         id="stop3453"
         style="stop-color:#000000;stop-opacity:0"
         offset="1" />
    </linearGradient>
    <linearGradient
       id="linearGradient3295">
      <stop
         id="stop3297"
         style="stop-color:#63e9ff;stop-opacity:1"
         offset="0" />
      <stop
         id="stop3299"
         style="stop-color:#ffffff;stop-opacity:0"
         offset="1" />
    </linearGradient>
    <linearGradient
       id="linearGradient3260">
      <stop
         id="stop3262"
         style="stop-color:#ffffff;stop-opacity:1"
         offset="0" />
      <stop
         id="stop3264"
         style="stop-color:#ffffff;stop-opacity:0"
         offset="1" />
    </linearGradient>
    <linearGradient
       id="linearGradient3202">
      <stop
         id="stop3204"
         style="stop-color:#cdeeff;stop-opacity:1"
         offset="0" />
      <stop
         id="stop3206"
         style="stop-color:#d2e8ed;stop-opacity:0"
         offset="1" />
    </linearGradient>
    <radialGradient
       cx="48"
       cy="-0.2148"
       r="55.147999"
       id="XMLID_4_"
       gradientUnits="userSpaceOnUse"
       gradientTransform="matrix(0.9792,0,0,0.9725,133.0002,20.8762)">
      <stop
         id="stop3082"
         style="stop-color:#72d13d;stop-opacity:1"
         offset="0" />
      <stop
         id="stop3084"
         style="stop-color:#35ac1c;stop-opacity:1"
         offset="0.35530001" />
      <stop
         id="stop3086"
         style="stop-color:#0f9508;stop-opacity:1"
         offset="0.61940002" />
      <stop
         id="stop3088"
         style="stop-color:#008c00;stop-opacity:1"
         offset="0.75739998" />
      <stop
         id="stop3090"
         style="stop-color:#007a00;stop-opacity:1"
         offset="1" />
    </radialGradient>
    <radialGradient
       cx="172"
       cy="76"
       r="56"
       fx="172"
       fy="76"
       id="radialGradient3629"
       xlink:href="#XMLID_4_"
       gradientUnits="userSpaceOnUse"
       gradientTransform="matrix(1,0,0,1.1383929,0,-10.517857)" />
    <radialGradient
       cx="172"
       cy="76"
       r="56"
       fx="188.88173"
       fy="121.44213"
       id="radialGradient3213"
       xlink:href="#linearGradient6666"
       gradientUnits="userSpaceOnUse"
       gradientTransform="matrix(1,0,0,1.1383929,0,-10.517857)" />
    <linearGradient
       x1="73.742638"
       y1="15.336544"
       x2="78.939339"
       y2="16.750759"
       id="linearGradient3301"
       xlink:href="#linearGradient3260"
       gradientUnits="userSpaceOnUse"
       gradientTransform="translate(9.84,0)"
       spreadMethod="reflect" />
    <filter
       id="filter3387"
       height="1.249912"
       y="-0.12495601"
       width="1.2041403"
       x="-0.10207015">
      <feGaussianBlur
         id="feGaussianBlur3389"
         stdDeviation="0.44655691"
         inkscape:collect="always" />
    </filter>
    <linearGradient
       x1="74.75"
       y1="14.275884"
       x2="78.939339"
       y2="16.750759"
       id="linearGradient3393"
       xlink:href="#linearGradient3295"
       gradientUnits="userSpaceOnUse"
       spreadMethod="reflect" />
    <linearGradient
       x1="194.5"
       y1="123.90683"
       x2="104.25"
       y2="5.1559582"
       id="linearGradient3409"
       xlink:href="#linearGradient6404"
       gradientUnits="userSpaceOnUse"
       gradientTransform="matrix(1,0,0,0.8610463,-102.16,-1.4361867)" />
    <filter
       id="filter3443"
       height="1.2550792"
       y="-0.12753956"
       width="1.2314607"
       x="-0.11573034">
      <feGaussianBlur
         id="feGaussianBlur3445"
         stdDeviation="0.32549158"
         inkscape:collect="always" />
    </filter>
    <radialGradient
       cx="72.020813"
       cy="66.344505"
       r="60"
       fx="72.020813"
       fy="66.344505"
       id="radialGradient3455"
       xlink:href="#linearGradient3449"
       gradientUnits="userSpaceOnUse"
       gradientTransform="matrix(0.5816285,1.767767e-2,-2.6986249e-2,0.8878982,37.761846,5.9419094)" />
    <linearGradient
       x1="223.32712"
       y1="53.784153"
       x2="226.659"
       y2="57.279232"
       id="linearGradient3521"
       xlink:href="#linearGradient3202"
       gradientUnits="userSpaceOnUse"
       gradientTransform="matrix(1,0,0,0.8610463,-108.16138,-1.4361867)"
       spreadMethod="reflect" />
    <linearGradient
       x1="179.17224"
       y1="123.75864"
       x2="173.98071"
       y2="65.448112"
       id="linearGradient2226"
       xlink:href="#linearGradient3295"
       gradientUnits="userSpaceOnUse" />
    <linearGradient
       x1="223.32712"
       y1="53.784153"
       x2="226.659"
       y2="57.279232"
       id="linearGradient3530"
       xlink:href="#linearGradient3260"
       gradientUnits="userSpaceOnUse"
       gradientTransform="matrix(1,0,0,0.8610463,-108.16138,-1.4361867)"
       spreadMethod="reflect" />
    <radialGradient
       cx="-16.668488"
       cy="86.826965"
       r="60"
       fx="-16.668488"
       fy="86.826965"
       id="radialGradient3534"
       xlink:href="#linearGradient3449"
       gradientUnits="userSpaceOnUse"
       gradientTransform="matrix(0.2586607,-0.5212474,0.8274344,0.4106011,-29.69945,50.055595)" />
    <radialGradient
       cx="77.533371"
       cy="74.979416"
       r="43.474762"
       fx="88.042809"
       fy="51.592991"
       id="radialGradient3139"
       xlink:href="#linearGradient2990"
       gradientUnits="userSpaceOnUse"
       gradientTransform="matrix(-0.4961056,0.4409829,-0.7360594,-0.8280666,-11.726835,87.897058)"
       spreadMethod="reflect" />
    <clipPath
       id="clipPath3135">
      <path
         d="M -97.32181,27.94375 C -107.56112,27.943751 -117.79103,31.818176 -125.55562,39.582762 C -133.56284,47.589993 -137.44486,58.222613 -137.19463,68.779409 L -137.19463,96.822041 C -137.19463,100.87378 -133.94013,104.12828 -129.88839,104.12828 L -64.755235,104.12828 C -60.703495,104.12828 -57.448995,100.87378 -57.448995,96.822041 L -57.448995,68.779409 C -57.198765,58.222612 -61.080775,47.589993 -69.088001,39.582762 C -76.852581,31.818171 -87.082497,27.943749 -97.32181,27.94375 z M -97.32181,43.481014 C -90.982458,43.481015 -84.633535,45.9179 -79.764176,50.787256 C -74.95275,55.59868 -72.515179,61.833382 -72.457934,68.090021 L -122.15737,68.090021 C -122.10012,61.833381 -119.69086,55.598679 -114.87944,50.787256 C -110.01008,45.917895 -103.66116,43.481013 -97.32181,43.481014 z"
         id="path3137"
         style="fill:url(#radialGradient3139);fill-opacity:1;stroke:none;stroke-width:16.49500084;stroke-linecap:round;stroke-linejoin:round;stroke-miterlimit:4;stroke-dasharray:none;stroke-dashoffset:4.15;stroke-opacity:1" />
    </clipPath>
    <radialGradient
       cx="77.533371"
       cy="74.979416"
       r="43.474762"
       fx="88.042809"
       fy="51.592991"
       id="radialGradient3133"
       xlink:href="#linearGradient2990"
       gradientUnits="userSpaceOnUse"
       gradientTransform="matrix(-0.4961056,0.4409829,-0.7360594,-0.8280666,-99.14147,87.897058)"
       spreadMethod="reflect" />
    <clipPath
       id="clipPath3129">
      <path
         d="M -184.73645,27.94375 C -194.97576,27.943751 -205.20567,31.818176 -212.97026,39.582762 C -220.97748,47.589993 -224.8595,58.222613 -224.60927,68.779409 L -224.60927,96.822041 C -224.60927,100.87378 -221.35477,104.12828 -217.30303,104.12828 L -152.16987,104.12828 C -148.11813,104.12828 -144.86363,100.87378 -144.86363,96.822041 L -144.86363,68.779409 C -144.6134,58.222612 -148.49541,47.589993 -156.50264,39.582762 C -164.26722,31.818171 -174.49713,27.943749 -184.73645,27.94375 z M -184.73645,43.481014 C -178.39709,43.481015 -172.04817,45.9179 -167.17881,50.787256 C -162.36739,55.59868 -159.92981,61.833382 -159.87257,68.090021 L -209.57201,68.090021 C -209.51476,61.833381 -207.1055,55.598679 -202.29408,50.787256 C -197.42472,45.917895 -191.0758,43.481013 -184.73645,43.481014 z"
         id="path3131"
         style="fill:url(#radialGradient3133);fill-opacity:1;stroke:none;stroke-width:16.49500084;stroke-linecap:round;stroke-linejoin:round;stroke-miterlimit:4;stroke-dasharray:none;stroke-dashoffset:4.15;stroke-opacity:1" />
    </clipPath>
    <radialGradient
       cx="63.041775"
       cy="74.979408"
       r="43.474762"
       fx="73.551216"
       fy="51.592991"
       id="radialGradient2409"
       xlink:href="#linearGradient2990"
       gradientUnits="userSpaceOnUse"
       gradientTransform="matrix(-1.1040885,0.8280667,-0.6647496,-0.8863327,191.44623,62.253906)"
       spreadMethod="reflect" />
    <linearGradient
       x1="60.402065"
       y1="64.076149"
       x2="60.402065"
       y2="-20.962214"
       id="linearGradient3289"
       xlink:href="#linearGradient6674"
       gradientUnits="userSpaceOnUse" />
    <linearGradient
       x1="-60.945251"
       y1="105.83054"
       x2="-60"
       y2="8"
       id="linearGradient3243"
       xlink:href="#linearGradient3237"
       gradientUnits="userSpaceOnUse" />
    <linearGradient
       x1="115.76678"
       y1="71.084908"
       x2="31.376678"
       y2="21.03125"
       id="linearGradient3233"
       xlink:href="#linearGradient6446"
       gradientUnits="userSpaceOnUse"
       gradientTransform="translate(0.2332229,1.9150941)" />
    <linearGradient
       x1="59.225807"
       y1="7.8973217"
       x2="59.225807"
       y2="46.228859"
       id="linearGradient3231"
       xlink:href="#linearGradient6446"
       gradientUnits="userSpaceOnUse"
       gradientTransform="translate(0.2623629,1)" />
    <linearGradient
       x1="64"
       y1="-26.936626"
       x2="74.447762"
       y2="82.029854"
       id="linearGradient2816"
       xlink:href="#linearGradient6446"
       gradientUnits="userSpaceOnUse" />
    <linearGradient
       x1="19.096775"
       y1="50.580647"
       x2="19.934336"
       y2="88.633484"
       id="linearGradient6680"
       xlink:href="#linearGradient6674"
       gradientUnits="userSpaceOnUse" />
    <linearGradient
       x1="62.038712"
       y1="15.91371"
       x2="62.038712"
       y2="50.728985"
       id="linearGradient6649"
       xlink:href="#linearGradient6643"
       gradientUnits="userSpaceOnUse"
       gradientTransform="translate(0,3)" />
    <linearGradient
       x1="55.329033"
       y1="112"
       x2="55.329033"
       y2="74.913147"
       id="linearGradient6637"
       xlink:href="#linearGradient6631"
       gradientUnits="userSpaceOnUse" />
    <linearGradient
       x1="21.094994"
       y1="21.101994"
       x2="13.96104"
       y2="28.235947"
       id="linearGradient6472"
       xlink:href="#linearGradient6446"
       gradientUnits="userSpaceOnUse"
       gradientTransform="translate(0.4129032,0.6193548)"
       spreadMethod="reflect" />
    <linearGradient
       x1="21.094994"
       y1="21.101994"
       x2="13.96104"
       y2="28.235947"
       id="linearGradient6470"
       xlink:href="#linearGradient6446"
       gradientUnits="userSpaceOnUse"
       gradientTransform="translate(0.4129032,0.6193548)"
       spreadMethod="reflect" />
    <linearGradient
       x1="21.094994"
       y1="21.101994"
       x2="15.126888"
       y2="27.070099"
       id="linearGradient6464"
       xlink:href="#linearGradient6446"
       gradientUnits="userSpaceOnUse"
       gradientTransform="translate(0.4129032,0.6193548)"
       spreadMethod="reflect" />
    <linearGradient
       x1="21.094994"
       y1="21.101994"
       x2="15.189133"
       y2="27.007854"
       id="linearGradient6452"
       xlink:href="#linearGradient6446"
       gradientUnits="userSpaceOnUse"
       gradientTransform="translate(-7.5870968,-7.3806452)"
       spreadMethod="reflect" />
    <linearGradient
       x1="32"
       y1="88"
       x2="24"
       y2="-24"
       id="linearGradient6410"
       xlink:href="#linearGradient6404"
       gradientUnits="userSpaceOnUse" />
    <radialGradient
       cx="42.700352"
       cy="103.5803"
       r="42.559486"
       fx="42.700352"
       fy="103.5803"
       id="radialGradient9692"
       xlink:href="#linearGradient6666"
       gradientUnits="userSpaceOnUse"
       gradientTransform="matrix(1.3965253,6.9831451e-3,-7.781496e-3,1.5561835,-122.82611,-69.698616)"
       spreadMethod="pad" />
    <linearGradient
       id="linearGradient6404">
      <stop
         id="stop6406"
         style="stop-color:#081e3e;stop-opacity:1"
         offset="0" />
      <stop
         id="stop6408"
         style="stop-color:#387de4;stop-opacity:1"
         offset="1" />
    </linearGradient>
    <linearGradient
       id="linearGradient6446">
      <stop
         id="stop6448"
         style="stop-color:#ffffff;stop-opacity:1"
         offset="0" />
      <stop
         id="stop6450"
         style="stop-color:#ffffff;stop-opacity:0"
         offset="1" />
    </linearGradient>
    <linearGradient
       id="linearGradient6631">
      <stop
         id="stop6633"
         style="stop-color:#703700;stop-opacity:1"
         offset="0" />
      <stop
         id="stop6635"
         style="stop-color:#bf5e00;stop-opacity:0"
         offset="1" />
    </linearGradient>
    <linearGradient
       id="linearGradient6643">
      <stop
         id="stop6645"
         style="stop-color:#fffddc;stop-opacity:1"
         offset="0" />
      <stop
         id="stop6647"
         style="stop-color:#ffdfbf;stop-opacity:0"
         offset="1" />
    </linearGradient>
    <linearGradient
       id="linearGradient6666">
      <stop
         id="stop6668"
         style="stop-color:#9fc1f2;stop-opacity:1"
         offset="0" />
      <stop
         id="stop3183"
         style="stop-color:#587eb5;stop-opacity:1"
         offset="0.5" />
      <stop
         id="stop6670"
         style="stop-color:#0c2a58;stop-opacity:1"
         offset="1" />
    </linearGradient>
    <linearGradient
       id="linearGradient6674">
      <stop
         id="stop6676"
         style="stop-color:#001648;stop-opacity:1"
         offset="0" />
      <stop
         id="stop6678"
         style="stop-color:#11a9ff;stop-opacity:0"
         offset="1" />
    </linearGradient>
    <linearGradient
       id="linearGradient3237">
      <stop
         id="stop3239"
         style="stop-color:#d5e6ff;stop-opacity:1"
         offset="0" />
      <stop
         id="stop3241"
         style="stop-color:#ffffff;stop-opacity:0"
         offset="1" />
    </linearGradient>
    <linearGradient
       id="linearGradient2990">
      <stop
         id="stop2992"
         style="stop-color:#d7d7d7;stop-opacity:1"
         offset="0" />
      <stop
         id="stop2994"
         style="stop-color:#ffffff;stop-opacity:1"
         offset="1" />
    </linearGradient>
    <filter
       id="filter3187">
      <feGaussianBlur
         id="feGaussianBlur3189"
         stdDeviation="0.56525828"
         inkscape:collect="always" />
    </filter>
    <radialGradient
       cx="172"
       cy="76"
       r="56"
       fx="172"
       fy="76"
       id="radialGradient3236"
       xlink:href="#XMLID_4_"
       gradientUnits="userSpaceOnUse"
       gradientTransform="matrix(1,0,0,1.1383929,0,-10.517857)" />
    <linearGradient
       x1="179.17224"
       y1="123.75864"
       x2="173.98071"
       y2="65.448112"
       id="linearGradient3240"
       xlink:href="#linearGradient3295"
       gradientUnits="userSpaceOnUse" />
    <radialGradient
       cx="172"
       cy="76"
       r="56"
       fx="172"
       fy="76"
       id="radialGradient2420"
       xlink:href="#XMLID_4_"
       gradientUnits="userSpaceOnUse"
       gradientTransform="matrix(1,0,0,1.1383929,0,-10.517857)" />
    <linearGradient
       x1="87.300003"
       y1="17.42"
       x2="87.300003"
       y2="81.440002"
       id="linearGradient3009"
       xlink:href="#linearGradient3237"
       gradientUnits="userSpaceOnUse" />
  </defs>
  <g
     id="layer1">
    <path
       d="M 76.49875,13.585447 L 11.39194,61.147784 C 10.4086,61.853052 9.84,62.898046 9.84,64 C 9.84,65.101954 10.4086,66.146948 11.39194,66.852216 L 77.18625,113.08531 C 81.32937,115.7157 87.28,116.08842 87.28,110.26 L 87.28,87.26 L 116.38,87.26 C 118.76204,87.260654 122.20076,83.491051 122.2,81.44 L 122.2,46.52 C 122.20076,44.46895 118.76204,40.699344 116.38,40.7 L 87.28,40.7 L 87.28,17.42 C 87.28,13.528864 80.25948,10.866707 76.49875,13.585447 z"
       id="path2488"
       style="fill:url(#linearGradient3409);fill-opacity:1;fill-rule:evenodd;stroke:none;stroke-width:8.6213789;stroke-linecap:round;stroke-linejoin:round;stroke-miterlimit:4;stroke-dasharray:none;stroke-opacity:1" />
    <path
       d="M 76.49875,13.585447 L 11.39194,61.147784 C 10.4086,61.853052 9.84,62.898046 9.84,64 C 9.84,65.101954 10.4086,66.146948 11.39194,66.852216 L 77.18625,113.08531 C 81.32937,115.7157 87.28,116.08842 87.28,110.26 L 87.28,87.26 L 116.38,87.26 C 118.76204,87.260654 122.20076,83.491051 122.2,81.44 L 122.2,46.52 C 122.20076,44.46895 118.76204,40.699344 116.38,40.7 L 87.28,40.7 L 87.28,17.42 C 87.28,13.528864 80.25948,10.866707 76.49875,13.585447 z"
       id="path3532"
       style="opacity:0.25468164;fill:url(#radialGradient3534);fill-opacity:1;fill-rule:evenodd;stroke:none;stroke-width:8.6213789;stroke-linecap:round;stroke-linejoin:round;stroke-miterlimit:4;stroke-dasharray:none;stroke-opacity:1" />
    <path
       d="M 79.34,13.0625 C 78.262912,13.127783 77.226099,13.439286 76.34,14 L 78.715,21.625 L 86.84,18.46875 L 86.84,18 C 86.84,15.081648 82.901079,12.84666 79.34,13.0625 z"
       id="path3272"
       style="fill:url(#linearGradient3301);fill-opacity:1;fill-rule:evenodd;stroke:none;stroke-width:1px;stroke-linecap:butt;stroke-linejoin:miter;stroke-opacity:1;filter:url(#filter3387)" />
    <path
       d="M 115.65112,40 C 115.31168,41.154561 113.08862,46.125 113.08862,46.125 L 119.83862,46.09375 L 119.83862,44 C 119.83938,41.94895 118.22066,39.999344 115.83862,40 L 115.65112,40 z"
       transform="matrix(1,0,0,-1,0.3399999,126.225)"
       id="path3519"
       style="opacity:0.6142322;fill:url(#linearGradient3521);fill-opacity:1;fill-rule:evenodd;stroke:none;stroke-width:8.6213789;stroke-linecap:round;stroke-linejoin:round;stroke-miterlimit:4;stroke-dasharray:none;stroke-opacity:1;filter:url(#filter3443)" />
    <path
       d="M 76.49875,13.585447 L 11.39194,61.147784 C 10.4086,61.853052 9.84,62.898046 9.84,64 C 9.84,65.101954 10.4086,66.146948 11.39194,66.852216 L 77.04625,113.12531 C 81.18937,115.7557 87.14,116.12842 87.14,110.3 L 87.28,87.26 L 116.38,87.26 C 118.76204,87.260654 122.20076,83.491051 122.2,81.44 L 122.2,46.52 C 122.20076,44.46895 118.76204,40.699344 116.38,40.7 L 87.28,40.7 L 87.28,17.42 C 87.28,13.528864 80.25948,10.866707 76.49875,13.585447 z"
       id="path3447"
       style="fill:url(#radialGradient3455);fill-opacity:1;fill-rule:evenodd;stroke:none;stroke-width:8.6213789;stroke-linecap:round;stroke-linejoin:round;stroke-miterlimit:4;stroke-dasharray:none;stroke-opacity:1" />
    <path
       d="M 72.5,11.0625 C 71.422912,11.127783 70.386099,11.439286 69.5,12 L 71.875,19.625 L 80,16.46875 L 80,16 C 80,13.081648 76.061079,10.84666 72.5,11.0625 z"
       transform="matrix(0.8316412,0,0,-1,20.3087,124.78415)"
       id="path3391"
       style="opacity:0.70411987;fill:url(#linearGradient3393);fill-opacity:1;fill-rule:evenodd;stroke:none;stroke-width:1px;stroke-linecap:butt;stroke-linejoin:miter;stroke-opacity:1;filter:url(#filter3387)" />
    <path
       d="M 115.65112,40 C 115.31168,41.154561 113.08862,46.125 113.08862,46.125 L 119.83862,46.09375 L 119.83862,44 C 119.83938,41.94895 118.22066,39.999344 115.83862,40 L 115.65112,40 z"
       transform="matrix(-2.8382138e-2,-0.9995972,-0.9995972,2.8382138e-2,164.35805,160.88653)"
       id="path3528"
       style="opacity:0.74906365;fill:url(#linearGradient3530);fill-opacity:1;fill-rule:evenodd;stroke:none;stroke-width:8.6213789;stroke-linecap:round;stroke-linejoin:round;stroke-miterlimit:4;stroke-dasharray:none;stroke-opacity:1;filter:url(#filter3443)" />
    <g
       transform="matrix(1,0,0,0.8609865,-102.16,-1.4349776)"
       id="g3472"
       style="fill:url(#radialGradient3629);fill-opacity:1;stroke:none;stroke-width:16;stroke-linecap:round;stroke-linejoin:round;stroke-miterlimit:4;stroke-dasharray:none">
      <path
         d="M 177.25044,26.110774 L 120.50547,73.806959 C 119.11967,75.416501 119.3415,76.828137 120.40303,78.061061 L 175.6,123.27137 C 179.6,126.85351 183.6,127.0446 183.6,123.27137 L 183.62,96.255839 L 218.54,96.255839 L 218.54,55.697711 L 183.62,55.697711 L 183.7,28.575066 C 183.7,25.384193 180.54713,23.900117 177.25044,26.110774 z"
         id="path3474"
         style="fill:url(#radialGradient3213);fill-opacity:1;fill-rule:evenodd;stroke:none;stroke-width:16;stroke-linecap:round;stroke-linejoin:round;stroke-miterlimit:4;stroke-dasharray:none;stroke-opacity:1" />
    </g>
    <path
       d="M 78.0625,20.15625 C 77.152203,20.181967 76.123966,20.436454 75.09375,21.03125 L 18.34375,62.125 C 16.95795,63.510796 17.18847,64.719719 18.25,65.78125 L 21.0625,67.75 C 29.224002,68.644749 37.770682,69.125 46.5625,69.125 C 73.370658,69.125 97.840304,64.699856 116.375,57.4375 L 116.375,46.53125 L 81.46875,46.53125 L 81.53125,23.15625 C 81.531249,21.267482 80.065153,20.099672 78.0625,20.15625 z"
       id="path2412"
       style="opacity:1;fill:url(#linearGradient3009);fill-opacity:1;stroke:none;stroke-width:0.1;stroke-linecap:round;stroke-linejoin:round;stroke-miterlimit:4;stroke-dasharray:none;stroke-dashoffset:4.15;stroke-opacity:1" />
  </g>
</svg>
