<?xml version="1.0" encoding="UTF-8" standalone="no"?>
<svg
   id="svg12929"
   viewBox="0 0 64.000002 64.000001"
   version="1.0"
   sodipodi:docname="pinChecked.svg"
   xml:space="preserve"
   width="64"
   height="64"
   inkscape:version="1.4.2 (f4327f4, 2025-05-13)"
   xmlns:inkscape="http://www.inkscape.org/namespaces/inkscape"
   xmlns:sodipodi="http://sodipodi.sourceforge.net/DTD/sodipodi-0.dtd"
   xmlns:xlink="http://www.w3.org/1999/xlink"
   xmlns="http://www.w3.org/2000/svg"
   xmlns:svg="http://www.w3.org/2000/svg"
   xmlns:rdf="http://www.w3.org/1999/02/22-rdf-syntax-ns#"
   xmlns:cc="http://creativecommons.org/ns#"
   xmlns:dc="http://purl.org/dc/elements/1.1/"><sodipodi:namedview
     id="namedview1"
     pagecolor="#ffffff"
     bordercolor="#000000"
     borderopacity="0.25"
     inkscape:showpageshadow="2"
     inkscape:pageopacity="0.0"
     inkscape:pagecheckerboard="0"
     inkscape:deskcolor="#d1d1d1"
     showguides="true"
     inkscape:zoom="3.5117188"
     inkscape:cx="5.5528365"
     inkscape:cy="50.54505"
     inkscape:window-width="1920"
     inkscape:window-height="1046"
     inkscape:window-x="-11"
     inkscape:window-y="-11"
     inkscape:window-maximized="1"
     inkscape:current-layer="svg12929"><sodipodi:guide
       position="130.65429,31.029505"
       orientation="1,0"
       id="guide5"
       inkscape:locked="false" /></sodipodi:namedview><defs
     id="defs3"><linearGradient
       id="linearGradient18"
       inkscape:collect="always"><stop
         style="stop-color:#000000;stop-opacity:1;"
         offset="0"
         id="stop18" /><stop
         style="stop-color:#000000;stop-opacity:0;"
         offset="1"
         id="stop19" /></linearGradient><linearGradient
       id="linearGradient15"
       inkscape:collect="always"><stop
         style="stop-color:#928c7b;stop-opacity:1;"
         offset="0"
         id="stop13" /><stop
         style="stop-color:#b7b07a;stop-opacity:1;"
         offset="0.5"
         id="stop14" /><stop
         style="stop-color:#aca574;stop-opacity:0;"
         offset="1"
         id="stop15" /></linearGradient><linearGradient
       id="linearGradient9"
       inkscape:collect="always"><stop
         style="stop-color:#616051;stop-opacity:1;"
         offset="0"
         id="stop10" /><stop
         style="stop-color:#aca574;stop-opacity:1;"
         offset="0.5"
         id="stop12" /><stop
         style="stop-color:#aca574;stop-opacity:0;"
         offset="1"
         id="stop11" /></linearGradient><linearGradient
       id="linearGradient5"
       inkscape:collect="always"><stop
         style="stop-color:#5b5b4e;stop-opacity:1;"
         offset="0"
         id="stop5" /><stop
         style="stop-color:#a49e70;stop-opacity:1;"
         offset="0.20468187"
         id="stop7" /><stop
         style="stop-color:#b8b17a;stop-opacity:1;"
         offset="0.26365545"
         id="stop9" /><stop
         style="stop-color:#b7b07a;stop-opacity:1;"
         offset="0.66596639"
         id="stop8" /><stop
         style="stop-color:#8f8a7b;stop-opacity:1;"
         offset="1"
         id="stop6" /></linearGradient><linearGradient
       id="linearGradient16228"
       y2="1643.8"
       gradientUnits="userSpaceOnUse"
       y1="1549.5"
       x2="-348.57001"
       x1="-208.57001"
       gradientTransform="matrix(1.3293009,0,0,1.1113515,1637.5742,441.25172)"><stop
         id="stop16209"
         stop-color="#0f0"
         offset="0" /><stop
         id="stop16211"
         stop-color="#0ff"
         stop-opacity="0"
         offset="1" /></linearGradient><linearGradient
       id="linearGradient16230"
       y2="106.65"
       gradientUnits="userSpaceOnUse"
       y1="469.51001"
       x2="257.14001"
       x1="114.29"
       gradientTransform="matrix(1.3267,-0.083114,-0.76937,0.80198,208.17935,1179.9982)"><stop
         id="stop16179"
         stop-color="#ff0"
         offset="0" /><stop
         id="stop16181"
         stop-color="#ff0"
         stop-opacity="0"
         offset="1" /></linearGradient><linearGradient
       id="linearGradient16232"
       y2="466.64999"
       gradientUnits="userSpaceOnUse"
       y1="338.07999"
       x2="185.71001"
       x1="314.29001"
       gradientTransform="matrix(1.3267,-0.083114,-0.76937,0.80198,208.17935,1179.9982)"><stop
         id="stop16171"
         stop-color="#f00"
         offset="0" /><stop
         id="stop16173"
         stop-color="#f00"
         stop-opacity="0"
         offset="1" /></linearGradient><linearGradient
       id="linearGradient16234"
       y2="1198.1"
       gradientUnits="userSpaceOnUse"
       y1="1512.4"
       x2="337.14001"
       x1="494.29001"
       gradientTransform="matrix(1.3267,-0.083114,-0.76937,0.80198,1286.4549,304.83865)"><stop
         id="stop16163"
         stop-color="#f0f"
         offset="0" /><stop
         id="stop16165"
         stop-color="#f0f"
         stop-opacity="0"
         offset="1" /></linearGradient><linearGradient
       id="linearGradient16236"
       y2="1543.8"
       gradientUnits="userSpaceOnUse"
       y1="1505.2"
       x2="-645.71002"
       x1="-197.14"
       gradientTransform="matrix(1.3267,-0.083114,-0.76937,0.80198,1402.7371,198.48218)"><stop
         id="stop16187"
         stop-color="#0f0"
         offset="0" /><stop
         id="stop16189"
         stop-color="#0f0"
         stop-opacity="0"
         offset="1" /></linearGradient><filter
       id="filter3253"
       y="-0.17073693"
       width="1.1089709"
       x="-0.054485445"
       height="1.3414739"><feGaussianBlur
         id="feGaussianBlur3255"
         stdDeviation="1.6267253" /></filter><clipPath
       id="clipPath3261"
       clipPathUnits="userSpaceOnUse"><path
         id="path3263"
         fill-rule="evenodd"
         fill="#347fb6"
         d="m 293.56,-220.47 v 9.6 h 0.09 c 0.42,8.66 16.32,15.62 35.84,15.62 19.53,0 35.4,-6.96 35.82,-15.62 h 0.09 v -8.32 c 0,7.15 -16.06,12.94 -35.84,12.94 -19.79,0 -35.85,-5.79 -35.85,-12.94 0,-0.43 0.07,-0.85 0.19,-1.28 z m 71.84,1.28 v -1.28 h -0.19 c 0.12,0.43 0.19,0.85 0.19,1.28 z" /></clipPath><filter
       id="filter3305"
       y="-0.23614422"
       width="1.6048775"
       x="-0.30243874"
       height="1.4722884"><feGaussianBlur
         id="feGaussianBlur3307"
         stdDeviation="7.2618013" /></filter><clipPath
       id="clipPath3315"
       clipPathUnits="userSpaceOnUse"><path
         id="path3317"
         opacity="0.21839"
         d="m 421.78,17.094 c -5.2,1.312 -11.19,2.062 -17.59,2.062 -5.95,0 -11.59,-0.635 -16.53,-1.781 l -5.88,56.031 c -0.23,0.586 -0.32,1.199 -0.34,1.813 0,0.082 -0.03,0.167 -0.03,0.25 0.01,0.71 0.14,1.391 0.44,2.062 0.3,0.691 0.76,1.366 1.34,2 0.58,0.635 1.27,1.217 2.09,1.782 0.83,0.564 1.78,1.113 2.82,1.593 1.03,0.48 2.16,0.9 3.37,1.282 1.22,0.381 2.51,0.731 3.88,1 1.36,0.268 2.79,0.483 4.28,0.625 1.48,0.141 3.05,0.187 4.62,0.187 1.58,0 3.11,-0.046 4.6,-0.187 1.48,-0.142 2.91,-0.357 4.28,-0.625 1.36,-0.269 2.66,-0.619 3.87,-1 1.22,-0.382 2.34,-0.802 3.38,-1.282 1.03,-0.48 1.99,-1.029 2.81,-1.593 0.82,-0.565 1.52,-1.147 2.09,-1.782 0.58,-0.634 1.04,-1.309 1.35,-2 0.15,-0.35 0.14,-0.7 0.22,-1.062 0.01,-0.296 0.09,-0.577 0.09,-0.875 0,-0.554 -0.14,-1.083 -0.19,-1.625 -0.07,-0.234 -0.02,-0.491 -0.12,-0.719 -0.1,-0.218 -0.25,-0.412 -0.38,-0.625 z"
         fill-rule="evenodd"
         fill-opacity="0.75"
         fill="#ff0000" /></clipPath><clipPath
       id="clipPath3345"
       clipPathUnits="userSpaceOnUse"><path
         id="path3347"
         fill="#347fb6"
         d="m 168.84,-47.468 c -20.11,-1.614 -35.81,-8.713 -39.26,-17.746 -0.8,-2.099 -1.03,-4.295 -0.73,-7.236 1.2,-11.975 7.64,-22.51 18.37,-30.05 1.38,-0.97 5.97,-3.66 5.95,-3.49 -0.03,0.27 -0.83,6.809 -0.94,7.703 -0.56,4.518 6,8.906 15.7,10.505 3,0.496 10.63,0.557 13.59,0.109 6.17,-0.934 11.21,-2.923 14.05,-5.549 1.91,-1.759 2.55,-3.537 2.11,-5.896 -0.56,-3.012 -0.71,-4.052 -0.85,-5.842 l -0.13,-1.88 1.6,0.81 c 10.79,5.41 18.88,14.273 22.42,24.54 1.49,4.347 1.92,6.892 1.94,11.534 0.02,4.389 0.02,4.405 -0.76,5.954 -0.99,1.983 -4.73,5.79 -7.37,7.508 -6.43,4.172 -15.39,7.042 -26.8,8.577 -2.74,0.369 -15.97,0.683 -18.89,0.449 z" /></clipPath><filter
       id="filter4145"
       y="-0.11944717"
       width="1.3591561"
       x="-0.17957803"
       height="1.2388943"><feGaussianBlur
         id="feGaussianBlur4147"
         stdDeviation="2.8088997" /></filter><clipPath
       id="clipPath4149"
       clipPathUnits="userSpaceOnUse"><path
         id="path4151"
         fill-rule="evenodd"
         fill="#347fb6"
         d="m 425.79,68.885 0.5,6.25 c 0.12,0.213 0.28,0.407 0.37,0.625 0.1,0.229 0.06,0.486 0.13,0.719 0.05,0.543 0.19,1.072 0.19,1.625 0,0.299 -0.08,0.58 -0.1,0.875 -0.08,0.362 -0.06,0.712 -0.22,1.063 -0.3,0.69 -0.76,1.365 -1.34,2 -0.58,0.634 -1.27,1.216 -2.09,1.781 -0.82,0.564 -1.78,1.113 -2.82,1.594 -1.03,0.48 -2.16,0.899 -3.37,1.281 -1.22,0.381 -2.51,0.731 -3.88,1 -1.36,0.268 -2.79,0.483 -4.28,0.625 -1.48,0.141 -3.01,0.187 -4.59,0.187 -1.58,0 -3.14,-0.046 -4.63,-0.187 -1.48,-0.142 -2.91,-0.357 -4.28,-0.625 -1.36,-0.269 -2.66,-0.619 -3.87,-1 -1.22,-0.382 -2.34,-0.801 -3.38,-1.281 -1.03,-0.481 -1.99,-1.03 -2.81,-1.594 -0.82,-0.565 -1.52,-1.147 -2.09,-1.781 -0.58,-0.635 -1.04,-1.31 -1.35,-2 -0.29,-0.671 -0.43,-1.352 -0.43,-2.063 0,-0.083 0.02,-0.167 0.03,-0.25 0.02,-0.614 0.11,-1.227 0.34,-1.812 l 0.66,-6.25 c -14.73,7.216 -24.75,21.276 -24.75,37.433 0,14.16 7.71,26.7 19.53,34.44 -11.77,-7.75 -19.41,-20.3 -19.41,-34.44 0,-0.08 0.03,-0.16 0.03,-0.25 0.02,1.48 0.33,2.93 0.94,4.32 0.63,1.43 1.55,2.81 2.75,4.12 1.2,1.32 2.67,2.55 4.38,3.72 1.7,1.17 3.63,2.29 5.78,3.28 2.14,1 4.48,1.9 7,2.69 2.52,0.79 5.23,1.47 8.06,2.03 2.83,0.56 5.79,0.99 8.87,1.28 3.09,0.29 6.3,0.44 9.57,0.44 3.27,0 6.44,-0.15 9.53,-0.44 3.08,-0.29 6.07,-0.72 8.9,-1.28 2.84,-0.56 5.51,-1.24 8.04,-2.03 2.52,-0.79 4.85,-1.69 7,-2.69 2.14,-0.99 4.1,-2.11 5.81,-3.28 1.7,-1.17 3.14,-2.4 4.34,-3.72 1.2,-1.31 2.15,-2.69 2.78,-4.12 0.32,-0.73 0.34,-1.5 0.5,-2.25 -0.09,1.85 -0.28,3.68 -0.62,5.47 0.46,-2.37 0.72,-4.79 0.72,-7.29 0,-16.777 -10.78,-31.274 -26.44,-38.215 z m 25.72,45.505 c -0.23,1.16 -0.49,2.33 -0.81,3.46 0.32,-1.12 0.58,-2.3 0.81,-3.46 z m -0.91,3.71 c -0.15,0.52 -0.33,1.03 -0.5,1.54 0.18,-0.51 0.35,-1.02 0.5,-1.54 z m -1.03,3 c -0.24,0.63 -0.51,1.27 -0.78,1.88 0.27,-0.62 0.54,-1.25 0.78,-1.88 z m -72.28,20.44 c 2.14,1.4 4.39,2.65 6.78,3.72 -2.38,-1.07 -4.65,-2.32 -6.78,-3.72 z m 10.5,5.19 c 1.24,0.44 2.52,0.84 3.81,1.19 -1.3,-0.35 -2.56,-0.75 -3.81,-1.19 z" /></clipPath><clipPath
       id="clipPath4221"
       clipPathUnits="userSpaceOnUse"><path
         id="path4223"
         fill-rule="evenodd"
         fill="#b6343c"
         d="m 350.72,7.5328 0.5,6.2502 c 0.12,0.213 0.27,0.407 0.37,0.625 0.1,0.228 0.06,0.485 0.13,0.719 0.04,0.542 0.18,1.071 0.18,1.625 0,0.298 -0.08,0.579 -0.09,0.875 -0.08,0.362 -0.06,0.712 -0.22,1.062 -0.3,0.691 -0.76,1.365 -1.34,2 -0.58,0.635 -1.27,1.217 -2.1,1.781 -0.82,0.565 -1.78,1.114 -2.81,1.594 -1.03,0.48 -2.16,0.9 -3.37,1.281 -1.22,0.382 -2.51,0.732 -3.88,1 -1.37,0.269 -2.79,0.484 -4.28,0.625 -1.49,0.142 -3.02,0.188 -4.59,0.188 -1.58,0 -3.14,-0.046 -4.63,-0.188 -1.49,-0.141 -2.91,-0.356 -4.28,-0.625 -1.37,-0.268 -2.66,-0.618 -3.88,-1 -1.21,-0.381 -2.34,-0.801 -3.37,-1.281 -1.03,-0.48 -1.99,-1.029 -2.81,-1.594 -0.82,-0.564 -1.52,-1.146 -2.1,-1.781 -0.57,-0.635 -1.04,-1.309 -1.34,-2 -0.3,-0.671 -0.43,-1.352 -0.44,-2.062 0,-0.083 0.03,-0.168 0.03,-0.25 0.03,-0.614 0.11,-1.228 0.35,-1.813 l 0.65,-6.25 c -14.72,7.217 -24.75,21.277 -24.75,37.438 0,14.16 7.72,26.698 19.53,34.437 -11.76,-7.748 -19.4,-20.305 -19.4,-34.437 0,-0.086 0.03,-0.165 0.03,-0.25 0.02,1.473 0.32,2.921 0.94,4.312 0.63,1.432 1.55,2.809 2.75,4.125 1.2,1.316 2.67,2.548 4.37,3.719 1.71,1.17 3.64,2.285 5.78,3.281 2.15,0.996 4.48,1.896 7,2.688 2.52,0.791 5.23,1.474 8.07,2.031 2.83,0.557 5.79,0.988 8.87,1.281 3.08,0.293 6.29,0.438 9.56,0.438 3.27,0 6.45,-0.145 9.53,-0.438 3.09,-0.293 6.08,-0.724 8.91,-1.281 2.83,-0.557 5.51,-1.24 8.03,-2.031 2.52,-0.792 4.86,-1.692 7,-2.688 2.15,-0.996 4.11,-2.111 5.81,-3.281 1.71,-1.171 3.15,-2.403 4.35,-3.719 1.2,-1.316 2.15,-2.693 2.78,-4.125 0.32,-0.727 0.34,-1.499 0.5,-2.25 -0.09,1.858 -0.28,3.681 -0.63,5.469 0.47,-2.37 0.72,-4.79 0.72,-7.281 0,-16.781 -10.77,-31.279 -26.43,-38.219 z m 25.71,45.5 c -0.22,1.169 -0.48,2.334 -0.81,3.469 0.33,-1.129 0.59,-2.307 0.81,-3.469 z m -0.9,3.719 c -0.15,0.513 -0.33,1.025 -0.5,1.531 0.17,-0.509 0.34,-1.015 0.5,-1.531 z m -1.03,3 c -0.25,0.627 -0.51,1.26 -0.78,1.875 0.27,-0.617 0.53,-1.245 0.78,-1.875 z m -72.28,20.437 c 2.14,1.401 4.39,2.652 6.78,3.719 -2.39,-1.07 -4.65,-2.316 -6.78,-3.719 z m 10.5,5.188 c 1.24,0.439 2.51,0.842 3.81,1.187 -1.3,-0.349 -2.56,-0.742 -3.81,-1.187 z" /></clipPath><filter
       id="filter4282"
       y="-0.54175388"
       width="1.2651885"
       x="-0.13259425"
       height="2.0835078"><feGaussianBlur
         id="feGaussianBlur4284"
         stdDeviation="2.5063856" /></filter><filter
       id="filter4901"
       y="-0.23690266"
       width="1.4987032"
       x="-0.2493516"
       height="1.4738053"><feGaussianBlur
         id="feGaussianBlur4903"
         stdDeviation="7.9506509" /></filter><filter
       id="filter4969"
       y="-0.19039456"
       width="1.1046167"
       x="-0.052308335"
       height="1.3807891"><feGaussianBlur
         id="feGaussianBlur4971"
         stdDeviation="2.0499811" /></filter><filter
       id="filter5003"
       y="-0.11394699"
       width="1.1648065"
       x="-0.082403244"
       height="1.227894"><feGaussianBlur
         id="feGaussianBlur5005"
         stdDeviation="0.41785311" /></filter><filter
       id="filter5118"
       y="-0.33301256"
       width="1.2680891"
       x="-0.13404455"
       height="1.6660251"><feGaussianBlur
         id="feGaussianBlur5120"
         stdDeviation="0.33231877" /></filter><filter
       id="filter5470"
       y="-0.047645286"
       width="1.994904"
       x="-0.49745198"
       height="1.0952906"><feGaussianBlur
         id="feGaussianBlur5472"
         stdDeviation="0.61145138" /></filter><clipPath
       id="clipPath5476"
       clipPathUnits="userSpaceOnUse"><path
         id="path5478"
         fill="#918b7b"
         d="m 404.11,101.8 10.62,-0.37 c 0,0 0.94,21.27 1.28,29.29 -0.31,0.81 -0.77,1.01 -1.56,1.42 -0.78,0.41 -2.2,0.3 -3.96,0.02 -1.75,-0.27 -2.67,-0.89 -3.45,-1.44 -0.88,-0.61 -0.9,-0.57 -1.83,-2.01 -0.92,-1.42 -1.1,-2.75 -1.1,-2.75 z" /></clipPath><filter
       id="filter5554"
       y="-0.052775951"
       width="1.6759245"
       x="-0.33796223"
       height="1.1055519"><feGaussianBlur
         id="feGaussianBlur5556"
         stdDeviation="0.64653045" /></filter><clipPath
       id="clipPath5558"
       clipPathUnits="userSpaceOnUse"><path
         id="path5560"
         fill="#918b7b"
         d="m 398.22,94.615 11.52,-0.366 c 0,0 0.94,21.261 1.28,29.291 -0.3,0.81 -0.77,1.01 -1.56,1.42 -0.77,0.4 -2.19,0.29 -3.95,0.02 -1.75,-0.27 -2.67,-0.89 -3.45,-1.44 -0.88,-0.61 -0.9,-0.57 -1.83,-2.02 -0.92,-1.41 -1.1,-2.74 -1.1,-2.74 z" /></clipPath><clipPath
       id="clipPath5568"
       clipPathUnits="userSpaceOnUse"><path
         id="path5570"
         fill="#b8b17a"
         d="m 380.27,99.759 11.52,-0.366 c 0,0 0.94,21.267 1.29,29.287 -0.31,0.81 -0.77,1.01 -1.57,1.42 -0.77,0.41 -2.19,0.3 -3.95,0.02 -1.75,-0.27 -2.67,-0.89 -3.45,-1.44 -0.88,-0.61 -0.9,-0.57 -1.83,-2.01 -0.92,-1.42 -1.1,-2.75 -1.1,-2.75 z" /></clipPath><filter
       id="filter5750"
       y="-0.32514918"
       width="1.8559701"
       x="-0.42798504"
       height="1.6502984"><feGaussianBlur
         id="feGaussianBlur5752"
         stdDeviation="4.8649292" /></filter><filter
       id="filter5766"
       y="-0.00099825545"
       width="1.0014935"
       x="-0.00074676791"
       height="1.0019965"><feGaussianBlur
         id="feGaussianBlur5768"
         stdDeviation="0.066932887" /></filter><linearGradient
       id="linearGradient5853"
       y2="-25.858"
       gradientUnits="userSpaceOnUse"
       y1="-99.078003"
       x2="203.92999"
       x1="146.19"><stop
         id="stop4797"
         stop-color="#34434f"
         offset="0" /><stop
         id="stop4803"
         stop-color="#43acff"
         offset="1" /></linearGradient><clipPath
       clipPathUnits="userSpaceOnUse"
       id="clipPath1"><text
         id="text1"
         font-size="119.522px"
         font-weight="bold"
         xml:space="preserve"
         transform="matrix(1.3266725,-0.08311228,-0.76935406,0.80196338,0,0)"
         y="240.76898"
         x="-636.94989"
         font-family="Arial"
         fill="#ff00ff"
         style="stroke-width:1.00002">         <tspan
   id="tspan1"
   style="stroke-width:1.00002">Rémi BERTHOLET</tspan>      </text></clipPath><clipPath
       clipPathUnits="userSpaceOnUse"
       id="clipPath2"><text
         id="text2"
         font-size="119.522px"
         font-weight="bold"
         xml:space="preserve"
         transform="matrix(1.3266725,-0.08311228,-0.76935406,0.80196338,0,0)"
         y="240.76898"
         x="-636.94989"
         font-family="Arial"
         fill="#ff00ff"
         style="stroke-width:1.00002">         <tspan
   id="tspan2"
   style="stroke-width:1.00002">Rémi BERTHOLET</tspan>      </text></clipPath><clipPath
       clipPathUnits="userSpaceOnUse"
       id="clipPath3"><text
         id="text3"
         font-size="119.522px"
         font-weight="bold"
         xml:space="preserve"
         transform="matrix(1.3266725,-0.08311228,-0.76935406,0.80196338,0,0)"
         y="240.76898"
         x="-636.94989"
         font-family="Arial"
         fill="#ff00ff"
         style="stroke-width:1.00002">         <tspan
   id="tspan3"
   style="stroke-width:1.00002">Rémi BERTHOLET</tspan>      </text></clipPath><clipPath
       clipPathUnits="userSpaceOnUse"
       id="clipPath4"><text
         id="text4"
         font-size="119.522px"
         font-weight="bold"
         xml:space="preserve"
         transform="matrix(1.3266725,-0.08311228,-0.76935406,0.80196338,0,0)"
         y="240.76898"
         x="-636.94989"
         font-family="Arial"
         fill="#ff00ff"
         style="stroke-width:1.00002">         <tspan
   id="tspan4"
   style="stroke-width:1.00002">Rémi BERTHOLET</tspan>      </text></clipPath><clipPath
       clipPathUnits="userSpaceOnUse"
       id="clipPath5"><text
         id="text5"
         font-size="145.27px"
         font-weight="bold"
         xml:space="preserve"
         transform="scale(1.0936691,0.91435337)"
         y="292.63678"
         x="-774.16516"
         font-family="Arial"
         fill="#ff00ff"
         style="stroke-width:1.21545">         <tspan
   id="tspan5"
   style="stroke-width:1.21545">Rémi BERTHOLET</tspan>      </text></clipPath><linearGradient
       inkscape:collect="always"
       xlink:href="#linearGradient5"
       id="linearGradient6"
       x1="83.570808"
       y1="116.32953"
       x2="90.23172"
       y2="116.32953"
       gradientUnits="userSpaceOnUse"
       gradientTransform="matrix(0.45909408,0,0,0.74487222,-7.6484979,-35.30575)" /><linearGradient
       inkscape:collect="always"
       xlink:href="#linearGradient9"
       id="linearGradient11"
       x1="85.083145"
       y1="118.93536"
       x2="87.701202"
       y2="118.41686"
       gradientUnits="userSpaceOnUse"
       gradientTransform="matrix(0.44766409,0,0,0.44766409,-6.6058086,3.4738444)" /><linearGradient
       inkscape:collect="always"
       xlink:href="#linearGradient15"
       id="linearGradient12"
       gradientUnits="userSpaceOnUse"
       x1="88.58345"
       y1="118.56045"
       x2="86.541367"
       y2="118.32481"
       gradientTransform="matrix(0.44766409,0,0,0.44766409,-6.6058086,3.4738444)" /><linearGradient
       inkscape:collect="always"
       xlink:href="#linearGradient16"
       id="linearGradient17"
       x1="-5.0648389"
       y1="221.58975"
       x2="-28.27463"
       y2="184.2666"
       gradientUnits="userSpaceOnUse" /><linearGradient
       id="linearGradient16"
       inkscape:collect="always"><stop
         style="stop-color:#000000;stop-opacity:1;"
         offset="0"
         id="stop16" /><stop
         style="stop-color:#ffffff;stop-opacity:1;"
         offset="1"
         id="stop17" /></linearGradient><filter
       id="filter5766-5"
       y="-0.11547091"
       width="1.1568615"
       x="-0.078430743"
       height="1.2309418"><feGaussianBlur
         id="feGaussianBlur5768-5"
         stdDeviation="7.3557177" /></filter><linearGradient
       inkscape:collect="always"
       xlink:href="#linearGradient18"
       id="linearGradient19"
       x1="294.01291"
       y1="210.71982"
       x2="124.69785"
       y2="85.256172"
       gradientUnits="userSpaceOnUse" /></defs><rect
     id="rect12935"
     ry="239.57405"
     height="479.13696"
     width="1230.1616"
     y="1849.1118"
     x="1098.4496"
     stroke-width="1.57535px"
     fill="url(#linearGradient16228)"
     style="fill:url(#linearGradient16228);fill-rule:evenodd;stroke:#000000"
     transform="matrix(0.99804342,-0.0625246,-0.69228324,0.72162589,0,0)"
     clip-path="url(#clipPath5)" /><path
     id="path16014"
     stroke-width="1.00002px"
     fill="url(#linearGradient16230)"
     d="M 220.78884,1556.7998 -8.1661594,1617.644 -153.494,1586.715 l 23.40968,-104.5838 178.446093,-116.9723 228.934037,-60.8353 145.3411,30.9281 -23.41896,104.5844 -178.43442,116.9641 z"
     style="fill:url(#linearGradient16230);fill-rule:evenodd;stroke:#000000"
     clip-path="url(#clipPath4)" /><path
     id="path16016"
     stroke-width="1.00002px"
     fill="url(#linearGradient16232)"
     d="m 668.1308,1380.1747 a 82.929405,296.64291 80.407025 1 1 -557.214,34.9079 82.929405,296.64291 80.407025 1 1 557.214,-34.9079 z"
     style="fill:url(#linearGradient16232);fill-rule:evenodd;stroke:#000000"
     clip-path="url(#clipPath3)" /><path
     id="path16053"
     stroke-width="1.00002px"
     fill="url(#linearGradient16234)"
     d="m 957.14969,1517.1213 -218.02491,-22.9751 -152.49174,159.2541 -3.81414,-128.2807 -294.15289,124.3341 212.60788,-158.4222 -263.59669,16.6643 304.47381,-95.7339 -78.55161,-100.8345 217.94797,23.0553 152.49174,-159.2541 3.81414,128.2808 294.22985,-124.4143 -212.69811,158.5032 263.67361,-16.7446 -304.55073,95.8142 z"
     style="fill:url(#linearGradient16234);fill-rule:evenodd;stroke:#000000"
     clip-path="url(#clipPath2)" /><path
     id="path16057"
     stroke-width="1.00002px"
     fill="url(#linearGradient16236)"
     d="m -54.768081,1424.3821 a 88.208839,251.77146 74.9158 1 1 -443.502539,27.7842 88.208839,251.77146 74.9158 1 1 443.502539,-27.7842 z"
     style="fill:url(#linearGradient16236);fill-rule:evenodd;stroke:#000000"
     clip-path="url(#clipPath1)" /><metadata
     id="metadata1"><rdf:RDF><cc:Work><dc:format>image/svg+xml</dc:format><dc:type
           rdf:resource="http://purl.org/dc/dcmitype/StillImage" /><cc:license
           rdf:resource="http://creativecommons.org/publicdomain/zero/1.0/" /><dc:publisher><cc:Agent
             rdf:about="http://openclipart.org/"><dc:title>Openclipart</dc:title></cc:Agent></dc:publisher><dc:date>2010-03-14T20:22:49</dc:date><dc:description>A blue pin.</dc:description><dc:source>http://openclipart.org/detail/31699/pin-by-remi_inconnu</dc:source><dc:creator><cc:Agent><dc:title>remi_inconnu</dc:title></cc:Agent></dc:creator><dc:subject><rdf:Bag><rdf:li>blue</rdf:li><rdf:li>clip art</rdf:li><rdf:li>clipart</rdf:li><rdf:li>office</rdf:li><rdf:li>photorealistic</rdf:li><rdf:li>pin</rdf:li><rdf:li>school</rdf:li></rdf:Bag></dc:subject></cc:Work><cc:License
         rdf:about="http://creativecommons.org/publicdomain/zero/1.0/"><cc:permits
           rdf:resource="http://creativecommons.org/ns#Reproduction" /><cc:permits
           rdf:resource="http://creativecommons.org/ns#Distribution" /><cc:permits
           rdf:resource="http://creativecommons.org/ns#DerivativeWorks" /></cc:License></rdf:RDF></metadata><g
     id="g21"
     transform="matrix(-1,0,0,1,63.999999,6.430074e-7)"><g
       id="g5796"
       transform="matrix(0.26198011,5.2078106e-4,-5.2078106e-4,0.26198011,33.689642,2.0465029)"
       style="opacity:0.7;fill:url(#linearGradient17)"><path
         id="path5266"
         opacity="0.5"
         filter="url(#filter5766)"
         transform="matrix(0.83168,0.11563,-0.3233,0.8085,-181.46379,17.226064)"
         d="m 223.11,162.74 c -16.13,6.93 -34.36,10.06 -47.6,8.16 -5.92,-0.85 -10.05,-2.56 -14.17,-5.85 -11.66,-9.33 -15.75,-20.76 -11.09,-30.98 0.6,-1.31 0.8,-2.17 0.54,-2.35 -0.48,-0.33 -40.15,-32.99 -41.29,-33.992 -0.77,-0.678 -0.81,-0.684 -2.05,-0.401 -9.183,2.081 -18.737,2.279 -24.487,0.509 -2.466,-0.759 -3.085,-1.11 -8.525,-4.84 -4.547,-3.117 -4.623,-3.18 -5.091,-4.201 -4.125,-9 23.003,-26.165 47.753,-30.216 6.89,-1.127 13.21,-0.963 16.7,0.433 3.82,1.528 10.7,6.617 11.93,8.825 1.21,2.173 0.89,5.098 -0.91,8.32 -0.77,1.383 -4.49,5.706 -5.2,6.046 -0.19,0.092 -0.2,0.273 -0.01,0.401 0.18,0.128 11.35,6.953 24.81,15.165 13.46,8.211 24.67,15.071 24.92,15.241 0.24,0.17 0.48,0.21 0.52,0.09 0.04,-0.11 1.38,-0.31 2.97,-0.43 9.29,-0.71 20.15,0.2 30.04,2.52 3.79,0.9 9.78,2.84 13.39,4.37 5.49,2.31 7.25,3.27 11.8,6.41 4.13,2.86 4.17,2.89 4.76,4.07 1.43,2.87 1.39,5.83 -0.13,9.6 -2.4,5.93 -10.7,13.48 -20.45,18.61 -0.865,0.455 39.84625,30.05772 39.0975,30.45772 -0.74875,0.4 22.94542,21.8571 22.67542,22.0121 -0.27,0.15 -26.71577,-18.3483 -27.62202,-17.9358 C 265.48465,193.19652 224.215,162.26 223.11,162.74 Z"
         style="opacity:1;mix-blend-mode:normal;fill:url(#linearGradient19);filter:url(#filter5766-5)"
         sodipodi:nodetypes="cccccccccccsccccccccccccccscsc" /></g><g
       id="g5624"
       transform="matrix(0.26173869,0.01126886,-0.01126886,0.26173869,-68.260498,24.250111)"><path
         id="path5626"
         fill="#b8b17a"
         d="m 380.64,53.631 11.52,-0.366 c 0,0 0.94,21.265 1.28,29.288 -0.31,0.811 -0.77,1.009 -1.56,1.421 -0.78,0.405 -2.19,0.293 -3.95,0.022 -1.76,-0.27 -2.67,-0.894 -3.46,-1.443 -0.87,-0.612 -0.89,-0.571 -1.83,-2.014 -0.92,-1.415 -1.1,-2.746 -1.1,-2.746 z" /><g
         id="g5628"
         transform="translate(0.3661,-46.129)"
         clip-path="url(#clipPath5568)"><path
           id="path5630"
           d="m 413.28,131.73 c 0.46,-0.24 0.95,-0.67 1.11,-0.98 0.1,-0.19 -0.84,-24.13 -1.12,-28.41 l -0.07,-1.2 h 0.65 c 0.57,0 0.66,0.04 0.71,0.29 0.03,0.16 0.15,2.63 0.27,5.47 0.11,2.85 0.29,6.72 0.4,8.59 0.1,1.88 0.24,5.08 0.31,7.12 0.07,2.04 0.17,4.66 0.21,5.81 l 0.09,2.11 -0.53,0.5 c -0.53,0.51 -1.48,0.92 -2.09,0.91 h -0.33 z"
           clip-path="url(#clipPath5476)"
           transform="matrix(2.5569,0.036779,-0.042224,1.0598,-663.15,-23.945)"
           filter="url(#filter5470)"
           fill="#85807d" /><path
           id="path5632"
           d="m 402.08,123.82 c -0.76,-0.52 -0.97,-0.72 -1.37,-1.24 -0.78,-1.03 -1.37,-2.23 -1.6,-3.24 -0.08,-0.38 -0.18,-2.67 -0.52,-11.8 -0.23,-6.23 -0.43,-11.632 -0.45,-12.009 l -0.04,-0.686 0.85,-0.041 c 0.48,-0.022 0.87,-0.031 0.88,-0.02 0.01,0.012 0.21,5.636 0.44,12.496 0.45,13.31 0.41,12.61 0.79,13.79 0.25,0.77 0.99,2.19 1.5,2.86 0.09,0.12 0.14,0.23 0.13,0.25 -0.02,0.01 -0.29,-0.15 -0.61,-0.36 z"
           clip-path="url(#clipPath5558)"
           transform="matrix(1.768,0,0,1.1557,-325.37,-11.57)"
           filter="url(#filter5554)"
           fill="#464845" /></g></g><g
       id="g5392"
       transform="matrix(0.26198011,5.2078106e-4,-5.2078106e-4,0.26198011,-41.941558,16.184419)"><g
         id="g4241"
         fill="#347fb6"
         transform="translate(19.933,184.31)"><path
           id="path3339"
           d="m 256.7,-84.119 c -20.11,-1.614 -35.81,-8.712 -39.26,-17.741 -0.8,-2.1 -1.02,-4.3 -0.73,-7.24 1.2,-11.98 7.64,-22.51 18.37,-30.05 1.38,-0.97 5.97,-3.66 5.95,-3.49 -0.03,0.27 1.24,7.07 1.13,7.96 -0.56,4.52 6,6.58 15.7,8.18 3.01,0.49 7.79,0.81 10.75,0.36 6.17,-0.93 9.13,-2.14 11.98,-4.77 1.91,-1.76 2.54,-1.98 2.1,-4.34 -0.56,-3.02 0.85,-4.57 0.71,-6.37 l 0.25,-1.87 2.51,0.81 c 10.79,5.41 18.89,14.27 22.42,24.54 1.5,4.35 1.93,6.89 1.95,11.53 0.01,4.39 0.01,4.41 -0.76,5.96 -0.99,1.98 -4.73,5.788 -7.38,7.506 -6.42,4.172 -15.39,7.041 -26.79,8.576 -2.75,0.369 -15.98,0.684 -18.9,0.449 z" /><path
           id="path4237"
           d="m 256.7,-84.119 c -20.11,-1.614 -35.81,-8.712 -39.26,-17.741 -0.8,-2.1 -1.02,-4.3 -0.73,-7.24 1.2,-11.98 7.64,-22.51 18.37,-30.05 1.38,-0.97 5.97,-3.66 5.95,-3.49 -0.03,0.27 -0.83,6.81 -0.94,7.7 -0.56,4.52 6,8.91 15.7,10.51 3.01,0.49 10.64,0.55 13.59,0.11 6.17,-0.94 11.21,-2.93 14.06,-5.55 1.91,-1.76 2.54,-3.54 2.1,-5.9 -0.56,-3.01 -0.71,-4.05 -0.84,-5.85 l -0.14,-1.87 1.6,0.81 c 10.79,5.41 18.89,14.27 22.42,24.54 1.5,4.35 1.93,6.89 1.95,11.53 0.01,4.39 0.01,4.41 -0.76,5.96 -0.99,1.98 -4.73,5.788 -7.38,7.506 -6.42,4.172 -15.39,7.041 -26.79,8.576 -2.75,0.369 -15.98,0.684 -18.9,0.449 z" /></g><path
         id="path3997"
         fill-rule="evenodd"
         fill="#347fb6"
         d="m 299.89,-9.0982 c -5.2,1.3123 -11.19,2.0625 -17.59,2.0625 -5.96,0 -11.59,-0.6352 -16.54,-1.7812 l -5.87,56.031 c -0.23,0.586 -0.32,1.199 -0.34,1.813 -0.01,0.082 -0.03,0.167 -0.04,0.25 0.01,0.71 0.15,1.391 0.44,2.062 0.31,0.691 0.77,1.366 1.35,2 0.57,0.635 1.27,1.217 2.09,1.782 0.82,0.564 1.78,1.113 2.81,1.593 1.04,0.481 2.16,0.9 3.38,1.282 1.21,0.381 2.51,0.731 3.87,1 1.37,0.268 2.8,0.483 4.28,0.625 1.49,0.141 3.05,0.187 4.63,0.187 1.57,0 3.11,-0.046 4.59,-0.187 1.49,-0.142 2.92,-0.357 4.28,-0.625 1.37,-0.269 2.66,-0.619 3.88,-1 1.21,-0.382 2.34,-0.801 3.37,-1.282 1.04,-0.48 1.99,-1.029 2.82,-1.593 0.82,-0.565 1.51,-1.147 2.09,-1.782 0.58,-0.634 1.04,-1.309 1.34,-2 0.16,-0.35 0.14,-0.7 0.22,-1.062 0.02,-0.296 0.1,-0.576 0.1,-0.875 0,-0.554 -0.14,-1.083 -0.19,-1.625 -0.07,-0.234 -0.03,-0.491 -0.13,-0.719 -0.09,-0.218 -0.25,-0.412 -0.37,-0.625 l -4.47,-55.531 z" /><path
         id="path3271"
         d="m 374.15,12.455 51.26,4.027 c 0,0 -5.86,6.224 -11.9,9.153 -6.04,2.929 -12.45,3.295 -13.36,5.491 -2.95,18.527 -1.85,35.783 -2.93,54.549 -0.37,2.014 -28.19,-1.83 -29.29,-1.83 -1.1,0 4.39,-40.454 4.03,-49.058 -0.37,-8.603 2.56,-21.966 2.19,-22.332 z"
         clip-path="url(#clipPath3315)"
         transform="translate(-121.89,-25.674)"
         filter="url(#filter3305)"
         fill="#32597d" /><path
         id="path4003"
         filter="url(#filter4282)"
         fill="#004080"
         d="m 279.68,61.223 c -4.3,-0.291 -8.63,-1.255 -12.07,-2.683 -3.24,-1.35 -5.84,-3.41 -6.82,-5.408 -0.41,-0.844 -0.56,-1.451 -0.55,-2.316 v -0.613 l 0.18,0.488 c 1.46,4.056 8.02,7.415 16.66,8.527 4.31,0.555 10.05,0.411 14.18,-0.358 2.48,-0.46 4.96,-1.183 7.09,-2.062 3.7,-1.534 6.65,-4.053 7.19,-6.159 0.07,-0.266 0.08,-0.133 0.05,0.584 -0.07,1.495 -0.48,2.408 -1.65,3.669 -3.16,3.409 -9.86,5.791 -17.8,6.338 -1.53,0.105 -4.85,0.101 -6.46,-0.007 z" /><path
         id="path3343"
         d="m 151.57,-111.84 5.85,15.38 c 0,0 -10.98,6.59 -10.98,10.983 0,4.394 6.59,8.055 8.79,14.644 2.19,6.59 10.25,17.573 8.05,25.627 -2.2,8.055 -46.86,13.912 -46.86,13.912 l -29.288,-43.2 23.428,-33.676 z"
         clip-path="url(#clipPath3345)"
         transform="translate(107.41,147.8)"
         filter="url(#filter4901)"
         fill="url(#linearGradient5853)"
         style="fill:url(#linearGradient5853)" /><path
         id="path4083"
         d="m 420.67,74.603 c 0,0 3.16,0.412 5.43,1.295 2.28,0.882 6.42,2.328 9.32,5.177 2.91,2.849 6.79,10.378 8.29,14.238 1.49,3.86 2.45,8.307 2.33,10.877 -0.13,2.56 -0.95,4.27 -1.82,5.69 -0.86,1.42 -3.62,3.63 -3.62,3.63 l 2.33,2.07 13.46,-13.47 -9.06,-37.273 -17.34,-5.695 -11.14,6.731 z"
         clip-path="url(#clipPath4149)"
         transform="translate(-121.41,-28.088)"
         filter="url(#filter4145)"
         fill="#366889" /><path
         id="path4155"
         d="m 322.59,66.739 c -17.06,-1.072 -31.93,-6.644 -37.98,-14.228 -1.52,-1.912 -2.77,-4.897 -2.74,-6.584 0.01,-0.492 0.01,-0.492 0.26,0.1 1.15,2.645 4.24,5.856 7.88,8.189 7.92,5.083 19.24,8.22 32.67,9.058 13.12,0.818 27.18,-1.213 37.34,-5.394 2.98,-1.226 7.03,-3.486 8.99,-5.023 2.67,-2.083 5.33,-5.187 5.95,-6.945 0.21,-0.588 0.24,-0.611 0.27,-0.205 0.07,0.887 0.32,-1.395 0.36,-3.203 0.04,-1.618 0.06,-1.724 0.18,-0.916 0.21,1.348 0.21,5.201 -0.01,6.332 -0.1,0.54 -0.43,1.478 -0.72,2.084 l -0.54,1.103 0.08,-0.732 c 0.07,-0.638 0.04,-0.608 -0.17,0.232 -0.31,1.198 -0.55,1.554 -2.08,3.183 -8.42,8.934 -28.88,14.259 -49.74,12.949 z"
         clip-path="url(#clipPath4221)"
         transform="translate(-46.132,33.336)"
         filter="url(#filter4969)"
         fill="#67a6c0" /><path
         id="path5007"
         filter="url(#filter5003)"
         fill="#c3f2ff"
         d="m 290.86,71.996 3.37,5.695 8.8,-3.106 -2.85,-5.695 z" /><path
         id="path4973"
         filter="url(#filter5118)"
         fill="#c3f2ff"
         d="m 289.03,58.049 0.44,1.485 5.51,-1.276 -0.29,-1.119 z" /><path
         id="path19345"
         fill-rule="evenodd"
         fill="#347fb6"
         d="m 246.42,-31.761 v 9.594 h 0.09 c 0.42,8.659 16.32,15.625 35.85,15.625 19.52,2e-4 35.39,-6.966 35.81,-15.625 h 0.09 v -8.312 c 0,7.14 -16.05,12.937 -35.84,12.937 -19.79,0 -35.84,-5.797 -35.84,-12.937 0,-0.437 0.07,-0.856 0.18,-1.282 z m 71.84,1.282 v -1.282 h -0.18 c 0.11,0.425 0.18,0.846 0.18,1.282 z" /><path
         id="path3259"
         d="m 326.71,-195.52 c -16.79,-0.62 -30.37,-6.44 -32.51,-13.93 -0.17,-0.61 -0.22,-1.53 -0.25,-5.02 -0.04,-3.94 -0.03,-4.22 0.14,-3.59 0.11,0.38 0.4,1.07 0.65,1.54 0.25,0.47 0.45,1.04 0.45,1.27 0,0.59 0.47,2.32 0.84,3.14 1.6,3.49 5.79,6.99 11.4,9.53 5.85,2.65 12.45,4.27 20.45,5.02 2.78,0.27 10.34,0.23 12.94,-0.06 6.73,-0.76 11.41,-1.97 15.79,-4.1 5,-2.43 7.95,-5.45 8.67,-8.86 0.22,-1.05 0.39,-1.3 0.26,-0.4 -0.33,2.39 -1.08,3.9 -2.87,5.78 -4.59,4.8 -13.74,8.2 -25.15,9.36 -1.74,0.18 -3.37,0.27 -6.86,0.38 -0.75,0.02 -2.52,0 -3.95,-0.06 z"
         clip-path="url(#clipPath3261)"
         transform="translate(-47.13,188.63)"
         filter="url(#filter3253)"
         fill="#365677" /><path
         id="path5171"
         fill-rule="evenodd"
         fill="#336894"
         transform="matrix(1.1078,0,0,0.94286,-162.37,-39.616)"
         d="m 433.87,9.8854 a 32.36,13.720424 0 1 1 -64.72,0 32.36,13.720424 0 1 1 64.72,0 z" /></g><path
       id="rect5"
       style="fill:url(#linearGradient6);fill-rule:evenodd;stroke-width:1.13333;stroke-linejoin:round;paint-order:stroke fill markers"
       d="m 30.718363,42.593809 h 3.057983 v 10.744085 l -1.528992,6.758081 -1.528991,-6.758081 z"
       sodipodi:nodetypes="cccccc" /><path
       style="fill:url(#linearGradient11);fill-opacity:1;fill-rule:evenodd;stroke-width:0.895328;stroke-linejoin:round;paint-order:stroke fill markers"
       d="m 30.718363,53.337894 h 3.057983 l -1.528992,6.758081 z"
       id="path9" /><path
       style="fill:url(#linearGradient12);fill-opacity:1;fill-rule:evenodd;stroke-width:0.895328;stroke-linejoin:round;paint-order:stroke fill markers"
       d="m 30.718363,53.337894 h 3.057983 l -1.528992,6.758081 z"
       id="path9-4" /></g></svg>
