<?xml version="1.0" encoding="UTF-8" standalone="no"?>
<!-- Created with Inkscape (http://www.inkscape.org/) -->

<svg
   width="64"
   height="64"
   viewBox="0 0 16.933333 16.933333"
   version="1.1"
   id="svg1"
   xml:space="preserve"
   inkscape:version="1.4.2 (ebf0e94, 2025-05-08)"
   sodipodi:docname="pluginRawIO.svg"
   xmlns:inkscape="http://www.inkscape.org/namespaces/inkscape"
   xmlns:sodipodi="http://sodipodi.sourceforge.net/DTD/sodipodi-0.dtd"
   xmlns="http://www.w3.org/2000/svg"
   xmlns:svg="http://www.w3.org/2000/svg"><sodipodi:namedview
     id="namedview1"
     pagecolor="#ffffff"
     bordercolor="#000000"
     borderopacity="0.25"
     inkscape:showpageshadow="2"
     inkscape:pageopacity="0.0"
     inkscape:pagecheckerboard="0"
     inkscape:deskcolor="#d1d1d1"
     inkscape:document-units="mm"
     inkscape:zoom="11.816274"
     inkscape:cx="29.027763"
     inkscape:cy="51.750662"
     inkscape:window-width="3840"
     inkscape:window-height="2054"
     inkscape:window-x="-11"
     inkscape:window-y="-11"
     inkscape:window-maximized="1"
     inkscape:current-layer="layer1" /><defs
     id="defs1"><filter
       inkscape:collect="always"
       style="color-interpolation-filters:sRGB"
       id="filter9"
       x="-0.074618631"
       y="-0.13522649"
       width="1.1492373"
       height="1.270453"><feGaussianBlur
         inkscape:collect="always"
         stdDeviation="4.7841075"
         id="feGaussianBlur9" /></filter></defs><g
     inkscape:label="Ebene 1"
     inkscape:groupmode="layer"
     id="layer1"><path
       style="opacity:0.77571;fill:#000000;fill-opacity:1;fill-rule:evenodd;stroke:none;stroke-width:0.499999;stroke-linecap:round;stroke-linejoin:round;stroke-opacity:1;paint-order:stroke fill markers;filter:url(#filter9)"
       d="m 35.282548,106.32186 65.024672,64.12907 87.77442,-23.2871 L 95.649817,85.542575 34.207758,103.45573 Z"
       id="path9"
       sodipodi:nodetypes="cccccc"
       transform="matrix(0.10252469,0,0,0.12283292,-3.517312,-5.7572706)" /><path
       style="fill:#f2f2f2;fill-opacity:1;fill-rule:evenodd;stroke:none;stroke-width:0.05611;stroke-linecap:round;stroke-linejoin:round;stroke-opacity:1;paint-order:stroke fill markers"
       d="m 1.018942,5.9484541 5.3259663,5.9408749 0.8264427,2.37635 1.5426943,-0.19803 7.5481787,-2.948434 0.275482,-0.6821 -0.0551,-2.662392 L 12.276933,5.2443503 9.1118645,3.5156798 8.034001,2.8622169 5.7419195,3.1267138 1.2668751,4.5952546 Z"
       id="path10" /><g
       id="g8"
       transform="matrix(0.10252469,0,0,0.12283292,-3.517312,-5.7572706)"><path
         style="fill:#cacac7;fill-opacity:1;fill-rule:evenodd;stroke:none;stroke-width:0.499999;stroke-linecap:round;stroke-linejoin:round;stroke-opacity:0.996078;paint-order:stroke fill markers"
         d="M 70.015832,108.88697 50.421,91.87022 l -1.06802,2.645695 0.638334,10.533845 0.477917,4.21331 4.792456,6.39472 14.288669,12.79779 0.748665,-9.08491 z"
         id="path5" /><path
         style="fill:#cacac7;fill-opacity:1;fill-rule:evenodd;stroke:none;stroke-width:0.499999;stroke-linecap:round;stroke-linejoin:round;stroke-opacity:1;paint-order:stroke fill markers"
         d="m 39.522468,77.180903 2.440303,-1.765374 22.385797,-3.166081 28.083472,-5.614263 21.33054,-2.030505 3.0256,3.353938 -15.60434,2.402768 -16.94154,5.429825 -19.658067,1.993788 -12.049342,2.789058 -3.948234,-0.01516 -3.296424,3.021258 -2.391368,-2.742078 z"
         id="path6"
         sodipodi:nodetypes="cccccccccccccc" /><path
         style="fill:#cacac7;fill-opacity:1;fill-rule:evenodd;stroke:none;stroke-width:0.499999;stroke-linecap:round;stroke-linejoin:round;stroke-opacity:1;paint-order:stroke fill markers"
         d="m 89.045554,122.48514 12.286516,11.01986 15.70647,-6.20659 62.06589,-14.94648 15.88019,-4.51478 -2.28393,-1.8361 -13.25573,-6.269597 -2.19436,-0.268698 -3.17958,0.761305 -14.68878,4.61264 -12.98704,3.62741 -13.70355,3.62741 -11.28529,2.06002 -10.30006,1.70175 -9.49397,1.20913 -6.448731,0.94044 -3.851325,1.61219 z"
         id="path8" /><path
         style="fill:#adaeab;fill-opacity:1"
         d="m 103.54474,165.96245 c -0.87359,-0.3916 -2.97524,-2.33254 -7.89278,-7.28919 -3.68618,-3.71551 -8.84932,-8.06529 -9.0424,-8.5278 -0.5451,-1.30576 0.71757,-10.34138 0.86824,-17.44271 0.14686,-6.92141 0.21629,-8.27469 1.68775,-10.43097 l 0.8395,-1.23022 0.69551,0.58558 c 0.96452,0.81207 6.96996,5.66584 9.58892,7.73497 l 2.16869,1.71339 1.60946,-0.81245 c 3.17486,-1.60266 24.26556,-7.43413 43.13336,-11.92614 3.71078,-0.88346 12.28328,-2.95831 19.05,-4.61079 21.41696,-5.23017 24.43891,-5.9422 25.95061,-6.11447 1.39854,-0.15938 1.7659,-0.38531 2.69812,0.43319 1.89553,1.6643 1.84012,1.99027 1.77596,10.25606 -0.0692,8.91076 -0.40936,14.85226 -0.98129,16.59113 -0.50357,1.53105 -1.99264,3.32627 -3.82666,4.25564 -2.86931,1.45399 -39.56425,13.62372 -58.16049,19.2887 -6.03911,1.83969 -13.18286,4.04494 -15.875,4.90055 -10.45661,3.32329 -12.06968,3.61972 -14.2875,2.62553 z m 11.42801,-6.51301 c 8.02708,-2.5989 16.19308,-4.00239 21.61337,-5.69666 18.92894,-5.91682 52.61495,-16.72475 54.42159,-17.6975 2.0764,-1.11801 1.54706,-1.32959 1.83159,-4.34377 0.13354,-1.41468 1.40755,-6.31926 1.43547,-10.61212 0.0467,-7.17959 -0.14486,-8.18017 -0.59067,-8.83715 -0.60798,-0.89591 -1.76716,-1.16251 -3.14093,-0.94284 -3.53677,0.56555 -60.85243,14.82205 -75.19761,18.70439 -7.25454,1.96335 -8.1553,3.26093 -9.50114,4.6807 -1.49227,1.57425 -0.9101,1.5707 -0.84442,13.79551 0.0588,10.94693 -0.11113,10.31715 0.48293,11.51354 1.34754,2.71387 1.601,1.99005 9.48982,-0.5641 z M 61.451985,120.02659 c -4.23567,-4.40859 -8.536478,-8.78347 -9.203618,-9.6942 -1.22807,-1.67646 -1.89221,-3.16895 -1.73539,-3.89978 0.0538,-0.25077 3.661108,3.08486 9.375518,8.67215 5.02047,4.90879 9.492273,9.6146 9.608373,9.79941 0.11609,0.1848 0.17563,1.05947 0.13229,1.94371 l -0.0788,1.6077 z m -19.64276,-14.85548 -4.798088,-5.09662 0.738896,-17.698673 1.772435,-5.194914 h 2e-6 l 3.376395,3.657174 c 0.837193,0.906813 1.687193,1.756089 1.734283,1.786739 0.0471,0.0306 0.362338,1.403356 -0.07683,2.009616 -1.34524,1.85706 -1.086364,2.178577 -1.086364,12.334517 0,5.056891 -0.443743,9.392701 -0.453343,9.392661 -0.009,-4e-5 -1.255288,-0.3521 -1.648958,-0.76301 z"
         id="path4"
         sodipodi:nodetypes="ssssscsscssssssssssssssssssssssssssssscscccccscssscc" /><path
         style="fill:#68b2dc;fill-opacity:1;fill-rule:evenodd;stroke:none;stroke-width:0.499999;stroke-linecap:round;stroke-linejoin:round;stroke-opacity:1;paint-order:stroke fill markers"
         d="m 44.752278,83.165735 3.792355,-1.951998 6.821723,-1.29508 5.023344,-1.078413 15.427701,-2.127186 9.428202,-1.663994 29.386297,-7.599907 3.1033,-0.189998 4.36994,1.963309 2.34331,2.723301 0.50666,2.786631 c 0,0 0.19,1.266651 -1.07666,0.823323 -1.26665,-0.443328 -3.86328,-0.759989 -3.86328,-0.759989 l -7.15658,1.963308 -5.95326,2.02664 -0.94999,1.266653 3.54663,2.343303 8.20156,2.533301 8.58156,1.931644 5.88993,1.108318 7.85323,1.108321 5.88993,0.664991 5.12993,0.158332 3.79996,0.06333 21.0264,9.024887 -0.56999,0.759989 -16.21313,5.193269 -19.56976,5.4466 -14.56648,3.41996 -16.40313,2.21664 -11.273193,1.64664 -7.579212,3.14652 c 0,0 -9.44867,5.37975 -9.806935,5.02149 -0.358261,-0.35827 -8.04187,-17.50956 -8.04187,-18.04788 0,-0.53833 4.876604,-10.608205 4.876604,-10.608205 l 0.823326,-7.02991 c 0,0 -4.876607,-4.433279 -5.003271,-4.433279 -0.126667,0 -9.594882,0.443328 -9.594882,0.443328 0,0 -11.526522,1.329984 -11.938185,1.393317 -0.41166,0.06333 -3.514955,0.854988 -3.831619,0.791657 -0.316661,-0.06333 -2.430465,-5.183163 -2.430465,-5.183163 z"
         id="path7" /><path
         style="fill:#4b8ebc;fill-opacity:1"
         d="m 79.55603,141.97667 c -7.15351,-6.85664 -8.11401,-7.91447 -8.54118,-9.40668 -0.41452,-1.44805 -0.867169,-13.09404 -0.693129,-17.83296 0.180079,-4.90308 0.501169,-6.03426 3.547079,-12.49622 2.48992,-5.28241 3.0552,-7.08805 2.92734,-9.35069 -0.12197,-2.15861 -0.69407,-3.07841 -2.53942,-4.08277 -2.24015,-1.21924 -5.415379,-1.60297 -11.837803,-1.43061 -5.887151,0.15799 -8.659472,1.332272 -10.299571,2.168992 -1.880454,0.95933 -2.92798,2.86947 -2.933171,8.06491 -0.0055,5.513278 1.851951,12.806878 2.749384,13.361518 0.574999,0.35537 -1.348089,-0.13239 -2.357431,-0.13239 -2.057089,0 -4.030373,-1.26236 -5.039355,-3.22382 -0.760689,-1.47877 -1.173398,-6.09598 -1.047251,-13.761595 0.115205,-7.0006 0.359538,-8.396125 1.560245,-9.963005 l 0.476932,-0.62239 1.301359,1.35499 1.301359,1.35499 1.086656,-0.54311 c 3.38913,-1.69385 19.416568,-3.03802 23.510347,-1.97173 3.40467,0.88681 5.62914,2.73234 6.37156,5.28616 0.77989,2.68272 0.14405,4.99033 -3.38911,12.29993 -2.5429,5.26091 -2.73994,5.92728 -2.09946,7.10013 0.35094,0.64262 12.50293,10.04875 15.78269,12.44489 l 0.61095,0.44635 -0.92907,1.54287 c -1.53815,2.55435 -1.61784,3.31822 -1.59696,15.30805 0.0103,5.92998 -0.33955,12.31746 -0.86946,12.25298 -0.0103,-0.01 -3.38207,-4.6497 -7.05353,-8.16879 z m 67.92643,-51.95412 c -18.43434,-1.35125 -40.03949,-6.42004 -44.93974,-10.54333 -0.95219,-0.80122 -1.11112,-1.90816 -0.37016,-2.57825 1.26564,-1.14459 6.07538,-2.93547 14.75053,-5.49227 2.03729,-0.60045 4.14144,-0.889607 4.27287,-1.016887 0.29477,-0.28546 1.10505,0.11056 2.07284,1.0131 0.77714,0.72474 1.15453,2.02976 0.89082,3.08046 -0.16155,0.64365 -0.17119,0.64554 -1.1536,0.22566 -1.46026,-0.6241 -4.15075,-0.681572 -6.76128,0.144658 -2.77858,0.87943 -9.14546,3.936917 -9.3505,4.471257 -0.61515,1.60306 3.64135,3.347742 13.8653,5.957882 10.25569,2.61824 22.05784,4.37852 29.44931,4.39233 1.19262,0.002 2.347,0.11946 2.56528,0.26053 0.38817,0.25086 -2.41399,0.29579 -5.29167,0.0849 z"
         id="path2"
         sodipodi:nodetypes="sssssssssssssscccsssssscsccscsssssssssscscc" /><path
         id="path1"
         style="fill:#000000"
         d="m 112.27579,64.093738 c -1.02174,-0.228505 -3.83649,0.1323 -19.84375,2.541446 -10.25922,1.544046 -20.55812,3.102684 -22.886454,3.463872 -7.23992,1.123112 -26.956591,4.923419 -27.582813,5.316471 -2.481754,0.617423 -3.602778,1.521151 -4.398698,3.777031 -0.65568,1.85845 -0.96335,8.527509 -0.68988,14.949475 0.13633,3.201458 0.05961,4.105291 0.136942,5.932457 0.07088,1.67475 4.784467,7.8444 6.634221,8.89299 1.201516,1.17309 2.587336,2.28113 3.49281,2.76573 0.299705,0.1604 1.397658,0.29145 2.440161,0.29145 h 1.895492 l 3.412711,3.27164 c 1.876878,1.79924 3.892331,3.87438 4.479313,4.6116 0.586983,0.73722 2.759417,2.91773 4.827096,4.8457 4.289889,4.00003 5.142678,5.05341 5.381583,6.64352 0.316989,2.10983 1.589526,4.03712 4.183726,6.33708 3.08866,2.73835 10.73629,10.25349 10.73629,10.55026 0,0.12504 0.52691,0.58988 1.17099,1.03302 0.80411,0.55324 1.37724,1.2414 1.82883,2.19573 0.48594,1.02689 1.5102,2.19997 3.92224,4.49223 4.07482,3.87247 4.3758,4.17307 7.79953,7.79797 1.54309,1.63377 3.29026,3.2155 3.89433,3.52537 0.96019,0.49259 1.3899,0.54349 3.47679,0.4129 2.30045,-0.14396 3.70384,-0.44554 6.21771,-1.33636 0.65484,-0.23205 4.16719,-1.32112 7.80521,-2.42 19.23068,-5.80878 58.71287,-18.64409 68.27697,-22.19658 4.44793,-1.65215 5.55036,-2.30894 6.84919,-4.07831 1.56006,-2.12521 1.74188,-3.65738 1.91461,-16.16077 0.10559,-7.64297 0.0609,-11.03424 -0.15502,-11.8277 -0.62938,-2.31279 -1.81264,-3.1318 -9.68158,-6.69985 -2.61937,-1.18772 -6.25079,-2.75421 -8.0698,-3.480924 -20.40593,-8.15241 -50.73222,-21.30497 -53.8825,-23.369116 -0.53952,-0.353518 -0.60287,-0.551503 -0.46043,-1.442289 0.27671,-1.730414 -0.34283,-3.635697 -1.56942,-4.826062 -1.2077,-1.172032 -9.53272,-5.357399 -11.5564,-5.809981 z m -1.11621,1.099674 c 1.3512,0 4.13771,1.168274 4.07831,1.709973 -0.0154,0.140162 -1.84904,0.635822 -4.07469,1.101225 -5.58027,1.166885 -12.56064,2.950295 -18.99574,4.852934 -7.07585,2.092088 -8.41272,2.346582 -21.56354,4.104659 -12.845995,1.717326 -19.90691,2.870612 -22.017262,3.596679 -3.080003,1.059676 -4.438385,2.221883 -5.234306,4.477763 -0.655699,1.858447 -0.963864,8.527509 -0.690397,14.949475 0.136329,3.20146 0.19838,5.87126 0.13746,5.93246 -0.06092,0.0612 -0.408301,-0.1683 -0.771529,-0.50953 l -0.613917,-0.5762 -5.16e-4,-10e-4 c -1.087014,-1.40341 -2.237563,-2.89623 -2.950725,-4.0473 -0.745464,-1.203205 -0.750126,-7.776187 -0.759126,-12.774413 -0.01383,-7.711195 0.980064,-9.85339 3.867464,-11.32644 0.156767,-0.0045 0.433438,-0.09789 0.920874,-0.270785 1.372991,-0.487012 22.507213,-4.368903 34.46198,-6.329846 11.41078,-1.871713 32.52268,-4.889624 34.20566,-4.889624 z m 5.6286,2.765206 c 0.62367,-0.01762 1.02933,0.07263 1.66036,0.258382 1.75908,0.517798 4.60878,2.19639 5.28909,3.115572 0.51481,0.695572 0.71581,2.733628 0.33124,3.355868 -0.0987,0.159736 -0.63977,0.04935 -1.39268,-0.283704 -1.53892,-0.680735 -3.24412,-0.560975 -6.43165,0.451135 -2.15101,0.68299 -8.57209,3.549638 -8.38036,3.741374 0.0506,0.05057 1.80765,-0.515302 3.90518,-1.257804 4.45485,-1.576968 8.11547,-2.415771 9.17619,-2.102714 0.39774,0.117389 3.58045,1.631102 7.07295,3.364135 7.84102,3.890837 10.01085,4.843975 30.10462,13.221416 8.86358,3.695382 16.40427,6.869992 16.75712,7.054866 0.59193,0.310142 0.32884,0.425564 -3.39876,1.496546 -2.22202,0.63842 -7.67146,2.33589 -12.10985,3.77187 -21.4772,6.94865 -31.57528,9.15125 -55.5625,12.12019 -9.21646,1.14074 -11.5163,1.80132 -13.89011,3.98942 -1.62869,1.50128 -2.45165,2.9675 -2.9006,5.16867 -0.57735,2.8307 -0.75548,9.92776 -0.42013,16.72818 0.16765,3.40015 0.2496,6.23744 0.1819,6.30504 -0.12802,0.12803 -4.46732,-3.9607 -10.97659,-10.34303 -3.94373,-3.86681 -4.60425,-4.77752 -4.91184,-6.77427 -0.3534,-2.29408 -0.635585,-14.50479 -0.41652,-18.01699 0.26123,-4.18823 0.45142,-4.82209 3.16622,-10.55801 1.13643,-2.40109 2.34144,-5.199061 2.67839,-6.217706 0.74591,-2.254961 0.80861,-4.658921 0.15296,-5.888013 -0.55769,-1.045452 -2.06974,-2.085606 -3.78013,-2.600358 -4.482413,-1.349007 -18.545159,-0.758673 -21.381123,0.89762 -0.436104,0.254698 -1.095395,1.052354 -1.465544,1.771985 -0.666295,1.295355 -0.673018,1.370398 -0.658358,7.532356 0.01598,6.720606 0.253329,8.756446 1.281576,11.002426 l 0.658874,1.43919 h -1.451074 c -2.503417,0 -4.78856,-1.71549 -5.426025,-4.07365 -0.369365,-1.36638 -0.750644,-7.776189 -0.759644,-12.774415 -0.01384,-7.711204 0.776451,-10.236835 3.663859,-11.70988 2.301017,-1.173892 8.882195,-2.437143 20.802865,-3.993554 10.629734,-1.387861 17.792974,-2.50418 20.108334,-3.133659 1.01865,-0.276941 4.59052,-1.299206 7.9375,-2.271696 7.81156,-2.269707 13.71257,-3.726213 17.81442,-4.397148 1.50448,-0.246087 2.34617,-0.372018 2.96984,-0.38964 z M 68.487769,88.20131 c 5.612591,0.449307 8.103541,2.321256 7.705471,5.708179 -0.24027,2.044355 -0.9305,3.789875 -3.58479,9.065081 -3.245186,6.44955 -3.243787,6.44413 -3.142446,16.77262 0.044,4.48403 0.0093,8.15309 -0.07648,8.15299 -0.334929,-4.2e-4 -15.807693,-15.84023 -17.015499,-17.41909 -0.705122,-0.92175 -1.451376,-2.23144 -1.658297,-2.91042 -0.212784,-0.69822 -0.504089,-3.61147 -0.67076,-6.70657 -0.316342,-5.874514 -0.146659,-8.085886 0.764295,-9.949777 0.873463,-1.787182 2.320763,-2.140823 11.016898,-2.691826 2.57307,-0.163034 4.790746,-0.170956 6.661609,-0.02119 z m -17.396871,6.63267 c -0.60773,-0.02137 0.238288,0.89004 4.365625,4.704106 2.510235,2.319704 6.409531,5.947554 8.665104,8.061524 3.756692,3.52086 4.715167,4.23954 4.337203,3.25458 -0.236918,-0.6174 -16.918405,-16.0044 -17.367932,-16.02021 z m 0.494544,3.538802 c -0.03981,1.43e-4 -0.09544,0.07021 -0.172083,0.201538 -0.14133,0.242155 -0.184678,0.629109 -0.09612,0.859896 0.248914,0.648664 0.370018,0.501259 0.361218,-0.440283 -0.004,-0.427493 -0.02667,-0.621388 -0.09302,-0.621151 z m 1.300695,1.044381 c -0.09936,-2.69e-4 -0.141593,0.192165 -0.141593,0.604617 0,0.44141 0.0893,0.8931 0.198438,1.00407 0.10914,0.11098 0.237493,-0.12179 0.285253,-0.51728 0.04776,-0.39549 -0.04154,-0.847177 -0.198437,-1.004074 -0.05737,-0.05737 -0.104781,-0.08723 -0.143661,-0.08733 z M 177.3881,100.11841 c 2.90961,0 15.82442,6.01045 17.99735,8.37572 1.16823,1.27164 1.29259,2.11907 1.29243,8.79584 -2e-4,8.03972 -0.42121,15.5765 -0.98341,17.60203 -0.53315,1.92086 -1.79555,3.24913 -4.16202,4.37854 -3.38614,1.61606 -38.25977,13.15191 -58.08999,19.21589 -6.91224,2.11372 -14.22087,4.37897 -16.24139,5.0338 -2.02052,0.65482 -5.16607,1.59965 -6.99027,2.09961 -3.85927,1.05771 -5.03502,1.11823 -6.66626,0.34261 -1.67083,-0.79445 -14.42935,-13.94471 -15.10192,-15.50137 -1.0816,-2.50336 -1.37307,-21.60528 -0.39274,-25.27288 0.72521,-2.71314 2.18474,-4.47116 4.64675,-5.59656 2.08462,-0.9529 4.07685,-1.35547 11.24479,-2.27221 22.99474,-2.94088 34.5192,-5.39624 53.18125,-11.33109 15.01817,-4.77603 18.79398,-5.86993 20.26543,-5.86993 z m -122.796124,0.79375 c -0.292356,0 -0.358335,1.40125 -0.07906,1.68052 0.09944,0.0994 0.293172,0.068 0.430464,-0.0692 0.300907,-0.3009 0.01518,-1.61127 -0.3514,-1.61127 z m -3.170349,0.79375 c -0.293385,0 -0.36657,1.39715 -0.08785,1.67587 0.304518,0.30452 0.352434,0.2018 0.352434,-0.74983 0,-0.50932 -0.119064,-0.92604 -0.264584,-0.92604 z m 4.7625,0.79375 c -0.293385,0 -0.36657,1.39715 -0.08785,1.67587 0.304518,0.30452 0.352434,0.2018 0.352434,-0.74983 0,-0.50932 -0.119064,-0.92604 -0.264584,-0.92604 z m -3.400309,0.65629 c -0.02265,0.002 -0.04581,0.009 -0.06925,0.0238 -0.276787,0.17107 -0.312655,1.00613 -0.05426,1.26453 0.0992,0.0992 0.263591,0.046 0.364836,-0.11783 0.224466,-0.36319 0.026,-1.18891 -0.241329,-1.17047 z m 4.959904,0.93121 c -0.277684,0 -0.320488,1.15074 -0.05271,1.41852 0.10108,0.10108 0.279959,0.0124 0.397392,-0.1974 0.240093,-0.42902 0.01659,-1.22112 -0.344682,-1.22112 z m -3.559473,0.36587 c -0.09375,0.005 -0.116788,0.16059 -0.116788,0.50643 0,0.36972 0.07649,0.87021 0.169498,1.11259 0.134902,0.35156 0.214285,0.36937 0.392741,0.0878 0.342637,-0.54053 0.274074,-1.17887 -0.165364,-1.54357 -0.130885,-0.10863 -0.21999,-0.16672 -0.280087,-0.1633 z m 5.334042,0.90021 c -0.24546,0.0132 -0.464553,0.96602 -0.26355,1.48983 h 5.17e-4 c 0.08788,0.229 0.266086,0.35025 0.396358,0.26975 0.298841,-0.18471 0.300692,-1.19184 0.0031,-1.6614 -0.04479,-0.0707 -0.09097,-0.10063 -0.136426,-0.0982 z m -3.500562,0.96789 c -0.04059,0.003 -0.08303,0.0267 -0.127124,0.0708 -0.14552,0.14552 -0.183502,0.58842 -0.08423,0.98392 0.120321,0.47942 0.268545,0.63063 0.444934,0.45424 0.14552,-0.14552 0.183502,-0.58791 0.08423,-0.98341 -0.09024,-0.35956 -0.196031,-0.53488 -0.31781,-0.52555 z m 5.076693,0.77773 c -0.103465,0.008 -0.147795,0.23936 -0.147795,0.72813 0,0.51417 0.0893,1.02544 0.198438,1.13636 0.109141,0.11092 0.23724,-0.18215 0.28422,-0.65112 0.04698,-0.46898 -0.04232,-0.98025 -0.198437,-1.13637 -0.05368,-0.0537 -0.099,-0.0799 -0.136426,-0.077 z m -3.445785,0.78497 c -0.09936,-2.7e-4 -0.141593,0.19217 -0.141593,0.60461 0,0.44142 0.0893,0.8931 0.198438,1.00408 0.10914,0.11097 0.237493,-0.12178 0.285253,-0.51728 0.04776,-0.39549 -0.04154,-0.84718 -0.198437,-1.00408 -0.05737,-0.0574 -0.104781,-0.0872 -0.143661,-0.0873 z m 5.297868,0.80253 c -0.103464,0.008 -0.147794,0.23936 -0.147794,0.72813 0,0.51417 0.0893,1.02544 0.198437,1.13636 0.10914,0.11092 0.237241,-0.18215 0.284221,-0.65112 0.04698,-0.46898 -0.04232,-0.98025 -0.198438,-1.13637 -0.05368,-0.0537 -0.099,-0.08 -0.136426,-0.077 z m -3.617867,0.69247 c -0.275386,0 -0.317578,1.41564 -0.05013,1.6831 0.10108,0.10108 0.273737,0.0228 0.383956,-0.17415 0.238505,-0.42619 -9.13e-4,-1.50895 -0.33383,-1.50895 z m 5.469951,1.15962 c -0.103465,0.008 -0.147795,0.23935 -0.147795,0.72812 0,0.51417 0.0893,1.02543 0.198438,1.13636 0.10914,0.11092 0.23724,-0.18215 0.28422,-0.65112 0.04698,-0.46897 -0.04232,-0.98023 -0.198438,-1.13636 -0.05368,-0.0537 -0.099,-0.08 -0.136425,-0.077 z m -3.587378,0.69246 c -0.293386,0 -0.366571,1.39715 -0.08785,1.67587 0.304517,0.30452 0.352433,0.2018 0.352433,-0.74983 0,-0.50932 -0.119062,-0.92604 -0.264583,-0.92604 z m 130.034959,0 c -2.01123,0 -67.03119,16.14643 -79.97548,19.86029 -4.83469,1.38713 -6.69444,2.7463 -7.11275,5.19813 -0.11898,0.69736 -0.20166,6.14919 -0.18396,12.11554 0.0358,12.04294 0.0723,12.32334 1.73787,13.37231 1.63942,1.03252 3.41593,0.68129 14.50144,-2.86752 5.45703,-1.74696 14.62484,-4.62517 20.37292,-6.396 10.95304,-3.37434 19.38957,-6.07152 36.11563,-11.5471 13.25157,-4.33814 13.8013,-4.53359 14.98978,-5.32008 1.82476,-1.20757 2.00894,-1.76605 2.32389,-7.0528 0.37079,-6.22417 0.36448,-14.66411 -0.0119,-15.74375 -0.34602,-0.9926 -1.41277,-1.61902 -2.75745,-1.61902 z m -0.12144,1.05834 c 1.2467,0 1.82852,0.45583 2.09599,1.64176 0.22067,0.97844 -0.0884,15.39136 -0.38137,17.78031 -0.24177,1.97171 -0.74731,2.70673 -2.45153,3.5636 -1.51992,0.7642 -27.53698,9.22494 -46.09744,14.99082 -5.45703,1.69525 -15.33923,4.78924 -21.96042,6.87555 -6.6212,2.08632 -12.51479,3.91999 -13.09687,4.0752 -0.58208,0.15522 -1.17739,0.27837 -1.32292,0.27337 -0.69272,-0.0232 -1.99334,-0.81436 -2.42724,-1.4764 -0.44889,-0.68496 -0.48318,-1.54965 -0.48318,-12.25816 0,-11.17696 0.0166,-11.55239 0.55346,-12.57598 0.75761,-1.44437 1.93274,-1.98557 7.78092,-3.58066 9.5182,-2.59608 76.85018,-19.30941 77.7906,-19.30941 z m -124.474058,0.10128 c -0.103465,0.008 -0.147795,0.23936 -0.147795,0.72812 0,0.51418 0.0893,1.02545 0.198438,1.13637 0.109141,0.11092 0.23724,-0.18215 0.28422,-0.65113 0.04698,-0.46897 -0.04232,-0.98024 -0.198437,-1.13636 -0.05368,-0.0537 -0.099,-0.08 -0.136426,-0.077 z M 62.79406,113.083 c -0.292261,0 -0.358024,1.4001 -0.07906,1.68 0.09944,0.0995 0.293174,0.0686 0.430465,-0.0687 0.300908,-0.30091 0.01518,-1.61127 -0.3514,-1.61127 z m 1.852083,1.85208 c -0.293574,0 -0.358547,1.6651 -0.07596,1.94768 0.101079,0.10108 0.290315,-0.006 0.420646,-0.23926 0.277325,-0.49556 0.03274,-1.70842 -0.344682,-1.70842 z m 1.865003,2.11667 c -0.375399,0 -0.342559,0.97027 0.05633,1.67121 0.323656,0.56876 0.330172,0.56598 0.416512,-0.17208 0.103354,-0.8835 -0.09094,-1.49913 -0.472839,-1.49913 z m 45.227214,3.57755 c -2.61365,-0.0114 -5.58019,0.9098 -7.09311,2.63292 -0.45985,0.52373 -0.83612,1.06723 -0.83612,1.20768 0,0.43417 0.29477,0.28955 1.34513,-0.65939 2.91637,-2.63476 7.6833,-3.24491 10.22212,-1.30845 0.93812,0.71551 1.44965,0.66735 0.971,-0.0915 -0.75663,-1.19951 -2.57618,-1.77239 -4.60902,-1.78129 z m 75.61967,0.42117 c -0.4572,-0.0262 -1.09899,0.10725 -2.06034,0.39274 -1.17003,0.34746 -1.59295,0.36591 -2.38693,0.10387 -1.07962,-0.3563 -1.21971,-0.32134 -21.55476,5.43067 -5.52979,1.56417 -10.24273,2.89666 -10.47378,2.96106 -0.91736,0.0525 -7e-5,-2.6e-4 -2.46858,0.60669 -1.03778,0.25515 -1.59663,1.05833 -0.93689,1.05833 0.17586,0 3.96567,-1.00323 8.42222,-2.22932 13.75626,-3.78464 25.46684,-6.79914 26.05888,-6.70864 0.33102,0.0506 -0.20225,0.2929 -1.28726,0.58498 -1.97895,0.53272 -23.37314,6.37015 -29.10417,7.94112 -4.15815,1.13982 -4.89479,1.42531 -4.89479,1.89911 0,0.20062 0.10974,0.36483 0.24391,0.36483 0.13418,0 7.01004,-1.8944 15.27969,-4.21008 19.48014,-5.45516 20.21216,-5.65086 20.39979,-5.46323 0.30945,0.30945 0.57179,3.47844 0.41341,4.99453 -0.12155,1.16352 -0.29763,1.62815 -0.72037,1.90427 -0.30753,0.20087 -4.48821,1.49645 -9.29039,2.8789 -8.22192,2.3669 -42.83011,12.42992 -43.87278,12.75684 -0.40828,0.128 -0.46867,0.0197 -0.39687,-0.7121 0.10437,-1.06396 -2.78973,-0.13454 26.27798,-8.44186 12.80583,-3.6598 24.1763,-6.91882 25.26771,-7.24194 l 1.98438,-0.58704 v -2.01848 c 0,-1.11012 -0.0774,-2.09618 -0.1726,-2.19108 -0.20612,-0.20557 -2.82844,0.48697 -17.68678,4.6731 -6.18464,1.74243 -16.84073,4.71211 -23.68021,6.59908 -19.5097,5.38259 -18.12396,4.80981 -18.12396,7.49205 0,1.86527 0.32735,3.19312 0.95912,3.89123 0.89471,0.98864 0.44739,1.09925 26.82213,-6.64972 7.3488,-2.1591 16.51661,-4.83799 20.37292,-5.95313 12.12898,-3.50738 12.09209,-3.49398 12.48658,-4.39301 0.20982,-0.47818 0.60592,-0.84559 1.00717,-0.93379 1.72911,-0.3801 3.14858,-0.96258 3.64526,-1.49604 1.10263,-1.18426 1.35947,-5.26399 0.42426,-6.7386 -0.22421,-0.35353 -0.49675,-0.5391 -0.95395,-0.56534 z m -0.26148,1.079 c 0.90118,-0.0344 0.98179,0.6006 0.96687,2.74919 -0.0131,1.88277 -0.10111,2.32991 -0.54777,2.77657 -0.29279,0.29279 -1.15285,0.69556 -1.911,0.89556 l -1.37821,0.3638 0.0739,-3.08715 0.0744,-3.08715 1.52032,-0.38448 c 0.50965,-0.12899 0.90109,-0.21487 1.20148,-0.22634 z m -0.32349,0.52193 c -0.15458,-0.0104 -0.33211,0.0116 -0.53486,0.0625 -0.87224,0.21891 -1.22264,0.94386 -1.28364,2.65565 -0.0381,1.06918 0.0727,1.55083 0.45372,1.97249 0.64297,0.71161 0.83217,0.70108 1.62471,-0.0915 0.55473,-0.55471 0.64905,-0.89767 0.64905,-2.34921 0,-1.55134 -0.23917,-2.20498 -0.90898,-2.25 z m -75.15872,0.092 c -2.22224,-0.003 -2.84127,0.0933 -3.86747,0.59893 -0.67199,0.3311 -1.43441,0.83711 -1.69447,1.12448 -0.59098,0.65302 -0.42973,0.6514 1.8588,-0.0217 1.02276,-0.30082 3.15354,-0.62801 4.76147,-0.7307 2.72992,-0.17435 2.8694,-0.21002 2.24896,-0.57671 -0.46358,-0.27399 -1.45296,-0.39229 -3.30729,-0.39429 z m 74.90964,0.39377 c 0.85842,0 1.08706,2.69587 0.3085,3.63802 h -5.1e-4 c -0.37798,0.45741 -0.91356,0.41394 -1.10691,-0.0899 -0.21152,-0.55122 0.0637,-0.97449 0.51986,-0.79944 0.1989,0.0763 0.43232,0.025 0.51832,-0.1142 0.086,-0.13917 0.0218,-0.25322 -0.14211,-0.25322 -0.17767,0 -0.22981,-0.21378 -0.12971,-0.52916 0.20698,-0.6521 -0.27024,-0.70145 -0.64027,-0.0661 -0.35917,0.61719 -0.3569,0.0847 0.005,-0.9524 0.15976,-0.45827 0.46053,-0.83354 0.66818,-0.83354 z m -4.89428,4.52944 c 0.17543,-0.004 0.28117,0.25214 0.14056,0.61857 -0.0862,0.22455 -0.27986,0.40824 -0.42995,0.40824 -0.33601,0 -0.34251,-0.27383 -0.0186,-0.786 0.10478,-0.16569 0.2161,-0.23888 0.30799,-0.24081 z m -1.27744,0.34158 c 0.10753,0.003 0.18603,0.1617 0.18603,0.40515 0,0.29963 -0.11906,0.54467 -0.26458,0.54467 -0.14552,0 -0.26458,-0.17116 -0.26458,-0.38086 0,-0.20969 0.11906,-0.45529 0.26458,-0.54519 0.0273,-0.0169 0.0537,-0.0244 0.0786,-0.0238 z m -1.5043,0.51108 c 0.21071,3e-4 0.31784,0.26014 0.18862,0.59687 h 5.1e-4 c -0.0783,0.20406 -0.24883,0.37103 -0.37878,0.37103 -0.30272,0 -0.30934,-0.71755 -0.009,-0.9033 0.0723,-0.0447 0.13944,-0.0647 0.19844,-0.0646 z m -1.33119,0.26665 c 0.0881,-6.8e-4 0.11111,0.12606 0.11111,0.40463 0,0.32278 -0.16876,0.5612 -0.39688,0.5612 -0.21828,0 -0.39687,-0.10432 -0.39687,-0.23202 0,-0.1277 0.17859,-0.38056 0.39687,-0.56172 0.1347,-0.1118 0.22549,-0.17162 0.28577,-0.17209 z m -1.71255,0.43667 c 0.12995,0 0.23616,0.17167 0.23616,0.38137 0,0.42702 -0.37458,0.74319 -0.60617,0.5116 -0.20648,-0.20648 0.078,-0.89297 0.37001,-0.89297 z m -1.43402,0.40101 c 0.28846,0.002 0.40026,0.40764 0.0734,0.8015 -0.17586,0.21191 -0.42421,0.38499 -0.55191,0.38499 -0.36563,0 -0.27102,-0.69668 0.14108,-1.0387 0.12583,-0.10443 0.24129,-0.14845 0.33745,-0.14779 z m -1.60714,0.41754 c 0.35641,-0.0201 0.47414,0.27574 0.2067,0.6997 -0.15077,0.23903 -0.41451,0.48127 -0.58601,0.53847 -0.47029,0.15677 -0.37622,-0.99025 0.0961,-1.1715 0.10592,-0.0406 0.20094,-0.062 0.28319,-0.0667 z m -1.68,0.6196 c 0.14776,-0.009 0.19293,0.0969 0.14831,0.32712 -0.047,0.24209 -0.23461,0.48975 -0.41651,0.55035 -0.48645,0.16197 -0.40334,-0.64327 0.0858,-0.83096 0.0725,-0.0278 0.13316,-0.0436 0.18242,-0.0465 z m -1.64228,0.42633 c 0.0532,-7.1e-4 0.10165,0.0164 0.14108,0.0558 0.0665,0.0665 0.0463,0.31642 -0.0455,0.55553 -0.20576,0.53622 -0.63975,0.57273 -0.63975,0.0537 0,-0.32271 0.31377,-0.66199 0.54415,-0.66508 z m -1.73478,0.51677 c 0.21828,0 0.39688,0.10484 0.39688,0.23254 0,0.12771 -0.1786,0.38005 -0.39688,0.56121 -0.33158,0.27518 -0.39687,0.23714 -0.39687,-0.23203 0,-0.32278 0.16875,-0.56172 0.39687,-0.56172 z m -1.45521,0.26458 c 0.14552,0 0.26459,0.23813 0.26459,0.52917 0,0.30964 -0.17599,0.52916 -0.42478,0.52916 -0.27898,0 -0.36998,-0.14394 -0.26459,-0.41857 0.0883,-0.23018 0.1602,-0.46827 0.1602,-0.52917 0,-0.0609 0.11906,-0.11059 0.26458,-0.11059 z m -1.48466,0.62942 c 0.0949,0.002 0.16175,0.10191 0.16175,0.26562 0,0.21828 -0.11907,0.47027 -0.26459,0.56017 -0.14552,0.0899 -0.26458,-0.0148 -0.26458,-0.23306 0,-0.21829 0.11906,-0.47079 0.26458,-0.56069 0.0364,-0.0225 0.0712,-0.0326 0.10284,-0.032 z m -1.53841,0.42891 c 0.24643,0 0.38133,0.18024 0.33073,0.44132 -0.12873,0.66378 -0.74724,0.75487 -0.74724,0.11007 0,-0.325 0.17108,-0.55139 0.41651,-0.55139 z m -1.40508,0.37983 c 0.14776,-0.009 0.19294,0.0969 0.14831,0.32711 h -5.1e-4 c -0.047,0.24209 -0.2341,0.48975 -0.416,0.55035 -0.48644,0.16198 -0.40334,-0.64325 0.0858,-0.83095 0.0725,-0.0278 0.13317,-0.0436 0.18242,-0.0465 z m -1.84278,0.42116 c 0.23389,-0.008 0.4501,0.11751 0.4501,0.3576 0,0.20047 -0.17721,0.51118 -0.39377,0.69092 -0.31823,0.26414 -0.42402,0.24779 -0.55242,-0.0868 -0.0874,-0.2277 -0.0818,-0.53894 0.0124,-0.69143 0.10911,-0.17656 0.30178,-0.26392 0.48369,-0.27027 z m -1.66605,0.54829 c 0.21243,7.5e-4 0.27379,0.12579 0.21911,0.40979 -0.0513,0.2662 -0.31102,0.52593 -0.57723,0.57723 -0.34949,0.0673 -0.45797,-0.0411 -0.39067,-0.39068 0.0513,-0.26621 0.31102,-0.52592 0.57723,-0.57722 0.0655,-0.0126 0.12254,-0.0193 0.17156,-0.0191 z m -1.89911,0.50849 c 0.0888,0.001 0.16862,0.0286 0.22789,0.0878 0.0872,0.0872 0.008,0.33993 -0.17569,0.56173 -0.42923,0.5171 -0.79944,0.51615 -0.79944,-0.002 0,-0.33323 0.43,-0.65279 0.74724,-0.64751 z m -1.80506,0.54984 c 0.21243,7.6e-4 0.27379,0.12579 0.21911,0.40979 -0.0513,0.2662 -0.31102,0.52593 -0.57722,0.57723 -0.3495,0.0673 -0.45798,-0.0411 -0.39068,-0.39067 0.0513,-0.2662 0.31103,-0.52593 0.57723,-0.57723 0.0655,-0.0126 0.12254,-0.0193 0.17156,-0.0191 z m -1.95233,0.50281 c 0.48397,0 0.46182,0.39446 -0.0512,0.90744 -0.49108,0.49108 -0.55732,0.50286 -0.78187,0.13953 -0.21343,-0.34532 0.34469,-1.04697 0.83303,-1.04697 z m -2.01642,0.55552 c 0.21243,7.6e-4 0.27379,0.1258 0.21911,0.4098 -0.0513,0.26621 -0.31102,0.52592 -0.57722,0.57722 -0.3495,0.0673 -0.45798,-0.0411 -0.39068,-0.39067 0.0513,-0.26621 0.31103,-0.52593 0.57723,-0.57723 0.0655,-0.0126 0.12254,-0.0193 0.17156,-0.0191 z m -1.88257,0.52452 c 0.16607,-0.002 0.29456,0.10245 0.29456,0.34675 0,0.22383 -0.24719,0.53928 -0.54984,0.70125 -0.49032,0.2624 -0.54072,0.22753 -0.46302,-0.31885 0.0612,-0.43027 0.44153,-0.72639 0.7183,-0.72915 z m -2.01073,0.555 c 0.0393,0.001 0.072,0.0121 0.0956,0.0357 0.0873,0.0872 0.0883,0.34233 0.002,0.56689 -0.16473,0.42928 -0.96738,0.5755 -0.96738,0.17622 0,-0.29182 0.5948,-0.78601 0.86971,-0.77877 z m -2.00711,0.5979 c 0.0372,0.002 0.0715,0.0116 0.10128,0.03 0.14591,0.0902 0.13372,0.35673 -0.0305,0.66353 -0.29531,0.55179 -0.6624,0.66173 -0.90434,0.27027 -0.17773,-0.28757 0.47357,-0.98211 0.83354,-0.96377 z m -2.28255,0.67748 c 0.37868,0 0.52102,0.14242 0.45992,0.45992 -0.13282,0.68972 -1.00872,0.76692 -1.00872,0.0889 0,-0.37864 0.17016,-0.5488 0.5488,-0.5488 z m -1.8712,0.55552 c 0.21242,7.6e-4 0.27379,0.12579 0.21911,0.40979 -0.0513,0.2662 -0.31102,0.52593 -0.57723,0.57723 -0.3495,0.0673 -0.45797,-0.0411 -0.39067,-0.39067 0.0513,-0.2662 0.31101,-0.52593 0.57722,-0.57723 0.0655,-0.0126 0.12255,-0.0193 0.17157,-0.0191 z m -2.07223,0.40721 c 0.13778,0.003 0.25471,0.0703 0.3142,0.22531 0.0811,0.21141 -0.0343,0.5666 -0.25684,0.7891 -0.55204,0.55203 -0.89607,0.50734 -0.89607,-0.11576 0,-0.48485 0.48661,-0.90507 0.83871,-0.89865 z m -2.1084,0.62477 c 0.39318,0 0.2153,1.00078 -0.2067,1.16272 -0.58252,0.22353 -0.64027,0.20703 -0.64027,-0.18345 0,-0.38125 0.51724,-0.97927 0.84697,-0.97927 z m -2.23707,0.83199 c 0.18351,-0.004 0.33176,0.0906 0.33176,0.31109 0,0.21339 -0.18788,0.46051 -0.41806,0.54881 -0.62124,0.23839 -0.68724,0.2046 -0.59014,-0.29973 0.0652,-0.33844 0.40824,-0.55434 0.67644,-0.56017 z m -7.16649,0.22221 c 0.64945,0.002 0.61909,0.69361 0.61909,2.79466 0,1.89783 -0.0717,2.25643 -0.4961,2.48357 -0.27281,0.14601 -0.97542,0.34245 -1.56166,0.43615 -0.95009,0.15193 -1.11505,0.0953 -1.51877,-0.5209 -0.25022,-0.38189 -0.51338,-1.44543 -0.58808,-2.37608 l -0.13539,-1.68465 1.99885,-0.6718 c 0.81498,-0.27401 1.34188,-0.46205 1.68206,-0.46095 z m 5.01727,0.26871 c 0.20047,0 0.36432,0.17442 0.36432,0.38758 0,0.51048 -0.96202,1.04069 -1.19735,0.65991 -0.21378,-0.3459 0.34422,-1.04749 0.83303,-1.04749 z m -2.12855,0.66456 c 0.10061,-9.1e-4 0.1835,0.0315 0.23047,0.10749 0.0829,0.13418 -0.0371,0.43197 -0.26716,0.66198 -0.52355,0.52351 -0.91003,0.5364 -0.91003,0.0305 0,-0.37021 0.58737,-0.79668 0.94672,-0.79996 z m -4.11448,5.2e-4 c -0.7841,0.0166 -1.75692,1.40212 -1.45108,2.38539 0.0666,0.21418 0.17675,0.56771 0.24495,0.78599 0.18479,0.59149 1.11105,0.47944 1.58078,-0.1912 0.51673,-0.73777 0.53579,-2.41947 0.032,-2.83755 -0.12295,-0.10204 -0.26149,-0.14571 -0.40669,-0.14263 z m -0.29197,1.71773 c 0.16166,-6.8e-4 0.28473,0.1363 0.28473,0.37982 0,0.2097 -0.1064,0.44711 -0.23667,0.52761 -0.27237,0.16833 -0.60077,-0.51234 -0.36226,-0.75085 0.10647,-0.10647 0.2172,-0.15618 0.3142,-0.15658 z m -8.98602,1.079 c -0.33367,-0.003 -0.70654,0.1655 -1.048,0.50694 -0.67003,0.67008 -0.71146,2.03639 -0.0661,2.18333 1.11675,0.25429 2.43235,-1.22295 1.92805,-2.16524 -0.18543,-0.3465 -0.48023,-0.52184 -0.81391,-0.52503 z m -0.38654,0.77153 c 0.56085,0 0.79526,0.71064 0.39429,1.19424 -0.41658,0.50214 -0.76618,0.50051 -0.95963,-0.004 -0.2169,-0.56522 0.0799,-1.19062 0.56534,-1.19062 z m -4.12791,0.39429 c -0.80483,0.0216 -1.56063,0.93125 -1.56063,2.07998 0,0.36124 0.14882,0.71673 0.33073,0.79013 1.5182,0.61261 3.20742,-1.97447 1.78594,-2.73523 -0.18231,-0.0976 -0.37031,-0.13986 -0.55604,-0.13488 z m 4.54391,3.57446 c -0.28065,0 -0.69736,0.18732 -0.92604,0.41599 -0.41712,0.41712 -0.56903,1.72256 -0.23927,2.05311 0.21331,0.21368 0.31654,0.21494 1.08004,0.0103 0.50251,-0.13468 0.59531,-0.34022 0.59531,-1.3193 0,-0.96906 -0.0837,-1.16013 -0.51004,-1.16013 z m -0.27337,0.58291 c 0.16664,0.005 0.25425,0.2451 0.25425,0.70228 0,0.88293 -0.44534,1.35825 -0.68575,0.73174 -0.21639,-0.56389 -0.0346,-1.2919 0.35502,-1.42162 0.027,-0.009 0.0527,-0.0131 0.0765,-0.0124 z m -4.20491,0.84543 c -0.18327,0.005 -0.42661,0.0554 -0.65319,0.14159 -0.66656,0.25342 -1.18907,1.57033 -0.84439,2.12803 0.25046,0.40525 1.10079,0.32703 1.57251,-0.14469 0.45061,-0.4506 0.56603,-1.84128 0.17311,-2.08411 -0.05,-0.0309 -0.13808,-0.044 -0.24804,-0.0408 z m -0.66456,0.69608 c 0.17578,0.005 0.36326,0.14519 0.47491,0.43615 0.18177,0.47369 -0.41816,1.27993 -0.72451,0.97358 -0.10049,-0.10047 -0.18293,-0.46041 -0.18293,-0.79995 0,-0.40153 0.20653,-0.61676 0.43253,-0.60978 z"
         sodipodi:nodetypes="sssccsscssccsssssssssssscssssssssssccssssssscccsccssccsssssssssssssssssscssssssssssscsscsssssssssscsssssssssssssssssssssssssssssssssssssssscccccssssssssccssccsscscsscsccscccssscsssscsssssscsssscccsssscssssscsssscssssssscsssssssssssssssscsscsscsssscccsccsscssssssscsssssccsssscsssssssscsssssssccscsssssssssssssscccccssccssssccsssssssscccssssscccccsssccssssccsccsssssssssssssssssssssscssssccssscscsccssssssssssscssssccscssscccssssssssssscccssssccsssscccssssssssscccssscssscsccsssscssssscsssscccssscscscsssssscsscsscsccccsssssscssscssssccsssssscsssscccccssssssscssssssssssscssssscsssc" /></g><path
       style="fill:#000000;stroke-width:0.0957564"
       id="path3"
       d="" /></g></svg>
