<?xml version="1.0" encoding="UTF-8" standalone="no"?>
<svg
   width="48"
   height="48"
   version="1.1"
   id="svg18"
   sodipodi:docname="runScript.svg"
   xml:space="preserve"
   inkscape:version="1.4.2 (f4327f4, 2025-05-13)"
   xmlns:inkscape="http://www.inkscape.org/namespaces/inkscape"
   xmlns:sodipodi="http://sodipodi.sourceforge.net/DTD/sodipodi-0.dtd"
   xmlns:xlink="http://www.w3.org/1999/xlink"
   xmlns="http://www.w3.org/2000/svg"
   xmlns:svg="http://www.w3.org/2000/svg"
   xmlns:a="http://ns.adobe.com/AdobeSVGViewerExtensions/3.0/"><sodipodi:namedview
     id="namedview18"
     pagecolor="#ffffff"
     bordercolor="#000000"
     borderopacity="0.25"
     inkscape:showpageshadow="2"
     inkscape:pageopacity="0.0"
     inkscape:pagecheckerboard="0"
     inkscape:deskcolor="#d1d1d1"
     inkscape:zoom="8.2307229"
     inkscape:cx="30.191759"
     inkscape:cy="38.331991"
     inkscape:window-width="1920"
     inkscape:window-height="1046"
     inkscape:window-x="-11"
     inkscape:window-y="-11"
     inkscape:window-maximized="1"
     inkscape:current-layer="svg18" /><defs
     id="defs8"><linearGradient
       id="lg1"><stop
         stop-color="#3778ae"
         offset="0"
         id="stop1" /><stop
         stop-color="#366c99"
         offset="1"
         id="stop2" /></linearGradient><linearGradient
       id="lg2"><stop
         stop-color="#fff"
         offset="0"
         id="stop3" /><stop
         stop-color="#fff"
         stop-opacity="0.165"
         offset="1"
         id="stop4" /></linearGradient><linearGradient
       id="lg3"><stop
         stop-color="#ffe253"
         offset="0"
         id="stop5" /><stop
         stop-color="#ffca1c"
         offset="1"
         id="stop6" /></linearGradient><linearGradient
       id="lg4"><stop
         stop-color="#000"
         offset="0"
         id="stop7" /><stop
         stop-color="#000"
         stop-opacity="0"
         offset="1"
         id="stop8" /></linearGradient><linearGradient
       x1="94.693"
       y1="112.511"
       x2="94.693"
       y2="64.053"
       id="lg5"
       xlink:href="#lg2"
       gradientUnits="userSpaceOnUse"
       gradientTransform="matrix(0.353878,0,0,0.353878,-17.3795,-19.412)" /><linearGradient
       x1="59.728"
       y1="102"
       x2="142.62"
       y2="102"
       id="lg6"
       xlink:href="#lg1"
       gradientUnits="userSpaceOnUse"
       gradientTransform="matrix(0.353878,0,0,0.353878,-17.3795,-19.412)" /><linearGradient
       x1="94.693"
       y1="112.511"
       x2="94.693"
       y2="64.053"
       id="lg7"
       xlink:href="#lg2"
       gradientUnits="userSpaceOnUse"
       gradientTransform="matrix(0.353878,0,0,0.353878,-6.29697,-7.94537)" /><linearGradient
       x1="119.191"
       y1="89.13"
       x2="116.965"
       y2="169.279"
       id="lg8"
       xlink:href="#lg3"
       gradientUnits="userSpaceOnUse"
       gradientTransform="matrix(0.353878,0,0,0.353878,-16.3897,-17.997)" /><radialGradient
       cx="15.115"
       cy="63.965"
       r="12.289"
       fx="15.115"
       fy="63.965"
       id="rg1"
       xlink:href="#lg4"
       gradientUnits="userSpaceOnUse"
       gradientTransform="matrix(1.6,0,0,0.551754,-0.183975,4.83575)" /><linearGradient
       inkscape:collect="always"
       id="linearGradient3733"><stop
         style="stop-color:#e5ff00;stop-opacity:1;"
         offset="0"
         id="stop3735" /><stop
         style="stop-color:#e5ff00;stop-opacity:0;"
         offset="1"
         id="stop3737" /></linearGradient><linearGradient
       inkscape:collect="always"
       id="linearGradient3710"><stop
         style="stop-color:#ffffff;stop-opacity:1;"
         offset="0"
         id="stop3712" /><stop
         style="stop-color:#ffffff;stop-opacity:0;"
         offset="1"
         id="stop3714" /></linearGradient><linearGradient
       id="linearGradient3689"
       inkscape:collect="always"><stop
         id="stop3691"
         offset="0"
         style="stop-color:#f0ff80;stop-opacity:1" /><stop
         id="stop3693"
         offset="1"
         style="stop-color:#f0ff80;stop-opacity:0" /></linearGradient><linearGradient
       inkscape:collect="always"
       id="linearGradient3511"><stop
         style="stop-color:#002a0d;stop-opacity:1;"
         offset="0"
         id="stop3513" /><stop
         style="stop-color:#002a0d;stop-opacity:0;"
         offset="1"
         id="stop3515" /></linearGradient><linearGradient
       id="linearGradient3503"
       inkscape:collect="always"><stop
         id="stop3505"
         offset="0"
         style="stop-color:#005f1e;stop-opacity:1" /><stop
         id="stop3507"
         offset="1"
         style="stop-color:#43943c;stop-opacity:1" /></linearGradient><linearGradient
       inkscape:collect="always"
       id="linearGradient3438"><stop
         style="stop-color:#002100;stop-opacity:1;"
         offset="0"
         id="stop3440" /><stop
         style="stop-color:#002100;stop-opacity:0;"
         offset="1"
         id="stop3442" /></linearGradient><linearGradient
       inkscape:collect="always"
       id="linearGradient3426"><stop
         style="stop-color:#004d00;stop-opacity:1;"
         offset="0"
         id="stop3428" /><stop
         style="stop-color:#004d00;stop-opacity:0;"
         offset="1"
         id="stop3430" /></linearGradient><linearGradient
       inkscape:collect="always"
       id="linearGradient3361"><stop
         style="stop-color:#edffbf;stop-opacity:1;"
         offset="0"
         id="stop3363" /><stop
         style="stop-color:#edffbf;stop-opacity:0;"
         offset="1"
         id="stop3365" /></linearGradient><linearGradient
       inkscape:collect="always"
       id="linearGradient3348"><stop
         style="stop-color:#cbff10;stop-opacity:1"
         offset="0"
         id="stop3350" /><stop
         style="stop-color:#004d00;stop-opacity:1"
         offset="1"
         id="stop3352" /></linearGradient><linearGradient
       inkscape:collect="always"
       id="linearGradient3294"><stop
         style="stop-color:#37a42c;stop-opacity:1;"
         offset="0"
         id="stop3296" /><stop
         style="stop-color:#bff500;stop-opacity:1"
         offset="1"
         id="stop3298" /></linearGradient><radialGradient
       id="radialGradient2854"
       cx="538.77338"
       cy="651.10352"
       r="126.0234"
       gradientTransform="translate(-484,-674)"
       gradientUnits="userSpaceOnUse"><stop
         offset="0"
         style="stop-color:#cbcbcb;stop-opacity:1;"
         id="stop2856" /><stop
         offset="0.53930002"
         style="stop-color:#282828;stop-opacity:1;"
         id="stop2858" /><stop
         offset="1"
         style="stop-color:#9d9d9d;stop-opacity:1;"
         id="stop2860" /></radialGradient><linearGradient
       id="linearGradient2862"
       gradientUnits="userSpaceOnUse"
       x1="538.77338"
       y1="677.87701"
       x2="538.77338"
       y2="789.12207"
       gradientTransform="translate(-484,-674)"><stop
         offset="0.0056"
         style="stop-color:#4d4d4d;stop-opacity:1;"
         id="stop2864" /><stop
         offset="0.1348"
         style="stop-color:#676767;stop-opacity:1;"
         id="stop2866" /><stop
         offset="0.4831"
         style="stop-color:#b2b2b2;stop-opacity:1;"
         id="stop2868" /><stop
         offset="0.62989998"
         style="stop-color:#aaa;stop-opacity:1;"
         id="stop2870" /><stop
         offset="0.85280001"
         style="stop-color:#a1a1a1;stop-opacity:1;"
         id="stop2872" /><stop
         offset="1"
         style="stop-color:#9d9d9d;stop-opacity:1;"
         id="stop2874" /></linearGradient><radialGradient
       id="radialGradient2876"
       cx="538.77252"
       cy="792.99609"
       r="121.5466"
       gradientTransform="translate(-484,-674)"
       gradientUnits="userSpaceOnUse"><stop
         offset="0"
         style="stop-color:#d9d9d9;stop-opacity:1;"
         id="stop2878" /><stop
         offset="0.0494"
         style="stop-color:#c7c7c7;stop-opacity:1;"
         id="stop2880" /><stop
         offset="0.1049"
         style="stop-color:#b9b9b9;stop-opacity:1;"
         id="stop2882" /><stop
         offset="0.14321923"
         style="stop-color:#aeaeae;stop-opacity:1;"
         id="stop2884" /><stop
         offset="0.2156"
         style="stop-color:#a9a9a9;stop-opacity:1;"
         id="stop2886" /><stop
         offset="0.26969999"
         style="stop-color:#a6a6a6;stop-opacity:1;"
         id="stop2888" /><stop
         offset="0.3989"
         style="stop-color:#676767;stop-opacity:1;"
         id="stop2890" /><stop
         offset="0.39950001"
         style="stop-color:#676767;stop-opacity:1;"
         id="stop2892" /><stop
         offset="0.44839999"
         style="stop-color:#545454;stop-opacity:1;"
         id="stop2894" /><stop
         offset="0.49559999"
         style="stop-color:#414141;stop-opacity:1;"
         id="stop2896" /><stop
         offset="0.53988957"
         style="stop-color:#353535;stop-opacity:1;"
         id="stop2898" /><stop
         offset="0.57096523"
         style="stop-color:#313131;stop-opacity:1;"
         id="stop2900" /><stop
         offset="0.5948"
         style="stop-color:#3e3e3e;stop-opacity:1;"
         id="stop2902" /><stop
         offset="0.64560002"
         style="stop-color:#5f5f5f;stop-opacity:1;"
         id="stop2904" /><stop
         offset="0.69319999"
         style="stop-color:#707070;stop-opacity:1;"
         id="stop2906" /><stop
         offset="0.73589998"
         style="stop-color:#7b7b7b;stop-opacity:1;"
         id="stop2908" /><stop
         offset="0.76969999"
         style="stop-color:#7f7f7f;stop-opacity:1;"
         id="stop2910" /><stop
         offset="1"
         style="stop-color:#313131;stop-opacity:1;"
         id="stop2912" /></radialGradient><linearGradient
       id="linearGradient2914"
       gradientUnits="userSpaceOnUse"
       x1="538.77338"
       y1="793"
       x2="538.77338"
       y2="674"
       gradientTransform="translate(-484,-674)"><stop
         offset="0"
         style="stop-color:#262626;stop-opacity:1;"
         id="stop2916" /><stop
         offset="0.1124"
         style="stop-color:#313131;stop-opacity:1;"
         id="stop2918" /><stop
         offset="0.37450001"
         style="stop-color:#4d4d4d;stop-opacity:1;"
         id="stop2920" /><stop
         offset="0.42309999"
         style="stop-color:#505050;stop-opacity:1;"
         id="stop2922" /><stop
         offset="0.43689999"
         style="stop-color:#575757;stop-opacity:1;"
         id="stop2924" /><stop
         offset="0.44909999"
         style="stop-color:#646464;stop-opacity:1;"
         id="stop2926" /><stop
         offset="0.4605"
         style="stop-color:#757575;stop-opacity:1;"
         id="stop2928" /><stop
         offset="0.47119999"
         style="stop-color:#8a8a8a;stop-opacity:1;"
         id="stop2930" /><stop
         offset="0.48140001"
         style="stop-color:#a3a3a3;stop-opacity:1;"
         id="stop2932" /><stop
         offset="0.49110001"
         style="stop-color:silver;stop-opacity:1;"
         id="stop2934" /><stop
         offset="0.49439999"
         style="stop-color:#dfdfdf;stop-opacity:1;"
         id="stop2936" /><stop
         offset="0.51748788"
         style="stop-color:#afafaf;stop-opacity:1;"
         id="stop2938" /><stop
         offset="0.53259999"
         style="stop-color:#949494;stop-opacity:1;"
         id="stop2940" /><stop
         offset="0.55519998"
         style="stop-color:#7c7c7c;stop-opacity:1;"
         id="stop2942" /><stop
         offset="0.58454067"
         style="stop-color:#656565;stop-opacity:1;"
         id="stop2944" /><stop
         offset="0.60860002"
         style="stop-color:#525252;stop-opacity:1;"
         id="stop2946" /><stop
         offset="0.64160001"
         style="stop-color:#434343;stop-opacity:1;"
         id="stop2948" /><stop
         offset="0.69285822"
         style="stop-color:#393939;stop-opacity:1;"
         id="stop2951" /><stop
         offset="0.73979998"
         style="stop-color:#333;stop-opacity:1;"
         id="stop2953" /><stop
         offset="0.89889997"
         style="stop-color:#313131;stop-opacity:1;"
         id="stop2955" /><stop
         offset="1"
         style="stop-color:#a6a8a4;stop-opacity:1;"
         id="stop2957" /></linearGradient><radialGradient
       cx="265.3931"
       cy="-6078.353"
       r="253.01871"
       fx="369.5242"
       fy="-6078.353"
       id="path2295_1_"
       gradientUnits="userSpaceOnUse"
       gradientTransform="matrix(0.183616,0,0,-1.462967e-2,-0.962917,-7.25873)"><stop
         style="stop-color:#000000;stop-opacity:1"
         offset="0"
         id="stop8-0" /><stop
         style="stop-color:#ffffff;stop-opacity:1"
         offset="1"
         id="stop10" /><a:midPointStop
         style="stop-color:#000000"
         offset="0" /><a:midPointStop
         style="stop-color:#000000"
         offset="0.5" /><a:midPointStop
         style="stop-color:#FFFFFF"
         offset="1" /></radialGradient><filter
       inkscape:collect="always"
       id="filter3396"
       x="-0.033336471"
       y="-0.023371319"
       width="1.0615926"
       height="1.0467426"><feGaussianBlur
         inkscape:collect="always"
         stdDeviation="0.495"
         id="feGaussianBlur3398" /></filter><filter
       inkscape:collect="always"
       id="filter3533"
       x="-0.044515958"
       y="-0.029107829"
       width="1.0890319"
       height="1.0582055"><feGaussianBlur
         inkscape:collect="always"
         stdDeviation="1.0600355"
         id="feGaussianBlur3535" /></filter><filter
       inkscape:collect="always"
       x="-0.12239106"
       width="1.2447821"
       y="-0.078971457"
       height="1.1579429"
       id="filter3681"><feGaussianBlur
         inkscape:collect="always"
         stdDeviation="0.321914"
         id="feGaussianBlur3683" /></filter><filter
       inkscape:collect="always"
       x="-0.45196507"
       width="1.9039301"
       y="-0.29913295"
       height="1.5982659"
       id="filter3722"><feGaussianBlur
         inkscape:collect="always"
         stdDeviation="1.3476562"
         id="feGaussianBlur3724" /></filter><linearGradient
       inkscape:collect="always"
       xlink:href="#linearGradient3503"
       id="linearGradient3814"
       gradientUnits="userSpaceOnUse"
       gradientTransform="translate(-4,0)"
       x1="71.626404"
       y1="123.73875"
       x2="46.225941"
       y2="28.942928" /><radialGradient
       inkscape:collect="always"
       xlink:href="#linearGradient3710"
       id="radialGradient3816"
       gradientUnits="userSpaceOnUse"
       gradientTransform="matrix(0.9650814,0.2619502,-0.9201984,3.3902106,57.309062,-57.693239)"
       cx="71.775223"
       cy="16.0865"
       fx="71.775223"
       fy="16.0865"
       r="3.15625" /><radialGradient
       inkscape:collect="always"
       xlink:href="#linearGradient3710"
       id="radialGradient3818"
       gradientUnits="userSpaceOnUse"
       gradientTransform="matrix(0.9650814,0.2619502,-0.9201984,3.3902106,17.309062,-57.693239)"
       cx="71.775223"
       cy="16.0865"
       fx="71.775223"
       fy="16.0865"
       r="3.15625" /><linearGradient
       inkscape:collect="always"
       xlink:href="#linearGradient3511"
       id="linearGradient3820"
       gradientUnits="userSpaceOnUse"
       x1="96.373123"
       y1="120.42788"
       x2="96.373123"
       y2="46.089832" /><radialGradient
       inkscape:collect="always"
       xlink:href="#linearGradient3689"
       id="radialGradient3822"
       gradientUnits="userSpaceOnUse"
       gradientTransform="matrix(0.9650814,0.2619502,-0.9201984,3.3902106,17.309062,-57.693239)"
       cx="71.775223"
       cy="16.0865"
       fx="71.775223"
       fy="16.0865"
       r="3.15625" /><radialGradient
       inkscape:collect="always"
       xlink:href="#linearGradient3689"
       id="radialGradient3824"
       gradientUnits="userSpaceOnUse"
       gradientTransform="matrix(0.9650814,0.2619502,-0.9201984,3.3902106,17.309062,-57.693239)"
       cx="71.775223"
       cy="16.0865"
       fx="71.775223"
       fy="16.0865"
       r="3.15625" /><radialGradient
       inkscape:collect="always"
       xlink:href="#linearGradient3733"
       id="radialGradient3826"
       gradientUnits="userSpaceOnUse"
       gradientTransform="matrix(0.8660254,0.5,-2.5824057,4.4728578,124.36771,-189.29673)"
       cx="72.59375"
       cy="44.199867"
       fx="72.59375"
       fy="44.199867"
       r="4.59375" /><radialGradient
       inkscape:collect="always"
       xlink:href="#linearGradient3438"
       id="radialGradient3828"
       gradientUnits="userSpaceOnUse"
       gradientTransform="matrix(1.2995435,-0.7502918,1.0577236,1.832031,-116.50709,-28.427601)"
       cx="72.850891"
       cy="89.517792"
       fx="72.850891"
       fy="89.517792"
       r="7.96875" /><linearGradient
       inkscape:collect="always"
       xlink:href="#linearGradient3294"
       id="linearGradient3830"
       gradientUnits="userSpaceOnUse"
       gradientTransform="translate(-4,0)"
       x1="43.799026"
       y1="32.051865"
       x2="58.606159"
       y2="96.363052" /><radialGradient
       inkscape:collect="always"
       xlink:href="#linearGradient3426"
       id="radialGradient3832"
       gradientUnits="userSpaceOnUse"
       gradientTransform="matrix(1.3413871,-0.1603659,0.4039213,3.3786163,-40.193418,-71.115595)"
       cx="72.25"
       cy="38.44363"
       fx="72.25"
       fy="38.44363"
       r="7.96875" /><radialGradient
       inkscape:collect="always"
       xlink:href="#linearGradient3733"
       id="radialGradient3834"
       gradientUnits="userSpaceOnUse"
       gradientTransform="matrix(0.8660254,0.5,-2.5824057,4.4728578,124.36771,-189.29673)"
       cx="72.59375"
       cy="44.199867"
       fx="72.59375"
       fy="44.199867"
       r="4.59375" /><radialGradient
       inkscape:collect="always"
       xlink:href="#linearGradient3710"
       id="radialGradient3836"
       gradientUnits="userSpaceOnUse"
       gradientTransform="matrix(6.5079869,0,0,1.510917,-63.772161,-32.970115)"
       cx="11.578125"
       cy="64.53125"
       fx="11.578125"
       fy="64.53125"
       r="3.578125" /><radialGradient
       inkscape:collect="always"
       xlink:href="#linearGradient3348"
       id="radialGradient3838"
       gradientUnits="userSpaceOnUse"
       gradientTransform="matrix(1.3229896,0,0,1.2700701,-22.928996,-22.179188)"
       cx="70.568741"
       cy="76.274155"
       fx="73.241119"
       fy="83.511856"
       r="50" /><linearGradient
       inkscape:collect="always"
       xlink:href="#linearGradient3733"
       id="linearGradient3840"
       gradientUnits="userSpaceOnUse"
       x1="91.785248"
       y1="112.5"
       x2="91.992706"
       y2="44.287056" /><linearGradient
       inkscape:collect="always"
       xlink:href="#linearGradient3361"
       id="linearGradient3842"
       gradientUnits="userSpaceOnUse"
       x1="90.418152"
       y1="6.3332911"
       x2="90.418152"
       y2="86.427879" /><linearGradient
       inkscape:collect="always"
       xlink:href="#linearGradient3710"
       id="linearGradient3844"
       gradientUnits="userSpaceOnUse"
       x1="116.14262"
       y1="76.660683"
       x2="89.082176"
       y2="29.583153" /><linearGradient
       inkscape:collect="always"
       xlink:href="#linearGradient3710"
       id="linearGradient3846"
       gradientUnits="userSpaceOnUse"
       x1="92.700165"
       y1="16"
       x2="108.70443"
       y2="75.728737" /><linearGradient
       inkscape:collect="always"
       xlink:href="#linearGradient3710"
       id="linearGradient2309"
       gradientUnits="userSpaceOnUse"
       x1="63.159035"
       y1="21.171064"
       x2="63.159035"
       y2="80.12056"
       gradientTransform="matrix(1.0533333,0,0,0.9219945,11.76,4.9924269)" /><linearGradient
       inkscape:collect="always"
       xlink:href="#linearGradient3710"
       id="linearGradient2312"
       gradientUnits="userSpaceOnUse"
       x1="73.739265"
       y1="69.923088"
       x2="35.568035"
       y2="48.212151"
       gradientTransform="matrix(1.0533333,0,0,0.9219945,11.76,4.9924269)" /><linearGradient
       inkscape:collect="always"
       xlink:href="#linearGradient3361"
       id="linearGradient2315"
       gradientUnits="userSpaceOnUse"
       x1="63.159035"
       y1="21.171064"
       x2="63.159035"
       y2="80.12056"
       gradientTransform="matrix(1.0533333,0,0,0.9219945,11.76,4.9924269)" /><linearGradient
       inkscape:collect="always"
       xlink:href="#linearGradient3733"
       id="linearGradient2318"
       gradientUnits="userSpaceOnUse"
       x1="91.785248"
       y1="112.5"
       x2="91.992706"
       y2="44.287056"
       gradientTransform="translate(20)" /><radialGradient
       inkscape:collect="always"
       xlink:href="#linearGradient3348"
       id="radialGradient2324"
       gradientUnits="userSpaceOnUse"
       gradientTransform="matrix(1.519949,7.3519239e-8,-8.0632435e-8,1.2772114,-20.224726,-23.996639)"
       cx="53.630272"
       cy="79.055809"
       fx="57.058514"
       fy="91.805016"
       r="50" /><linearGradient
       inkscape:collect="always"
       xlink:href="#linearGradient3294"
       id="linearGradient2328"
       gradientUnits="userSpaceOnUse"
       gradientTransform="matrix(1.0533333,0,0,0.9219945,7.5466667,4.9924269)"
       x1="43.799026"
       y1="32.051865"
       x2="58.606159"
       y2="96.363052" /><linearGradient
       inkscape:collect="always"
       xlink:href="#linearGradient3511"
       id="linearGradient2332"
       gradientUnits="userSpaceOnUse"
       x1="96.373123"
       y1="120.42788"
       x2="96.373123"
       y2="46.089832"
       gradientTransform="matrix(1.1772548,0,0,1.0772187,6.5552946,-4.9416701)" /><radialGradient
       inkscape:collect="always"
       xlink:href="#linearGradient3710"
       id="radialGradient2335"
       gradientUnits="userSpaceOnUse"
       gradientTransform="matrix(0.9650814,0.2619502,-0.9201984,3.3902106,33.309062,-57.693239)"
       cx="71.775223"
       cy="16.0865"
       fx="71.775223"
       fy="16.0865"
       r="3.15625" /><linearGradient
       inkscape:collect="always"
       xlink:href="#linearGradient3503"
       id="linearGradient2338"
       gradientUnits="userSpaceOnUse"
       gradientTransform="matrix(1.1772548,0,0,1.0772187,1.8462753,-4.9416701)"
       x1="71.626404"
       y1="123.73875"
       x2="46.225941"
       y2="28.942928" /><radialGradient
       inkscape:collect="always"
       xlink:href="#linearGradient3689"
       id="radialGradient2341"
       gradientUnits="userSpaceOnUse"
       gradientTransform="matrix(0.9650814,0.2619502,-0.9201984,3.3902106,17.309062,-57.693239)"
       cx="71.775223"
       cy="16.0865"
       fx="71.775223"
       fy="16.0865"
       r="3.15625" /><radialGradient
       inkscape:collect="always"
       xlink:href="#linearGradient3710"
       id="radialGradient2343"
       gradientUnits="userSpaceOnUse"
       gradientTransform="matrix(6.5079869,0,0,1.510917,-63.772161,-32.970115)"
       cx="11.578125"
       cy="64.53125"
       fx="11.578125"
       fy="64.53125"
       r="3.578125" /><radialGradient
       inkscape:collect="always"
       xlink:href="#linearGradient3710"
       id="radialGradient2362"
       gradientUnits="userSpaceOnUse"
       gradientTransform="matrix(0.9650814,0.2619502,-0.9201984,3.3902106,33.309062,-57.693239)"
       cx="71.775223"
       cy="16.0865"
       fx="71.775223"
       fy="16.0865"
       r="3.15625" /><radialGradient
       inkscape:collect="always"
       xlink:href="#linearGradient3689"
       id="radialGradient2366"
       gradientUnits="userSpaceOnUse"
       gradientTransform="matrix(0.9650814,0.2619502,-0.9201984,3.3902106,17.309062,-57.693239)"
       cx="71.775223"
       cy="16.0865"
       fx="71.775223"
       fy="16.0865"
       r="3.15625" /><radialGradient
       inkscape:collect="always"
       xlink:href="#linearGradient3710"
       id="radialGradient2370"
       gradientUnits="userSpaceOnUse"
       gradientTransform="matrix(6.5079869,0,0,1.510917,-63.772161,-32.970115)"
       cx="11.578125"
       cy="64.53125"
       fx="11.578125"
       fy="64.53125"
       r="3.578125" /><radialGradient
       inkscape:collect="always"
       xlink:href="#linearGradient3348"
       id="radialGradient2372"
       gradientUnits="userSpaceOnUse"
       gradientTransform="matrix(1.519949,7.3519239e-8,-8.0632435e-8,1.2772114,-20.224726,-23.996639)"
       cx="53.630272"
       cy="79.055809"
       fx="57.058514"
       fy="91.805016"
       r="50" /></defs><path
     d="m 43.6618,40.1289 a 19.6618,6.7805 0 0 1 -39.3236,0 19.6618,6.7805 0 1 1 39.3236,0 z"
     fill="url(#rg1)"
     id="path8" /><path
     d="m 34.0804,37.5795 c 0,2.7319 -2.371,4.1156 -4.7774,4.8057 -3.6202,1.0404 -6.5255,0.8811 -9.5511,0 -2.5268,-0.7362 -4.7774,-2.2402 -4.7774,-4.8057 l 0,-9.0132 c 0,-2.594 2.1621,-4.8092 4.7774,-4.8092 l 9.3984,-0.6111 c 3.1814,0 5.2606,-1.9858 5.2606,-5.245 l 0.8655,-4.3569 3.5813,0 c 2.7814,0 4.0909,2.0667 4.7774,4.8056 0.9555,3.8043 0.9978,6.6495 0,9.615 -0.9661,2.8805 -2,4.8056 -4.7774,4.8056 l -4.7773,0 -9.5512,0 0,-0.02 c 8.2424,0.02 9.5512,-3.3164 9.5512,4.8281 z"
     fill="url(#lg8)"
     id="path9" /><path
     d="m 28.1104,38.1776 c 0,-0.9944 0.8033,-1.8013 1.7906,-1.8013 1,0 1.7906,0.8069 1.7906,1.8013 0,0.9979 -0.7997,1.8047 -1.7906,1.8047 -0.9873,0 -1.7906,-0.8068 -1.7906,-1.8047 z"
     fill="#fff"
     id="path10" /><path
     d="m 35.2662,13.5436 0,4.2265 C 31.8551,23.767 25.375,23.7787 19.939,23.7787 l -2.017,0.2052 c -2.8342,2.4364 -2.9244,6.3463 -2.9223,9.7756 6.2502,-6.9742 12.9174,-7.5004 16.2436,-7.4854 6.6377,0.029 9.7638,-1.6029 12.9339,-5.1939 -0.016,-0.07 0.016,-0.132 0,-0.2037 -0.1222,-0.8 -0.3362,-1.6544 -0.5601,-2.546 -0.3218,-1.2839 -0.7428,-2.4141 -1.4257,-3.2589 -0.016,-0.016 -0.038,-0.034 -0.051,-0.05 0,0 -0.042,0 -0.05,0 -0.023,-0.028 -0.028,-0.075 -0.05,-0.1011 -0.047,-0.034 -0.052,-0.07 -0.101,-0.101 -0.016,-0.016 -0.039,0.016 -0.05,0 C 41.1653,14.3502 40.2858,14 39.3942,13.8519 38.5861,13.7183 37.775,13.6165 36.95,13.5464 l -0.5092,0 -1.1711,0 z"
     opacity="0.837"
     fill="url(#lg7)"
     id="path11" /><path
     d="m 34.559,37.579 c 0,2.732 -2.8497,4.116 -5.256,4.806 -3.62,1.04 -6.525,0.881 -9.551,0 -2.527,-0.736 -4.801,-2.24 -4.805,-4.805 l -0.016,-9.258 c -0.01,-3.073 2.302,-5.01 4.849,-5 l 8.4667,0.015 c 3.25,0 6.41,-3.3 6.401,-6.55 l 0,-3.237 4.21,0 c 2.7814,0 4.09,2.067 4.777,4.806 0.956,3.804 1,6.649 0,9.615 -0.966,2.88 -2,5.1476 -4.777,5.148 l -4.3,0 -10.03,0 0,-0.02 10.03,0.034 z"
     fill="none"
     stroke="#bb9400"
     stroke-width="1.63"
     id="path12" /><path
     d="m 35.4653,14.3584 0,2.3933 c 0,3.7245 -3.4965,7.3757 -7.4809,7.3757 l -8.2491,0 c -2.8506,0 -4.0184,2.1569 -4.0042,4.4379 l 0.056,9.0129 c 0.01,1.0446 0.4,1.8235 1.148,2.4951 0.748,0.6715 1.8726,1.183 3.0553,1.5277 2.9164,0.8492 5.576,1.0022 9.0638,0 1.1327,-0.3248 2.6394,-0.9401 3.3976,-1.5964 0.7581,-0.6565 1.3077,-1.2961 1.3077,-2.4264 l 0,-3.6298 -10.052,0 0,-1.6795 15.1743,0.05 c 1.2008,0 1.788,-0.4724 2.3844,-1.1633 0.5964,-0.691 1.1149,-2.0469 1.5874,-3.456 0.9456,-2.8096 0.9336,-5.4491 0,-9.1658 -0.3252,-1.2978 -0.7976,-2.3461 -1.4257,-3.0552 -0.628,-0.7091 -1.357,-1.1202 -2.5461,-1.1202 z m 1.6294,1.6294 1.7867,0 c 0.5202,0 1.1993,0.4194 1.324,0.5602 0.3625,0.4093 0.78,1.2386 1.0694,2.3932 0.8895,3.5416 0.8915,5.7515 0.05,8.2491 -0.4517,1.347 -0.9205,2.6142 -1.2729,3 -0.3184,0.3395 -1,0.5093 -1.1713,0.5093 l -4.7865,-0.051 -12.0173,0 0,4.9384 10.052,0 0,2 c 0,0.727 -0.9733,1.1789 -1.1408,1.3239 -0.4872,0.4219 -1.3508,0.8359 -2.3423,1.1202 -3.223,0.9264 -5.5,0.7859 -8.1984,0 -1.0211,-0.2975 -1.9061,-0.7339 -2.4069,-1.1595 -0.5008,-0.4256 -0.5316,-0.7741 -0.6238,-1.285 l -0.056,-9.0129 c -0.013,-2.0224 0.6457,-2.8084 2.3748,-2.8084 l 8.2491,0 c 4.9233,0 9.1103,-4.3502 9.1103,-9.0052 1e-4,-0.2574 -10e-5,-0.5149 -10e-5,-0.7723 z"
     opacity="0.384"
     fill="#fff"
     id="path13" /><path
     d="m 13.9847,7.3199 c 0,-2.7319 0.7324,-4.2182 4.7772,-4.926 2.7462,-0.4813 6.2673,-0.5414 9.5513,0 2.5939,0.4282 4.7774,2.3604 4.7774,4.926 l 0,9.0134 c 0,2.6434 -2.1198,4.8091 -4.7774,4.8091 l -8.6621,0.4788 c -3.2414,0 -6.589,2.8321 -6.589,5.957 l -0.2736,3.777 -3.284,0 c -2.7779,0 -4.3951,-2.0029 -5.0745,-4.8056 -0.9166,-3.7651 -0.8776,-6.0088 0,-9.6147 0.7608,-3.1461 3.192,-4.8058 5.7,-4.8058 l 3.5848,0 c 0,0 8.9448,-0.035 0,-0.032 l 0,-4.7771 0,0 z"
     fill="url(#lg6)"
     id="path14" /><path
     d="m 16.3733,6.7218 c 0,-1 0.8,-1.8048 1.7906,-1.8048 0.9873,0 1.7907,0.8068 1.7907,1.8048 0,0.9944 -0.8034,1.8012 -1.7907,1.8012 -0.9908,0 -1.7906,-0.8068 -1.7906,-1.8012 z"
     fill="#fff"
     id="path15" /><path
     d="M 22.7173,1.9955 C 21.3039,2.0297 19.9469,2.1923 18.7455,2.4028 14.7007,3.1106 14.01,4.6102 14.01,7.3421 l -0.2952,4.787 -3.3203,-3e-4 c -2.7779,0 -5.1968,1.6406 -5.9576,4.7864 -0.5165,2.1225 -0.7504,3.7842 -0.6621,5.5504 6.2924,-7.1319 13.0442,-7.6531 16.3965,-7.638 6.6376,0.029 9.7637,-1.6029 12.9338,-5.1939 l 0,-2.2914 c 0,-2.5655 -2.1926,-4.511 -4.7865,-4.9392 C 26.4714,2.0983 24.5345,1.9515 22.7173,1.9955 z"
     opacity="0.377"
     fill="url(#lg5)"
     id="path16" /><path
     d="m 18.696,2.6271 c 3.6201,-1.0404 6.5255,-0.8811 9.551,0 2.5268,0.7361 4.7787,2.24 4.7774,4.8057 l 0,9.7315 c 0,1.3662 -1.9746,4.5293 -4.7726,4.5293 l -8.8988,0 c -2.4983,0 -5.997,2.7217 -5.997,5.981 l 0,3.7937 -4.21,0 c -2.7815,0 -4.0909,-2.0667 -4.7774,-4.8058 -0.9555,-3.8041 -1,-6.6493 0,-9.6148 0.9661,-2.8806 2,-5.1477 4.7774,-5.1477 l 4.2985,0 10.03,0 0,0.019 -10.03,-0.034 0.019,-4.8733 c -0.026,-1.9965 2.4146,-3.5524 5.2323,-4.3845 z"
     fill="none"
     stroke="#274e70"
     stroke-width="1.63"
     id="path17" /><path
     d="m 12.5337,30.6538 0,-2.796 c 0,-3.7246 3.3953,-7.0287 7.0461,-7.0287 l 8.6839,0 c 2.1549,0 4.024,-2.2411 4.0042,-4.3821 L 32.1845,7.434 C 32.1748,6.3895 31.8123,5.6105 31.0642,4.9389 30.3163,4.2673 29.1916,3.7558 28.009,3.4113 c -2.9166,-0.8494 -5.5762,-1.0023 -9.0639,0 -1.1326,0.3248 -2.6396,0.94 -3.3976,1.5964 -0.7582,0.6564 -1.3076,1.296 -1.3076,2.4263 l 0,3.6298 10.0519,0 0,1.6804 -15.1743,-0.051 c -1.2,0 -1.788,0.4724 -2.3844,1.1634 -0.5964,0.6908 -1.1149,2.0467 -1.5874,3.4559 -0.9456,2.8096 -0.9335,5.449 0,9.1657 0.3252,1.2978 0.7976,2.3461 1.4258,3.0552 0.628,0.7092 1.357,1.1203 2.546,1.1203 l 3.4162,0 z m -1.6295,-1.6295 -1.7867,0 c -0.52,0 -1.2,-0.4194 -1.3239,-0.56 C 7.431,28.0549 7.0135,27.2255 6.7241,26.0709 5.8346,22.5294 5.8327,20.3196 6.6736,17.8218 7.1253,16.475 7.5941,15.2077 7.9466,14.8319 8.265,14.4926 8.9375,14.3227 9.1178,14.3227 l 16.8038,0.051 0,-4.9394 -10.0519,0 0,-2 c 0,-0.727 0.9732,-1.1789 1.1407,-1.3239 0.4873,-0.4219 1.3509,-0.8359 2.3424,-1.12 3.2229,-0.9262 5.5,-0.7858 8.1983,0 1.0212,0.2975 1.9061,0.7339 2.3932,1.1712 0.1733,0.1352 0.2646,0.2973 0.4078,0.4582 0.1987,0.237 0.1552,0.55023 0.2011,0.8147 l 0,9.013 c 0,1.2357 -1.0565,2.7527 -2.2913,2.7527 l -8.6839,0 c -4.5897,0 -8.6756,4.0029 -8.6756,8.6581 0,0.3875 0,1.166 0,1.166 z"
     opacity="0.165"
     fill="#fff"
     id="path18" /><g
     id="g2345"
     transform="matrix(-0.26251161,0,0,0.23506373,49.198633,16.968597)"><path
       transform="matrix(1.0533333,0,0,1.0173732,-5.0933333,-1.1118124)"
       id="path3519"
       d="m 87.875,12 c -0.865503,0.02693 -1.698899,0.333976 -2.375,0.875 l -60,48 C 24.550144,61.634129 24,62.784063 24,64 c 0,1.215937 0.550144,2.365871 1.5,3.125 l 60,48 c 1.200963,0.96113 2.832437,1.13525 4.21875,0.46875 C 91.105067,114.92725 92.000642,113.53821 92,112 V 88.3125 78.0625 L 90.5,76.875 C 89.299037,75.91387 87.667563,75.739753 86.28125,76.40625 84.894933,77.072748 83.999358,78.461793 84,80 v 23.6875 L 34.40625,64 84,24.3125 V 48 c -6.42e-4,1.538207 0.894936,2.927253 2.28125,3.59375 1.38631,0.666496 3.017787,0.49238 4.21875,-0.46875 L 92,49.9375 V 39.6875 16 C 92.000417,14.917152 91.558627,13.878821 90.78125,13.125 90.003873,12.37118 88.957323,11.966273 87.875,12 Z"
       style="opacity:0.905263;fill:none;fill-opacity:1;fill-rule:evenodd;stroke:#638000;stroke-width:0.966;stroke-linecap:butt;stroke-linejoin:round;stroke-miterlimit:4;stroke-dasharray:none;stroke-opacity:1;filter:url(#filter3533)" /><path
       id="path3302"
       d="m 91.17049,7.9849542 c -1.018917,0.029015 -2.000037,0.3597653 -2.79598,0.9425664 L 17.739215,60.634018 c -1.118223,0.817748 -1.765882,2.056478 -1.765882,3.366309 0,1.30983 0.647659,2.54856 1.765882,3.366308 L 88.37451,119.07313 c 1.413839,1.03535 3.3345,1.22291 4.966543,0.50495 1.63205,-0.71797 2.686372,-2.21427 2.685614,-3.87125 V 90.190206 85.410048 79.148715 48.851939 43.533172 37.810447 12.293829 C 96.027162,11.127365 95.507058,10.008855 94.591887,9.1968255 93.676716,8.3847962 92.44466,7.9486229 91.17049,7.9849542 Z M 86.608627,21.248209 V 42.455952 H 68.949804 c -0.652199,0 -1.177256,0.480441 -1.177256,1.07722 v 41.876876 c 0,0.59678 0.525057,1.077219 1.177256,1.077219 H 86.608627 V 106.75245 L 28.224141,64.000327 Z"
       style="fill:url(#linearGradient2338);fill-opacity:1;fill-rule:evenodd;stroke:none;stroke-width:8;stroke-linecap:butt;stroke-linejoin:round;stroke-miterlimit:4;stroke-dasharray:none;stroke-opacity:1" /><path
       transform="matrix(1.0533333,0,0,1.0173732,-5.0933333,-1.1118124)"
       id="path3651"
       d="m 87.875,12 c -0.799041,0.02487 -1.572946,0.283948 -2.21875,0.75 L 86.625,21.78125 91.96875,15.625 c -0.08779,-0.946211 -0.499493,-1.832841 -1.1875,-2.5 C 90.003873,12.37118 88.957323,11.966273 87.875,12 Z"
       style="opacity:0.85;fill:url(#radialGradient2362);fill-opacity:1;fill-rule:evenodd;stroke:none;stroke-width:8;stroke-linecap:butt;stroke-linejoin:round;stroke-miterlimit:4;stroke-dasharray:none;stroke-opacity:1;filter:url(#filter3681)" /><path
       id="path3509"
       d="m 91.17049,7.9849542 c -1.018917,0.029015 -2.000037,0.3597653 -2.79598,0.9425664 L 17.739215,60.634018 c -1.118223,0.817748 -1.765882,2.056478 -1.765882,3.366309 0,1.30983 0.647659,2.54856 1.765882,3.366308 L 88.37451,119.07313 c 1.413839,1.03535 3.3345,1.22291 4.966543,0.50495 1.63205,-0.71797 2.686372,-2.21427 2.685614,-3.87125 V 90.190206 85.410048 84.66946 79.148715 48.851939 43.533172 43.331192 37.810447 12.293829 C 96.027162,11.127365 95.507058,10.008855 94.591887,9.1968255 93.676716,8.3847962 92.44466,7.9486229 91.17049,7.9849542 Z M 86.608627,21.248209 V 42.455952 H 68.949804 c -0.652199,0 -1.177256,0.480441 -1.177256,1.07722 v 41.876876 c 0,0.59678 0.525057,1.077219 1.177256,1.077219 H 86.608627 V 106.75245 L 28.224141,64.000327 Z"
       style="opacity:0.905263;fill:url(#linearGradient2332);fill-opacity:1;fill-rule:evenodd;stroke:none;stroke-width:8;stroke-linecap:butt;stroke-linejoin:round;stroke-miterlimit:4;stroke-dasharray:none;stroke-opacity:1" /><path
       transform="matrix(1.0533333,0,0,-1.0173732,11.76,128.88743)"
       style="opacity:0.35;fill:url(#radialGradient2366);fill-opacity:1;fill-rule:evenodd;stroke:none;stroke-width:8;stroke-linecap:butt;stroke-linejoin:round;stroke-miterlimit:4;stroke-dasharray:none;stroke-opacity:1;filter:url(#filter3681)"
       d="m 71.875,12 c -0.799041,0.02487 -1.572946,0.283948 -2.21875,0.75 L 70.625,21.78125 75.96875,15.625 c -0.08779,-0.946211 -0.499493,-1.832841 -1.1875,-2.5 C 74.003873,12.37118 72.957323,11.966273 71.875,12 Z"
       id="path3685" /><path
       sodipodi:nodetypes="cccc"
       id="path2323"
       d="M 24.4,64.000073 87.6,19.744339 v 88.511471 z"
       style="fill:url(#linearGradient2328);fill-opacity:1;fill-rule:evenodd;stroke:none;stroke-width:1px;stroke-linecap:butt;stroke-linejoin:miter;stroke-opacity:1" /><path
       transform="matrix(1.0533333,0,0,-1.0173732,11.76,129.68423)"
       id="path3705"
       d="M 11.6875,59.125 9.5,60.875 C 8.5501441,61.634129 8,62.784063 8,64 c 10e-8,1.215937 0.5501441,2.365871 1.5,3.125 l 3.53125,2.8125 2.125,-5.625 z"
       style="opacity:0.5;fill:url(#radialGradient2370);fill-opacity:1;fill-rule:evenodd;stroke:none;stroke-width:8;stroke-linecap:butt;stroke-linejoin:round;stroke-miterlimit:4;stroke-dasharray:none;stroke-opacity:1;filter:url(#filter3722)" /><path
       id="path3320"
       d="M 87.6,19.744339 24.4,64.000073 87.6,108.25581 V 78.751985 49.248162 Z"
       style="fill:url(#radialGradient2372);fill-opacity:1;fill-rule:evenodd;stroke:none;stroke-width:1px;stroke-linecap:butt;stroke-linejoin:miter;stroke-opacity:1" /><path
       transform="matrix(1.0533333,0,0,0.9219945,-9.3066667,4.9924269)"
       id="path3394"
       d="M 92,16 32,64 92,112 V 80 48 Z"
       style="fill:none;fill-opacity:1;fill-rule:evenodd;stroke:url(#linearGradient1);stroke-width:1.01474px;stroke-linecap:butt;stroke-linejoin:miter;stroke-opacity:1;filter:url(#filter3396)" /><path
       transform="matrix(1.0533333,0,0,0.9219945,-9.3066667,4.9924269)"
       style="fill:none;fill-opacity:1;fill-rule:evenodd;stroke:url(#linearGradient2318);stroke-width:1.01474px;stroke-linecap:butt;stroke-linejoin:miter;stroke-opacity:1;filter:url(#filter3396)"
       d="M 92,16 32,64 92,112 V 80 48 Z"
       id="path3895" /><path
       id="path3897"
       d="M 87.6,19.744339 24.531667,63.913636 c 6.793856,0.858836 14.016911,1.325368 21.5275,1.325367 15.513654,0 29.871052,-1.977018 41.540833,-5.33028 V 49.248162 Z"
       style="fill:url(#linearGradient2315);fill-opacity:1;fill-rule:evenodd;stroke:none;stroke-width:1px;stroke-linecap:butt;stroke-linejoin:miter;stroke-opacity:1" /><path
       id="path3910"
       d="m 87.6,19.744339 -0.88875,0.633871 v 28.46658 10.516499 c -11.508047,3.306789 -25.649685,5.243844 -40.948333,5.243844 -7.131481,0 -13.993161,-0.422394 -20.474167,-1.210119 l -0.757083,0.518622 c 6.793856,0.858836 14.016911,1.325368 21.5275,1.325367 15.513654,0 29.871052,-1.977018 41.540833,-5.33028 V 49.248162 Z"
       style="fill:url(#linearGradient2312);fill-opacity:1;fill-rule:evenodd;stroke:none;stroke-width:1px;stroke-linecap:butt;stroke-linejoin:miter;stroke-opacity:1" /><path
       id="path3919"
       d="M 87.6,19.744339 24.531667,63.913636 c 3.591314,0.453991 7.315582,0.78465 11.125833,1.008432 -3.488053,-0.217395 -6.90721,-0.562838 -10.204167,-0.97962 l 61.225,-42.872743 v 28.639454 10.343625 c -4.247377,1.220467 -8.856521,2.26888 -13.759166,3.08292 C 78.150964,62.285094 83.084328,61.206282 87.6,59.908723 V 49.248162 Z M 35.6575,64.922068 c 1.745003,0.102487 3.515059,0.179649 5.299583,0.230498 -1.785355,-0.05547 -3.555557,-0.121801 -5.299583,-0.230498 z"
       style="fill:url(#linearGradient2309);fill-opacity:1;fill-rule:evenodd;stroke:none;stroke-width:1px;stroke-linecap:butt;stroke-linejoin:miter;stroke-opacity:1" /></g></svg>
