<?xml version="1.0" encoding="UTF-8" standalone="no"?>
<svg
   width="48"
   height="48"
   version="1.1"
   id="svg18"
   sodipodi:docname="sendtoPython.svg"
   xml:space="preserve"
   inkscape:version="1.4.2 (f4327f4, 2025-05-13)"
   xmlns:inkscape="http://www.inkscape.org/namespaces/inkscape"
   xmlns:sodipodi="http://sodipodi.sourceforge.net/DTD/sodipodi-0.dtd"
   xmlns:xlink="http://www.w3.org/1999/xlink"
   xmlns="http://www.w3.org/2000/svg"
   xmlns:svg="http://www.w3.org/2000/svg"
   xmlns:a="http://ns.adobe.com/AdobeSVGViewerExtensions/3.0/"><sodipodi:namedview
     id="namedview18"
     pagecolor="#ffffff"
     bordercolor="#000000"
     borderopacity="0.25"
     inkscape:showpageshadow="2"
     inkscape:pageopacity="0.0"
     inkscape:pagecheckerboard="0"
     inkscape:deskcolor="#d1d1d1"
     inkscape:zoom="11.64"
     inkscape:cx="30.111684"
     inkscape:cy="46.434708"
     inkscape:window-width="1920"
     inkscape:window-height="1046"
     inkscape:window-x="-11"
     inkscape:window-y="-11"
     inkscape:window-maximized="1"
     inkscape:current-layer="svg18" /><defs
     id="defs8"><linearGradient
       id="lg1"><stop
         stop-color="#3778ae"
         offset="0"
         id="stop1" /><stop
         stop-color="#366c99"
         offset="1"
         id="stop2" /></linearGradient><linearGradient
       id="lg2"><stop
         stop-color="#fff"
         offset="0"
         id="stop3" /><stop
         stop-color="#fff"
         stop-opacity="0.165"
         offset="1"
         id="stop4" /></linearGradient><linearGradient
       id="lg3"><stop
         stop-color="#ffe253"
         offset="0"
         id="stop5" /><stop
         stop-color="#ffca1c"
         offset="1"
         id="stop6" /></linearGradient><linearGradient
       id="lg4"><stop
         stop-color="#000"
         offset="0"
         id="stop7" /><stop
         stop-color="#000"
         stop-opacity="0"
         offset="1"
         id="stop8" /></linearGradient><linearGradient
       x1="94.693"
       y1="112.511"
       x2="94.693"
       y2="64.053"
       id="lg5"
       xlink:href="#lg2"
       gradientUnits="userSpaceOnUse"
       gradientTransform="matrix(0.353878,0,0,0.353878,-17.3795,-19.412)" /><linearGradient
       x1="59.728"
       y1="102"
       x2="142.62"
       y2="102"
       id="lg6"
       xlink:href="#lg1"
       gradientUnits="userSpaceOnUse"
       gradientTransform="matrix(0.353878,0,0,0.353878,-17.3795,-19.412)" /><linearGradient
       x1="94.693"
       y1="112.511"
       x2="94.693"
       y2="64.053"
       id="lg7"
       xlink:href="#lg2"
       gradientUnits="userSpaceOnUse"
       gradientTransform="matrix(0.353878,0,0,0.353878,-6.29697,-7.94537)" /><linearGradient
       x1="119.191"
       y1="89.13"
       x2="116.965"
       y2="169.279"
       id="lg8"
       xlink:href="#lg3"
       gradientUnits="userSpaceOnUse"
       gradientTransform="matrix(0.353878,0,0,0.353878,-16.3897,-17.997)" /><radialGradient
       cx="15.115"
       cy="63.965"
       r="12.289"
       fx="15.115"
       fy="63.965"
       id="rg1"
       xlink:href="#lg4"
       gradientUnits="userSpaceOnUse"
       gradientTransform="matrix(1.6,0,0,0.551754,-0.183975,4.83575)" /><linearGradient
       inkscape:collect="always"
       id="linearGradient3733"><stop
         style="stop-color:#e5ff00;stop-opacity:1;"
         offset="0"
         id="stop3735" /><stop
         style="stop-color:#e5ff00;stop-opacity:0;"
         offset="1"
         id="stop3737" /></linearGradient><linearGradient
       inkscape:collect="always"
       id="linearGradient3710"><stop
         style="stop-color:#ffffff;stop-opacity:1;"
         offset="0"
         id="stop3712" /><stop
         style="stop-color:#ffffff;stop-opacity:0;"
         offset="1"
         id="stop3714" /></linearGradient><linearGradient
       id="linearGradient3689"
       inkscape:collect="always"><stop
         id="stop3691"
         offset="0"
         style="stop-color:#f0ff80;stop-opacity:1" /><stop
         id="stop3693"
         offset="1"
         style="stop-color:#f0ff80;stop-opacity:0" /></linearGradient><linearGradient
       inkscape:collect="always"
       id="linearGradient3511"><stop
         style="stop-color:#002a0d;stop-opacity:1;"
         offset="0"
         id="stop3513" /><stop
         style="stop-color:#002a0d;stop-opacity:0;"
         offset="1"
         id="stop3515" /></linearGradient><linearGradient
       id="linearGradient3503"
       inkscape:collect="always"><stop
         id="stop3505"
         offset="0"
         style="stop-color:#005f1e;stop-opacity:1" /><stop
         id="stop3507"
         offset="1"
         style="stop-color:#43943c;stop-opacity:1" /></linearGradient><linearGradient
       inkscape:collect="always"
       id="linearGradient3438"><stop
         style="stop-color:#002100;stop-opacity:1;"
         offset="0"
         id="stop3440" /><stop
         style="stop-color:#002100;stop-opacity:0;"
         offset="1"
         id="stop3442" /></linearGradient><linearGradient
       inkscape:collect="always"
       id="linearGradient3426"><stop
         style="stop-color:#004d00;stop-opacity:1;"
         offset="0"
         id="stop3428" /><stop
         style="stop-color:#004d00;stop-opacity:0;"
         offset="1"
         id="stop3430" /></linearGradient><linearGradient
       inkscape:collect="always"
       id="linearGradient3361"><stop
         style="stop-color:#edffbf;stop-opacity:1;"
         offset="0"
         id="stop3363" /><stop
         style="stop-color:#edffbf;stop-opacity:0;"
         offset="1"
         id="stop3365" /></linearGradient><linearGradient
       inkscape:collect="always"
       id="linearGradient3348"><stop
         style="stop-color:#cbff10;stop-opacity:1"
         offset="0"
         id="stop3350" /><stop
         style="stop-color:#004d00;stop-opacity:1"
         offset="1"
         id="stop3352" /></linearGradient><linearGradient
       inkscape:collect="always"
       id="linearGradient3294"><stop
         style="stop-color:#37a42c;stop-opacity:1;"
         offset="0"
         id="stop3296" /><stop
         style="stop-color:#bff500;stop-opacity:1"
         offset="1"
         id="stop3298" /></linearGradient><radialGradient
       id="radialGradient2854"
       cx="538.77338"
       cy="651.10352"
       r="126.0234"
       gradientTransform="translate(-484,-674)"
       gradientUnits="userSpaceOnUse"><stop
         offset="0"
         style="stop-color:#cbcbcb;stop-opacity:1;"
         id="stop2856" /><stop
         offset="0.53930002"
         style="stop-color:#282828;stop-opacity:1;"
         id="stop2858" /><stop
         offset="1"
         style="stop-color:#9d9d9d;stop-opacity:1;"
         id="stop2860" /></radialGradient><linearGradient
       id="linearGradient2862"
       gradientUnits="userSpaceOnUse"
       x1="538.77338"
       y1="677.87701"
       x2="538.77338"
       y2="789.12207"
       gradientTransform="translate(-484,-674)"><stop
         offset="0.0056"
         style="stop-color:#4d4d4d;stop-opacity:1;"
         id="stop2864" /><stop
         offset="0.1348"
         style="stop-color:#676767;stop-opacity:1;"
         id="stop2866" /><stop
         offset="0.4831"
         style="stop-color:#b2b2b2;stop-opacity:1;"
         id="stop2868" /><stop
         offset="0.62989998"
         style="stop-color:#aaa;stop-opacity:1;"
         id="stop2870" /><stop
         offset="0.85280001"
         style="stop-color:#a1a1a1;stop-opacity:1;"
         id="stop2872" /><stop
         offset="1"
         style="stop-color:#9d9d9d;stop-opacity:1;"
         id="stop2874" /></linearGradient><radialGradient
       id="radialGradient2876"
       cx="538.77252"
       cy="792.99609"
       r="121.5466"
       gradientTransform="translate(-484,-674)"
       gradientUnits="userSpaceOnUse"><stop
         offset="0"
         style="stop-color:#d9d9d9;stop-opacity:1;"
         id="stop2878" /><stop
         offset="0.0494"
         style="stop-color:#c7c7c7;stop-opacity:1;"
         id="stop2880" /><stop
         offset="0.1049"
         style="stop-color:#b9b9b9;stop-opacity:1;"
         id="stop2882" /><stop
         offset="0.14321923"
         style="stop-color:#aeaeae;stop-opacity:1;"
         id="stop2884" /><stop
         offset="0.2156"
         style="stop-color:#a9a9a9;stop-opacity:1;"
         id="stop2886" /><stop
         offset="0.26969999"
         style="stop-color:#a6a6a6;stop-opacity:1;"
         id="stop2888" /><stop
         offset="0.3989"
         style="stop-color:#676767;stop-opacity:1;"
         id="stop2890" /><stop
         offset="0.39950001"
         style="stop-color:#676767;stop-opacity:1;"
         id="stop2892" /><stop
         offset="0.44839999"
         style="stop-color:#545454;stop-opacity:1;"
         id="stop2894" /><stop
         offset="0.49559999"
         style="stop-color:#414141;stop-opacity:1;"
         id="stop2896" /><stop
         offset="0.53988957"
         style="stop-color:#353535;stop-opacity:1;"
         id="stop2898" /><stop
         offset="0.57096523"
         style="stop-color:#313131;stop-opacity:1;"
         id="stop2900" /><stop
         offset="0.5948"
         style="stop-color:#3e3e3e;stop-opacity:1;"
         id="stop2902" /><stop
         offset="0.64560002"
         style="stop-color:#5f5f5f;stop-opacity:1;"
         id="stop2904" /><stop
         offset="0.69319999"
         style="stop-color:#707070;stop-opacity:1;"
         id="stop2906" /><stop
         offset="0.73589998"
         style="stop-color:#7b7b7b;stop-opacity:1;"
         id="stop2908" /><stop
         offset="0.76969999"
         style="stop-color:#7f7f7f;stop-opacity:1;"
         id="stop2910" /><stop
         offset="1"
         style="stop-color:#313131;stop-opacity:1;"
         id="stop2912" /></radialGradient><linearGradient
       id="linearGradient2914"
       gradientUnits="userSpaceOnUse"
       x1="538.77338"
       y1="793"
       x2="538.77338"
       y2="674"
       gradientTransform="translate(-484,-674)"><stop
         offset="0"
         style="stop-color:#262626;stop-opacity:1;"
         id="stop2916" /><stop
         offset="0.1124"
         style="stop-color:#313131;stop-opacity:1;"
         id="stop2918" /><stop
         offset="0.37450001"
         style="stop-color:#4d4d4d;stop-opacity:1;"
         id="stop2920" /><stop
         offset="0.42309999"
         style="stop-color:#505050;stop-opacity:1;"
         id="stop2922" /><stop
         offset="0.43689999"
         style="stop-color:#575757;stop-opacity:1;"
         id="stop2924" /><stop
         offset="0.44909999"
         style="stop-color:#646464;stop-opacity:1;"
         id="stop2926" /><stop
         offset="0.4605"
         style="stop-color:#757575;stop-opacity:1;"
         id="stop2928" /><stop
         offset="0.47119999"
         style="stop-color:#8a8a8a;stop-opacity:1;"
         id="stop2930" /><stop
         offset="0.48140001"
         style="stop-color:#a3a3a3;stop-opacity:1;"
         id="stop2932" /><stop
         offset="0.49110001"
         style="stop-color:silver;stop-opacity:1;"
         id="stop2934" /><stop
         offset="0.49439999"
         style="stop-color:#dfdfdf;stop-opacity:1;"
         id="stop2936" /><stop
         offset="0.51748788"
         style="stop-color:#afafaf;stop-opacity:1;"
         id="stop2938" /><stop
         offset="0.53259999"
         style="stop-color:#949494;stop-opacity:1;"
         id="stop2940" /><stop
         offset="0.55519998"
         style="stop-color:#7c7c7c;stop-opacity:1;"
         id="stop2942" /><stop
         offset="0.58454067"
         style="stop-color:#656565;stop-opacity:1;"
         id="stop2944" /><stop
         offset="0.60860002"
         style="stop-color:#525252;stop-opacity:1;"
         id="stop2946" /><stop
         offset="0.64160001"
         style="stop-color:#434343;stop-opacity:1;"
         id="stop2948" /><stop
         offset="0.69285822"
         style="stop-color:#393939;stop-opacity:1;"
         id="stop2951" /><stop
         offset="0.73979998"
         style="stop-color:#333;stop-opacity:1;"
         id="stop2953" /><stop
         offset="0.89889997"
         style="stop-color:#313131;stop-opacity:1;"
         id="stop2955" /><stop
         offset="1"
         style="stop-color:#a6a8a4;stop-opacity:1;"
         id="stop2957" /></linearGradient><radialGradient
       cx="265.3931"
       cy="-6078.353"
       r="253.01871"
       fx="369.5242"
       fy="-6078.353"
       id="path2295_1_"
       gradientUnits="userSpaceOnUse"
       gradientTransform="matrix(0.183616,0,0,-1.462967e-2,-0.962917,-7.25873)"><stop
         style="stop-color:#000000;stop-opacity:1"
         offset="0"
         id="stop8-0" /><stop
         style="stop-color:#ffffff;stop-opacity:1"
         offset="1"
         id="stop10" /><a:midPointStop
         style="stop-color:#000000"
         offset="0" /><a:midPointStop
         style="stop-color:#000000"
         offset="0.5" /><a:midPointStop
         style="stop-color:#FFFFFF"
         offset="1" /></radialGradient><linearGradient
       inkscape:collect="always"
       xlink:href="#linearGradient3503"
       id="linearGradient3814"
       gradientUnits="userSpaceOnUse"
       gradientTransform="translate(-4,0)"
       x1="71.626404"
       y1="123.73875"
       x2="46.225941"
       y2="28.942928" /><radialGradient
       inkscape:collect="always"
       xlink:href="#linearGradient3710"
       id="radialGradient3816"
       gradientUnits="userSpaceOnUse"
       gradientTransform="matrix(0.9650814,0.2619502,-0.9201984,3.3902106,57.309062,-57.693239)"
       cx="71.775223"
       cy="16.0865"
       fx="71.775223"
       fy="16.0865"
       r="3.15625" /><radialGradient
       inkscape:collect="always"
       xlink:href="#linearGradient3710"
       id="radialGradient3818"
       gradientUnits="userSpaceOnUse"
       gradientTransform="matrix(0.9650814,0.2619502,-0.9201984,3.3902106,17.309062,-57.693239)"
       cx="71.775223"
       cy="16.0865"
       fx="71.775223"
       fy="16.0865"
       r="3.15625" /><linearGradient
       inkscape:collect="always"
       xlink:href="#linearGradient3511"
       id="linearGradient3820"
       gradientUnits="userSpaceOnUse"
       x1="96.373123"
       y1="120.42788"
       x2="96.373123"
       y2="46.089832" /><radialGradient
       inkscape:collect="always"
       xlink:href="#linearGradient3689"
       id="radialGradient3822"
       gradientUnits="userSpaceOnUse"
       gradientTransform="matrix(0.9650814,0.2619502,-0.9201984,3.3902106,17.309062,-57.693239)"
       cx="71.775223"
       cy="16.0865"
       fx="71.775223"
       fy="16.0865"
       r="3.15625" /><radialGradient
       inkscape:collect="always"
       xlink:href="#linearGradient3689"
       id="radialGradient3824"
       gradientUnits="userSpaceOnUse"
       gradientTransform="matrix(0.9650814,0.2619502,-0.9201984,3.3902106,17.309062,-57.693239)"
       cx="71.775223"
       cy="16.0865"
       fx="71.775223"
       fy="16.0865"
       r="3.15625" /><radialGradient
       inkscape:collect="always"
       xlink:href="#linearGradient3733"
       id="radialGradient3826"
       gradientUnits="userSpaceOnUse"
       gradientTransform="matrix(0.8660254,0.5,-2.5824057,4.4728578,124.36771,-189.29673)"
       cx="72.59375"
       cy="44.199867"
       fx="72.59375"
       fy="44.199867"
       r="4.59375" /><radialGradient
       inkscape:collect="always"
       xlink:href="#linearGradient3438"
       id="radialGradient3828"
       gradientUnits="userSpaceOnUse"
       gradientTransform="matrix(1.2995435,-0.7502918,1.0577236,1.832031,-116.50709,-28.427601)"
       cx="72.850891"
       cy="89.517792"
       fx="72.850891"
       fy="89.517792"
       r="7.96875" /><linearGradient
       inkscape:collect="always"
       xlink:href="#linearGradient3294"
       id="linearGradient3830"
       gradientUnits="userSpaceOnUse"
       gradientTransform="translate(-4,0)"
       x1="43.799026"
       y1="32.051865"
       x2="58.606159"
       y2="96.363052" /><radialGradient
       inkscape:collect="always"
       xlink:href="#linearGradient3426"
       id="radialGradient3832"
       gradientUnits="userSpaceOnUse"
       gradientTransform="matrix(1.3413871,-0.1603659,0.4039213,3.3786163,-40.193418,-71.115595)"
       cx="72.25"
       cy="38.44363"
       fx="72.25"
       fy="38.44363"
       r="7.96875" /><radialGradient
       inkscape:collect="always"
       xlink:href="#linearGradient3733"
       id="radialGradient3834"
       gradientUnits="userSpaceOnUse"
       gradientTransform="matrix(0.8660254,0.5,-2.5824057,4.4728578,124.36771,-189.29673)"
       cx="72.59375"
       cy="44.199867"
       fx="72.59375"
       fy="44.199867"
       r="4.59375" /><radialGradient
       inkscape:collect="always"
       xlink:href="#linearGradient3710"
       id="radialGradient3836"
       gradientUnits="userSpaceOnUse"
       gradientTransform="matrix(6.5079869,0,0,1.510917,-63.772161,-32.970115)"
       cx="11.578125"
       cy="64.53125"
       fx="11.578125"
       fy="64.53125"
       r="3.578125" /><radialGradient
       inkscape:collect="always"
       xlink:href="#linearGradient3348"
       id="radialGradient3838"
       gradientUnits="userSpaceOnUse"
       gradientTransform="matrix(1.3229896,0,0,1.2700701,-22.928996,-22.179188)"
       cx="70.568741"
       cy="76.274155"
       fx="73.241119"
       fy="83.511856"
       r="50" /><linearGradient
       inkscape:collect="always"
       xlink:href="#linearGradient3733"
       id="linearGradient3840"
       gradientUnits="userSpaceOnUse"
       x1="91.785248"
       y1="112.5"
       x2="91.992706"
       y2="44.287056" /><linearGradient
       inkscape:collect="always"
       xlink:href="#linearGradient3361"
       id="linearGradient3842"
       gradientUnits="userSpaceOnUse"
       x1="90.418152"
       y1="6.3332911"
       x2="90.418152"
       y2="86.427879" /><linearGradient
       inkscape:collect="always"
       xlink:href="#linearGradient3710"
       id="linearGradient3844"
       gradientUnits="userSpaceOnUse"
       x1="116.14262"
       y1="76.660683"
       x2="89.082176"
       y2="29.583153" /><linearGradient
       inkscape:collect="always"
       xlink:href="#linearGradient3710"
       id="linearGradient3846"
       gradientUnits="userSpaceOnUse"
       x1="92.700165"
       y1="16"
       x2="108.70443"
       y2="75.728737" /><radialGradient
       inkscape:collect="always"
       xlink:href="#linearGradient3348"
       id="radialGradient2324"
       gradientUnits="userSpaceOnUse"
       gradientTransform="matrix(1.519949,7.3519239e-8,-8.0632435e-8,1.2772114,-20.224726,-23.996639)"
       cx="53.630272"
       cy="79.055809"
       fx="57.058514"
       fy="91.805016"
       r="50" /><radialGradient
       inkscape:collect="always"
       xlink:href="#linearGradient3710"
       id="radialGradient2335"
       gradientUnits="userSpaceOnUse"
       gradientTransform="matrix(0.9650814,0.2619502,-0.9201984,3.3902106,33.309062,-57.693239)"
       cx="71.775223"
       cy="16.0865"
       fx="71.775223"
       fy="16.0865"
       r="3.15625" /><radialGradient
       inkscape:collect="always"
       xlink:href="#linearGradient3689"
       id="radialGradient2341"
       gradientUnits="userSpaceOnUse"
       gradientTransform="matrix(0.9650814,0.2619502,-0.9201984,3.3902106,17.309062,-57.693239)"
       cx="71.775223"
       cy="16.0865"
       fx="71.775223"
       fy="16.0865"
       r="3.15625" /><radialGradient
       inkscape:collect="always"
       xlink:href="#linearGradient3710"
       id="radialGradient2343"
       gradientUnits="userSpaceOnUse"
       gradientTransform="matrix(6.5079869,0,0,1.510917,-63.772161,-32.970115)"
       cx="11.578125"
       cy="64.53125"
       fx="11.578125"
       fy="64.53125"
       r="3.578125" /><linearGradient
       id="linearGradient3295"><stop
         style="stop-color:#63e9ff;stop-opacity:1;"
         offset="0"
         id="stop3297" /><stop
         style="stop-color:#ffffff;stop-opacity:0;"
         offset="1"
         id="stop3299" /></linearGradient><linearGradient
       id="linearGradient3202"><stop
         style="stop-color:#cdeeff;stop-opacity:1;"
         offset="0"
         id="stop3204" /><stop
         style="stop-color:#d2e8ed;stop-opacity:0;"
         offset="1"
         id="stop3206" /></linearGradient><radialGradient
       id="XMLID_4_"
       cx="48"
       cy="-0.2148"
       r="55.148"
       gradientTransform="matrix(0.9792,0,0,0.9725,133.0002,20.8762)"
       gradientUnits="userSpaceOnUse"><stop
         offset="0"
         style="stop-color:#72D13D"
         id="stop3082" /><stop
         offset="0.3553"
         style="stop-color:#35AC1C"
         id="stop3084" /><stop
         offset="0.6194"
         style="stop-color:#0F9508"
         id="stop3086" /><stop
         offset="0.7574"
         style="stop-color:#008C00"
         id="stop3088" /><stop
         offset="1"
         style="stop-color:#007A00"
         id="stop3090" /></radialGradient><radialGradient
       r="43.474762"
       fy="51.592991"
       fx="88.042809"
       cy="74.979416"
       cx="77.533371"
       spreadMethod="reflect"
       gradientTransform="matrix(-0.4961056,0.4409829,-0.7360594,-0.8280666,-11.726835,87.897058)"
       gradientUnits="userSpaceOnUse"
       id="radialGradient3139"
       xlink:href="#linearGradient2990"
       inkscape:collect="always" /><clipPath
       id="clipPath3135"
       clipPathUnits="userSpaceOnUse"><path
         style="fill:url(#radialGradient3139);fill-opacity:1;stroke:none;stroke-width:16.49500084;stroke-linecap:round;stroke-linejoin:round;stroke-miterlimit:4;stroke-dasharray:none;stroke-dashoffset:4.15;stroke-opacity:1"
         d="M -97.32181,27.94375 C -107.56112,27.943751 -117.79103,31.818176 -125.55562,39.582762 C -133.56284,47.589993 -137.44486,58.222613 -137.19463,68.779409 L -137.19463,96.822041 C -137.19463,100.87378 -133.94013,104.12828 -129.88839,104.12828 L -64.755235,104.12828 C -60.703495,104.12828 -57.448995,100.87378 -57.448995,96.822041 L -57.448995,68.779409 C -57.198765,58.222612 -61.080775,47.589993 -69.088001,39.582762 C -76.852581,31.818171 -87.082497,27.943749 -97.32181,27.94375 z M -97.32181,43.481014 C -90.982458,43.481015 -84.633535,45.9179 -79.764176,50.787256 C -74.95275,55.59868 -72.515179,61.833382 -72.457934,68.090021 L -122.15737,68.090021 C -122.10012,61.833381 -119.69086,55.598679 -114.87944,50.787256 C -110.01008,45.917895 -103.66116,43.481013 -97.32181,43.481014 z"
         id="path3137"
         sodipodi:nodetypes="csccccccsccsccsc" /></clipPath><radialGradient
       r="43.474762"
       fy="51.592991"
       fx="88.042809"
       cy="74.979416"
       cx="77.533371"
       spreadMethod="reflect"
       gradientTransform="matrix(-0.4961056,0.4409829,-0.7360594,-0.8280666,-99.14147,87.897058)"
       gradientUnits="userSpaceOnUse"
       id="radialGradient3133"
       xlink:href="#linearGradient2990"
       inkscape:collect="always" /><clipPath
       id="clipPath3129"
       clipPathUnits="userSpaceOnUse"><path
         sodipodi:nodetypes="csccccccsccsccsc"
         id="path3131"
         d="M -184.73645,27.94375 C -194.97576,27.943751 -205.20567,31.818176 -212.97026,39.582762 C -220.97748,47.589993 -224.8595,58.222613 -224.60927,68.779409 L -224.60927,96.822041 C -224.60927,100.87378 -221.35477,104.12828 -217.30303,104.12828 L -152.16987,104.12828 C -148.11813,104.12828 -144.86363,100.87378 -144.86363,96.822041 L -144.86363,68.779409 C -144.6134,58.222612 -148.49541,47.589993 -156.50264,39.582762 C -164.26722,31.818171 -174.49713,27.943749 -184.73645,27.94375 z M -184.73645,43.481014 C -178.39709,43.481015 -172.04817,45.9179 -167.17881,50.787256 C -162.36739,55.59868 -159.92981,61.833382 -159.87257,68.090021 L -209.57201,68.090021 C -209.51476,61.833381 -207.1055,55.598679 -202.29408,50.787256 C -197.42472,45.917895 -191.0758,43.481013 -184.73645,43.481014 z"
         style="fill:url(#radialGradient3133);fill-opacity:1;stroke:none;stroke-width:16.49500084;stroke-linecap:round;stroke-linejoin:round;stroke-miterlimit:4;stroke-dasharray:none;stroke-dashoffset:4.15;stroke-opacity:1" /></clipPath><radialGradient
       r="43.474762"
       fy="51.592991"
       fx="73.551216"
       cy="74.979408"
       cx="63.041775"
       spreadMethod="reflect"
       gradientTransform="matrix(-1.1040885,0.8280667,-0.6647496,-0.8863327,191.44623,62.253906)"
       gradientUnits="userSpaceOnUse"
       id="radialGradient2409"
       xlink:href="#linearGradient2990"
       inkscape:collect="always" /><linearGradient
       y2="-20.962214"
       x2="60.402065"
       y1="64.076149"
       x1="60.402065"
       gradientUnits="userSpaceOnUse"
       id="linearGradient3289"
       xlink:href="#linearGradient6674"
       inkscape:collect="always" /><linearGradient
       gradientUnits="userSpaceOnUse"
       y2="8"
       x2="-60"
       y1="105.83054"
       x1="-60.945251"
       id="linearGradient3243"
       xlink:href="#linearGradient3237"
       inkscape:collect="always" /><linearGradient
       y2="21.03125"
       x2="31.376678"
       y1="71.084908"
       x1="115.76678"
       gradientTransform="translate(0.2332229,1.9150941)"
       gradientUnits="userSpaceOnUse"
       id="linearGradient3233"
       xlink:href="#linearGradient3710"
       inkscape:collect="always" /><linearGradient
       y2="46.228859"
       x2="59.225807"
       y1="7.8973217"
       x1="59.225807"
       gradientTransform="translate(0.2623629,1)"
       gradientUnits="userSpaceOnUse"
       id="linearGradient3231"
       xlink:href="#linearGradient3710"
       inkscape:collect="always" /><linearGradient
       y2="82.029854"
       x2="74.447762"
       y1="-26.936626"
       x1="64"
       gradientUnits="userSpaceOnUse"
       id="linearGradient2816"
       xlink:href="#linearGradient3710"
       inkscape:collect="always" /><linearGradient
       gradientUnits="userSpaceOnUse"
       y2="88.633484"
       x2="19.934336"
       y1="50.580647"
       x1="19.096775"
       id="linearGradient6680"
       xlink:href="#linearGradient6674"
       inkscape:collect="always" /><linearGradient
       gradientTransform="translate(0,3)"
       gradientUnits="userSpaceOnUse"
       y2="50.728985"
       x2="62.038712"
       y1="15.91371"
       x1="62.038712"
       id="linearGradient6649"
       xlink:href="#linearGradient6643"
       inkscape:collect="always" /><linearGradient
       gradientUnits="userSpaceOnUse"
       y2="74.913147"
       x2="55.329033"
       y1="112"
       x1="55.329033"
       id="linearGradient6637"
       xlink:href="#linearGradient6631"
       inkscape:collect="always" /><linearGradient
       y2="28.235947"
       x2="13.96104"
       y1="21.101994"
       x1="21.094994"
       spreadMethod="reflect"
       gradientTransform="translate(0.4129032,0.6193548)"
       gradientUnits="userSpaceOnUse"
       id="linearGradient6472"
       xlink:href="#linearGradient3710"
       inkscape:collect="always" /><linearGradient
       y2="27.070099"
       x2="15.126888"
       y1="21.101994"
       x1="21.094994"
       spreadMethod="reflect"
       gradientTransform="translate(0.4129032,0.6193548)"
       gradientUnits="userSpaceOnUse"
       id="linearGradient6464"
       xlink:href="#linearGradient3710"
       inkscape:collect="always" /><linearGradient
       gradientTransform="translate(-7.5870968,-7.3806452)"
       spreadMethod="reflect"
       gradientUnits="userSpaceOnUse"
       y2="27.007854"
       x2="15.189133"
       y1="21.101994"
       x1="21.094994"
       id="linearGradient6452"
       xlink:href="#linearGradient3710"
       inkscape:collect="always" /><linearGradient
       gradientUnits="userSpaceOnUse"
       y2="-24"
       x2="24"
       y1="88"
       x1="32"
       id="linearGradient6410"
       xlink:href="#linearGradient6404"
       inkscape:collect="always" /><radialGradient
       r="42.559486"
       fy="103.5803"
       fx="42.700352"
       cy="103.5803"
       cx="42.700352"
       spreadMethod="pad"
       gradientTransform="matrix(1.3965253,6.9831451e-3,-7.781496e-3,1.5561835,-122.82611,-69.698616)"
       gradientUnits="userSpaceOnUse"
       id="radialGradient9692"
       xlink:href="#linearGradient6666"
       inkscape:collect="always" /><linearGradient
       id="linearGradient6404"><stop
         id="stop6406"
         offset="0"
         style="stop-color:#081e3e;stop-opacity:1;" /><stop
         id="stop6408"
         offset="1"
         style="stop-color:#387de4;stop-opacity:1;" /></linearGradient><linearGradient
       id="linearGradient6631"><stop
         id="stop6633"
         offset="0"
         style="stop-color:#703700;stop-opacity:1;" /><stop
         id="stop6635"
         offset="1"
         style="stop-color:#bf5e00;stop-opacity:0;" /></linearGradient><linearGradient
       id="linearGradient6643"><stop
         id="stop6645"
         offset="0"
         style="stop-color:#fffddc;stop-opacity:1;" /><stop
         id="stop6647"
         offset="1"
         style="stop-color:#ffdfbf;stop-opacity:0;" /></linearGradient><linearGradient
       id="linearGradient6666"><stop
         style="stop-color:#9fc1f2;stop-opacity:1;"
         offset="0"
         id="stop6668" /><stop
         id="stop3183"
         offset="0.5"
         style="stop-color:#587eb5;stop-opacity:1;" /><stop
         style="stop-color:#0c2a58;stop-opacity:1;"
         offset="1"
         id="stop6670" /></linearGradient><linearGradient
       id="linearGradient6674"><stop
         id="stop6676"
         offset="0"
         style="stop-color:#001648;stop-opacity:1;" /><stop
         id="stop6678"
         offset="1"
         style="stop-color:#11a9ff;stop-opacity:0;" /></linearGradient><linearGradient
       id="linearGradient3237"><stop
         id="stop3239"
         offset="0"
         style="stop-color:#d5e6ff;stop-opacity:1;" /><stop
         id="stop3241"
         offset="1"
         style="stop-color:#ffffff;stop-opacity:0;" /></linearGradient><linearGradient
       id="linearGradient2990"><stop
         id="stop2992"
         offset="0"
         style="stop-color:#d7d7d7;stop-opacity:1;" /><stop
         id="stop2994"
         offset="1"
         style="stop-color:#ffffff;stop-opacity:1;" /></linearGradient><radialGradient
       inkscape:collect="always"
       xlink:href="#XMLID_4_"
       id="radialGradient3236"
       gradientUnits="userSpaceOnUse"
       gradientTransform="matrix(1,0,0,1.1383929,0,-10.517857)"
       cx="172"
       cy="76"
       fx="172"
       fy="76"
       r="56" /><linearGradient
       x1="194.5"
       y1="123.90683"
       x2="104.25"
       y2="5.1559582"
       id="linearGradient3409-1-2"
       xlink:href="#linearGradient66"
       gradientUnits="userSpaceOnUse"
       gradientTransform="matrix(0,0.07379465,0.0635406,0,15.94356,-16.556567)" /><linearGradient
       id="linearGradient66"><stop
         id="stop64"
         style="stop-color:#690000;stop-opacity:1;"
         offset="0" /><stop
         id="stop66"
         style="stop-color:#de4949;stop-opacity:1;"
         offset="1" /></linearGradient><radialGradient
       cx="-16.668488"
       cy="86.826965"
       r="60"
       fx="-16.668488"
       fy="86.826965"
       id="radialGradient3534-6-9"
       xlink:href="#linearGradient63"
       gradientUnits="userSpaceOnUse"
       gradientTransform="matrix(-0.03846527,0.01908777,0.03030016,0.06106023,19.743378,-11.209366)" /><linearGradient
       id="linearGradient63"
       inkscape:collect="always"><stop
         id="stop62"
         offset="0"
         style="stop-color:#d70101;stop-opacity:1;" /><stop
         id="stop63"
         offset="1"
         style="stop-color:#d70101;stop-opacity:0;" /></linearGradient><radialGradient
       cx="72.020813"
       cy="66.344505"
       r="60"
       fx="72.020813"
       fy="66.344505"
       id="radialGradient3455-8-9"
       xlink:href="#lg4"
       gradientUnits="userSpaceOnUse"
       gradientTransform="matrix(0.00130452,0.04292107,0.06552213,-0.00199144,16.488024,-6.2310837)" /><radialGradient
       cx="172"
       cy="76"
       r="56"
       fx="188.88173"
       fy="121.44213"
       id="radialGradient3213-3-5"
       xlink:href="#linearGradient71"
       gradientUnits="userSpaceOnUse"
       gradientTransform="matrix(0,0.07379465,0.07232915,0,15.275385,-16.556567)" /><linearGradient
       id="linearGradient71"><stop
         id="stop68"
         style="stop-color:#e4bfbf;stop-opacity:1;"
         offset="0" /><stop
         id="stop70"
         style="stop-color:#dd4c4c;stop-opacity:1;"
         offset="0.5" /><stop
         id="stop71"
         style="stop-color:#640000;stop-opacity:1;"
         offset="1" /></linearGradient><linearGradient
       x1="73.742638"
       y1="15.336544"
       x2="78.939339"
       y2="16.750759"
       id="linearGradient3301-6"
       xlink:href="#linearGradient3710"
       gradientUnits="userSpaceOnUse"
       gradientTransform="translate(9.84)"
       spreadMethod="reflect" /><filter
       id="filter3387-9-1-4"
       height="1.249912"
       y="-0.12495601"
       width="1.2041403"
       x="-0.10207015"><feGaussianBlur
         id="feGaussianBlur3389-8-2-8"
         stdDeviation="0.44655691"
         inkscape:collect="always" /></filter><linearGradient
       inkscape:collect="always"
       xlink:href="#linearGradient79"
       id="linearGradient5"
       gradientUnits="userSpaceOnUse"
       gradientTransform="matrix(1,0,0,0.8610463,-108.16138,-1.4361867)"
       x1="223.32712"
       y1="53.784153"
       x2="226.659"
       y2="57.279232"
       spreadMethod="reflect" /><linearGradient
       id="linearGradient79"><stop
         id="stop77"
         style="stop-color:#f3cccc;stop-opacity:1;"
         offset="0" /><stop
         id="stop79"
         style="stop-color:#d2e8ed;stop-opacity:0"
         offset="1" /></linearGradient><filter
       id="filter3443-4-1-0"
       height="1.2550791"
       y="-0.12753955"
       width="1.2314607"
       x="-0.11573033"><feGaussianBlur
         id="feGaussianBlur3445-7-3-9"
         stdDeviation="0.32549158"
         inkscape:collect="always" /></filter><linearGradient
       x1="74.75"
       y1="14.275884"
       x2="78.939339"
       y2="16.750759"
       id="linearGradient3393-1-8-0"
       xlink:href="#linearGradient75"
       gradientUnits="userSpaceOnUse"
       spreadMethod="reflect" /><linearGradient
       id="linearGradient75"><stop
         id="stop73"
         style="stop-color:#f3cccc;stop-opacity:1;"
         offset="0" /><stop
         id="stop75"
         style="stop-color:#ffffff;stop-opacity:0"
         offset="1" /></linearGradient><filter
       id="filter1"
       height="1.249912"
       y="-0.12495601"
       width="1.2041403"
       x="-0.10207015"><feGaussianBlur
         id="feGaussianBlur1"
         stdDeviation="0.44655691"
         inkscape:collect="always" /></filter><filter
       id="filter2"
       height="1.2550792"
       y="-0.12753955"
       width="1.2314607"
       x="-0.11573033"><feGaussianBlur
         id="feGaussianBlur2"
         stdDeviation="0.32549158"
         inkscape:collect="always" /></filter><linearGradient
       x1="87.300003"
       y1="17.42"
       x2="87.300003"
       y2="81.440002"
       id="linearGradient3009-0-3"
       xlink:href="#linearGradient84"
       gradientUnits="userSpaceOnUse"
       gradientTransform="matrix(0,0.07379465,0.07379465,0,16.049543,-9.0177058)" /><linearGradient
       id="linearGradient84"><stop
         id="stop82"
         style="stop-color:#f3d2d2;stop-opacity:1;"
         offset="0" /><stop
         id="stop84"
         style="stop-color:#ffffff;stop-opacity:0"
         offset="1" /></linearGradient><linearGradient
       inkscape:collect="always"
       xlink:href="#linearGradient79"
       id="linearGradient1"
       gradientUnits="userSpaceOnUse"
       gradientTransform="matrix(1,0,0,0.8610463,-108.16138,-1.4361867)"
       x1="223.32712"
       y1="53.784153"
       x2="226.659"
       y2="57.279232"
       spreadMethod="reflect" /></defs><path
     d="m 43.6618,40.1289 a 19.6618,6.7805 0 0 1 -39.3236,0 19.6618,6.7805 0 1 1 39.3236,0 z"
     fill="url(#rg1)"
     id="path8" /><path
     d="m 34.0804,37.5795 c 0,2.7319 -2.371,4.1156 -4.7774,4.8057 -3.6202,1.0404 -6.5255,0.8811 -9.5511,0 -2.5268,-0.7362 -4.7774,-2.2402 -4.7774,-4.8057 l 0,-9.0132 c 0,-2.594 2.1621,-4.8092 4.7774,-4.8092 l 9.3984,-0.6111 c 3.1814,0 5.2606,-1.9858 5.2606,-5.245 l 0.8655,-4.3569 3.5813,0 c 2.7814,0 4.0909,2.0667 4.7774,4.8056 0.9555,3.8043 0.9978,6.6495 0,9.615 -0.9661,2.8805 -2,4.8056 -4.7774,4.8056 l -4.7773,0 -9.5512,0 0,-0.02 c 8.2424,0.02 9.5512,-3.3164 9.5512,4.8281 z"
     fill="url(#lg8)"
     id="path9" /><path
     d="m 28.1104,38.1776 c 0,-0.9944 0.8033,-1.8013 1.7906,-1.8013 1,0 1.7906,0.8069 1.7906,1.8013 0,0.9979 -0.7997,1.8047 -1.7906,1.8047 -0.9873,0 -1.7906,-0.8068 -1.7906,-1.8047 z"
     fill="#fff"
     id="path10" /><path
     d="m 35.2662,13.5436 0,4.2265 C 31.8551,23.767 25.375,23.7787 19.939,23.7787 l -2.017,0.2052 c -2.8342,2.4364 -2.9244,6.3463 -2.9223,9.7756 6.2502,-6.9742 12.9174,-7.5004 16.2436,-7.4854 6.6377,0.029 9.7638,-1.6029 12.9339,-5.1939 -0.016,-0.07 0.016,-0.132 0,-0.2037 -0.1222,-0.8 -0.3362,-1.6544 -0.5601,-2.546 -0.3218,-1.2839 -0.7428,-2.4141 -1.4257,-3.2589 -0.016,-0.016 -0.038,-0.034 -0.051,-0.05 0,0 -0.042,0 -0.05,0 -0.023,-0.028 -0.028,-0.075 -0.05,-0.1011 -0.047,-0.034 -0.052,-0.07 -0.101,-0.101 -0.016,-0.016 -0.039,0.016 -0.05,0 C 41.1653,14.3502 40.2858,14 39.3942,13.8519 38.5861,13.7183 37.775,13.6165 36.95,13.5464 l -0.5092,0 -1.1711,0 z"
     opacity="0.837"
     fill="url(#lg7)"
     id="path11" /><path
     d="m 34.559,37.579 c 0,2.732 -2.8497,4.116 -5.256,4.806 -3.62,1.04 -6.525,0.881 -9.551,0 -2.527,-0.736 -4.801,-2.24 -4.805,-4.805 l -0.016,-9.258 c -0.01,-3.073 2.302,-5.01 4.849,-5 l 8.4667,0.015 c 3.25,0 6.41,-3.3 6.401,-6.55 l 0,-3.237 4.21,0 c 2.7814,0 4.09,2.067 4.777,4.806 0.956,3.804 1,6.649 0,9.615 -0.966,2.88 -2,5.1476 -4.777,5.148 l -4.3,0 -10.03,0 0,-0.02 10.03,0.034 z"
     fill="none"
     stroke="#bb9400"
     stroke-width="1.63"
     id="path12" /><path
     d="m 35.4653,14.3584 0,2.3933 c 0,3.7245 -3.4965,7.3757 -7.4809,7.3757 l -8.2491,0 c -2.8506,0 -4.0184,2.1569 -4.0042,4.4379 l 0.056,9.0129 c 0.01,1.0446 0.4,1.8235 1.148,2.4951 0.748,0.6715 1.8726,1.183 3.0553,1.5277 2.9164,0.8492 5.576,1.0022 9.0638,0 1.1327,-0.3248 2.6394,-0.9401 3.3976,-1.5964 0.7581,-0.6565 1.3077,-1.2961 1.3077,-2.4264 l 0,-3.6298 -10.052,0 0,-1.6795 15.1743,0.05 c 1.2008,0 1.788,-0.4724 2.3844,-1.1633 0.5964,-0.691 1.1149,-2.0469 1.5874,-3.456 0.9456,-2.8096 0.9336,-5.4491 0,-9.1658 -0.3252,-1.2978 -0.7976,-2.3461 -1.4257,-3.0552 -0.628,-0.7091 -1.357,-1.1202 -2.5461,-1.1202 z m 1.6294,1.6294 1.7867,0 c 0.5202,0 1.1993,0.4194 1.324,0.5602 0.3625,0.4093 0.78,1.2386 1.0694,2.3932 0.8895,3.5416 0.8915,5.7515 0.05,8.2491 -0.4517,1.347 -0.9205,2.6142 -1.2729,3 -0.3184,0.3395 -1,0.5093 -1.1713,0.5093 l -4.7865,-0.051 -12.0173,0 0,4.9384 10.052,0 0,2 c 0,0.727 -0.9733,1.1789 -1.1408,1.3239 -0.4872,0.4219 -1.3508,0.8359 -2.3423,1.1202 -3.223,0.9264 -5.5,0.7859 -8.1984,0 -1.0211,-0.2975 -1.9061,-0.7339 -2.4069,-1.1595 -0.5008,-0.4256 -0.5316,-0.7741 -0.6238,-1.285 l -0.056,-9.0129 c -0.013,-2.0224 0.6457,-2.8084 2.3748,-2.8084 l 8.2491,0 c 4.9233,0 9.1103,-4.3502 9.1103,-9.0052 1e-4,-0.2574 -10e-5,-0.5149 -10e-5,-0.7723 z"
     opacity="0.384"
     fill="#fff"
     id="path13" /><path
     d="m 13.9847,7.3199 c 0,-2.7319 0.7324,-4.2182 4.7772,-4.926 2.7462,-0.4813 6.2673,-0.5414 9.5513,0 2.5939,0.4282 4.7774,2.3604 4.7774,4.926 l 0,9.0134 c 0,2.6434 -2.1198,4.8091 -4.7774,4.8091 l -8.6621,0.4788 c -3.2414,0 -6.589,2.8321 -6.589,5.957 l -0.2736,3.777 -3.284,0 c -2.7779,0 -4.3951,-2.0029 -5.0745,-4.8056 -0.9166,-3.7651 -0.8776,-6.0088 0,-9.6147 0.7608,-3.1461 3.192,-4.8058 5.7,-4.8058 l 3.5848,0 c 0,0 8.9448,-0.035 0,-0.032 l 0,-4.7771 0,0 z"
     fill="url(#lg6)"
     id="path14" /><path
     d="m 16.3733,6.7218 c 0,-1 0.8,-1.8048 1.7906,-1.8048 0.9873,0 1.7907,0.8068 1.7907,1.8048 0,0.9944 -0.8034,1.8012 -1.7907,1.8012 -0.9908,0 -1.7906,-0.8068 -1.7906,-1.8012 z"
     fill="#fff"
     id="path15" /><path
     d="M 22.7173,1.9955 C 21.3039,2.0297 19.9469,2.1923 18.7455,2.4028 14.7007,3.1106 14.01,4.6102 14.01,7.3421 l -0.2952,4.787 -3.3203,-3e-4 c -2.7779,0 -5.1968,1.6406 -5.9576,4.7864 -0.5165,2.1225 -0.7504,3.7842 -0.6621,5.5504 6.2924,-7.1319 13.0442,-7.6531 16.3965,-7.638 6.6376,0.029 9.7637,-1.6029 12.9338,-5.1939 l 0,-2.2914 c 0,-2.5655 -2.1926,-4.511 -4.7865,-4.9392 C 26.4714,2.0983 24.5345,1.9515 22.7173,1.9955 z"
     opacity="0.377"
     fill="url(#lg5)"
     id="path16" /><path
     d="m 18.696,2.6271 c 3.6201,-1.0404 6.5255,-0.8811 9.551,0 2.5268,0.7361 4.7787,2.24 4.7774,4.8057 l 0,9.7315 c 0,1.3662 -1.9746,4.5293 -4.7726,4.5293 l -8.8988,0 c -2.4983,0 -5.997,2.7217 -5.997,5.981 l 0,3.7937 -4.21,0 c -2.7815,0 -4.0909,-2.0667 -4.7774,-4.8058 -0.9555,-3.8041 -1,-6.6493 0,-9.6148 0.9661,-2.8806 2,-5.1477 4.7774,-5.1477 l 4.2985,0 10.03,0 0,0.019 -10.03,-0.034 0.019,-4.8733 c -0.026,-1.9965 2.4146,-3.5524 5.2323,-4.3845 z"
     fill="none"
     stroke="#274e70"
     stroke-width="1.63"
     id="path17" /><path
     d="m 12.5337,30.6538 0,-2.796 c 0,-3.7246 3.3953,-7.0287 7.0461,-7.0287 l 8.6839,0 c 2.1549,0 4.024,-2.2411 4.0042,-4.3821 L 32.1845,7.434 C 32.1748,6.3895 31.8123,5.6105 31.0642,4.9389 30.3163,4.2673 29.1916,3.7558 28.009,3.4113 c -2.9166,-0.8494 -5.5762,-1.0023 -9.0639,0 -1.1326,0.3248 -2.6396,0.94 -3.3976,1.5964 -0.7582,0.6564 -1.3076,1.296 -1.3076,2.4263 l 0,3.6298 10.0519,0 0,1.6804 -15.1743,-0.051 c -1.2,0 -1.788,0.4724 -2.3844,1.1634 -0.5964,0.6908 -1.1149,2.0467 -1.5874,3.4559 -0.9456,2.8096 -0.9335,5.449 0,9.1657 0.3252,1.2978 0.7976,2.3461 1.4258,3.0552 0.628,0.7092 1.357,1.1203 2.546,1.1203 l 3.4162,0 z m -1.6295,-1.6295 -1.7867,0 c -0.52,0 -1.2,-0.4194 -1.3239,-0.56 C 7.431,28.0549 7.0135,27.2255 6.7241,26.0709 5.8346,22.5294 5.8327,20.3196 6.6736,17.8218 7.1253,16.475 7.5941,15.2077 7.9466,14.8319 8.265,14.4926 8.9375,14.3227 9.1178,14.3227 l 16.8038,0.051 0,-4.9394 -10.0519,0 0,-2 c 0,-0.727 0.9732,-1.1789 1.1407,-1.3239 0.4873,-0.4219 1.3509,-0.8359 2.3424,-1.12 3.2229,-0.9262 5.5,-0.7858 8.1983,0 1.0212,0.2975 1.9061,0.7339 2.3932,1.1712 0.1733,0.1352 0.2646,0.2973 0.4078,0.4582 0.1987,0.237 0.1552,0.55023 0.2011,0.8147 l 0,9.013 c 0,1.2357 -1.0565,2.7527 -2.2913,2.7527 l -8.6839,0 c -4.5897,0 -8.6756,4.0029 -8.6756,8.6581 0,0.3875 0,1.166 0,1.166 z"
     opacity="0.165"
     fill="#fff"
     id="path18" /><g
     id="g84"
     inkscape:transform-center-x="-4.1822668"
     inkscape:transform-center-y="0.79886261"
     transform="matrix(0,3.8115051,-3.8115051,0,14.086513,-45.974798)"><path
       d="m 17.052076,-3.3725077 3.509846,-4.8045339 c 0.05205,-0.072565 0.12916,-0.1145248 0.210478,-0.1145248 0.08132,0 0.158433,0.04196 0.210478,0.1145248 l 3.411755,4.8552678 c 0.194109,0.3057401 0.221614,0.7448647 -0.208493,0.7448647 h -1.697276 v 2.14742418 C 22.488912,-0.25370313 22.210735,5.5971946e-5 22.059379,-1.1656186e-7 H 19.48247 C 19.331113,5.5971946e-5 19.052937,-0.25370313 19.052985,-0.42948492 V -2.5769091 h -1.717939 c -0.287146,0 -0.483598,-0.5180768 -0.28297,-0.7955986 z"
       id="path2488-3"
       style="fill:url(#linearGradient3409-1-2);fill-opacity:1;fill-rule:evenodd;stroke:none;stroke-width:0.636211;stroke-linecap:round;stroke-linejoin:round;stroke-miterlimit:4;stroke-dasharray:none;stroke-opacity:1" /><path
       d="m 17.052076,-3.3725077 3.509846,-4.8045339 c 0.05205,-0.072565 0.12916,-0.1145248 0.210478,-0.1145248 0.08132,0 0.158433,0.04196 0.210478,0.1145248 l 3.411755,4.8552678 c 0.194109,0.3057401 0.221614,0.7448647 -0.208493,0.7448647 h -1.697276 v 2.14742418 C 22.488912,-0.25370313 22.210735,5.5971946e-5 22.059379,-1.1656186e-7 H 19.48247 C 19.331113,5.5971946e-5 19.052937,-0.25370313 19.052985,-0.42948492 V -2.5769091 h -1.717939 c -0.287146,0 -0.483598,-0.5180768 -0.28297,-0.7955986 z"
       id="path3532-7"
       style="opacity:0.254682;fill:url(#radialGradient3534-6-9);fill-opacity:1;fill-rule:evenodd;stroke:none;stroke-width:0.636211;stroke-linecap:round;stroke-linejoin:round;stroke-miterlimit:4;stroke-dasharray:none;stroke-opacity:1" /><path
       d="m 17.052076,-3.3725077 3.509846,-4.8045339 c 0.05205,-0.072565 0.12916,-0.1145248 0.210478,-0.1145248 0.08132,0 0.158433,0.04196 0.210478,0.1145248 l 3.414707,4.8449365 c 0.194108,0.3057401 0.221614,0.7448647 -0.208493,0.7448647 l -1.700228,0.010331 v 2.14742424 C 22.488912,-0.25370308 22.210735,5.6029355e-5 22.059379,-5.9152943e-8 H 19.48247 C 19.331113,5.5971946e-5 19.052937,-0.25370313 19.052985,-0.42948492 V -2.5769091 h -1.717939 c -0.287146,0 -0.483598,-0.5180768 -0.28297,-0.7955986 z"
       id="path3447-7"
       style="fill:url(#radialGradient3455-8-9);fill-opacity:1;fill-rule:evenodd;stroke:none;stroke-width:0.636211;stroke-linecap:round;stroke-linejoin:round;stroke-miterlimit:4;stroke-dasharray:none;stroke-opacity:1" /><path
       d="m 17.602628,-3.4764334 3.030434,-4.1874749 c 0.102265,-0.1022646 0.191955,-0.085895 0.27029,-0.00756 l 2.872491,4.0732408 c 0.227596,0.2951786 0.239736,0.5903572 0,0.5903572 l -1.716464,0.00148 v 2.57690958 H 19.48247 V -3.006394 l -1.72327,0.0059 c -0.202736,0 -0.297028,-0.2326649 -0.156572,-0.4759428 z"
       id="path3474-6"
       style="fill:url(#radialGradient3213-3-5);fill-opacity:1;fill-rule:evenodd;stroke:none;stroke-width:1.09557;stroke-linecap:round;stroke-linejoin:round;stroke-miterlimit:4;stroke-dasharray:none;stroke-opacity:1" /><path
       d="m 79.34,13.0625 c -1.077088,0.06528 -2.113901,0.376786 -3,0.9375 l 2.375,7.625 8.125,-3.15625 V 18 c 0,-2.918352 -3.938921,-5.15334 -7.5,-4.9375 z"
       id="path3272-1"
       style="fill:url(#linearGradient3301-6);fill-opacity:1;fill-rule:evenodd;stroke:none;stroke-width:1px;stroke-linecap:butt;stroke-linejoin:miter;stroke-opacity:1;filter:url(#filter3387-9-1-4)"
       transform="matrix(0,0.07379465,0.07379465,0,16.049543,-9.0177058)" /><path
       d="m 115.65112,40 c -0.33944,1.154561 -2.5625,6.125 -2.5625,6.125 l 6.75,-0.03125 V 44 c 7.6e-4,-2.05105 -1.61796,-4.000656 -4,-4 z"
       transform="matrix(0,0.07379465,-0.07379465,0,25.364272,-8.9926156)"
       id="path3519-0"
       style="opacity:0.614232;fill:url(#linearGradient1);fill-opacity:1;fill-rule:evenodd;stroke:none;stroke-width:8.62138;stroke-linecap:round;stroke-linejoin:round;stroke-miterlimit:4;stroke-dasharray:none;stroke-opacity:1;filter:url(#filter3443-4-1-0)" /><path
       d="M 72.5,11.0625 C 71.422912,11.12778 70.386099,11.439286 69.5,12 L 71.875,19.625 80,16.46875 V 16 c 0,-2.918352 -3.938921,-5.15334 -7.5,-4.9375 z"
       transform="matrix(0,0.06137067,-0.07379465,0,25.257945,-7.5190324)"
       id="path3391-3-7"
       style="opacity:0.70412;fill:url(#linearGradient3393-1-8-0);fill-opacity:1;fill-rule:evenodd;stroke:none;stroke-width:1px;stroke-linecap:butt;stroke-linejoin:miter;stroke-opacity:1;filter:url(#filter3387-9-1-4)" /><path
       d="m 115.65112,40 c -0.33944,1.154561 -2.5625,6.125 -2.5625,6.125 l 6.75,-0.03125 V 44 c 7.6e-4,-2.05105 -1.61796,-4.000656 -4,-4 z"
       transform="matrix(-0.07376492,-0.00209445,0.00209445,-0.07376492,27.922107,3.111038)"
       id="path3528-4"
       style="opacity:0.749064;fill:url(#linearGradient5);fill-opacity:1;fill-rule:evenodd;stroke:none;stroke-width:8.62138;stroke-linecap:round;stroke-linejoin:round;stroke-miterlimit:4;stroke-dasharray:none;stroke-opacity:1;filter:url(#filter3443-4-1-0)" /><path
       d="m 17.536966,-3.2571113 c 0.0019,-0.067175 0.02068,-0.1430534 0.06457,-0.2190778 l 3.032498,-4.1878461 c 0.102265,-0.1022647 0.191476,-0.085254 0.269812,-0.00692 l 0.145283,0.2075474 c 0.06603,0.6022752 0.101467,1.2329744 0.101467,1.8817635 0,1.9782985 -0.326551,3.7840274 -0.862474,5.15178864 H 19.4833 V -3.0057484 l -1.72495,0.00461 c -0.139381,-1e-7 -0.225559,-0.1081902 -0.221384,-0.2559752 z"
       id="path2412-5"
       style="fill:url(#linearGradient3009-0-3);fill-opacity:1;stroke:none;stroke-width:0.00737946;stroke-linecap:round;stroke-linejoin:round;stroke-miterlimit:4;stroke-dasharray:none;stroke-dashoffset:4.15;stroke-opacity:1" /></g></svg>
