<?xml version="1.0" encoding="UTF-8" standalone="no"?>
<!-- Created with Inkscape (http://www.inkscape.org/) -->

<svg
   width="64"
   height="64"
   viewBox="0 0 16.933333 16.933333"
   version="1.1"
   id="svg1"
   inkscape:version="1.4.2 (ebf0e94, 2025-05-08)"
   sodipodi:docname="bucket.svg"
   xml:space="preserve"
   xmlns:inkscape="http://www.inkscape.org/namespaces/inkscape"
   xmlns:sodipodi="http://sodipodi.sourceforge.net/DTD/sodipodi-0.dtd"
   xmlns="http://www.w3.org/2000/svg"
   xmlns:svg="http://www.w3.org/2000/svg"><sodipodi:namedview
     id="namedview1"
     pagecolor="#ffffff"
     bordercolor="#000000"
     borderopacity="0.25"
     inkscape:showpageshadow="2"
     inkscape:pageopacity="0.0"
     inkscape:pagecheckerboard="0"
     inkscape:deskcolor="#d1d1d1"
     inkscape:document-units="mm"
     inkscape:zoom="22.627417"
     inkscape:cx="27.223611"
     inkscape:cy="45.321125"
     inkscape:window-width="3840"
     inkscape:window-height="2054"
     inkscape:window-x="-11"
     inkscape:window-y="-11"
     inkscape:window-maximized="1"
     inkscape:current-layer="layer1"
     showguides="true"><sodipodi:guide
       position="34.60909,-64.884847"
       orientation="0,-1"
       id="guide5"
       inkscape:locked="false" /></sodipodi:namedview><defs
     id="defs1" /><g
     inkscape:label="Layer 1"
     inkscape:groupmode="layer"
     id="layer1"><path
       id="path8-1"
       style="fill:#ffffff;fill-opacity:1;stroke-width:0.0858397"
       d="M 5.5127405,1.4249798 C 3.2233646,1.576855 1.1502665,3.3291853 0.63818787,5.5697745 -0.22223324,5.8246536 0.03065693,6.8691585 0.04716016,7.5443008 0.07110595,7.9984066 0.60897227,8.0126772 0.73564066,8.3424966 1.2158649,8.7981822 1.0008375,9.5258569 1.1151671,10.134614 c 0.0638,0.993472 0.1625813,1.984139 0.2470774,2.975989 -0.68281463,0.07479 -1.66675645,0.699335 -1.18965654,1.480419 0.78399117,0.849018 2.08801724,0.791858 3.15548814,0.916738 2.5065848,-0.06128 5.04989,0.16118 7.5544079,-0.13758 0.404158,-0.05703 0.795184,-0.238196 1.116357,0.112135 1.58807,-0.358117 3.286765,-0.545028 4.701614,-1.400604 0.532187,-0.414461 0.03393,-0.965202 -0.320624,-1.307665 C 15.721966,12.031953 15.346929,11.115852 15.178226,10.155464 15.018742,9.5105709 14.861065,8.7204221 14.107679,8.5443395 13.062286,8.188606 13.261873,6.8824569 12.996556,6.0258731 12.725488,4.9533711 12.398634,3.5313504 11.202568,3.167656 10.799051,2.9210215 10.357701,3.6226014 10.130737,3.1733578 8.9648216,1.910917 7.2190158,1.273045 5.5127405,1.4249798 Z" /><path
       style="fill:#aaaaaa;fill-opacity:1;stroke:none;stroke-width:0.17168;stroke-linecap:round;stroke-dasharray:none;stroke-dashoffset:6;stroke-opacity:1;paint-order:fill markers stroke"
       d="m 2.2899624,13.95104 -0.4948816,-7.3659924 0.3917777,-0.459914 2.73109,-0.3577097 4.235746,0.2271173 0.8660895,0.5353346 0.06744,0.2190194 0.150954,0.9603847 0.01135,1.6522813 -0.4144894,1.0163518 0.2044064,1.1583 0.153304,0.323643 c 0,0 -0.03407,1.595501 -0.04542,1.709061 -0.01135,0.113559 -0.2498291,0.516692 -0.2838968,0.533726 -0.034068,0.01703 -2.3733797,0.579151 -2.5153286,0.579151 -0.141949,0 -3.3272745,-0.153305 -3.3613418,-0.153305 -0.034067,0 -1.2377913,-0.329321 -1.2718595,-0.329321 -0.034068,0 -0.4249445,-0.248128 -0.4249435,-0.248128 z"
       id="path9" /><path
       style="fill:#ffffff;fill-opacity:1;stroke:none;stroke-width:0.17168;stroke-linecap:round;stroke-dasharray:none;stroke-dashoffset:6;stroke-opacity:1;paint-order:fill markers stroke"
       d="M 3.1577869,7.2664004 9.6834485,7.0027471 9.6817403,7.3004681 7.8743137,7.7517049 4.4409987,8.0215668 Z"
       id="path10" /><path
       style="fill:#000000;stroke-width:0.0858397"
       d="M 2.967573,14.973591 C 1.9043822,14.877047 1.2938743,14.746946 0.86603782,14.525746 0.58448596,14.380179 0.49448211,14.213843 0.60191916,14.037631 c 0.0542791,-0.08903 0.26310832,-0.228384 0.45931574,-0.306513 0.1432743,-0.05705 0.5792021,-0.166703 0.5959923,-0.149913 0.00494,0.0049 0.029407,0.108903 0.054351,0.231007 0.079196,0.387666 0.2028771,0.52637 0.6731837,0.754944 0.2336198,0.113541 0.8040585,0.354193 1.0106732,0.426375 0.052158,0.01823 -0.07063,0.01251 -0.4278623,-0.01993 z m 5.9017627,-0.04183 c 0.8410863,-0.239391 1.3458913,-0.457987 1.5944163,-0.690433 0.122267,-0.114356 0.192587,-0.272874 0.214636,-0.48383 0.0077,-0.07353 0.027,-0.144495 0.0429,-0.1577 0.01591,-0.01321 0.08763,-0.02092 0.159346,-0.01713 l 0.13042,0.0069 0.08581,0.306608 c 0.09869,0.352631 0.194306,0.595245 0.291153,0.738745 0.03725,0.05519 0.06015,0.105066 0.05086,0.110807 -0.0093,0.0057 -0.118626,0.03077 -0.242971,0.05564 -0.532863,0.106543 -1.6564505,0.208916 -2.264025,0.206279 l -0.3240821,-0.0014 z M 5.098818,14.961312 C 4.7211429,14.934553 4.0877063,14.854892 3.7539595,14.792183 2.7534894,14.604205 2.201223,14.371215 2.0292216,14.064553 1.9704728,13.95981 1.9592149,13.901712 1.9081909,13.43998 1.8040175,12.497279 1.5711188,9.6056182 1.5193806,8.6125307 L 1.503835,8.3141528 1.4105718,8.3016463 C 1.345319,8.2928958 1.2988985,8.2685369 1.2560105,8.2205403 1.1952762,8.1525732 1.1242593,7.9608654 1.1242593,7.8648841 c 0,-0.0274 -0.00597,-0.079633 -0.013251,-0.1160703 C 1.0978163,7.6828513 1.0971373,7.6826012 0.95583221,7.6915988 0.75807028,7.7041915 0.6389058,7.6430934 0.57368475,7.4956635 0.53053395,7.3981236 0.52641965,7.3436265 0.52449598,6.8441377 0.52253884,6.3350804 0.52544881,6.2938011 0.56859273,6.2195634 0.62494654,6.1225936 0.74069374,6.0606637 0.86566441,6.0606164 l 0.0934384,-3.52e-5 0.0144426,0.1053726 c 0.00794,0.057955 0.0144434,0.1417619 0.0144434,0.1862371 0,0.1494694 0.0381103,0.040628 0.0663198,-0.1894063 0.04231,-0.3450105 0.085954,-0.5388934 0.195857,-0.8700675 C 1.8059592,3.6179232 3.257895,2.3530056 5.019327,2.0090473 5.6454645,1.8867798 6.4953005,1.8999571 7.1586608,2.0422176 7.8148877,2.1829493 8.5534384,2.527111 9.1293391,2.960546 9.3536033,3.1293318 9.7380126,3.4969999 9.9265205,3.7230083 l 0.1486855,0.1782652 -0.05555,0.1768608 C 9.989104,4.1754083 9.951435,4.3163173 9.935946,4.3912665 L 9.9077842,4.5275371 9.8596479,4.461165 C 9.6437236,4.1634453 9.5155691,4.0049756 9.3476948,3.828107 8.4672562,2.9004993 7.2916944,2.4039867 5.9758969,2.4039867 c -0.8507476,0 -1.7480914,0.2715061 -2.4669025,0.7464025 C 2.5439442,3.7879683 1.8927767,4.7103107 1.6007747,5.853273 1.5516614,6.0455121 1.5115829,6.1471747 1.4440356,6.2508494 1.3045073,6.4650059 1.2751021,6.562622 1.2755759,6.8100696 c 5.15e-4,0.2535461 0.051632,0.4008236 0.1823392,0.525057 l 0.080808,0.076806 -0.014774,-0.1135588 C 1.5158199,7.2359158 1.5029062,7.0443834 1.4952424,6.8727448 1.4781036,6.488883 1.5013542,6.4089782 1.6758399,6.2521018 1.9755725,5.9826155 2.5771478,5.7913285 3.557972,5.653627 4.1357997,5.5725024 4.6990742,5.5361621 5.5871209,5.5227127 c 1.4512466,-0.021979 2.5902183,0.058894 3.5570033,0.252568 0.329926,0.066093 0.7336497,0.1751175 0.7667554,0.2070602 0.012969,0.012514 0.1176454,0.538793 0.1089044,0.5475349 -0.0042,0.00419 -0.1192119,-0.032143 -0.2555817,-0.080765 C 9.2404433,6.2623708 8.5431042,6.1408964 7.5062655,6.0557845 6.9518804,6.0102766 5.0269314,6.0181026 4.4288206,6.0682956 3.2598882,6.1663925 2.3335776,6.3752038 2.1321923,6.5860073 c -0.063069,0.066018 -0.063861,0.069581 -0.022269,0.1001321 0.023718,0.017422 0.093441,0.048391 0.1549382,0.068816 0.1097349,0.036449 0.1142106,0.036066 0.2407719,-0.0206 0.3388361,-0.1517115 0.9642414,-0.2762855 1.8010341,-0.3587475 0.4497695,-0.044322 0.6480714,-0.050293 1.7233337,-0.051884 0.8098406,-0.0012 1.3286983,0.0079 1.5557565,0.027278 0.9892295,0.084431 1.7745946,0.2420175 2.1207658,0.4255386 l 0.1448428,0.076788 0.1129229,-0.057223 c 0.062108,-0.031474 0.1174308,-0.052718 0.1229388,-0.047209 0.0055,0.0055 0.06488,0.1620555 0.131933,0.347882 0.06706,0.1858266 0.200723,0.5371622 0.297039,0.780746 0.194136,0.4909715 0.260561,0.6739422 0.260561,0.7177319 0,0.018803 -0.03857,0.031743 -0.107882,0.03619 l -0.10788,0.00691 -0.0055,0.1022029 c -0.01304,0.2399889 -0.05441,0.5307766 -0.08349,0.586823 -0.01725,0.033255 -0.08873,0.1320045 -0.158842,0.2194448 -0.180026,0.2245266 -0.240415,0.3538057 -0.240415,0.5146689 0,0.234692 0.130882,0.800855 0.361432,1.563458 l 0.08583,0.283898 -0.05136,0.863047 c -0.06319,1.062005 -0.06746,1.105345 -0.120364,1.224949 -0.118363,0.267582 -0.5209582,0.483868 -1.2294319,0.660492 -0.5850015,0.145839 -1.2917657,0.252153 -2.0327037,0.305765 -0.3668706,0.02654 -1.6030309,0.02543 -1.9872797,-0.0019 z m 1.612536,-0.597963 c 0.791931,-0.023 1.7499973,-0.156037 2.3620237,-0.327985 L 9.221004,13.993884 9.23445,13.791706 c 0.0074,-0.111196 0.00722,-0.209511 -4.292e-4,-0.218474 -0.00761,-0.009 -0.090318,0.0079 -0.1837856,0.0375 -0.6576278,0.208172 -1.6537424,0.345479 -2.6795885,0.369359 -1.5030767,0.03498 -2.9080616,-0.179276 -3.767764,-0.574596 l -0.1679489,-0.07723 0.014083,0.150797 c 0.00774,0.08294 0.029133,0.173768 0.047531,0.201844 0.1533339,0.234018 1.2867861,0.539001 2.4091909,0.648252 0.2685875,0.02615 1.2072658,0.06206 1.3399947,0.05127 0.037474,-0.0031 0.2469903,-0.01073 0.4655914,-0.01707 z m 3.0305385,-0.579217 c 0.037209,-0.03884 0.071696,-0.10746 0.082751,-0.164662 0.021635,-0.111934 0.026974,-0.291122 0.00867,-0.291122 -0.00675,0 -0.052735,0.02064 -0.1022028,0.04588 l -0.089943,0.04588 v 0.2153 c 0,0.118416 0.0083,0.215301 0.018463,0.215301 0.010154,0 0.047171,-0.02996 0.082257,-0.0666 z M 6.836269,13.577381 c 0.5206155,-0.03111 1.0714999,-0.0977 1.4918513,-0.180328 0.3755351,-0.07383 0.8959096,-0.209667 0.9265294,-0.241869 0.017344,-0.01825 0.053359,-0.645202 0.1146467,-1.99581 0.013037,-0.287305 0.033209,-0.721666 0.044824,-0.96525 0.042482,-0.890784 0.074928,-1.7949414 0.06478,-1.8050906 -0.00572,-0.00573 -0.076318,0.00982 -0.156867,0.034569 -0.1635877,0.050244 -0.8880478,0.1920044 -1.103546,0.2159377 L 8.0790167,8.6550293 8.0645326,8.745607 C 8.044031,8.8738218 7.9931057,8.961406 7.9158207,9.0013713 7.7634389,9.0801712 7.6187421,9.0144407 7.5689911,8.8438189 7.5532292,8.7897636 7.532668,8.7444192 7.5232995,8.7430534 7.5139294,8.7416912 7.424503,8.7405723 7.3245718,8.7405723 H 7.1428774 v 0.2994381 c 0,0.2530241 -0.00703,0.3139835 -0.045426,0.393275 C 6.9971541,9.6404714 6.7042473,9.6936925 6.5400651,9.5345605 6.4380763,9.4357096 6.4163821,9.3511248 6.4162275,9.0517291 6.4160558,8.7098099 6.3814684,8.649723 6.1848541,8.649723 c -0.072944,0 -0.1062885,0.015028 -0.1661394,0.074879 -0.041184,0.041184 -0.086096,0.1152806 -0.099805,0.1646603 -0.014655,0.052783 -0.025031,0.3003671 -0.02518,0.6007962 -1.717e-4,0.2860512 -0.010741,0.5487815 -0.024077,0.5968055 -0.027439,0.09881 -0.135499,0.230926 -0.2279956,0.278757 -0.092571,0.04788 -0.2618791,0.04103 -0.3781851,-0.01527 C 5.0569685,10.250388 5.0084185,10.079335 5.0081429,9.4507725 5.0079712,9.009602 4.9874203,8.9205988 4.8649476,8.8299639 4.7608136,8.7529005 4.5497483,8.7412196 4.4236651,8.8055424 4.2882159,8.8746433 4.2357386,8.9965385 4.2358846,9.2417218 c 1.716e-4,0.2660767 0.058731,0.9035822 0.1121849,1.2210092 0.024554,0.145815 0.056204,0.353948 0.070331,0.462517 0.055991,0.430284 -0.072661,0.757374 -0.3468407,0.881821 C 3.808927,11.926274 3.5356389,11.812969 3.397122,11.527631 3.299708,11.326911 3.2888487,11.139633 3.347454,10.67107 3.373235,10.464962 3.404795,10.164533 3.417592,10.003453 3.446984,9.6334689 3.44799,8.6487278 3.419052,8.5726174 3.382806,8.4772814 3.3119913,8.4226054 3.2247618,8.4226054 c -0.065686,0 -0.087796,0.013075 -0.12483,0.073813 -0.039404,0.064628 -0.045016,0.1149041 -0.045091,0.4039995 -7.63e-5,0.2976495 -0.00512,0.3400064 -0.051186,0.4298431 C 2.8796781,9.5720377 2.5624067,9.5711619 2.4373218,9.3286981 2.4013498,9.2589685 2.3929503,9.1708247 2.3806787,8.7342672 L 2.3662697,8.2217056 2.205751,8.1644913 C 2.117466,8.1330231 2.0409499,8.1115585 2.0357171,8.1167923 c -0.025527,0.025527 0.1389385,2.5259617 0.2337365,3.5535957 0.01786,0.193619 0.050549,0.554685 0.072639,0.802372 l 0.040164,0.450338 0.1488787,0.06798 c 0.2142553,0.09782 0.6846469,0.256165 0.9671584,0.325556 0.9281767,0.227984 2.2102117,0.328133 3.3379736,0.260752 z m 2.9395512,-0.588881 0.087415,-0.04459 0.016617,-0.465378 c 0.018405,-0.515408 0.015497,-0.549502 -0.078648,-0.922167 -0.044954,-0.177942 -0.066549,-0.235478 -0.068024,-0.181224 -0.00118,0.04371 -0.017082,0.396321 -0.03532,0.783556 -0.037082,0.787304 -0.039245,0.874404 -0.021716,0.874404 0.00675,0 0.051597,-0.02006 0.099676,-0.04459 z M 3.8143771,11.153974 c 0.017838,-0.159302 -0.015363,-0.344125 -0.083939,-0.467278 -0.091804,-0.164868 -0.1260222,-0.133415 -0.1468761,0.135007 -0.015739,0.202586 0.028471,0.452066 0.091234,0.514828 l 0.045903,0.0459 0.039512,-0.04879 c 0.021732,-0.02684 0.046107,-0.107687 0.054166,-0.179665 z M 9.8666009,9.7327854 c 0.035958,-0.090519 0.076376,-0.2054235 0.089817,-0.2553428 0.020138,-0.074783 0.079053,-1.235903 0.0635,-1.2514563 -0.0026,-0.00262 -0.068487,0.017531 -0.146342,0.044805 l -0.141557,0.04959 0.00247,1.0106839 C 9.736849,10.297313 9.738369,10.33198 9.769091,10.119557 9.786769,9.9973515 9.830652,9.8233037 9.86661,9.7327844 Z M 7.4590467,8.3560609 c 0.027428,-0.01736 0.026375,-0.029425 -0.00701,-0.080384 -0.033628,-0.051321 -0.052836,-0.058961 -0.1333537,-0.053039 -0.078758,0.00579 -0.1010583,0.018931 -0.1370243,0.080731 L 7.1387017,8.3771819 7.2827408,8.37683 C 7.3619618,8.3766411 7.4413023,8.36729 7.4590523,8.356056 Z M 8.5062841,8.2054043 C 8.6745334,8.1733839 8.9100846,8.1225493 9.0297297,8.0924387 9.4301723,7.9916611 9.9623741,7.7856731 10.007962,7.7138149 c 0.01024,-0.016138 0.01877,-0.093218 0.01896,-0.1712903 3.43e-4,-0.1332326 -0.0028,-0.1419485 -0.052086,-0.1419485 -0.028838,0 -0.1378035,0.031157 -0.2421455,0.069237 -0.3823214,0.13953 -0.917062,0.2619465 -1.4856431,0.3401041 l -0.2017535,0.027732 0.01422,0.1505292 c 0.00782,0.082792 0.014293,0.178635 0.014382,0.2129865 1.718e-4,0.080328 0.030989,0.08063 0.4323853,0.00424 z M 2.3345604,7.263132 C 2.3044254,7.235236 1.9795864,7.105472 1.9682556,7.116803 c -0.00584,0.00584 -0.00138,0.1001811 0.0099,0.2096512 l 0.020512,0.1990366 0.1703377,0.086509 0.1703388,0.086509 0.00658,-0.2093884 C 2.3495341,7.3739573 2.3444241,7.2722619 2.3345651,7.263131 Z M 7.2337242,7.5819895 C 8.2408237,7.5037977 9.0895833,7.3354229 9.5389691,7.1246804 L 9.6525282,7.071427 9.576907,7.0640888 C 9.5353156,7.0600522 9.3717909,7.072711 9.2135187,7.0922228 8.7645313,7.1475634 8.1047652,7.2136968 7.6198246,7.2519701 7.3762405,7.2711946 7.1054031,7.2926359 7.0179625,7.2996177 6.4237067,7.3470662 4.691231,7.3472288 3.929162,7.2999094 3.7257749,7.2872801 3.7252093,7.2873937 3.8156029,7.3227146 c 0.2795045,0.1092144 0.90737,0.2176612 1.4989768,0.2589076 0.1873728,0.013064 0.3866678,0.027771 0.4428799,0.032684 0.1680605,0.014685 1.146863,-0.00675 1.4762646,-0.032314 z M 12.01366,14.898619 c -0.378714,-0.230948 -0.710062,-1.113131 -0.919517,-2.448142 -0.02,-0.127519 -0.0402,-0.178799 -0.09392,-0.238474 C 10.866856,12.06382 10.815699,11.92476 10.608808,11.148018 10.563888,10.979383 10.486281,10.688105 10.43634,10.500733 10.38639,10.31336 10.34547,10.135177 10.34538,10.104769 10.345037,9.9963626 10.44429,9.8484751 10.69582,9.5824256 11.235191,9.0119184 11.265503,8.7365685 10.883563,7.877027 10.3772,6.7374784 10.187626,5.996107 10.186783,5.1521108 c -5.15e-4,-0.5115647 0.0739,-0.8908305 0.222793,-1.1355889 0.06099,-0.1002617 0.21688,-0.2521414 0.310398,-0.3024204 0.136882,-0.073591 0.391365,-0.067546 0.547592,0.01301 0.407441,0.2100885 0.771487,0.8040069 1.040891,1.6981517 0.13207,0.4383346 0.231105,0.8940976 0.365917,1.6839532 0.106253,0.6225293 0.16848,0.8640523 0.284972,1.1060725 0.07747,0.1609523 0.129599,0.2309548 0.291769,0.3918321 0.20736,0.2057061 0.208214,0.2062133 0.894215,0.5304799 0.254207,0.1201625 0.228293,0.063847 0.533203,1.1587261 0.198251,0.711892 0.192269,0.684613 0.162378,0.740468 -0.03157,0.05899 0.05113,0.274696 0.286472,0.747152 0.333211,0.668921 0.633533,1.110128 1.058919,1.555673 0.137092,0.143588 0.22297,0.251888 0.22297,0.281185 0,0.159222 -1.064575,0.584945 -2.139891,0.855742 -0.383198,0.0965 -2.116255,0.465318 -2.181503,0.464251 -0.0029,-4.6e-5 -0.03627,-0.01904 -0.07422,-0.04217 z m 0.28022,-0.672343 c 0.0067,-0.151893 0.0036,-0.161029 -0.173941,-0.531915 -0.177162,-0.36993 -0.359814,-0.838026 -0.413712,-1.060254 -0.03208,-0.132219 -0.07401,-0.193324 -0.05302,-0.07725 0.08109,0.448494 0.287057,1.177133 0.415781,1.47085 0.134287,0.306414 0.168247,0.369569 0.194132,0.361029 0.0132,-0.0043 0.02702,-0.07747 0.03076,-0.16246 z m 0.844743,0.107067 c -8.6e-5,-0.0094 -0.03582,-0.111571 -0.07941,-0.227119 -0.04359,-0.115545 -0.09942,-0.28418 -0.124074,-0.374743 l -0.04483,-0.164659 0.0502,0.06814 c 0.17094,0.231996 0.358333,0.37428 0.586437,0.445275 0.146677,0.04566 0.372269,0.05773 0.394883,0.02114 0.0074,-0.01204 -0.0028,-0.08472 -0.02265,-0.161496 -0.01989,-0.07679 -0.03304,-0.142547 -0.02922,-0.146146 0.0037,-0.0036 0.0836,0.02448 0.177289,0.06241 0.178673,0.07233 0.502021,0.114018 0.530232,0.06837 0.0077,-0.0124 -0.04397,-0.06099 -0.114732,-0.107971 -0.238396,-0.158287 -0.481543,-0.424066 -0.722237,-0.789462 -0.04743,-0.07201 -0.08985,-0.127323 -0.09427,-0.122907 -0.0043,0.0043 0.03357,0.133355 0.08443,0.286534 0.05085,0.153177 0.08823,0.282739 0.08305,0.287912 -0.0051,0.0051 -0.08514,-0.04004 -0.1777,-0.100458 -0.276227,-0.180323 -0.464997,-0.424017 -0.679074,-0.876659 -0.116417,-0.246153 -0.199167,-0.443937 -0.237434,-0.567495 -0.0073,-0.02364 -0.01835,-0.03796 -0.02449,-0.03182 -0.04407,0.04407 0.233903,1.125481 0.344693,1.340997 0.05021,0.09769 -8.6e-5,0.07435 -0.157856,-0.07321 -0.211979,-0.198294 -0.461954,-0.597036 -0.623299,-0.994237 -0.04836,-0.119053 -0.106643,-0.164853 -0.08671,-0.06814 0.0058,0.02811 0.01692,0.135477 0.02472,0.238602 0.04087,0.540437 0.258859,1.216199 0.52033,1.613086 0.148203,0.224957 0.422627,0.468366 0.42173,0.374065 z m 1.696015,-0.73572 c -0.0084,-0.108415 -0.0051,-0.178428 0.0081,-0.178428 0.01199,0 0.07043,0.03734 0.129881,0.08298 0.134113,0.102969 0.320706,0.190418 0.440617,0.206501 l 0.091,0.0122 -0.140765,-0.133809 C 15.0864,13.323697 14.75568,12.735955 14.363151,11.809364 l -0.04444,-0.104913 0.01411,0.113559 c 0.018,0.144995 0.124398,0.554229 0.212316,0.816637 0.03748,0.111882 0.06479,0.206778 0.0607,0.210881 -0.004,0.004 -0.08082,-0.07108 -0.170481,-0.167101 -0.185725,-0.198873 -0.397714,-0.508606 -0.570244,-0.833176 -0.06508,-0.122423 -0.121516,-0.219392 -0.125421,-0.215488 -0.01154,0.01154 0.162396,0.625216 0.240029,0.846888 0.09043,0.258189 0.28405,0.645295 0.433706,0.867076 0.133864,0.198378 0.381423,0.465453 0.413223,0.4458 0.01288,-0.008 0.01617,-0.0865 0.0081,-0.19191 z m -2.717883,-1.939466 c 0.356008,-0.0955 0.810811,-0.21757 1.010675,-0.271283 0.199863,-0.05372 0.583124,-0.156567 0.85169,-0.228566 0.268567,-0.072 0.497182,-0.138709 0.508032,-0.148242 0.02778,-0.02442 -0.05459,-0.275412 -0.08639,-0.263209 -0.03807,0.01462 -1.431211,0.384786 -2.454336,0.65215 -0.349761,0.0914 -0.638454,0.167678 -0.641542,0.169507 -0.0032,0.0019 0.01055,0.05361 0.03033,0.115057 0.01977,0.06146 0.04012,0.125213 0.04524,0.141688 0.0051,0.01648 0.02723,0.02469 0.04917,0.01824 0.02193,-0.0064 0.331136,-0.08984 0.687143,-0.185341 z m -0.654783,-0.38654 0.151484,-0.03736 -0.02929,-0.08304 c -0.01612,-0.04568 -0.07255,-0.236263 -0.125439,-0.423543 -0.05288,-0.187278 -0.10355,-0.348458 -0.112603,-0.358175 -0.01278,-0.01373 -0.327306,0.04328 -0.360973,0.06542 -0.006,0.0039 0.201287,0.768793 0.235342,0.867957 0.0056,0.01647 0.02823,0.02459 0.05014,0.01802 0.02193,-0.0065 0.108025,-0.02874 0.191342,-0.0493 z m 1.799051,-0.460558 c 0.585628,-0.15108 1.067645,-0.277598 1.07115,-0.281153 0.0076,-0.0078 -0.236574,-0.8400917 -0.250589,-0.8541069 -0.0087,-0.0087 -2.215156,0.5339629 -2.229523,0.5483309 -0.0033,0.0033 0.05245,0.202896 0.123738,0.443717 0.116947,0.395108 0.134035,0.436882 0.175024,0.42788 0.02498,-0.0054 0.524573,-0.133588 1.1102,-0.284668 z M 11.776079,9.8670546 C 12.207035,9.7610782 12.794701,9.6165812 13.082006,9.5459498 13.663505,9.402993 13.705838,9.3882189 13.604056,9.3637552 13.251845,9.279101 12.819782,8.9377994 12.62587,8.5910541 12.437835,8.2548155 12.354035,7.96089 12.196213,7.0840528 11.995697,5.9700023 11.837743,5.3805131 11.598265,4.852499 11.398844,4.4128046 11.113697,4.1121637 10.953758,4.1729725 c -0.08276,0.031467 -0.170834,0.1477861 -0.213389,0.2818283 -0.0621,0.1956065 -0.06858,0.7761202 -0.01285,1.1518538 0.08371,0.5644411 0.200837,0.9650844 0.514485,1.7598538 0.103523,0.262321 0.234092,0.6047009 0.290153,0.7608444 0.05606,0.1561433 0.107523,0.2992274 0.114358,0.3179647 0.02678,0.073395 0.0134,-0.1789264 -0.0171,-0.3229023 -0.0178,-0.08391 -0.103647,-0.3700785 -0.190791,-0.6359296 -0.170551,-0.5203048 -0.230628,-0.782356 -0.229842,-1.0025675 l 5.15e-4,-0.1394399 0.286139,0.7040659 c 0.157376,0.3872352 0.333179,0.8369282 0.390674,0.9993175 l 0.104536,0.2952529 6.02e-4,0.3179648 c 6.01e-4,0.3378373 -0.0164,0.414669 -0.142199,0.6408233 -0.130194,0.234069 -0.48139,0.519384 -0.790044,0.6418394 -0.154887,0.06145 -0.19596,0.088334 -0.178385,0.116768 0.01535,0.02483 -0.04679,0.03826 0.895472,-0.1934554 z M 11.125639,5.6053318 C 11.028931,5.5433732 10.95843,5.3743336 10.95854,5.2046799 c 2.57e-4,-0.4026907 0.407631,-0.4748691 0.530632,-0.094018 0.06848,0.2120294 0.03579,0.3943719 -0.08815,0.4918705 -0.07798,0.061333 -0.182362,0.062396 -0.275385,0.0028 z"
       id="path8" /><path
       id="path8-2"
       style="fill:#d7169b;fill-opacity:1;stroke-width:0.0858397"
       d="m 5.8929784,6.4044519 c -1.0752624,0.0016 -1.2735755,0.00757 -1.7233448,0.051899 -0.8367927,0.082461 -1.4622247,0.2070189 -1.8010608,0.3587304 -0.066217,0.029648 -0.09901,0.043892 -0.1309478,0.045513 l -0.0401,0.483246 c 0.00986,0.00913 0.014969,0.1108491 0.011357,0.2260092 l -0.00657,0.2093743 0.026925,0.5232131 0.014417,0.5125672 c 0.012272,0.436557 0.02063,0.5246793 0.056602,0.5944095 0.1250849,0.2424622 0.4423984,0.2433291 0.5663751,0.00156 0.04607,-0.089837 0.05107,-0.1321889 0.051147,-0.4298383 7.46e-5,-0.2890954 0.00571,-0.3393486 0.045113,-0.4039765 0.037032,-0.06074 0.05914,-0.073812 0.1248255,-0.073812 0.087229,0 0.1580457,0.054685 0.1942924,0.1500212 0.028941,0.076109 0.02793,1.0608139 -0.00146,1.430798 -0.012796,0.161081 -0.044352,0.461537 -0.07013,0.667646 -0.058604,0.468563 -0.047732,0.655852 0.049682,0.856571 0.138517,0.285412 0.4118008,0.398622 0.6744335,0.279417 C 4.2087149,11.763349 4.337369,11.436269 4.2813782,11.005985 4.2672512,10.897417 4.2355806,10.689271 4.2110248,10.543454 4.1575705,10.226024 4.0990114,9.5885044 4.0988397,9.3224269 4.098668,9.0772436 4.1511625,8.9553907 4.2866117,8.8862895 4.4126948,8.8219667 4.6237602,8.833624 4.727894,8.9106872 c 0.1224728,0.090635 0.1430186,0.1796334 0.1431903,0.6208034 2.575e-4,0.6285624 0.048827,0.7996324 0.2553304,0.8995994 0.116306,0.0563 0.2856326,0.06313 0.3782039,0.01526 0.092496,-0.04784 0.2005655,-0.179946 0.228005,-0.278752 0.013336,-0.04802 0.023914,-0.3107541 0.024087,-0.5968056 1.716e-4,-0.3004289 0.010497,-0.548014 0.025152,-0.6007969 0.01371,-0.04938 0.058624,-0.1234769 0.099808,-0.1646604 0.059851,-0.059851 0.09318,-0.074878 0.166124,-0.074878 0.1966142,0 0.2312043,0.060062 0.2313759,0.4019807 1.716e-4,0.2993963 0.021862,0.3839965 0.1238505,0.482847 0.1641823,0.1591323 0.4571164,0.1059159 0.5574142,-0.101272 0.038388,-0.079291 0.045424,-0.1402621 0.045424,-0.393286 v -0.299423 c 0,0 0.00439,-0.3272529 0.00785,-0.3570007 0.00346,-0.029746 0.030917,-0.080202 0.030917,-0.080202 0.035966,-0.061801 0.058268,-0.07494 0.1370251,-0.080733 0.02013,-0.00148 0.036433,-0.0021 0.05008,-0.00142 0.040947,0.00206 0.058041,0.01598 0.083262,0.054472 0.016083,0.024548 0.024664,0.040065 0.026172,0.051502 6.02e-5,4.293e-4 8.58e-5,9.271e-4 1.717e-4,0.00137 0,0 0.045972,0.3751248 0.05811,0.4077466 0.012138,0.032622 0.016798,0.053427 0.032559,0.1074817 0.049751,0.170622 0.1944159,0.2363623 0.3467978,0.1575632 0.077285,-0.039967 0.1282334,-0.1275596 0.1487355,-0.2557734 l 0.014461,-0.090582 c 0,0 -0.00497,-0.3922705 -0.0051,-0.4538314 -8.59e-5,-0.034352 -0.00655,-0.1302198 -0.014373,-0.2130114 L 7.9082951,7.9183836 7.8403375,7.5850257 C 7.6057589,7.6163769 7.3565377,7.6425282 7.0967488,7.6626984 6.7673474,7.6882737 5.788544,7.7096779 5.6204834,7.6949916 5.5642714,7.6900817 5.364977,7.6753618 5.1776043,7.6622987 4.5859975,7.6210519 3.958132,7.5126353 3.6786274,7.4034206 c -0.090393,-0.03532 -0.089828,-0.03543 0.1135591,-0.022801 0.7620693,0.047354 2.4945448,0.047183 3.0888007,-2.575e-4 0.08744,-0.00697 0.3582779,-0.028417 0.601862,-0.047641 0.4849406,-0.038273 1.1446955,-0.1044394 1.593683,-0.1597813 0.1582723,-0.019508 0.3217971,-0.032158 0.363388,-0.028124 L 9.4922573,7.145812 9.652528,7.0714296 9.7143693,6.934071 9.5695377,6.8572869 C 9.2233663,6.6737621 8.4380105,6.5161792 7.4487811,6.431748 7.2217229,6.412368 6.7028654,6.4032657 5.8930246,6.4044674 Z M 3.5070449,10.666414 c 0.021252,-5.15e-4 0.04907,0.03403 0.086367,0.101005 0.068576,0.123153 0.1017639,0.307974 0.083926,0.467276 -0.00806,0.07197 -0.03243,0.152817 -0.054162,0.179653 l -0.039524,0.04879 -0.045911,-0.04586 c -0.062762,-0.06276 -0.1069406,-0.312242 -0.091202,-0.514828 0.012383,-0.159376 0.029444,-0.235232 0.060506,-0.236033 z"
       sodipodi:nodetypes="sssccccccsssssssssssscsscssscsssssssczcssssczssccccccsssscsssccccsssssscccsss" /><path
       style="fill:#825207;fill-opacity:1;stroke-width:0.0858397"
       d="m 12.29388,14.226276 c 0.0067,-0.151893 0.0036,-0.161029 -0.173941,-0.531915 -0.177162,-0.36993 -0.359814,-0.838026 -0.413712,-1.060254 -0.03208,-0.132219 -0.07401,-0.193324 -0.05302,-0.07725 0.08109,0.448492 0.287057,1.177131 0.415781,1.470849 0.134287,0.306413 0.168247,0.369569 0.194132,0.361028 0.0132,-0.0043 0.02702,-0.07747 0.03076,-0.162459 z m 0.844743,0.107066 c -8.6e-5,-0.0094 -0.03582,-0.11157 -0.07941,-0.227118 -0.04359,-0.115546 -0.09942,-0.284181 -0.124074,-0.374743 l -0.04483,-0.164659 0.0502,0.06814 c 0.17094,0.231996 0.358333,0.37428 0.586437,0.445275 0.146677,0.04566 0.372269,0.05773 0.394883,0.02114 0.0074,-0.01204 -0.0028,-0.08472 -0.02265,-0.161496 -0.01989,-0.07679 -0.03304,-0.142547 -0.02922,-0.146146 0.0037,-0.0036 0.0836,0.02448 0.177289,0.06241 0.178673,0.07233 0.502021,0.114018 0.530232,0.06837 0.0077,-0.0124 -0.04397,-0.06099 -0.114732,-0.107972 -0.238396,-0.158286 -0.481543,-0.424065 -0.722237,-0.789462 -0.04743,-0.07201 -0.08985,-0.127322 -0.09427,-0.122906 -0.0043,0.0043 0.03357,0.133354 0.08443,0.286534 0.05085,0.153176 0.08823,0.282739 0.08305,0.287911 -0.0051,0.0051 -0.08514,-0.04003 -0.1777,-0.100457 -0.276227,-0.180324 -0.464997,-0.424017 -0.679074,-0.876659 -0.116417,-0.246153 -0.199167,-0.443937 -0.237434,-0.567495 -0.0073,-0.02364 -0.01835,-0.03796 -0.02449,-0.03182 -0.04407,0.04407 0.233903,1.125481 0.344693,1.340997 0.05021,0.09769 -8.6e-5,0.07435 -0.157856,-0.07321 -0.211979,-0.198295 -0.461954,-0.597036 -0.623299,-0.994237 -0.04836,-0.119054 -0.106643,-0.164854 -0.08671,-0.06814 0.0058,0.02811 0.01692,0.135477 0.02472,0.238602 0.04087,0.540436 0.258859,1.216199 0.52033,1.613086 0.148203,0.224956 0.422627,0.468366 0.42173,0.374064 z m 1.696015,-0.735719 c -0.0084,-0.108415 -0.0051,-0.178429 0.0081,-0.178429 0.01199,0 0.07043,0.03734 0.129881,0.08298 0.134113,0.102968 0.320706,0.190417 0.440617,0.206501 l 0.091,0.0122 -0.140765,-0.133808 C 15.0864,13.323697 14.75568,12.735955 14.363151,11.809364 l -0.04444,-0.104913 0.01411,0.113559 c 0.018,0.144995 0.124398,0.554229 0.212316,0.816637 0.03748,0.111882 0.06479,0.206778 0.0607,0.210881 -0.004,0.004 -0.08082,-0.07108 -0.170481,-0.167102 -0.185725,-0.198872 -0.397714,-0.508605 -0.570244,-0.833175 -0.06508,-0.122423 -0.121516,-0.219392 -0.125421,-0.215488 -0.01154,0.01154 0.162396,0.625215 0.240029,0.846888 0.09043,0.258189 0.28405,0.645295 0.433706,0.867076 0.133864,0.198378 0.381423,0.465453 0.413223,0.4458 0.01288,-0.008 0.01617,-0.0865 0.0081,-0.19191 z"
       id="path8-8-9"
       sodipodi:nodetypes="sssssssssscssssssssssssssssscssssssssscsscsssssssssss" /><path
       style="fill:#b7804a;fill-opacity:1;stroke-width:0.0858397"
       d="m 12.116755,11.658157 c 0.356008,-0.0955 0.810811,-0.21757 1.010675,-0.271283 0.199863,-0.05372 0.583124,-0.156567 0.85169,-0.228566 0.268567,-0.072 0.497182,-0.138708 0.508032,-0.148242 0.02778,-0.02442 -0.05459,-0.275411 -0.08639,-0.263209 -0.03807,0.01462 -1.431211,0.384786 -2.454336,0.65215 -0.349761,0.0914 -0.638454,0.167678 -0.641542,0.169507 -0.0032,0.0019 0.01055,0.05361 0.03033,0.115058 0.01977,0.06146 0.04012,0.125212 0.04524,0.141687 0.0051,0.01648 0.02723,0.02469 0.04917,0.01824 0.02193,-0.0064 0.331136,-0.08984 0.687143,-0.185341 z m -0.654783,-0.38654 0.151484,-0.03735 -0.02929,-0.08304 c -0.01612,-0.04568 -0.07255,-0.236262 -0.125439,-0.423541 -0.05288,-0.18728 -0.10355,-0.348459 -0.112603,-0.358176 -0.01278,-0.01373 -0.327306,0.04328 -0.360973,0.06542 -0.006,0.0039 0.201287,0.768792 0.235342,0.867957 0.0056,0.01647 0.02823,0.02459 0.05014,0.01802 0.02193,-0.0065 0.108025,-0.02874 0.191342,-0.0493 z m 1.799051,-0.460558 c 0.585628,-0.151079 1.067645,-0.277598 1.07115,-0.281152 0.0076,-0.0078 -0.236574,-0.8400927 -0.250589,-0.8541077 -0.0087,-0.0087 -2.215156,0.5339627 -2.229523,0.5483297 -0.0033,0.0033 0.05245,0.202897 0.123738,0.443718 0.116947,0.395108 0.134035,0.436883 0.175024,0.427881 0.02498,-0.0054 0.524573,-0.133588 1.1102,-0.284669 z M 11.776079,9.8670546 C 12.207035,9.7610785 12.794701,9.616581 13.082006,9.5459503 13.663505,9.4029929 13.705838,9.388219 13.604056,9.3637555 13.251845,9.2791012 12.819782,8.9377996 12.62587,8.5910542 12.437835,8.2548156 12.354035,7.9608899 12.196213,7.084053 11.995697,5.9700023 11.837743,5.3805131 11.598265,4.852499 11.398844,4.4128046 11.113697,4.1121637 10.953758,4.1729725 c -0.08276,0.031467 -0.170834,0.1477861 -0.213389,0.2818283 -0.0621,0.1956065 -0.06858,0.7761202 -0.01285,1.1518538 0.08371,0.5644411 0.200837,0.9650844 0.514485,1.7598542 0.103523,0.2623212 0.234092,0.6047008 0.290153,0.7608442 0.05606,0.1561433 0.107523,0.2992271 0.114358,0.3179651 0.02678,0.073395 0.0134,-0.178927 -0.0171,-0.3229027 C 11.611617,8.0385052 11.525768,7.752337 11.438624,7.4864862 11.268073,6.9661813 11.207996,6.7041296 11.208782,6.4839181 l 5.15e-4,-0.1394399 0.286139,0.7040664 c 0.157376,0.3872351 0.333179,0.8369283 0.390674,0.9993173 l 0.104536,0.2952527 6.02e-4,0.3179651 c 6.01e-4,0.337837 -0.0164,0.4146688 -0.142199,0.640823 -0.130194,0.2340688 -0.48139,0.5193839 -0.790044,0.6418394 -0.154887,0.06145 -0.19596,0.088334 -0.178385,0.1167679 0.01535,0.02483 -0.04679,0.03826 0.895472,-0.1934554 z M 11.125639,5.6053318 C 11.028931,5.5433732 10.95843,5.3743336 10.95854,5.2046799 c 2.57e-4,-0.4026907 0.407631,-0.4748691 0.530632,-0.094018 0.06848,0.2120294 0.03579,0.3943719 -0.08815,0.4918705 -0.07798,0.061333 -0.182362,0.062396 -0.275385,0.0028 z"
       id="path8-8-7"
       sodipodi:nodetypes="sssssssssssscsssssssssssssscsssssssssssssccssccsssccssssss" /></g></svg>
