<?xml version="1.0" encoding="UTF-8" standalone="no"?>
<!-- Created with Inkscape (http://www.inkscape.org/) -->

<svg
   version="1.1"
   id="svg1"
   width="64"
   height="64"
   viewBox="0 0 64 64"
   sodipodi:docname="cursor-sizeb.svg"
   inkscape:version="1.4.2 (ebf0e94, 2025-05-08)"
   xml:space="preserve"
   xmlns:inkscape="http://www.inkscape.org/namespaces/inkscape"
   xmlns:sodipodi="http://sodipodi.sourceforge.net/DTD/sodipodi-0.dtd"
   xmlns="http://www.w3.org/2000/svg"
   xmlns:svg="http://www.w3.org/2000/svg"><defs
     id="defs1" /><sodipodi:namedview
     id="namedview1"
     pagecolor="#ffffff"
     bordercolor="#000000"
     borderopacity="0.25"
     inkscape:showpageshadow="2"
     inkscape:pageopacity="0.0"
     inkscape:pagecheckerboard="0"
     inkscape:deskcolor="#d1d1d1"
     showgrid="true"
     showguides="true"
     inkscape:zoom="25.667976"
     inkscape:cx="21.894987"
     inkscape:cy="36.485152"
     inkscape:window-width="3840"
     inkscape:window-height="2054"
     inkscape:window-x="-11"
     inkscape:window-y="-11"
     inkscape:window-maximized="1"
     inkscape:current-layer="g1"><inkscape:grid
       id="grid1"
       units="px"
       originx="0"
       originy="0"
       spacingx="1"
       spacingy="1"
       empcolor="#0099e5"
       empopacity="0.30196078"
       color="#0099e5"
       opacity="0.14901961"
       empspacing="5"
       enabled="true"
       visible="true" /><sodipodi:guide
       position="32,32"
       orientation="0,1"
       id="guide3"
       inkscape:locked="false"
       inkscape:label=""
       inkscape:color="rgb(0,134,229)" /></sodipodi:namedview><g
     inkscape:groupmode="layer"
     inkscape:label="Image"
     id="g1"><path
       id="path1-3"
       style="fill:#ffffff;fill-opacity:1;stroke-width:4;stroke-linecap:round;stroke-dashoffset:6;paint-order:stroke fill markers"
       d="m 35.242641,31 2.12132,-2.12132 4.949748,-4.949748 6.363961,6.363961 0,-16.970563 -16.970563,1e-6 6.363961,6.363961 L 33.12132,24.636039 31,26.757359 26.757359,31 l -2.12132,2.12132 -4.949747,4.949748 -6.363961,-6.363961 -1e-6,16.970563 16.970563,0 L 23.928932,42.313709 28.87868,37.363961 31,35.242641 Z"
       sodipodi:nodetypes="ccccccccccccccccccc" /><path
       id="rect2"
       style="fill:#000000;fill-opacity:1;stroke:none;stroke-width:2.12294;stroke-linecap:round;stroke-dashoffset:6;paint-order:stroke fill markers"
       d="m 33.828427,31 2.12132,-2.12132 6.363961,-6.363961 5.656855,5.656854 V 14.029437 l -14.142136,0 5.656854,5.656855 L 33.12132,26.050253 31,28.171573 28.171573,31 l -2.12132,2.121319 -6.363961,6.363962 -5.656855,-5.656854 0,14.142136 14.142136,0 L 22.514719,42.313708 28.87868,35.949747 31,33.828427 Z"
       sodipodi:nodetypes="ccccccccccccccccccc" /></g></svg>
