<?xml version="1.0" encoding="UTF-8" standalone="no"?>
<svg
   version="1"
   viewBox="0 0 64 64"
   enable-background="new 0 0 48 48"
   id="svg2"
   sodipodi:docname="cursor-hand.svg"
   inkscape:version="1.4.2 (ebf0e94, 2025-05-08)"
   xml:space="preserve"
   width="64"
   height="64"
   xmlns:inkscape="http://www.inkscape.org/namespaces/inkscape"
   xmlns:sodipodi="http://sodipodi.sourceforge.net/DTD/sodipodi-0.dtd"
   xmlns="http://www.w3.org/2000/svg"
   xmlns:svg="http://www.w3.org/2000/svg"><defs
     id="defs2" /><sodipodi:namedview
     id="namedview2"
     pagecolor="#ffffff"
     bordercolor="#000000"
     borderopacity="0.25"
     inkscape:showpageshadow="2"
     inkscape:pageopacity="0.0"
     inkscape:pagecheckerboard="0"
     inkscape:deskcolor="#d1d1d1"
     inkscape:zoom="16"
     inkscape:cx="56.25"
     inkscape:cy="40.21875"
     inkscape:window-width="3840"
     inkscape:window-height="2054"
     inkscape:window-x="3829"
     inkscape:window-y="-11"
     inkscape:window-maximized="1"
     inkscape:current-layer="svg2"
     showgrid="true"
     showguides="true"><inkscape:grid
       id="grid1"
       units="px"
       originx="0"
       originy="0"
       spacingx="1"
       spacingy="1"
       empcolor="#0099e5"
       empopacity="0.30196078"
       color="#0099e5"
       opacity="0.14901961"
       empspacing="5"
       enabled="true"
       visible="true" /><sodipodi:guide
       position="37,36"
       orientation="1,0"
       id="guide17"
       inkscape:locked="false" /><sodipodi:guide
       position="106,33"
       orientation="0,-1"
       id="guide1"
       inkscape:locked="false" /><sodipodi:guide
       position="119,29"
       orientation="0,-1"
       id="guide2"
       inkscape:locked="false" /><sodipodi:guide
       position="34,54"
       orientation="0,-1"
       id="guide3"
       inkscape:locked="false" /></sodipodi:namedview><path
     style="fill:#ffffff;fill-opacity:1;stroke:none;stroke-width:4;stroke-linecap:round;stroke-dasharray:none;stroke-dashoffset:6;stroke-opacity:1;paint-order:stroke fill markers"
     d="m 25,57 h 18 v -2 l 6,-11 c 0,0 0,-18 0,-18 h -6 v -2 h -7 v -2 h -7 v -2 h -6 v 6 h -7 v 19 l 9,11 z"
     id="path4" /><path
     style="fill:#ffffff;fill-opacity:1;stroke:none;stroke-width:4;stroke-linecap:round;stroke-dasharray:none;stroke-dashoffset:6;stroke-opacity:1;paint-order:stroke fill markers"
     d="M 22,60 H 46 V 55 L 52,44 V 23 H 46 V 21 H 39 V 19 H 32 V 9 H 20 v 14 h -7 v 23 l 9,11 z"
     id="path5"
     sodipodi:nodetypes="ccccccccccccccccc" /><rect
     style="fill:#000000;fill-opacity:1;stroke:none;stroke-width:4;stroke-linecap:round;stroke-dasharray:none;stroke-dashoffset:6;stroke-opacity:1;paint-order:stroke fill markers"
     id="rect3"
     width="2"
     height="9.625"
     x="21"
     y="24.875" /><path
     id="rect4-6-6-2"
     style="fill:#000000;fill-opacity:1;stroke:none;stroke-width:6.63324;stroke-linecap:round;stroke-dasharray:none;stroke-dashoffset:6;stroke-opacity:1;paint-order:stroke fill markers"
     d="m 21,10 v 14 h -5 -2 v 2 19 1 l 9,11 v 2 H 45 V 55 L 51,44 V 24 h -6 v -2 h -7 v -2 h -7 v -2 -8 h -8 z m 2,2 h 6 v 14 h 2 v -4 h 5 v 6 h 2 v -4 h 5 v 2 4 h 2 v -4 h 4 v 18 l -6,11 v 2 H 25 V 56 L 16,45 V 26 h 5 v 8.5 h 2 z m 6,18 v 4 h 2 v -4 z m 7,2 v 4 h 2 v -4 z m 7,2 v 4 h 2 v -4 z"
     sodipodi:nodetypes="ccccccccccccccccccccccccccccccccccccccccccccccccccccccccccccccc" /></svg>
