<?xml version="1.0" encoding="UTF-8" standalone="no"?>
<!-- Created with Inkscape (http://www.inkscape.org/) -->

<svg
   version="1.1"
   id="svg1"
   width="64"
   height="64"
   viewBox="0 0 64 64"
   sodipodi:docname="cursor-ibeam.svg"
   inkscape:version="1.4.2 (ebf0e94, 2025-05-08)"
   xml:space="preserve"
   xmlns:inkscape="http://www.inkscape.org/namespaces/inkscape"
   xmlns:sodipodi="http://sodipodi.sourceforge.net/DTD/sodipodi-0.dtd"
   xmlns="http://www.w3.org/2000/svg"
   xmlns:svg="http://www.w3.org/2000/svg"><defs
     id="defs1" /><sodipodi:namedview
     id="namedview1"
     pagecolor="#ffffff"
     bordercolor="#000000"
     borderopacity="0.25"
     inkscape:showpageshadow="2"
     inkscape:pageopacity="0.0"
     inkscape:pagecheckerboard="0"
     inkscape:deskcolor="#d1d1d1"
     showgrid="true"
     showguides="true"
     inkscape:zoom="16"
     inkscape:cx="34.875"
     inkscape:cy="41.59375"
     inkscape:window-width="3840"
     inkscape:window-height="2054"
     inkscape:window-x="-11"
     inkscape:window-y="-11"
     inkscape:window-maximized="1"
     inkscape:current-layer="g1"><inkscape:grid
       id="grid1"
       units="px"
       originx="0"
       originy="0"
       spacingx="1"
       spacingy="1"
       empcolor="#0099e5"
       empopacity="0.30196078"
       color="#0099e5"
       opacity="0.14901961"
       empspacing="5"
       enabled="true"
       visible="true" /><sodipodi:guide
       position="32,32"
       orientation="0,1"
       id="guide3"
       inkscape:locked="false"
       inkscape:label=""
       inkscape:color="rgb(0,134,229)" /><sodipodi:guide
       position="23,54"
       orientation="1,0"
       id="guide4"
       inkscape:locked="false" /><sodipodi:guide
       position="43,58"
       orientation="1,0"
       id="guide5"
       inkscape:locked="false" /></sodipodi:namedview><g
     inkscape:groupmode="layer"
     inkscape:label="Image"
     id="g1"><path
       style="fill:#ffffff;fill-opacity:1;stroke-width:4;stroke-linecap:round;stroke-dashoffset:6;paint-order:stroke fill markers"
       d="m 22,59 h 5 l 5,-5 h 2 l 5,5 c 0,0 5,0 5,0 v -4 h -3 l -5,-5 v -8 h 3 V 38 H 36 V 13 l 5,-5 h 3 V 4 H 39 L 34,9 H 32 L 27,4 h -5 v 4 h 3 l 5,5 v 25 h -3 v 4 h 3 v 8 l -5,5 h -3 z"
       id="path5" /><path
       id="rect2"
       style="fill:#000000;stroke:none;stroke-width:2.17349;stroke-linecap:round;stroke-dashoffset:6;paint-order:stroke fill markers"
       d="M 23 5 L 23 7 L 25.826172 7 L 30.953125 12.126953 L 30.953125 35.595703 L 30.953125 37.642578 L 30.953125 39 L 28 39 L 28 41 L 30.953125 41 L 30.953125 50.873047 L 25.826172 56 L 23 56 L 23 58 L 25.615234 58 L 26.654297 58 L 31.654297 53 L 34.345703 53 L 39.345703 58 L 40.384766 58 L 43 58 L 43 56 L 40.173828 56 L 35.046875 50.873047 L 35.046875 41 L 38 41 L 38 39 L 35.046875 39 L 35.046875 12.126953 L 40.173828 7 L 43 7 L 43 5 L 40.384766 5 L 39.345703 5 L 34.345703 10 L 31.654297 10 L 26.654297 5 L 25.615234 5 L 23 5 z " /></g></svg>
