<?xml version="1.0" encoding="UTF-8" standalone="no"?>
<svg
   version="1"
   viewBox="0 0 64 64"
   enable-background="new 0 0 48 48"
   id="svg2"
   sodipodi:docname="cursor-forbidden.svg"
   inkscape:version="1.4.2 (ebf0e94, 2025-05-08)"
   xml:space="preserve"
   width="64"
   height="64"
   xmlns:inkscape="http://www.inkscape.org/namespaces/inkscape"
   xmlns:sodipodi="http://sodipodi.sourceforge.net/DTD/sodipodi-0.dtd"
   xmlns="http://www.w3.org/2000/svg"
   xmlns:svg="http://www.w3.org/2000/svg"><defs
     id="defs2" /><sodipodi:namedview
     id="namedview2"
     pagecolor="#ffffff"
     bordercolor="#000000"
     borderopacity="0.25"
     inkscape:showpageshadow="2"
     inkscape:pageopacity="0.0"
     inkscape:pagecheckerboard="0"
     inkscape:deskcolor="#d1d1d1"
     inkscape:zoom="16"
     inkscape:cx="15.125"
     inkscape:cy="35.84375"
     inkscape:window-width="3840"
     inkscape:window-height="2054"
     inkscape:window-x="-11"
     inkscape:window-y="-11"
     inkscape:window-maximized="1"
     inkscape:current-layer="svg2"
     showgrid="true"
     showguides="false"><inkscape:grid
       id="grid1"
       units="px"
       originx="0"
       originy="0"
       spacingx="1"
       spacingy="1"
       empcolor="#0099e5"
       empopacity="0.30196078"
       color="#0099e5"
       opacity="0.14901961"
       empspacing="5"
       enabled="true"
       visible="true" /><sodipodi:guide
       position="37,36"
       orientation="1,0"
       id="guide17"
       inkscape:locked="false" /><sodipodi:guide
       position="106,33"
       orientation="0,-1"
       id="guide1"
       inkscape:locked="false" /><sodipodi:guide
       position="119,29"
       orientation="0,-1"
       id="guide2"
       inkscape:locked="false" /></sodipodi:namedview><path
     id="path2"
     style="opacity:1;fill:#000000;fill-opacity:1;stroke:#ffffff;stroke-width:3.68;stroke-linecap:round;stroke-dashoffset:6;stroke-opacity:1;paint-order:stroke fill markers;stroke-dasharray:none"
     d="M 33 10 A 23 23 0 0 0 10 33 A 23 23 0 0 0 33 56 A 23 23 0 0 0 56 33 A 23 23 0 0 0 33 10 z M 33 15 A 18 18 0 0 1 51 33 A 18 18 0 0 1 46.609375 44.78125 L 21.21875 19.390625 A 18 18 0 0 1 33 15 z M 18.501953 22.332031 L 43.667969 47.498047 A 18 18 0 0 1 33 51 A 18 18 0 0 1 15 33 A 18 18 0 0 1 18.501953 22.332031 z " /></svg>
