<?xml version="1.0" encoding="UTF-8" standalone="no"?>
<!-- Created with Inkscape (http://www.inkscape.org/) -->

<svg
   width="64"
   height="64"
   viewBox="0 0 16.933333 16.933333"
   version="1.1"
   id="svg1"
   inkscape:version="1.4.2 (ebf0e94, 2025-05-08)"
   sodipodi:docname="table.svg"
   xml:space="preserve"
   xmlns:inkscape="http://www.inkscape.org/namespaces/inkscape"
   xmlns:sodipodi="http://sodipodi.sourceforge.net/DTD/sodipodi-0.dtd"
   xmlns:xlink="http://www.w3.org/1999/xlink"
   xmlns="http://www.w3.org/2000/svg"
   xmlns:svg="http://www.w3.org/2000/svg"><sodipodi:namedview
     id="namedview1"
     pagecolor="#ffffff"
     bordercolor="#000000"
     borderopacity="0.25"
     inkscape:showpageshadow="2"
     inkscape:pageopacity="0.0"
     inkscape:pagecheckerboard="0"
     inkscape:deskcolor="#d1d1d1"
     inkscape:document-units="mm"
     inkscape:zoom="8"
     inkscape:cx="-4"
     inkscape:cy="46.0625"
     inkscape:window-width="3840"
     inkscape:window-height="2054"
     inkscape:window-x="-11"
     inkscape:window-y="-11"
     inkscape:window-maximized="1"
     inkscape:current-layer="layer1"
     showguides="false"
     showgrid="false"><sodipodi:guide
       position="34.60909,-64.884847"
       orientation="0,-1"
       id="guide5"
       inkscape:locked="false" /><inkscape:grid
       id="grid1"
       units="px"
       originx="0"
       originy="0"
       spacingx="0.26458333"
       spacingy="0.26458333"
       empcolor="#0099e5"
       empopacity="0.30196078"
       color="#0099e5"
       opacity="0.14901961"
       empspacing="5"
       enabled="true"
       visible="false" /><sodipodi:guide
       position="12.699999,11.029817"
       orientation="1,0"
       id="guide3"
       inkscape:locked="false" /><sodipodi:guide
       position="2.6458332,11.641667"
       orientation="1,0"
       id="guide1"
       inkscape:locked="false" /><sodipodi:guide
       position="4.7624997,15.08125"
       orientation="0,-1"
       id="guide2"
       inkscape:locked="false" /><sodipodi:guide
       position="6.3499997,13.49375"
       orientation="0,-1"
       id="guide4"
       inkscape:locked="false" /><sodipodi:guide
       position="6.614583,11.90625"
       orientation="0,-1"
       id="guide6"
       inkscape:locked="false" /><sodipodi:guide
       position="5.5562497,11.1125"
       orientation="0,-1"
       id="guide7"
       inkscape:locked="false" /><sodipodi:guide
       position="6.0854163,9.5250001"
       orientation="0,-1"
       id="guide8"
       inkscape:locked="false" /><sodipodi:guide
       position="6.0854163,7.4083335"
       orientation="0,-1"
       id="guide9"
       inkscape:locked="false" /><sodipodi:guide
       position="5.2916664,5.8208336"
       orientation="0,-1"
       id="guide10"
       inkscape:locked="false" /><sodipodi:guide
       position="5.5562497,4.2333337"
       orientation="0,-1"
       id="guide11"
       inkscape:locked="false" /><sodipodi:guide
       position="5.2916664,1.8520838"
       orientation="0,-1"
       id="guide12"
       inkscape:locked="false" /><sodipodi:guide
       position="3.9687498,11.90625"
       orientation="1,0"
       id="guide13"
       inkscape:locked="false" /></sodipodi:namedview><defs
     id="defs1"><linearGradient
       id="linearGradient17"
       inkscape:collect="always"><stop
         style="stop-color:#e5e5e5;stop-opacity:1;"
         offset="0"
         id="stop17" /><stop
         style="stop-color:#cccccc;stop-opacity:1;"
         offset="1"
         id="stop18" /></linearGradient><linearGradient
       id="linearGradient14"
       inkscape:collect="always"><stop
         style="stop-color:#b2b2b2;stop-opacity:1;"
         offset="0"
         id="stop14" /><stop
         style="stop-color:#999999;stop-opacity:1;"
         offset="1"
         id="stop15" /></linearGradient><linearGradient
       inkscape:collect="always"
       xlink:href="#linearGradient14"
       id="linearGradient15"
       x1="14.552083"
       y1="14.552083"
       x2="0.26458332"
       y2="0.26458332"
       gradientUnits="userSpaceOnUse" /><linearGradient
       inkscape:collect="always"
       xlink:href="#linearGradient17"
       id="linearGradient18"
       x1="0.26458332"
       y1="0.26458332"
       x2="14.552083"
       y2="14.552083"
       gradientUnits="userSpaceOnUse" /><filter
       inkscape:collect="always"
       style="color-interpolation-filters:sRGB"
       id="filter20"
       x="-0.04699378"
       y="-0.048000002"
       width="1.0939876"
       height="1.096"><feGaussianBlur
         inkscape:collect="always"
         stdDeviation="0.28575001"
         id="feGaussianBlur20" /></filter><filter
       inkscape:collect="always"
       style="color-interpolation-filters:sRGB"
       id="filter21"
       x="-0.108"
       y="-0.108"
       width="1.216"
       height="1.216"><feGaussianBlur
         inkscape:collect="always"
         stdDeviation="0.64293747"
         id="feGaussianBlur21" /></filter></defs><g
     inkscape:label="Layer 1"
     inkscape:groupmode="layer"
     id="layer1"><rect
       style="fill:#000000;fill-opacity:1;stroke:none;stroke-width:0.529;stroke-linecap:butt;stroke-dasharray:none;stroke-dashoffset:6;stroke-opacity:1;paint-order:stroke fill markers;filter:url(#filter21)"
       id="rect1-9-8-9"
       width="14.287499"
       height="14.287499"
       x="1.0583336"
       y="1.0583336"
       ry="1.4874338" /><rect
       style="fill:none;fill-opacity:1;stroke:#000000;stroke-width:0.529167;stroke-linecap:round;stroke-dasharray:none;stroke-dashoffset:6;stroke-opacity:1;paint-order:stroke fill markers"
       id="rect1-9"
       width="14.287499"
       height="14.287499"
       x="0.26458332"
       y="0.26458332"
       ry="1.4874338" /><rect
       style="fill:url(#linearGradient15);stroke:none;stroke-width:0.529167;stroke-linecap:round;stroke-dasharray:none;stroke-dashoffset:6;stroke-opacity:1;paint-order:stroke fill markers"
       id="rect1-5"
       width="14.287499"
       height="14.287499"
       x="0.26458332"
       y="0.26458323"
       ry="1.4874338" /><path
       id="rect1-53"
       style="opacity:1;mix-blend-mode:normal;fill:#000000;fill-opacity:1;stroke:none;stroke-width:0.529167;stroke-linecap:round;stroke-dasharray:none;stroke-dashoffset:6;stroke-opacity:1;paint-order:stroke fill markers;filter:url(#filter20)"
       d="m 2.0577551,0.56223938 c -0.824038,0 -1.79317178,0.66320892 -1.79317178,1.48724692 v 0.894003 l 4.27467378,0 V 0.56223938 Z m 4.069002,0 V 2.9434893 H 11.418421 V 0.56223938 Z m 5.8208309,0 V 2.9434893 h 2.910416 v -0.894003 c 0,-0.824038 -0.663209,-1.48724692 -1.487247,-1.48724692 z M 0.26458332,3.4726553 v 1.852084 l 4.27467378,0 v -1.852084 z m 5.86217378,0 v 1.852084 h 5.2916639 v -1.852084 z m 5.8208309,0 v 1.852084 h 2.910416 V 3.4726553 Z M 0.26458332,6.9122393 v 1.322916 l 4.27467378,0 v -1.322916 z m 5.86217378,0 v 1.322916 h 5.2916639 v -1.322916 z m 5.8208309,0 v 1.322916 h 2.910416 V 6.9122393 Z M 0.26458332,8.7643223 v 1.8520827 l 4.27467378,0 V 8.7643223 Z m 5.86217378,0 V 10.616405 H 11.418421 V 8.7643223 Z m 5.8208309,0 v 1.8520827 h 2.910416 V 8.7643223 Z M 0.26458332,11.145572 v 2.21692 c 0,0.824038 0.96913378,1.487247 1.79317178,1.487247 h 2.481502 v -3.704167 z m 5.86217378,0 v 3.704167 h 5.2916639 v -3.704167 z m 5.8208309,0 v 3.704167 h 1.423169 c 0.824038,0 1.487247,-0.663209 1.487247,-1.487247 v -2.21692 z"
       sodipodi:nodetypes="sscccsccccccccsscccccccccccccccccccccccccccccccccccccccccccccccssccccccccccsscc" /><path
       id="rect1"
       style="fill:url(#linearGradient18);fill-opacity:1;stroke:none;stroke-width:0.529167;stroke-linecap:round;stroke-dasharray:none;stroke-dashoffset:6;stroke-opacity:1;paint-order:stroke fill markers"
       d="M 1.7518311 0.26458333 C 0.92779273 0.26458333 0.26458333 0.92779273 0.26458333 1.7518311 L 0.26458333 2.6458333 L 4.2333333 2.6458333 L 4.2333333 0.26458333 L 1.7518311 0.26458333 z M 5.8208333 0.26458333 L 5.8208333 2.6458333 L 11.1125 2.6458333 L 11.1125 0.26458333 L 5.8208333 0.26458333 z M 11.641667 0.26458333 L 11.641667 2.6458333 L 14.552083 2.6458333 L 14.552083 1.7518311 C 14.552083 0.92779273 13.888874 0.26458333 13.064836 0.26458333 L 11.641667 0.26458333 z M 0.26458333 3.175 L 0.26458333 5.0270833 L 4.2333333 5.0270833 L 4.2333333 3.175 L 0.26458333 3.175 z M 5.8208333 3.175 L 5.8208333 5.0270833 L 11.1125 5.0270833 L 11.1125 3.175 L 5.8208333 3.175 z M 11.641667 3.175 L 11.641667 5.0270833 L 14.552083 5.0270833 L 14.552083 3.175 L 11.641667 3.175 z M 0.26458333 6.6145833 L 0.26458333 7.9375 L 4.2333333 7.9375 L 4.2333333 6.6145833 L 0.26458333 6.6145833 z M 5.8208333 6.6145833 L 5.8208333 7.9375 L 11.1125 7.9375 L 11.1125 6.6145833 L 5.8208333 6.6145833 z M 11.641667 6.6145833 L 11.641667 7.9375 L 14.552083 7.9375 L 14.552083 6.6145833 L 11.641667 6.6145833 z M 0.26458333 8.4666667 L 0.26458333 10.31875 L 4.2333333 10.31875 L 4.2333333 8.4666667 L 0.26458333 8.4666667 z M 5.8208333 8.4666667 L 5.8208333 10.31875 L 11.1125 10.31875 L 11.1125 8.4666667 L 5.8208333 8.4666667 z M 11.641667 8.4666667 L 11.641667 10.31875 L 14.552083 10.31875 L 14.552083 8.4666667 L 11.641667 8.4666667 z M 0.26458333 10.847917 L 0.26458333 13.064836 C 0.26458333 13.888874 0.92779273 14.552083 1.7518311 14.552083 L 4.2333333 14.552083 L 4.2333333 10.847917 L 0.26458333 10.847917 z M 5.8208333 10.847917 L 5.8208333 14.552083 L 11.1125 14.552083 L 11.1125 10.847917 L 5.8208333 10.847917 z M 11.641667 10.847917 L 11.641667 14.552083 L 13.064836 14.552083 C 13.888874 14.552083 14.552083 13.888874 14.552083 13.064836 L 14.552083 10.847917 L 11.641667 10.847917 z " /></g></svg>
