<?xml version="1.0" encoding="UTF-8" standalone="no"?>
<svg
   viewBox="0 0 64 64"
   id="Scissors--Streamline-Twemoji"
   height="64"
   width="64"
   version="1.1"
   sodipodi:docname="editCut.svg"
   xml:space="preserve"
   inkscape:version="1.4.2 (f4327f4, 2025-05-13)"
   xmlns:inkscape="http://www.inkscape.org/namespaces/inkscape"
   xmlns:sodipodi="http://sodipodi.sourceforge.net/DTD/sodipodi-0.dtd"
   xmlns="http://www.w3.org/2000/svg"
   xmlns:svg="http://www.w3.org/2000/svg"><defs
     id="defs5" /><sodipodi:namedview
     id="namedview5"
     pagecolor="#ffffff"
     bordercolor="#000000"
     borderopacity="0.25"
     inkscape:showpageshadow="2"
     inkscape:pageopacity="0.0"
     inkscape:pagecheckerboard="0"
     inkscape:deskcolor="#d1d1d1"
     showguides="false"
     inkscape:zoom="8.1484375"
     inkscape:cx="17.794823"
     inkscape:cy="34.423778"
     inkscape:window-width="1920"
     inkscape:window-height="991"
     inkscape:window-x="-9"
     inkscape:window-y="835"
     inkscape:window-maximized="1"
     inkscape:current-layer="Scissors--Streamline-Twemoji" /><desc
     id="desc1">
    Scissors Streamline Emoji: https://streamlinehq.com
  </desc><path
     fill="#dd2e44"
     d="m 34.199357,44.575061 c 1.695057,3.771611 3.690521,7.491519 5.575329,11.533969 0.05151,0.125347 0.09396,0.25433 0.151102,0.379502 0.117918,0.261587 0.252337,0.510475 0.383131,0.760998 l 0.09596,0.204443 0.0037,-0.0055 c 3.018009,5.508944 9.383723,8.036834 14.69547,5.650803 5.612336,-2.518641 7.915285,-9.566079 5.14068,-15.738416 -2.772969,-6.174149 -9.569886,-9.133062 -15.182041,-6.612606 -0.195368,0.08653 -0.377688,0.193387 -0.56381,0.292969 -3.56517,-0.807074 -3.674013,-3.458323 -3.674013,-3.458323 0,0 -8.508482,2.80236 -6.625488,6.992111 z m 21.980773,4.609886 c 1.765079,3.929978 0.464216,8.340862 -2.901952,9.851793 -3.364353,1.514557 -7.524716,-0.445896 -9.289796,-4.37406 -1.76508,-3.928163 -0.466031,-8.339047 2.898322,-9.849796 3.367982,-1.512743 7.53016,0.4439 9.293426,4.372063 z"
     stroke-width="1.81408"
     id="path1"
     style="fill:#999999;fill-opacity:1" /><path
     fill="#99aab5"
     d="M 15.457586,2.935605e-7 C 13.31482,1.2105228 11.428198,4.558368 12.640535,6.7029478 L 34.295138,44.788757 c 2.03229,-0.913741 5.413154,-4.261588 6.529707,-7.207619 z"
     stroke-width="1.81408"
     id="path2"
     style="fill:#d4dade;fill-opacity:1" /><path
     fill="#dd2e44"
     d="M 8.8946832,63.10132 C 14.204798,65.487171 20.572325,62.959279 23.590376,57.450346 l 0.0055,0.0057 0.09777,-0.206441 c 0.130735,-0.248716 0.266963,-0.497424 0.383063,-0.75901 0.05533,-0.125347 0.09778,-0.252518 0.149306,-0.379684 1.884807,-4.042267 3.882087,-7.762357 5.57533,-11.533786 1.881177,-4.189933 -6.627303,-6.994107 -6.627303,-6.994107 0,0 -0.108837,2.651249 -3.6722,3.458323 -0.187939,-0.09959 -0.368435,-0.204445 -0.565623,-0.29297 C 13.325894,38.22793 6.5307912,41.186843 3.754193,47.360992 0.9813948,53.533329 3.2843419,60.580767 8.8946832,63.101402 Z M 7.8187648,49.184947 c 1.766894,-3.928163 5.9254432,-5.884806 9.2934252,-4.372245 3.364353,1.510931 4.663221,5.921815 2.896327,9.849978 -1.761451,3.928164 -5.921633,5.886623 -9.287983,4.37406 C 7.3543647,57.525809 6.0554993,53.114925 7.8187648,49.184947 Z"
     stroke-width="1.81408"
     id="path3"
     style="fill:#8d8d8d;fill-opacity:1" /><path
     fill="#ccd6dd"
     d="M 48.541127,2.935605e-7 C 50.684074,1.2105228 52.570695,4.558368 51.35836,6.7029478 L 29.703754,44.788939 c -2.03229,-0.913923 -5.413333,-4.26177 -6.529886,-7.207801 z"
     stroke-width="1.81408"
     id="path4"
     style="fill:#eff2f5;fill-opacity:1" /><path
     fill="#99aab5"
     d="m 29.121442,32.19175 c 0,-1.590025 1.29161,-2.877825 2.878004,-2.877825 1.590023,0 2.878007,1.2878 2.878007,2.877825 0,1.590023 -1.287984,2.878004 -2.878007,2.878004 -1.588208,0 -2.878004,-1.287981 -2.878004,-2.878004 z"
     stroke-width="1.81408"
     id="path5"
     style="fill:#d3dadf;fill-opacity:1" /></svg>
