<?xml version="1.0" encoding="UTF-8" standalone="no"?>
<svg
   width="200"
   height="200"
   viewBox="0 0 200 200"
   version="1.1"
   id="svg5"
   sodipodi:docname="color.svg"
   xml:space="preserve"
   inkscape:version="1.4.2 (f4327f4, 2025-05-13)"
   xmlns:inkscape="http://www.inkscape.org/namespaces/inkscape"
   xmlns:sodipodi="http://sodipodi.sourceforge.net/DTD/sodipodi-0.dtd"
   xmlns:xlink="http://www.w3.org/1999/xlink"
   xmlns="http://www.w3.org/2000/svg"
   xmlns:svg="http://www.w3.org/2000/svg"><defs
     id="defs5"><linearGradient
       id="linearGradient7"
       inkscape:collect="always"><stop
         style="stop-color:#e29600;stop-opacity:1;"
         offset="0"
         id="stop7" /><stop
         style="stop-color:#ffc044;stop-opacity:0;"
         offset="1"
         id="stop8" /></linearGradient><linearGradient
       id="linearGradient5"
       inkscape:collect="always"><stop
         style="stop-color:#eeb95f;stop-opacity:1;"
         offset="0"
         id="stop5" /><stop
         style="stop-color:#f8e1bb;stop-opacity:1;"
         offset="1"
         id="stop6" /></linearGradient><linearGradient
       inkscape:collect="always"
       xlink:href="#linearGradient5"
       id="linearGradient6"
       x1="171.60843"
       y1="39.288055"
       x2="68.477684"
       y2="173.82388"
       gradientUnits="userSpaceOnUse"
       gradientTransform="rotate(95,99.933263,99.751416)" /><linearGradient
       inkscape:collect="always"
       xlink:href="#linearGradient7"
       id="linearGradient8"
       x1="69.418541"
       y1="167.02734"
       x2="168.4362"
       y2="85.394165"
       gradientUnits="userSpaceOnUse" /><filter
       inkscape:collect="always"
       style="color-interpolation-filters:sRGB"
       id="filter10"
       x="-0.046718045"
       y="-0.047227295"
       width="1.0934361"
       height="1.0944546"><feGaussianBlur
         inkscape:collect="always"
         stdDeviation="3.5924383"
         id="feGaussianBlur10" /></filter></defs><sodipodi:namedview
     id="namedview5"
     pagecolor="#ffffff"
     bordercolor="#000000"
     borderopacity="0.25"
     inkscape:showpageshadow="2"
     inkscape:pageopacity="0.0"
     inkscape:pagecheckerboard="0"
     inkscape:deskcolor="#d1d1d1"
     inkscape:zoom="2.0725"
     inkscape:cx="88.057901"
     inkscape:cy="190.34982"
     inkscape:window-width="1920"
     inkscape:window-height="1046"
     inkscape:window-x="-11"
     inkscape:window-y="-11"
     inkscape:window-maximized="1"
     inkscape:current-layer="svg5" /><path
     style="baseline-shift:baseline;display:inline;overflow:visible;opacity:1;vector-effect:none;fill:#333333;enable-background:accumulate;stop-color:#000000;stop-opacity:1;filter:url(#filter10)"
     d="m 96.146457,8.1993121 c -3.14743,-0.00239 -6.3112,0.1346635 -9.48242,0.4121094 C 35.791707,13.062174 3.5657071,56.999569 7.5781071,102.86142 c 1.13592,12.98374 7.2206999,21.98002 15.1328099,26.09375 7.9121,4.11372 17.55822,3.23187 25.1543,-2.85156 2.18023,-1.74608 4.11231,-4.56242 6.32617,-7.75977 2.21385,-3.19734 4.61954,-6.75877 7.20312,-9.7832 2.58358,-3.02443 5.34897,-5.46587 8.07227,-6.57031 2.72329,-1.10445 5.34478,-1.10732 8.67187,0.95898 3.2394,2.01185 4.34421,4.60257 4.45508,8.11524 0.11088,3.51266 -1.03071,7.84856 -2.67773,12.28515 -1.64703,4.4366 -3.76712,8.97283 -5.45118,13.08984 -1.68405,4.11702 -3.04464,7.72545 -2.75781,11.00391 2.69214,30.77135 25.01546,44.99043 45.935553,43.16016 C 163.50441,186.59122 196.18,147.44269 191.31248,91.806734 186.72938,39.42161 143.35806,8.235188 96.146457,8.1993121 Z"
     id="path1-1-8"
     sodipodi:nodetypes="ssssssssssssssss" /><!-- Palette Base --><!-- Thumb Hole --><!-- Paint Colors --><!-- Red --><!-- Blue --><!-- Green --><!-- Yellow --><g
     id="g9"
     transform="rotate(-10,99.835372,99.905613)"><path
       d="M 189.33733,107.64025 C 194.1309,52.849542 152.35259,14.060719 102.54285,9.702932 52.733117,5.3451448 14.380073,42.142482 10.458064,86.971243 8.2791707,111.87611 27.331507,123.58117 43.145985,114.92656 51.053224,110.59926 70.639551,86.667807 79.27462,97.645971 87.909689,108.62413 66.743517,132.04838 65.871959,142.01032 c -2.614673,29.88584 16.001886,46.57188 35.925781,48.31499 44.82876,3.92201 82.74603,-27.89435 87.53959,-82.68506 z"
       fill="#f5d6a1"
       stroke="#333333"
       stroke-width="4"
       id="path1"
       style="fill:url(#linearGradient6);stroke:none"
       sodipodi:nodetypes="sssszsss" /><path
       d="m 189.33748,107.63923 c 2.39678,-27.395355 -32.56695,25.78082 -48.63855,8.69005 C 124.62733,99.238514 120.62416,80.117887 95.719292,77.938994 70.814427,75.760101 55.597442,15.632904 39.292714,29.89111 22.987986,44.149316 12.419223,64.555841 10.458218,86.970221 8.279324,111.87509 27.331661,123.58015 43.146139,114.92554 51.053378,110.59824 68.567809,87.806886 79.27462,97.645971 89.981431,107.48506 66.743671,132.04736 65.872113,142.0093 c -2.614673,29.88584 16.001886,46.57188 35.925777,48.31499 44.82876,3.92201 82.74602,-27.89435 87.53959,-82.68506 z"
       fill="#f5d6a1"
       stroke="#333333"
       stroke-width="4"
       id="path1-8"
       style="fill:url(#linearGradient8);fill-opacity:1;stroke:none"
       sodipodi:nodetypes="sssssszsss" /><circle
       cx="103.62389"
       cy="-165.30229"
       r="15"
       fill="#43a047"
       id="circle4"
       transform="rotate(95)" /><circle
       cx="140.72881"
       cy="-112.99831"
       r="18"
       fill="#ffffff"
       stroke="#333333"
       stroke-width="3"
       id="circle1"
       transform="rotate(95)" /><circle
       cx="39.714989"
       cy="-70.223358"
       r="15"
       fill="#e53935"
       id="circle2"
       transform="rotate(95)" /><circle
       cx="32.250469"
       cy="-115.64793"
       r="15"
       fill="#1e88e5"
       id="circle3"
       transform="rotate(95)" /><circle
       cx="56.753448"
       cy="-158.98759"
       r="15"
       fill="#fdd835"
       id="circle5"
       style="fill:#f2b60f;fill-opacity:1"
       transform="rotate(95)" /><path
       d="M 189.33733,107.64025 C 194.1309,52.849542 152.35259,14.060719 102.54285,9.702932 52.733117,5.3451448 14.380073,42.142482 10.458064,86.971243 8.2791707,111.87611 27.331507,123.58117 43.145985,114.92656 51.053224,110.59926 66.014514,85.772354 79.27462,97.645971 92.534727,109.51959 66.743517,132.04838 65.871959,142.01032 c -2.614673,29.88584 16.001886,46.57188 35.925781,48.31499 44.82876,3.92201 82.74603,-27.89435 87.53959,-82.68506 z"
       fill="#f5d6a1"
       stroke="#333333"
       stroke-width="4"
       id="path1-1"
       style="fill:none"
       sodipodi:nodetypes="sssszsss" /></g></svg>
